<?xml version="1.0" standalone="no"?>
<!DOCTYPE svg PUBLIC "-//W3C//DTD SVG 1.1//EN" "http://www.w3.org/Graphics/SVG/1.1/DTD/svg11.dtd" >
<svg xmlns="http://www.w3.org/2000/svg" xmlns:xlink="http://www.w3.org/1999/xlink" version="1.1">
<metadata>
Created by FontForge 20170731 at Fri Apr  3 18:32:33 2015
 By Aleksey,,,
Copyright (c) 2015 by Jakob Runge, under exclusive license to type me! fonts. All rights reserved.
</metadata>
<defs>
<font id="CeraGR-BoldItalic" horiz-adv-x="560" >
  <font-face 
    font-family="CeraGR-BoldItalic"
    font-weight="400"
    font-style="italic"
    font-stretch="normal"
    units-per-em="1000"
    panose-1="0 0 8 0 0 0 0 0 0 0"
    ascent="799"
    descent="-201"
    x-height="485"
    cap-height="660"
    bbox="-153 -245 1386 903"
    underline-thickness="50"
    underline-position="-150"
    slope="-10"
    unicode-range="U+0020-F8FF"
  />
<missing-glyph horiz-adv-x="713" 
d="M150 660h561l-116 -660h-561zM516 77l88 499h-378z" />
    <glyph glyph-name=".notdef" horiz-adv-x="713" 
d="M150 660h561l-116 -660h-561zM516 77l88 499h-378z" />
    <glyph glyph-name=".null" horiz-adv-x="0" 
 />
    <glyph glyph-name="nonmarkingreturn" horiz-adv-x="333" 
 />
    <glyph glyph-name="space" unicode=" " horiz-adv-x="280" 
 />
    <glyph glyph-name="exclam" unicode="!" horiz-adv-x="347" 
d="M329 660l-101 -418h-110l47 418h164zM146 174q39 0 65.5 -27t26.5 -66q0 -40 -26 -66.5t-66 -26.5t-67 26.5t-27 66.5q0 39 27 66t67 27z" />
    <glyph glyph-name="quotedbl" unicode="&#x22;" horiz-adv-x="539" 
d="M317 660l-102 -278h-106l53 278h155zM554 660l-102 -278h-106l53 278h155z" />
    <glyph glyph-name="numbersign" unicode="#" horiz-adv-x="606" 
d="M607 381h-95l-18 -102h95l-20 -113h-95l-29 -166h-110l29 166h-148l-30 -166h-110l30 166h-94l20 113h94l18 102h-94l20 113h94l29 166h110l-29 -166h148l29 166h110l-29 -166h94zM235 273h148l20 114h-148z" />
    <glyph glyph-name="dollar" unicode="$" horiz-adv-x="538" 
d="M360 368q121 -61 121 -158q0 -68 -49 -124t-138 -64l-21 -119h-118l23 132q-97 33 -149 134l99 63q59 -91 143 -91q34 0 55 15t21 41q0 21 -15.5 37t-48.5 33l-60 31q-119 61 -119 159q0 70 49.5 119.5t130.5 57.5l21 115h118l-23 -129q69 -27 114 -104l-100 -67
q-43 66 -108 66q-35 0 -51.5 -14.5t-16.5 -36.5q0 -20 14 -34.5t43 -28.5z" />
    <glyph glyph-name="percent" unicode="%" horiz-adv-x="831" 
d="M264 671q68 0 114.5 -46.5t46.5 -111.5q0 -70 -51 -119.5t-122 -49.5q-69 0 -115 46.5t-46 112.5q0 69 51 118.5t122 49.5zM752 660l-531 -660h-109l531 660h109zM261 578q-31 0 -50.5 -21t-19.5 -52q0 -30 18 -49.5t48 -19.5q31 0 49.5 21t18.5 53q0 29 -17.5 48.5
t-46.5 19.5zM612 316q68 0 114.5 -46t46.5 -112q0 -70 -51.5 -119.5t-122.5 -49.5q-68 0 -114 47t-46 112q0 70 51 119t122 49zM609 224q-31 0 -50.5 -21t-19.5 -52t18 -50t48 -19q31 0 49.5 21t18.5 53q0 29 -17.5 48.5t-46.5 19.5z" />
    <glyph glyph-name="ampersand" unicode="&#x26;" horiz-adv-x="675" 
d="M651 278q-112 -126 -137 -151l81 -127h-147l-29 45q-85 -57 -172 -57t-149.5 46.5t-62.5 128.5q0 62 41 111.5t128 102.5q-43 69 -43 124q0 65 48 118t135 53q72 0 116 -39.5t44 -100.5q0 -50 -33.5 -93.5t-99.5 -87.5l77 -120q48 51 114 128zM338 557q-23 0 -36.5 -14
t-13.5 -37q0 -27 27 -68q33 21 48.5 39t15.5 40q0 40 -41 40zM254 106q45 0 100 39l-91 141q-48 -30 -69.5 -52t-21.5 -53q0 -33 23 -54t59 -21z" />
    <glyph glyph-name="quotesingle" unicode="'" horiz-adv-x="302" 
d="M317 660l-102 -278h-106l53 278h155z" />
    <glyph glyph-name="parenleft" unicode="(" horiz-adv-x="368" 
d="M377 738l40 -83q-60 -30 -105.5 -81.5t-71 -113.5t-38 -127t-12.5 -131q0 -99 26.5 -158.5t74.5 -102.5l-65 -74q-71 43 -112 127.5t-41 207.5q0 79 18 160t53 157t95.5 135t137.5 84z" />
    <glyph glyph-name="parenright" unicode=")" horiz-adv-x="367" 
d="M164 738q70 -43 111 -127t41 -207q0 -79 -18 -160t-53 -157t-95.5 -135t-137.5 -85l-40 84q79 38 132 116t74 162.5t21 174.5q0 99 -26 159t-75 102z" />
    <glyph glyph-name="asterisk" unicode="*" horiz-adv-x="467" 
d="M490 580l-102 -51l78 -82l-49 -59l-94 62l-33 -108l-75 13l7 114l-111 -27l-27 73l101 50l-78 83l50 58l95 -62l33 109l75 -14l-6 -113l109 26z" />
    <glyph glyph-name="plus" unicode="+" 
d="M401 553l-31 -176h170l-20 -114h-170l-32 -178h-128l32 178h-173l20 114h172l32 176h128z" />
    <glyph glyph-name="comma" unicode="," horiz-adv-x="270" 
d="M200 123l-106 -301h-107l59 301h154z" />
    <glyph glyph-name="hyphen" unicode="-" horiz-adv-x="340" 
d="M320 377l-20 -113h-250l20 113h250z" />
    <glyph glyph-name="period" unicode="." horiz-adv-x="270" 
d="M108 174q39 0 65.5 -27t26.5 -66q0 -40 -26.5 -66.5t-65.5 -26.5q-40 0 -67 26.5t-27 66.5q0 39 27 66t67 27z" />
    <glyph glyph-name="slash" unicode="/" horiz-adv-x="667" 
d="M759 780l-676 -901h-144l675 901h145z" />
    <glyph glyph-name="zero" unicode="0" horiz-adv-x="659" 
d="M347 549q116 0 196.5 -76.5t80.5 -190.5q0 -122 -90.5 -208t-214.5 -86q-116 0 -195.5 76.5t-79.5 190.5q0 122 90 208t213 86zM344 427q-68 0 -115 -50t-47 -120q0 -63 39 -104.5t102 -41.5q68 0 115.5 48t47.5 119q0 64 -40.5 106.5t-101.5 42.5z" />
    <glyph glyph-name="one" unicode="1" horiz-adv-x="516" 
d="M399 537l-75 -423h131l-20 -114h-407l20 114h141l54 302h-132l21 121h267z" />
    <glyph glyph-name="two" unicode="2" horiz-adv-x="581" 
d="M338 121l-11 -8h180l-20 -113h-489l5 29l234 154q81 52 118 87.5t37 78.5q0 34 -23 55t-63 21q-51 0 -73.5 -31.5t-22.5 -72.5q0 -15 1 -25h-130q-6 24 -6 44q0 82 67.5 145.5t170.5 63.5q95 0 156 -54.5t61 -133.5q0 -68 -48.5 -123t-143.5 -117z" />
    <glyph glyph-name="three" unicode="3" horiz-adv-x="537" 
d="M529 537l-6 -36l-182 -211q55 -22 90 -71t35 -113q0 -93 -69.5 -166t-190.5 -73q-95 0 -156 47t-84 122l105 58q23 -52 55 -78t81 -26q56 0 88 31.5t32 76.5q0 44 -33 68.5t-92 24.5h-75l6 35l165 191h-216l22 120h425z" />
    <glyph glyph-name="four" unicode="4" horiz-adv-x="576" 
d="M541 113l-20 -113h-84l-21 -121h-134l21 121h-329l7 36l280 501h145l-241 -424h158l32 187h134l-32 -187h84z" />
    <glyph glyph-name="five" unicode="5" horiz-adv-x="553" 
d="M497 418h-252l-20 -118q28 5 51 5q85 0 146 -52.5t61 -142.5q0 -98 -69.5 -170.5t-192.5 -72.5q-96 0 -160 47t-88 122l106 58q47 -104 142 -104q58 0 90.5 31t32.5 77q0 44 -31 68t-91 24h-147l60 347h383z" />
    <glyph glyph-name="six" unicode="6" horiz-adv-x="563" 
d="M320 446q82 -2 142 -62t60 -151q0 -104 -77 -174t-179 -70q-97 0 -164.5 63.5t-67.5 162.5q0 60 27 108t87 117l190 220h168zM272 111q49 0 83 33.5t34 85.5q0 47 -29 76.5t-76 29.5q-49 0 -83 -33.5t-34 -83.5q0 -47 29 -77.5t76 -30.5z" />
    <glyph glyph-name="seven" unicode="7" horiz-adv-x="525" 
d="M90 537h464l-7 -36l-404 -622h-154l359 539h-279z" />
    <glyph glyph-name="eight" unicode="8" horiz-adv-x="588" 
d="M433 329q100 -55 100 -142q0 -75 -63 -136.5t-180 -61.5q-44 0 -87 10t-82 30t-63 56.5t-24 84.5q0 62 42.5 111.5t123.5 71.5q-72 54 -72 130q0 75 57.5 131.5t163.5 56.5q89 0 153.5 -42t64.5 -126q0 -116 -134 -174zM348 562q-43 0 -68.5 -21.5t-25.5 -55.5
q0 -25 16.5 -44.5t55.5 -44.5q55 18 84 39.5t29 55.5q0 32 -25.5 51.5t-65.5 19.5zM283 100q58 0 87 25.5t29 60.5q0 31 -23 53.5t-70 46.5q-71 -18 -103.5 -42.5t-32.5 -61.5t29.5 -59.5t83.5 -22.5z" />
    <glyph glyph-name="nine" unicode="9" horiz-adv-x="562" 
d="M307 549q96 0 163.5 -63.5t67.5 -162.5q0 -60 -26.5 -107t-86.5 -118l-190 -219h-167l185 214q-82 2 -142 61.5t-60 151.5q0 103 77 173t179 70zM288 202q50 0 84 33.5t34 84.5q0 47 -29.5 77t-75.5 30q-49 0 -83 -33.5t-34 -85.5q0 -47 29 -76.5t75 -29.5z" />
    <glyph glyph-name="colon" unicode=":" horiz-adv-x="270" 
d="M166 504q40 0 66 -26.5t26 -66.5t-26 -66t-66 -26q-41 0 -67.5 26t-26.5 66t27 66.5t67 26.5zM108 174q39 0 65.5 -27t26.5 -66q0 -40 -26.5 -66.5t-65.5 -26.5q-40 0 -67 26.5t-27 66.5q0 39 27 66t67 27z" />
    <glyph glyph-name="semicolon" unicode=";" horiz-adv-x="270" 
d="M166 504q40 0 66 -26.5t26 -66.5t-26 -66t-66 -26q-41 0 -67.5 26t-26.5 66t27 66.5t67 26.5zM200 123l-106 -301h-107l59 301h154z" />
    <glyph glyph-name="less" unicode="&#x3c;" 
d="M554 545l-21 -123l-268 -106l231 -107l-20 -112l-428 206l6 36z" />
    <glyph glyph-name="equal" unicode="=" 
d="M549 485l-20 -114h-452l21 114h451zM511 270l-20 -114h-451l19 114h452z" />
    <glyph glyph-name="greater" unicode="&#x3e;" 
d="M112 544l429 -205l-7 -37l-500 -205l21 124l270 105l-232 109z" />
    <glyph glyph-name="question" unicode="?" horiz-adv-x="452" 
d="M283 672q77 0 129 -41t52 -114q0 -55 -29 -93t-82 -77q-52 -39 -67 -61q-13 -20 -20 -43h-111q1 47 19.5 84t68.5 73q45 33 62.5 52t17.5 45q0 25 -15.5 38t-39.5 13q-49 0 -90 -67l-101 59q70 132 206 132zM195 174q40 0 66.5 -27t26.5 -66q0 -40 -26.5 -66.5
t-66.5 -26.5q-39 0 -66 26.5t-27 66.5q0 39 26.5 66t66.5 27z" />
    <glyph glyph-name="at" unicode="@" horiz-adv-x="955" 
d="M520 665q186 0 294 -104t108 -253q0 -124 -78 -203t-231 -79h-68l8 51q-47 -56 -127 -56q-81 0 -130 58t-49 139q0 41 13.5 81t39 75.5t68.5 57.5t97 22q99 0 140 -68l10 58h111l-56 -316q67 2 105.5 48.5t38.5 128.5q0 115 -76.5 185.5t-218.5 70.5q-76 0 -139 -21.5
t-105 -57t-71 -81.5t-42 -93.5t-13 -95.5q0 -129 92 -211t231 -82q49 0 101 10l10 -93q-53 -20 -128 -20q-180 0 -297.5 112t-117.5 278q0 83 32 163.5t90.5 147t152 107.5t205.5 41zM467 131q47 0 78 35.5t31 82.5q0 44 -26.5 69t-66.5 25q-45 0 -76.5 -33t-31.5 -81
q0 -42 25 -70t67 -28z" />
    <glyph glyph-name="A" unicode="A" horiz-adv-x="661" 
d="M467 0l-23 86h-266l-52 -86h-153l413 672h45l176 -672h-140zM416 197l-47 218l-123 -218h170z" />
    <glyph glyph-name="B" unicode="B" horiz-adv-x="620" 
d="M490 346q86 -48 86 -148q0 -88 -67 -143t-170 -55h-305l116 660h214q89 0 142 -49t53 -127q0 -88 -69 -138zM344 545h-84l-26 -152h97q43 0 68 22.5t25 59.5q0 32 -20.5 51t-59.5 19zM338 116q48 0 76 22.5t28 63.5q0 37 -23 58t-64 21h-141l-29 -165h153z" />
    <glyph glyph-name="C" unicode="C" horiz-adv-x="720" 
d="M433 672q99 0 173.5 -47t112.5 -131l-110 -66q-59 119 -184 119q-98 0 -164 -67t-66 -167q0 -89 54.5 -144.5t142.5 -55.5q114 0 194 102l95 -76q-52 -72 -129.5 -111.5t-169.5 -39.5q-143 0 -234.5 90.5t-91.5 228.5q0 152 111 258.5t266 106.5z" />
    <glyph glyph-name="D" unicode="D" horiz-adv-x="694" 
d="M336 660q149 0 241 -86.5t92 -219.5q0 -63 -22 -122.5t-66.5 -113t-123 -86t-179.5 -32.5h-244l116 660h186zM287 122q113 0 178.5 64t65.5 161q0 88 -55.5 139.5t-149.5 51.5h-63l-73 -417z" />
    <glyph glyph-name="E" unicode="E" horiz-adv-x="573" 
d="M594 660l-21 -122h-310l-24 -134h228l-20 -115h-228l-29 -167h321l-21 -122h-456l116 660h444z" />
    <glyph glyph-name="F" unicode="F" horiz-adv-x="535" 
d="M584 660l-22 -122h-299l-30 -165h246l-21 -122h-245l-44 -251h-135l116 660h434z" />
    <glyph glyph-name="G" unicode="G" horiz-adv-x="750" 
d="M414 362h317l-38 -215q-49 -72 -131 -115.5t-179 -43.5q-143 0 -235 90.5t-92 228.5q0 152 110.5 258.5t267.5 106.5q92 0 162.5 -40.5t112.5 -116.5l-102 -75q-65 107 -181 107q-99 0 -165 -67t-66 -168q0 -91 54.5 -146.5t144.5 -55.5q102 0 169 70l12 65h-182z" />
    <glyph glyph-name="H" unicode="H" horiz-adv-x="713" 
d="M712 660l-116 -660h-135l49 285h-292l-49 -285h-135l116 660h135l-44 -253h292l44 253h135z" />
    <glyph glyph-name="I" unicode="I" horiz-adv-x="286" 
d="M285 660l-116 -660h-135l116 660h135z" />
    <glyph glyph-name="J" unicode="J" horiz-adv-x="390" 
d="M388 660l-87 -495q-31 -177 -200 -177q-61 0 -125 22l20 112q48 -9 81 -9q41 0 63.5 17t30.5 60l82 470h135z" />
    <glyph glyph-name="K" unicode="K" horiz-adv-x="670" 
d="M699 660l-312 -324l229 -336h-151l-236 345l-60 -345h-135l116 660h135l-54 -307l296 307h172z" />
    <glyph glyph-name="L" unicode="L" horiz-adv-x="524" 
d="M285 660l-95 -538h289l-21 -122h-424l116 660h135z" />
    <glyph glyph-name="M" unicode="M" horiz-adv-x="798" 
d="M754 672h44l-118 -672h-135l60 340l-190 -196h-45l-137 220l-64 -364h-135l118 672h44l216 -358l341 357z" />
    <glyph glyph-name="N" unicode="N" horiz-adv-x="713" 
d="M577 660h135l-118 -672h-45l-309 418l-71 -406h-135l118 672h44l310 -413z" />
    <glyph glyph-name="O" unicode="O" horiz-adv-x="778" 
d="M431 672q141 0 232 -90.5t91 -228.5q0 -152 -110 -258.5t-265 -106.5q-140 0 -231.5 90.5t-91.5 228.5q0 152 110 258.5t265 106.5zM421 547q-96 0 -161 -67.5t-65 -166.5q0 -89 54 -144.5t139 -55.5q96 0 161.5 68t65.5 167q0 88 -54 143.5t-140 55.5z" />
    <glyph glyph-name="P" unicode="P" horiz-adv-x="599" 
d="M372 660q107 0 168.5 -54t61.5 -146q0 -103 -75.5 -165t-196.5 -62h-120l-41 -233h-135l116 660h222zM351 351q53 0 83 27.5t30 73.5q0 42 -24.5 65.5t-70.5 23.5h-105l-34 -190h121z" />
    <glyph glyph-name="Q" unicode="Q" horiz-adv-x="778" 
d="M923 -106h37l18 1l-18 -104q-38 -11 -99 -11q-46 0 -92 8t-104.5 29t-113 67t-94.5 112q-40 -8 -78 -8q-140 0 -231.5 90.5t-91.5 228.5q0 152 110 258.5t265 106.5q141 0 232 -90.5t91 -228.5q0 -97 -48 -179t-129 -131q64 -90 146.5 -119.5t199.5 -29.5zM195 313
q0 -89 54 -144.5t139 -55.5q96 0 161.5 68t65.5 167q0 88 -54 143.5t-140 55.5q-96 0 -161 -67.5t-65 -166.5z" />
    <glyph glyph-name="R" unicode="R" horiz-adv-x="640" 
d="M602 463q0 -73 -43 -128t-116 -82l148 -253h-147l-139 233h-95l-41 -233h-135l116 660h222q106 0 168 -54.5t62 -142.5zM264 541l-34 -189h121q53 0 83 27t30 73q0 42 -24.5 65.5t-70.5 23.5h-105z" />
    <glyph glyph-name="S" unicode="S" horiz-adv-x="559" 
d="M326 672q144 0 220 -131l-101 -66q-49 75 -126 75q-43 0 -63.5 -18.5t-20.5 -46.5q0 -26 16.5 -43t50.5 -36l72 -37q133 -67 133 -174q0 -81 -61 -144t-172 -63q-90 0 -155.5 44.5t-105.5 119.5l100 64q67 -106 166 -106q43 0 68 19.5t25 52.5q0 26 -18 45t-58 39l-68 36
q-129 66 -129 175q0 83 63 139t164 56z" />
    <glyph glyph-name="T" unicode="T" horiz-adv-x="587" 
d="M647 660l-22 -122h-211l-95 -538h-135l95 538h-212l22 122h558z" />
    <glyph glyph-name="U" unicode="U" horiz-adv-x="699" 
d="M704 660l-74 -420q-22 -121 -101.5 -186.5t-192.5 -65.5q-116 0 -190 66.5t-74 172.5q0 26 7 64l65 369h135l-66 -371q-6 -38 -6 -52q0 -55 38 -89.5t97 -34.5t101.5 36.5t53.5 99.5l72 411h135z" />
    <glyph glyph-name="V" unicode="V" horiz-adv-x="661" 
d="M566 660h154l-414 -672h-44l-176 672h141l101 -394z" />
    <glyph glyph-name="W" unicode="W" horiz-adv-x="1031" 
d="M924 660h153l-382 -672h-44l-106 414l-263 -414h-44l-146 672h138l80 -390l254 402h45l101 -396z" />
    <glyph glyph-name="X" unicode="X" horiz-adv-x="611" 
d="M659 660l-259 -337l157 -323h-143l-108 224l-172 -224h-164l276 350l-147 310h143l97 -212l156 212h164z" />
    <glyph glyph-name="Y" unicode="Y" horiz-adv-x="624" 
d="M676 660l-298 -404l-45 -256h-135l46 262l-158 398h136l108 -263l190 263h156z" />
    <glyph glyph-name="Z" unicode="Z" horiz-adv-x="588" 
d="M633 660l-6 -36l-419 -502h331l-21 -122h-540l6 36l416 502h-284l21 122h496z" />
    <glyph glyph-name="bracketleft" unicode="[" horiz-adv-x="359" 
d="M405 730l-19 -109h-113l-113 -642h113l-19 -109h-228l151 860h228z" />
    <glyph glyph-name="backslash" unicode="\" horiz-adv-x="671" 
d="M224 780l379 -901h-126l-379 901h126z" />
    <glyph glyph-name="bracketright" unicode="]" horiz-adv-x="359" 
d="M354 730l-151 -860h-228l18 108h113l114 643h-113l18 109h229z" />
    <glyph glyph-name="asciicircum" unicode="^" horiz-adv-x="535" 
d="M365 670l127 -394h-122l-59 190l-125 -190h-131l266 394h44z" />
    <glyph glyph-name="underscore" unicode="_" horiz-adv-x="500" 
d="M411 -65l-19 -106h-429l18 106h430z" />
    <glyph glyph-name="a" unicode="a" horiz-adv-x="629" 
d="M470 485h135l-85 -485h-126l9 51q-58 -63 -151 -63q-96 0 -155.5 67.5t-59.5 162.5q0 48 16.5 96t47.5 89.5t83.5 67.5t117.5 26q108 0 158 -68zM293 109q61 0 99 44t38 102q1 55 -33 88t-85 33q-58 0 -97 -42.5t-40 -101.5q-1 -53 32 -88t86 -35z" />
    <glyph glyph-name="b" unicode="b" horiz-adv-x="630" 
d="M378 497q96 0 156 -67.5t60 -163.5q0 -65 -27.5 -126.5t-90 -106.5t-147.5 -45q-110 0 -158 73l-11 -61h-134l131 750h135l-54 -306q56 53 140 53zM455 252q1 54 -32 89t-86 35q-60 0 -98.5 -44t-38.5 -101q-1 -55 33 -88.5t86 -33.5q57 0 96.5 42t39.5 101z" />
    <glyph glyph-name="c" unicode="c" horiz-adv-x="559" 
d="M319 496q75 0 131.5 -35.5t83.5 -95.5l-100 -66q-48 76 -120 76q-59 0 -99 -41.5t-40 -101.5q0 -54 34 -88.5t88 -34.5q71 0 122 65l86 -74q-77 -112 -216 -112q-108 0 -179.5 68t-71.5 172q0 112 82.5 190t198.5 78z" />
    <glyph glyph-name="d" unicode="d" horiz-adv-x="629" 
d="M517 750h135l-132 -750h-124l10 54q-58 -66 -154 -66t-155.5 67.5t-59.5 162.5q0 48 16.5 96t47.5 89.5t83.5 67.5t117.5 26q108 0 159 -69zM293 109q60 0 98.5 43.5t38.5 101.5q1 56 -33 89t-85 33q-58 0 -97 -42.5t-40 -101.5q-1 -53 32 -88t86 -35z" />
    <glyph glyph-name="e" unicode="e" horiz-adv-x="564" 
d="M532 287q0 -47 -17 -90h-343q20 -94 133 -94q72 0 140 46l49 -90q-90 -71 -201 -71q-112 0 -183.5 67.5t-71.5 171.5q0 112 80.5 190.5t193.5 78.5q98 0 159 -60t61 -149zM302 388q-44 0 -78.5 -26t-47.5 -71h227v2q0 45 -28.5 70t-72.5 25z" />
    <glyph glyph-name="f" unicode="f" horiz-adv-x="343" 
d="M369 641q-38 0 -58.5 -17.5t-27.5 -55.5l-15 -83h109l-20 -113h-109l-69 -396q-15 -84 -65.5 -126t-129.5 -42q-48 0 -97 18l19 109q36 -6 57 -6q38 0 58.5 17.5t27.5 55.5l65 370h-71l21 113h70l19 108q15 85 65.5 127t130.5 42q47 0 96 -18l-18 -109q-37 6 -58 6z" />
    <glyph glyph-name="g" unicode="g" horiz-adv-x="631" 
d="M471 485h135l-79 -453q-19 -111 -94.5 -167.5t-179.5 -56.5q-153 0 -251 112l80 89q77 -79 171 -79q56 0 93.5 26.5t46.5 79.5l4 24q-55 -46 -139 -46q-96 0 -158 61t-62 152q0 46 17 92.5t48 86.5t84 65.5t117 25.5q109 0 157 -70zM294 125q61 0 99 42t39 98
q0 52 -33.5 84.5t-84.5 32.5q-58 0 -98 -41.5t-40 -98.5q0 -50 32 -83.5t86 -33.5z" />
    <glyph glyph-name="h" unicode="h" horiz-adv-x="585" 
d="M365 497q76 0 123 -46t47 -120q0 -23 -6 -56l-48 -275h-135l47 271q4 15 4 31q0 36 -22.5 57t-60.5 21q-39 0 -67.5 -23t-35.5 -65l-51 -292h-134l131 750h135l-52 -296q53 43 125 43z" />
    <glyph glyph-name="i" unicode="i" horiz-adv-x="269" 
d="M212 759q36 0 61.5 -24t25.5 -60q0 -35 -25.5 -59t-61.5 -24t-61 24t-25 59q0 36 25 60t61 24zM245 485l-85 -485h-135l85 485h135z" />
    <glyph glyph-name="j" unicode="j" horiz-adv-x="270" 
d="M211 759q36 0 61.5 -24t25.5 -60q0 -35 -25.5 -59t-61.5 -24t-61 24t-25 59q0 36 25 60t61 24zM245 485l-89 -508q-14 -83 -64.5 -126t-128.5 -43q-49 0 -92 18l19 111q27 -6 51 -6q38 0 58 16.5t27 53.5l85 484h134z" />
    <glyph glyph-name="k" unicode="k" horiz-adv-x="558" 
d="M581 485l-223 -221l152 -264h-148l-154 273l-48 -273h-135l132 750h135l-83 -470l209 205h163z" />
    <glyph glyph-name="l" unicode="l" horiz-adv-x="269" 
d="M292 750l-132 -750h-135l132 750h135z" />
    <glyph glyph-name="m" unicode="m" horiz-adv-x="892" 
d="M672 497q79 0 124.5 -45.5t45.5 -120.5q0 -23 -6 -56l-48 -275h-134l47 269q4 26 4 33q0 37 -21.5 57.5t-58.5 20.5q-38 0 -65.5 -23t-34.5 -65l-51 -292h-134l47 270q4 24 4 32q0 37 -21.5 57.5t-58.5 20.5q-38 0 -65.5 -23t-34.5 -65l-51 -292h-134l84 485h124l-7 -43
q57 55 138 55q93 0 140 -69q67 69 167 69z" />
    <glyph glyph-name="n" unicode="n" horiz-adv-x="585" 
d="M366 497q75 0 122 -46t47 -120q0 -23 -6 -56l-48 -275h-135l47 266q4 20 4 36q0 37 -22.5 57.5t-60.5 20.5q-39 0 -67.5 -23t-35.5 -65l-51 -292h-134l84 485h124l-7 -43q57 55 139 55z" />
    <glyph glyph-name="o" unicode="o" horiz-adv-x="609" 
d="M318 497q108 0 181 -70t73 -174q0 -111 -84 -188t-198 -77q-108 0 -180 70t-72 173q0 111 83 188.5t197 77.5zM312 375q-57 0 -96 -41.5t-40 -100.5q-1 -54 33 -88.5t86 -34.5q58 0 98 40t41 99q1 55 -34 90.5t-88 35.5z" />
    <glyph glyph-name="p" unicode="p" horiz-adv-x="630" 
d="M378 497q96 0 156 -67.5t60 -163.5q0 -48 -16.5 -95.5t-48 -89t-84 -67.5t-116.5 -26q-109 0 -160 71l-41 -239h-135l117 665h124l-10 -55q58 67 154 67zM456 252q1 53 -32.5 88t-86.5 35q-60 0 -98.5 -43.5t-38.5 -101.5q-1 -54 33.5 -87.5t85.5 -33.5q58 0 97 42
t40 101z" />
    <glyph glyph-name="q" unicode="q" horiz-adv-x="629" 
d="M470 485h135l-117 -666h-135l40 221q-58 -52 -140 -52q-96 0 -156 68t-60 163q0 48 16.5 95.5t47.5 89t83.5 67.5t117.5 26q109 0 158 -72zM293 109q61 0 99 44t38 102q1 55 -33 88t-85 33q-58 0 -97 -42.5t-40 -101.5q-1 -53 32 -88t86 -35z" />
    <glyph glyph-name="r" unicode="r" horiz-adv-x="388" 
d="M355 491q30 0 58 -11l-21 -117q-29 4 -53 4q-115 0 -136 -120l-43 -247h-135l85 485h124l-8 -49q52 55 129 55z" />
    <glyph glyph-name="s" unicode="s" horiz-adv-x="456" 
d="M247 497q120 0 184 -86l-79 -75q-46 52 -105 52q-50 0 -50 -35q0 -13 10 -22t33 -21l44 -19q64 -28 95.5 -60.5t31.5 -81.5q0 -66 -51.5 -113.5t-141.5 -47.5q-71 0 -126 30t-87 81l84 74q31 -37 60.5 -56.5t68.5 -19.5q27 0 45.5 10.5t18.5 29.5q0 15 -10.5 24.5
t-35.5 21.5l-47 19q-60 27 -90.5 60.5t-30.5 85.5q0 69 50.5 109t128.5 40z" />
    <glyph glyph-name="t" unicode="t" horiz-adv-x="415" 
d="M251 372l-33 -182q-2 -16 -2 -23q0 -35 26 -48.5t77 -13.5q29 0 42 1l-20 -113q-32 -5 -60 -5q-38 0 -70 6.5t-63.5 22.5t-49.5 48t-18 77q0 20 5 48l32 182h-77l19 113h78l24 135h135l-25 -135h142l-19 -113h-143z" />
    <glyph glyph-name="u" unicode="u" horiz-adv-x="580" 
d="M560 485l-51 -293q-18 -98 -82.5 -151t-155.5 -53q-94 0 -154 54t-60 141q0 21 5 48l43 254h135l-47 -272q-2 -14 -2 -23q0 -36 24.5 -58t62.5 -22q36 0 63 21.5t35 62.5l50 291h134z" />
    <glyph glyph-name="v" unicode="v" horiz-adv-x="557" 
d="M431 485h151l-332 -497h-45l-158 497h137l77 -270z" />
    <glyph glyph-name="w" unicode="w" horiz-adv-x="856" 
d="M733 485h148l-316 -497h-45l-90 280l-194 -280h-45l-144 497h137l71 -280l188 291h44l86 -279z" />
    <glyph glyph-name="x" unicode="x" horiz-adv-x="530" 
d="M553 485l-211 -239l138 -246h-144l-83 156l-128 -156h-159l223 257l-127 228h144l73 -138l115 138h159z" />
    <glyph glyph-name="y" unicode="y" horiz-adv-x="596" 
d="M437 485h134l-81 -461q-18 -103 -86 -159.5t-164 -56.5q-66 0 -129 29t-105 83l81 89q77 -79 153 -79q99 0 116 98l6 29q-56 -41 -125 -41q-76 0 -123 46.5t-47 118.5q0 23 5 53l45 251h134l-44 -248q-3 -15 -3 -28q0 -35 23 -56t60 -21q39 0 67.5 22.5t35.5 63.5z" />
    <glyph glyph-name="z" unicode="z" horiz-adv-x="468" 
d="M492 485l-7 -36l-289 -335h234l-20 -114h-435l6 36l291 335h-211l20 114h411z" />
    <glyph glyph-name="braceleft" unicode="{" horiz-adv-x="411" 
d="M379 730h79l-18 -109h-57q-45 0 -62 -25.5t-17 -76.5v-91q0 -64 -18 -94.5t-74 -38.5q60 -11 60 -63q0 -30 -28.5 -106.5t-28.5 -101.5q0 -46 55 -46h56l-18 -108h-82q-57 0 -94.5 30t-37.5 87q0 42 28.5 118t28.5 97q0 36 -47 36h-63l21 115h66q37 0 50.5 18t13.5 59v99
q0 201 187 201z" />
    <glyph glyph-name="bar" unicode="|" horiz-adv-x="332" 
d="M238 780v-901h-112v901h112z" />
    <glyph glyph-name="braceright" unicode="}" horiz-adv-x="413" 
d="M328 353h63l-21 -114h-66q-38 0 -51 -19t-13 -61v-86q0 -203 -187 -203h-79l18 108h57q46 0 62 26t16 79v82q0 64 19 94t76 38q-62 12 -62 66q0 31 28 109t28 104q0 45 -54 45h-57l19 109h82q57 0 94.5 -30.5t37.5 -87.5q0 -42 -28.5 -122t-28.5 -101q0 -36 47 -36z" />
    <glyph glyph-name="asciitilde" unicode="~" 
d="M174 437q45 0 96 -34l77 -51q38 -26 57 -26q29 0 37 52h103q-5 -84 -39.5 -130t-92.5 -46q-45 0 -96 34l-77 51q-37 25 -56 25q-30 0 -38 -51h-103q6 84 40 130t92 46z" />
    <glyph glyph-name="cent" unicode="&#xa2;" horiz-adv-x="558" 
d="M311 189q77 0 127 65l86 -73q-73 -105 -204 -113l-29 -165h-118l32 182q-72 26 -115 86.5t-43 140.5q0 104 70.5 180t174.5 90l29 167h118l-30 -174q101 -29 144 -123l-99 -65q-48 76 -126 76q-61 0 -102 -42.5t-41 -104.5q0 -57 34.5 -92t91.5 -35z" />
    <glyph glyph-name="sterling" unicode="&#xa3;" horiz-adv-x="568" 
d="M306 227q-7 -64 -53 -113h247l-20 -114h-480l5 29q155 97 166 198h-123l20 115h85q-26 80 -26 118q0 83 59.5 147t167.5 64q91 0 150.5 -49.5t70.5 -150.5l-119 -30q-14 106 -98 106q-50 0 -74 -33t-24 -74q0 -29 28 -98h158l-20 -115h-120z" />
    <glyph glyph-name="currency" unicode="&#xa4;" horiz-adv-x="667" 
d="M615 344q0 -90 -57 -167l79 -90l-84 -78l-81 94q-60 -31 -129 -31q-81 0 -147 40l-103 -103l-77 84l100 99q-35 59 -35 123q0 88 55 163l-75 87l83 78l77 -89q60 34 131 34q83 0 149 -42l106 97l76 -83l-102 -95q34 -58 34 -121zM340 196q58 0 97.5 40.5t39.5 100.5
q0 55 -35 91t-88 36q-57 0 -96 -40.5t-39 -100.5q0 -55 34 -91t87 -36z" />
    <glyph glyph-name="yen" unicode="&#xa5;" horiz-adv-x="599" 
d="M669 660l-248 -285h151l-19 -109h-181l-11 -62h181l-19 -109h-181l-16 -95h-135l16 95h-179l18 109h180l11 62h-179l18 109h150l-147 285h141l110 -214l184 214h155z" />
    <glyph glyph-name="brokenbar" unicode="&#xa6;" horiz-adv-x="332" 
d="M238 780v-300h-112v300h112zM238 179v-300h-112v300h112z" />
    <glyph glyph-name="section" unicode="&#xa7;" horiz-adv-x="596" 
d="M442 378q116 -88 116 -169q0 -52 -36 -94.5t-101 -60.5q2 -18 2 -27q0 -64 -51 -113t-141 -49q-74 0 -123 34t-71 85l87 65q39 -71 109 -71q29 0 46 14t17 37q0 30 -55 73l-76 61q-117 87 -117 169q0 52 36.5 94.5t101.5 61.5q-2 16 -2 26q0 64 51 113t141 49
q74 0 123 -33.5t71 -85.5l-87 -64q-39 70 -109 70q-30 0 -46.5 -13.5t-16.5 -36.5q0 -18 12 -33.5t42 -39.5zM380 134q51 24 51 67q0 36 -64 87l-84 68q-34 25 -56 51q-51 -21 -51 -66q0 -37 63 -88l85 -67q31 -24 56 -52z" />
    <glyph glyph-name="dieresis" unicode="&#xa8;" horiz-adv-x="471" 
d="M188 753q34 0 57.5 -22.5t23.5 -55.5q0 -31 -24 -54t-57 -23q-31 0 -55.5 23.5t-24.5 53.5q0 33 24 55.5t56 22.5zM436 753q34 0 57.5 -22.5t23.5 -55.5q0 -31 -24 -54t-57 -23q-31 0 -55.5 23.5t-24.5 53.5q0 33 24 55.5t56 22.5z" />
    <glyph glyph-name="copyright" unicode="&#xa9;" horiz-adv-x="786" 
d="M426 672q141 0 237.5 -94.5t96.5 -231.5q0 -148 -109.5 -253t-258.5 -105q-141 0 -238 95t-97 232q0 147 110 252t259 105zM422 592q-114 0 -195.5 -80.5t-81.5 -195.5q0 -107 70.5 -177.5t181.5 -70.5q124 0 200 85.5t76 193.5q0 103 -71.5 174t-179.5 71zM421 515
q99 0 152 -86l-77 -57q-30 50 -80 50q-39 0 -64.5 -28.5t-25.5 -70.5q0 -37 22.5 -61t59.5 -24q44 0 79 42l66 -63q-64 -72 -151 -72q-78 0 -129 50t-51 125q0 82 59 138.5t140 56.5z" />
    <glyph glyph-name="guillemotleft" unicode="&#xab;" horiz-adv-x="597" 
d="M341 421l-162 -154l108 -151l-94 -71l-162 209l7 36l226 210zM598 421l-163 -154l109 -151l-94 -71l-162 209l7 36l226 210z" />
    <glyph glyph-name="logicalnot" unicode="&#xac;" 
d="M509 378l-48 -275h-127l28 160h-315l21 115h441z" />
    <glyph glyph-name="uni00AD" unicode="&#xad;" horiz-adv-x="340" 
d="M320 377l-20 -113h-250l20 113h250z" />
    <glyph glyph-name="registered" unicode="&#xae;" horiz-adv-x="581" 
d="M337 688q103 0 174 -71t71 -173q0 -110 -80.5 -189t-189.5 -79q-103 0 -174 71.5t-71 173.5q0 110 80.5 188.5t189.5 78.5zM316 239q90 0 145 63t55 143q0 76 -52 128t-130 52q-83 0 -142 -58.5t-59 -144.5q0 -79 51.5 -131t131.5 -52zM438 481q0 -52 -52 -79l51 -89h-78
l-44 75h-28l-13 -75h-70l44 251h101q39 0 64 -23.5t25 -59.5zM307 503l-9 -55h30q17 0 27.5 8t10.5 22q0 11 -8 18t-20 7h-31z" />
    <glyph glyph-name="degree" unicode="&#xb0;" horiz-adv-x="360" 
d="M234 671q64 0 108 -43t44 -105q0 -66 -48.5 -112.5t-114.5 -46.5q-64 0 -107.5 44t-43.5 106q0 65 47.5 111t114.5 46zM232 585q-31 0 -50.5 -20t-19.5 -49t18 -47.5t48 -18.5t49 20.5t19 49.5q0 28 -17.5 46.5t-46.5 18.5z" />
    <glyph glyph-name="plusminus" unicode="&#xb1;" 
d="M401 558l-24 -134h161l-19 -109h-161l-25 -141h-129l25 141h-162l20 109h162l23 134h129zM482 108l-19 -108h-451l19 108h451z" />
    <glyph glyph-name="uni00B2" unicode="&#xb2;" horiz-adv-x="384" 
d="M284 477l-28 -23h127l-17 -90l-310 -1l3 21l177 160q70 63 70 105q0 22 -12.5 34.5t-33.5 12.5q-53 0 -53 -71v-10h-100q-1 6 -1 15q0 63 41 110.5t117 47.5q66 0 105.5 -37.5t39.5 -94.5q0 -45 -28.5 -83.5t-96.5 -95.5z" />
    <glyph glyph-name="uni00B3" unicode="&#xb3;" horiz-adv-x="360" 
d="M413 780l-5 -27l-108 -130q31 -15 51 -45t20 -69q0 -59 -43.5 -106t-121.5 -47q-61 0 -101 31t-54 81l79 41q26 -61 77 -61q31 0 47 16t16 40q0 47 -69 47h-55l4 25l96 114h-123l17 90h273z" />
    <glyph glyph-name="uni00B5" unicode="&#xb5;" horiz-adv-x="610" 
d="M548 104q17 0 25 1l-20 -112q-28 -4 -52 -4q-78 0 -109 54q-53 -55 -127 -55q-62 0 -101 39l-36 -207h-135l117 665h135l-47 -269q-4 -22 -4 -31q0 -36 23.5 -57.5t61.5 -21.5t65.5 22.5t35.5 65.5l52 291h134l-55 -309q-4 -24 -4 -36q0 -36 41 -36z" />
    <glyph glyph-name="paragraph" unicode="&#xb6;" horiz-adv-x="672" 
d="M350 660v-443h-58q-107 0 -178 61.5t-71 161.5t70.5 160t178.5 60h58zM549 660v-663q0 -95 -51.5 -142t-146.5 -47q-47 0 -93 12v115q52 -4 64 -4q48 0 70.5 18t22.5 62v649h134z" />
    <glyph glyph-name="periodcentered" unicode="&#xb7;" horiz-adv-x="270" 
d="M150 413q39 0 65.5 -27t26.5 -66q0 -40 -26 -66.5t-66 -26.5t-66.5 26.5t-26.5 66.5q0 39 26.5 66t66.5 27z" />
    <glyph glyph-name="uni00B9" unicode="&#xb9;" horiz-adv-x="370" 
d="M339 780l-57 -326h86l-16 -90h-288l16 90h101l42 236h-93l16 90h193z" />
    <glyph glyph-name="guillemotright" unicode="&#xbb;" horiz-adv-x="597" 
d="M320 291l-6 -36l-227 -210l-76 80l162 153l-108 151l94 71zM415 500l162 -209l-7 -36l-226 -210l-77 80l162 154l-108 150z" />
    <glyph glyph-name="onequarter" unicode="&#xbc;" horiz-adv-x="952" 
d="M347 334l-16 -90h-288l16 90h101l42 236h-93l16 90h193l-57 -326h86zM710 660h112l-494 -660h-111zM925 150l-16 -86h-48l-11 -64h-93l11 64h-211l4 27l171 326h111l-141 -267h81l19 105h92l-18 -105h49z" />
    <glyph glyph-name="onehalf" unicode="&#xbd;" horiz-adv-x="987" 
d="M347 334l-16 -90h-288l16 90h101l42 236h-93l16 90h193l-57 -326h86zM710 660h112l-494 -660h-111zM822 113l-28 -23h127l-17 -90l-310 -1l3 21l177 160q70 63 70 105q0 22 -12.5 34.5t-33.5 12.5q-53 0 -53 -71v-10h-100q-1 6 -1 15q0 63 41 110.5t117 47.5
q66 0 105.5 -37.5t39.5 -94.5q0 -45 -28.5 -83.5t-96.5 -95.5z" />
    <glyph glyph-name="threequarters" unicode="&#xbe;" horiz-adv-x="907" 
d="M350 389q0 -59 -43.5 -106t-121.5 -47q-61 0 -101 31t-54 81l79 41q26 -61 77 -61q30 0 46.5 16t16.5 40q0 47 -69 47h-54h-1l4 25l97 114h-124l17 90h273l-5 -27l-108 -130q31 -15 51 -45t20 -69zM665 660h112l-494 -660h-111zM880 150l-16 -86h-48l-11 -64h-93l11 64
h-211l4 27l171 326h111l-141 -267h81l19 105h92l-18 -105h49z" />
    <glyph glyph-name="multiply" unicode="&#xd7;" 
d="M184 556l121 -154l172 135l70 -88l-174 -135l122 -157l-89 -69l-122 154l-173 -136l-69 90l173 135l-121 156z" />
    <glyph glyph-name="divide" unicode="&#xf7;" 
d="M328 584q34 0 58 -22t24 -54q0 -33 -24 -55.5t-58 -22.5q-33 0 -57 22.5t-24 55.5q0 32 24 54t57 22zM540 378l-21 -115h-471l21 115h471zM262 209q34 0 58 -22t24 -55q0 -32 -24 -54.5t-58 -22.5q-33 0 -57 22.5t-24 54.5q0 33 24 55t57 22z" />
    <glyph glyph-name="florin" unicode="&#x192;" horiz-adv-x="451" 
d="M437 672q47 0 90 -17l-20 -109q-30 3 -52 3q-37 0 -59.5 -14.5t-33.5 -53.5l-23 -75h92l-21 -113h-105l-78 -259q-51 -167 -204 -167q-50 0 -89 16l20 110q27 -4 52 -4q36 0 58.5 15t34.5 53l71 236h-73l20 113h87l29 99q51 167 204 167z" />
    <glyph glyph-name="uni030C" unicode="&#x30c;" horiz-adv-x="0" 
d="M60 750l-85 -204h-95l41 204h139z" />
    <glyph glyph-name="dieresistonos" unicode="&#x385;" horiz-adv-x="625" 
d="M492 780l-4 -24l-94 -185h-94l37 209h155zM198 753q34 0 57.5 -22.5t23.5 -55.5q0 -31 -24 -54t-57 -23q-31 0 -55.5 23.5t-24.5 53.5q0 33 24 55.5t56 22.5zM580 753q34 0 57.5 -22.5t23.5 -55.5q0 -31 -24 -54t-57 -23q-32 0 -56.5 23t-24.5 54q0 33 24.5 55.5
t56.5 22.5z" />
    <glyph glyph-name="Alphatonos" unicode="&#x386;" horiz-adv-x="661" 
d="M240 720l-85 -204h-95l41 204h139zM467 0l-23 86h-266l-52 -86h-153l413 672h45l176 -672h-140zM416 197l-47 218l-123 -218h170z" />
    <glyph glyph-name="Epsilontonos" unicode="&#x388;" horiz-adv-x="573" 
d="M116 720l-85 -204h-95l41 204h139zM594 660l-21 -122h-310l-24 -134h228l-20 -115h-228l-29 -167h321l-21 -122h-456l116 660h444z" />
    <glyph glyph-name="Etatonos" unicode="&#x389;" horiz-adv-x="713" 
d="M116 720l-85 -204h-95l41 204h139zM712 660l-116 -660h-135l49 285h-292l-49 -285h-135l116 660h135l-44 -253h292l44 253h135z" />
    <glyph glyph-name="Iotatonos" unicode="&#x38a;" horiz-adv-x="286" 
d="M116 720l-85 -204h-95l41 204h139zM285 660l-116 -660h-135l116 660h135z" />
    <glyph glyph-name="Omicrontonos" unicode="&#x38c;" horiz-adv-x="778" 
d="M149 720l-85 -204h-95l41 204h139zM431 672q141 0 232 -90.5t91 -228.5q0 -152 -110 -258.5t-265 -106.5q-140 0 -231.5 90.5t-91.5 228.5q0 152 110 258.5t265 106.5zM421 547q-96 0 -161 -67.5t-65 -166.5q0 -89 54 -144.5t139 -55.5q96 0 161.5 68t65.5 167
q0 88 -54 143.5t-140 55.5z" />
    <glyph glyph-name="Upsilontonos" unicode="&#x38e;" horiz-adv-x="624" 
d="M-127 516l41 204h139l-85 -204h-95zM676 660l-298 -404l-45 -256h-135l46 262l-158 398h136l108 -263l190 263h156z" />
    <glyph glyph-name="Omegatonos" unicode="&#x38f;" horiz-adv-x="788" 
d="M149 720l-85 -204h-95l41 204h139zM765 368q0 -154 -135 -246h86l-22 -122h-280l21 122q95 37 143 99t48 137q0 85 -56 137t-146 52q-103 0 -164 -66t-61 -159q0 -127 122 -200l-21 -122h-286l21 122h124q-98 91 -98 208q0 54 22 111.5t63.5 110t113 86.5t159.5 34
q148 0 247 -87.5t99 -216.5z" />
    <glyph glyph-name="iotadieresistonos" unicode="&#x390;" horiz-adv-x="313" 
d="M326 780l-4 -24l-94 -185h-94l37 209h155zM32 753q34 0 57.5 -22.5t23.5 -55.5q0 -31 -24 -54t-57 -23q-31 0 -55.5 23.5t-24.5 53.5q0 33 24 55.5t56 22.5zM414 753q34 0 57.5 -22.5t23.5 -55.5q0 -31 -24 -54t-57 -23q-32 0 -56.5 23t-24.5 54q0 33 24.5 55.5
t56.5 22.5zM243 485l-52 -298q-4 -24 -4 -34q0 -49 60 -49q6 0 15 0.5t10 0.5l-19 -112q-30 -4 -54 -4q-61 0 -106 31t-45 100q0 19 5 54l56 311h134z" />
    <glyph glyph-name="Alpha" unicode="&#x391;" horiz-adv-x="661" 
d="M467 0l-23 86h-266l-52 -86h-153l413 672h45l176 -672h-140zM416 197l-47 218l-123 -218h170z" />
    <glyph glyph-name="Beta" unicode="&#x392;" horiz-adv-x="620" 
d="M490 346q86 -48 86 -148q0 -88 -67 -143t-170 -55h-305l116 660h214q89 0 142 -49t53 -127q0 -88 -69 -138zM344 545h-84l-26 -152h97q43 0 68 22.5t25 59.5q0 32 -20.5 51t-59.5 19zM338 116q48 0 76 22.5t28 63.5q0 37 -23 58t-64 21h-141l-29 -165h153z" />
    <glyph glyph-name="Gamma" unicode="&#x393;" horiz-adv-x="524" 
d="M574 660l-21 -122h-290l-94 -538h-135l116 660h424z" />
    <glyph glyph-name="Delta" unicode="&#x394;" horiz-adv-x="661" 
d="M430 672l177 -672h-634l412 672h45zM435 122l-70 278l-169 -278h239z" />
    <glyph glyph-name="Epsilon" unicode="&#x395;" horiz-adv-x="573" 
d="M594 660l-21 -122h-310l-24 -134h228l-20 -115h-228l-29 -167h321l-21 -122h-456l116 660h444z" />
    <glyph glyph-name="Zeta" unicode="&#x396;" horiz-adv-x="588" 
d="M633 660l-6 -36l-419 -502h331l-21 -122h-540l6 36l416 502h-284l21 122h496z" />
    <glyph glyph-name="Eta" unicode="&#x397;" horiz-adv-x="713" 
d="M712 660l-116 -660h-135l49 285h-292l-49 -285h-135l116 660h135l-44 -253h292l44 253h135z" />
    <glyph glyph-name="Theta" unicode="&#x398;" horiz-adv-x="778" 
d="M431 672q141 0 232 -90.5t91 -228.5q0 -152 -110 -258.5t-265 -106.5q-140 0 -231.5 90.5t-91.5 228.5q0 152 110 258.5t265 106.5zM421 547q-96 0 -161 -67.5t-65 -166.5q0 -89 54 -144.5t139 -55.5q96 0 161.5 68t65.5 167q0 88 -54 143.5t-140 55.5zM535 392l-19 -111
h-241l19 111h241z" />
    <glyph glyph-name="Iota" unicode="&#x399;" horiz-adv-x="286" 
d="M285 660l-116 -660h-135l116 660h135z" />
    <glyph glyph-name="Kappa" unicode="&#x39a;" horiz-adv-x="670" 
d="M699 660l-312 -324l229 -336h-151l-236 345l-60 -345h-135l116 660h135l-54 -307l296 307h172z" />
    <glyph glyph-name="Lambda" unicode="&#x39b;" horiz-adv-x="661" 
d="M607 0h-140l-101 405l-240 -405h-153l412 672h45z" />
    <glyph glyph-name="Mu" unicode="&#x39c;" horiz-adv-x="798" 
d="M754 672h44l-118 -672h-135l60 340l-190 -196h-45l-137 220l-64 -364h-135l118 672h44l216 -358l341 357z" />
    <glyph glyph-name="Nu" unicode="&#x39d;" horiz-adv-x="713" 
d="M577 660h135l-118 -672h-45l-309 418l-71 -406h-135l118 672h44l310 -413z" />
    <glyph glyph-name="Xi" unicode="&#x39e;" horiz-adv-x="568" 
d="M601 660l-21 -122h-486l21 122h486zM544 405l-20 -117h-463l21 117h462zM506 122l-21 -122h-486l21 122h486z" />
    <glyph glyph-name="Omicron" unicode="&#x39f;" horiz-adv-x="778" 
d="M431 672q141 0 232 -90.5t91 -228.5q0 -152 -110 -258.5t-265 -106.5q-140 0 -231.5 90.5t-91.5 228.5q0 152 110 258.5t265 106.5zM421 547q-96 0 -161 -67.5t-65 -166.5q0 -89 54 -144.5t139 -55.5q96 0 161.5 68t65.5 167q0 88 -54 143.5t-140 55.5z" />
    <glyph glyph-name="Pi" unicode="&#x3a0;" horiz-adv-x="691" 
d="M689 660l-116 -660h-135l95 538h-270l-94 -538h-135l116 660h539z" />
    <glyph glyph-name="Rho" unicode="&#x3a1;" horiz-adv-x="599" 
d="M372 660q107 0 168.5 -54t61.5 -146q0 -103 -75.5 -165t-196.5 -62h-120l-41 -233h-135l116 660h222zM351 351q53 0 83 27.5t30 73.5q0 42 -24.5 65.5t-70.5 23.5h-105l-34 -190h121z" />
    <glyph glyph-name="Sigma" unicode="&#x3a3;" horiz-adv-x="561" 
d="M581 660l-21 -122h-267l102 -185l-5 -29l-162 -202h270l-21 -122h-493l5 29l253 326l-147 276l5 29h481z" />
    <glyph glyph-name="Tau" unicode="&#x3a4;" horiz-adv-x="588" 
d="M647 660l-22 -122h-211l-95 -538h-135l95 538h-212l22 122h558z" />
    <glyph glyph-name="Upsilon" unicode="&#x3a5;" horiz-adv-x="624" 
d="M676 660l-298 -404l-45 -256h-135l46 262l-158 398h136l108 -263l190 263h156z" />
    <glyph glyph-name="Phi" unicode="&#x3a6;" horiz-adv-x="842" 
d="M555 613q118 -5 191.5 -74.5t73.5 -179.5q0 -57 -21.5 -110.5t-63 -98.5t-112 -71t-158.5 -25h-8l-15 -86h-135l15 87q-118 5 -192 74t-74 180q0 57 21.5 110.5t63 98.5t111.5 71t159 25h9l14 79h135zM188 318q0 -69 41.5 -107t112.5 -40l58 327h-7q-92 0 -148.5 -49
t-56.5 -131zM482 170q92 0 149 49t57 131q0 69 -41 107t-112 40l-58 -327h5z" />
    <glyph glyph-name="Chi" unicode="&#x3a7;" horiz-adv-x="611" 
d="M659 660l-259 -337l157 -323h-143l-108 224l-172 -224h-164l276 350l-147 310h143l97 -212l156 212h164z" />
    <glyph glyph-name="Psi" unicode="&#x3a8;" horiz-adv-x="840" 
d="M860 660l-49 -275q-43 -240 -341 -240l-25 -145h-135l25 145q-114 0 -184 60t-70 162q0 27 5 56l42 237h136l-42 -236q-3 -20 -3 -37q0 -60 38 -91t99 -31l74 418h135l-73 -417q163 0 187 141l45 253h136z" />
    <glyph glyph-name="Omega" unicode="&#x3a9;" horiz-adv-x="788" 
d="M765 368q0 -154 -135 -246h86l-22 -122h-280l21 122q95 37 143 99t48 137q0 85 -56 137t-146 52q-103 0 -164 -66t-61 -159q0 -127 122 -200l-21 -122h-286l21 122h124q-98 91 -98 208q0 54 22 111.5t63.5 110t113 86.5t159.5 34q148 0 247 -87.5t99 -216.5z" />
    <glyph glyph-name="Iotadieresis" unicode="&#x3aa;" horiz-adv-x="286" 
d="M116 892q33 0 57 -22.5t24 -55.5q0 -31 -24 -54t-57 -23q-32 0 -56.5 23t-24.5 54q0 33 24.5 55.5t56.5 22.5zM380 892q34 0 57.5 -22.5t23.5 -56.5q0 -31 -24 -54t-57 -23q-32 0 -56.5 23t-24.5 54q0 33 24.5 56t56.5 23zM285 660l-116 -660h-135l116 660h135z" />
    <glyph glyph-name="Upsilondieresis" unicode="&#x3ab;" horiz-adv-x="624" 
d="M275 737q-32 0 -56.5 23t-24.5 54q0 33 24.5 55.5t56.5 22.5q33 0 57 -22.5t24 -55.5q0 -31 -24 -54t-57 -23zM539 736q-32 0 -56.5 23t-24.5 54q0 33 24.5 56t56.5 23q34 0 57.5 -22.5t23.5 -56.5q0 -31 -24 -54t-57 -23zM676 660l-298 -404l-45 -256h-135l46 262
l-158 398h136l108 -263l190 263h156z" />
    <glyph glyph-name="alphatonos" unicode="&#x3ac;" horiz-adv-x="649" 
d="M498 756l-93 -185h-99l36 209h160zM546 140q0 -36 40 -36q17 0 25 1l-20 -112q-28 -4 -52 -4q-88 0 -114 67q-65 -68 -163 -68q-103 0 -164 67t-61 163q0 48 16.5 96t47.5 89.5t83.5 67.5t117.5 26q119 0 166 -81q2 7 5 19.5t5.5 23.5t5.5 21h129q-32 -135 -48 -223
l-14 -78q-5 -27 -5 -39zM293 109q61 0 99 44t38 102q1 54 -33 87.5t-85 33.5q-58 0 -97 -42t-40 -101q-1 -53 32 -88.5t86 -35.5z" />
    <glyph glyph-name="epsilontonos" unicode="&#x3ad;" horiz-adv-x="509" 
d="M444 756l-93 -185h-99l36 209h160zM251 103q46 0 75.5 12t61.5 37l63 -87q-82 -77 -217 -77q-87 0 -146.5 37t-59.5 106q0 89 94 127q-38 36 -38 91q0 65 55 106.5t152 41.5q134 0 203 -85l-77 -78q-40 49 -131 49q-72 0 -72 -42q0 -20 15 -31.5t42 -11.5h82l-17 -99h-92
q-81 0 -81 -47q0 -49 88 -49z" />
    <glyph glyph-name="etatonos" unicode="&#x3ae;" horiz-adv-x="607" 
d="M493 756l-93 -185h-99l36 209h160zM382 497q79 0 127 -46t48 -120q0 -23 -6 -56l-81 -455h-134l79 448q4 24 4 35q0 36 -23 56.5t-60 20.5q-39 0 -67.5 -23t-35.5 -65l-51 -292h-135l54 304q4 26 4 36q0 41 -42 41q-5 0 -13 -0.5t-12 -0.5l20 111q23 5 51 5q85 0 115 -61
q69 62 158 62z" />
    <glyph glyph-name="iotatonos" unicode="&#x3af;" horiz-adv-x="313" 
d="M320 780l-4 -24l-93 -185h-99l36 209h160zM243 485l-52 -298q-4 -24 -4 -34q0 -49 60 -49q6 0 15 0.5t10 0.5l-19 -112q-30 -4 -54 -4q-61 0 -106 31t-45 100q0 19 5 54l56 311h134z" />
    <glyph glyph-name="upsilondieresistonos" unicode="&#x3b0;" horiz-adv-x="578" 
d="M473 780l-4 -24l-94 -185h-94l37 209h155zM179 753q34 0 57.5 -22.5t23.5 -55.5q0 -31 -24 -54t-57 -23q-31 0 -55.5 23.5t-24.5 53.5q0 33 24 55.5t56 22.5zM561 753q34 0 57.5 -22.5t23.5 -55.5q0 -31 -24 -54t-57 -23q-32 0 -56.5 23t-24.5 54q0 33 24.5 55.5
t56.5 22.5zM528 485q10 -75 10 -136q0 -57 -8.5 -108t-28.5 -98t-50 -81t-76 -54t-104 -20q-98 0 -156 53.5t-58 139.5q0 23 5 50l43 254h135l-47 -272q-3 -12 -3 -23q0 -36 24.5 -58t61.5 -22q45 0 74.5 37.5t40.5 93t11 130.5q0 38 -4 114h130z" />
    <glyph glyph-name="alpha" unicode="&#x3b1;" horiz-adv-x="649" 
d="M546 140q0 -36 40 -36q17 0 25 1l-20 -112q-28 -4 -52 -4q-88 0 -114 67q-65 -68 -163 -68q-103 0 -164 67t-61 163q0 48 16.5 96t47.5 89.5t83.5 67.5t117.5 26q119 0 166 -81q2 7 5 19.5t5.5 23.5t5.5 21h129q-32 -135 -48 -223l-14 -78q-5 -27 -5 -39zM293 109
q61 0 99 44t38 102q1 54 -33 87.5t-85 33.5q-58 0 -97 -42t-40 -101q-1 -53 32 -88.5t86 -35.5z" />
    <glyph glyph-name="beta" unicode="&#x3b2;" horiz-adv-x="627" 
d="M493 416q96 -66 96 -168q0 -43 -16 -87t-47.5 -83.5t-86 -64.5t-123.5 -25q-44 0 -85.5 10.5t-80 33.5t-62 66.5t-23.5 102.5q0 25 5 58l50 284q19 105 83 162t162 57q29 0 56.5 -5.5t55.5 -18.5t49 -33t34 -51.5t13 -71.5q0 -96 -80 -166zM356 640q-86 0 -104 -100
l-24 -141q113 43 161.5 78t48.5 86q0 36 -22.5 56.5t-59.5 20.5zM319 110q68 0 101 41t33 90q0 61 -60 109q-71 -37 -188 -77l-4 -22q-2 -12 -2 -31q0 -52 32.5 -81t87.5 -29z" />
    <glyph glyph-name="gamma" unicode="&#x3b3;" horiz-adv-x="557" 
d="M581 485l-270 -405l-46 -260h-135l46 259l-129 406h137l78 -271l170 271h149z" />
    <glyph glyph-name="delta" unicode="&#x3b4;" horiz-adv-x="608" 
d="M626 750l-20 -113h-243l145 -201q64 -89 64 -177q0 -46 -18.5 -93t-52 -87t-87.5 -65t-119 -25q-113 0 -184.5 70t-71.5 176q0 111 77.5 183.5t186.5 77.5l-154 217l7 37h470zM297 110q57 0 97 41t40 99q0 54 -34.5 89.5t-87.5 35.5q-57 0 -96 -40.5t-39 -99.5
q0 -55 33.5 -90t86.5 -35z" />
    <glyph glyph-name="epsilon" unicode="&#x3b5;" horiz-adv-x="509" 
d="M251 103q46 0 75.5 12t61.5 37l63 -87q-82 -77 -217 -77q-87 0 -146.5 37t-59.5 106q0 89 94 127q-38 36 -38 91q0 65 55 106.5t152 41.5q134 0 203 -85l-77 -78q-40 49 -131 49q-72 0 -72 -42q0 -20 15 -31.5t42 -11.5h82l-17 -99h-92q-81 0 -81 -47q0 -49 88 -49z" />
    <glyph glyph-name="zeta" unicode="&#x3b6;" horiz-adv-x="525" 
d="M593 714l-340 -347q-44 -45 -62.5 -74.5t-18.5 -61.5q0 -73 100 -107l53 -19q74 -26 107 -62.5t33 -86.5q0 -60 -42 -136h-133q36 64 36 101q0 50 -74 75l-56 19q-162 57 -162 195q0 53 28.5 108t98.5 125l191 194h-218l19 113h446z" />
    <glyph glyph-name="eta" unicode="&#x3b7;" horiz-adv-x="607" 
d="M382 497q79 0 127 -46t48 -120q0 -23 -6 -56l-81 -455h-134l79 448q4 24 4 35q0 36 -23 56.5t-60 20.5q-39 0 -67.5 -23t-35.5 -65l-51 -292h-135l54 304q4 26 4 36q0 41 -42 41q-5 0 -13 -0.5t-12 -0.5l20 111q23 5 51 5q85 0 115 -61q69 62 158 62z" />
    <glyph glyph-name="theta" unicode="&#x3b8;" horiz-adv-x="641" 
d="M378 762q48 0 88.5 -14t75.5 -45t55 -89t20 -139q0 -78 -18 -159t-54.5 -156t-100.5 -123t-146 -48q-42 0 -81 13t-75 41.5t-57.5 82t-21.5 125.5q0 42 7 83h132q-5 -43 -5 -69q0 -74 27 -114.5t77 -40.5q101 0 152 163q-159 63 -231.5 127.5t-72.5 148.5q0 37 12.5 72.5
t38.5 68t72 52.5t106 20zM281 557q0 -49 49 -86.5t147 -74.5q5 45 5 78q0 85 -25 125.5t-81 40.5q-45 0 -70 -23.5t-25 -59.5z" />
    <glyph glyph-name="iota" unicode="&#x3b9;" horiz-adv-x="313" 
d="M243 485l-52 -298q-4 -24 -4 -34q0 -49 60 -49q6 0 15 0.5t10 0.5l-19 -112q-30 -4 -54 -4q-61 0 -106 31t-45 100q0 19 5 54l56 311h134z" />
    <glyph glyph-name="kappa" unicode="&#x3ba;" horiz-adv-x="558" 
d="M581 485l-224 -228l153 -257h-148l-156 265l-46 -265h-135l85 485h135l-38 -215l211 215h163z" />
    <glyph glyph-name="lambda" unicode="&#x3bb;" horiz-adv-x="572" 
d="M522 105h20l-19 -111q-20 -5 -45 -5q-107 0 -126 122l-38 222l-187 -333h-151l302 511l-9 49q-15 81 -108 81h-33l21 115q24 6 56 6q161 0 193 -173l79 -439q8 -45 45 -45z" />
    <glyph glyph-name="mu" unicode="&#x3bc;" horiz-adv-x="610" 
d="M548 104q17 0 25 1l-20 -112q-28 -4 -52 -4q-78 0 -109 54q-53 -55 -127 -55q-62 0 -101 39l-36 -207h-135l117 665h135l-47 -269q-4 -22 -4 -31q0 -36 23.5 -57.5t61.5 -21.5t65.5 22.5t35.5 65.5l52 291h134l-55 -309q-4 -24 -4 -36q0 -36 41 -36z" />
    <glyph glyph-name="nu" unicode="&#x3bd;" horiz-adv-x="557" 
d="M431 485h151l-332 -497h-45l-158 497h137l77 -270z" />
    <glyph glyph-name="xi" unicode="&#x3be;" horiz-adv-x="535" 
d="M372 641q-47 0 -78 -29t-31 -73q0 -38 25 -61.5t71 -23.5h101l-20 -115h-124q-67 0 -101.5 -33.5t-34.5 -80.5q0 -14 4 -26t8.5 -20.5t16 -17.5t18 -14t23.5 -12.5t24.5 -10.5t28.5 -10t28 -10q73 -27 108.5 -59t35.5 -92q0 -59 -43 -133h-131q36 68 36 99q0 32 -20 47.5
t-66 31.5q-36 13 -58.5 22t-54 28t-50 39t-32 52t-13.5 70q0 65 36.5 122t107.5 84q-61 53 -61 135q0 81 62.5 146.5t177.5 65.5q81 0 137.5 -35t79.5 -95l-103 -62q-37 71 -108 71z" />
    <glyph glyph-name="omicron" unicode="&#x3bf;" horiz-adv-x="609" 
d="M318 497q108 0 181 -70t73 -174q0 -111 -84 -188t-198 -77q-108 0 -180 70t-72 173q0 111 83 188.5t197 77.5zM312 375q-57 0 -96 -41.5t-40 -100.5q-1 -54 33 -88.5t86 -34.5q58 0 98 40t41 99q1 55 -34 90.5t-88 35.5z" />
    <glyph glyph-name="pi" unicode="&#x3c0;" horiz-adv-x="606" 
d="M496 -11q-62 0 -97.5 28t-35.5 83q0 25 8 70l36 202h-183l-65 -372h-134l85 485h452l-55 -309q-4 -24 -4 -36q0 -36 40 -36q17 0 25 1l-20 -112q-28 -4 -52 -4z" />
    <glyph glyph-name="rho" unicode="&#x3c1;" horiz-adv-x="615" 
d="M330 497q112 0 180 -66.5t68 -167.5q0 -65 -27 -126t-87 -105t-141 -44q-108 0 -158 72l-42 -240h-135l76 431q21 115 88.5 180.5t177.5 65.5zM441 252q0 54 -31.5 88.5t-83.5 34.5q-59 0 -95 -42.5t-36 -99.5q-1 -55 31.5 -89.5t82.5 -34.5q57 0 94 42t38 101z" />
    <glyph glyph-name="uni03C2" unicode="&#x3c2;" horiz-adv-x="532" 
d="M263 -180q36 68 36 99q0 30 -17.5 45.5t-62.5 33.5q-28 12 -45 20t-41.5 22t-39 29.5t-29 36.5t-21 49.5t-6.5 63.5q0 123 81 200t198 77q78 0 134 -36t83 -95l-100 -66q-48 76 -122 76q-58 0 -97 -38.5t-39 -100.5q0 -25 8 -45.5t18 -33t30 -24t33 -17t39 -14.5
q68 -25 101.5 -56t33.5 -95q0 -55 -42 -131h-133z" />
    <glyph glyph-name="sigma" unicode="&#x3c3;" horiz-adv-x="636" 
d="M660 485l-20 -112h-131q55 -52 55 -132q0 -104 -83 -178.5t-197 -74.5q-107 0 -176.5 68t-69.5 172q0 113 84 185t214 72h324zM426 248q0 55 -32 88t-84 33q-57 0 -95 -39t-39 -99q-1 -54 31 -87.5t84 -33.5q57 0 95.5 39.5t39.5 98.5z" />
    <glyph glyph-name="tau" unicode="&#x3c4;" horiz-adv-x="479" 
d="M290 372l-29 -167q-3 -18 -3 -31q0 -69 109 -69q40 0 58 1l-20 -112q-42 -6 -83 -6q-86 0 -143.5 37.5t-57.5 124.5q0 28 5 54l30 168h-125l19 113h431l-19 -113h-172z" />
    <glyph glyph-name="upsilon" unicode="&#x3c5;" horiz-adv-x="578" 
d="M528 485q10 -75 10 -136q0 -57 -8.5 -108t-28.5 -98t-50 -81t-76 -54t-104 -20q-98 0 -156 53.5t-58 139.5q0 23 5 50l43 254h135l-47 -272q-3 -12 -3 -23q0 -36 24.5 -58t61.5 -22q45 0 74.5 37.5t40.5 93t11 130.5q0 38 -4 114h130z" />
    <glyph glyph-name="phi" unicode="&#x3c6;" horiz-adv-x="793" 
d="M761 289q0 -57 -19.5 -108.5t-59 -95.5t-107.5 -70.5t-157 -26.5l-29 -168h-135l30 168q-106 2 -176.5 62.5t-70.5 166.5q0 102 66 183t196 97l17 -119q-73 -15 -106.5 -56.5t-33.5 -93.5q0 -56 37 -87t92 -32l31 178q19 102 78 156t147 54q92 0 146 -55.5t54 -152.5z
M439 109q95 1 139.5 54t44.5 124q0 88 -68 88q-70 0 -85 -93z" />
    <glyph glyph-name="chi" unicode="&#x3c7;" horiz-adv-x="550" 
d="M402 -26q11 -28 24 -38t35 -10h20l-19 -111q-20 -5 -45 -5q-88 0 -125 96l-50 138l-153 -224h-157l256 351l-58 158q-16 45 -58 45q-19 0 -29 -1l21 117q21 4 49 4q47 0 78 -21t48 -71l41 -121l141 204h156l-243 -330z" />
    <glyph glyph-name="psi" unicode="&#x3c8;" horiz-adv-x="831" 
d="M558 660l-97 -550q197 0 197 264q0 35 -4 111h130q10 -73 10 -132q0 -75 -19.5 -138.5t-59.5 -115.5t-110.5 -81.5t-164.5 -29.5l-30 -168h-134l30 168q-108 0 -177 57.5t-69 147.5q0 31 4 55l41 237h135l-39 -221q-5 -28 -5 -46q0 -50 36.5 -79t94.5 -29l97 550h134z
" />
    <glyph glyph-name="omega" unicode="&#x3c9;" horiz-adv-x="845" 
d="M631 494q82 -24 131 -81t49 -141q0 -48 -16 -96.5t-46 -91t-79.5 -69.5t-110.5 -27q-101 0 -153 66q-60 -66 -156 -66q-94 0 -154.5 57.5t-60.5 161.5q0 107 67.5 189t201.5 98l13 -119q-73 -16 -108.5 -59.5t-35.5 -101.5q0 -51 25 -77.5t63 -26.5q36 0 60.5 24.5
t32.5 68.5l26 154h129l-25 -136q-4 -28 -4 -38q0 -35 20.5 -54t54.5 -19q55 0 86.5 47t31.5 103q0 87 -93 123z" />
    <glyph glyph-name="iotadieresis" unicode="&#x3ca;" horiz-adv-x="313" 
d="M96 754q34 0 57.5 -22.5t23.5 -55.5q0 -32 -23.5 -55t-57.5 -23q-31 0 -55.5 23.5t-24.5 54.5q0 33 24 55.5t56 22.5zM324 754q34 0 57.5 -22.5t23.5 -55.5q0 -32 -23.5 -55t-57.5 -23q-32 0 -56.5 23.5t-24.5 54.5q0 33 24.5 55.5t56.5 22.5zM243 485l-52 -298
q-4 -24 -4 -34q0 -49 60 -49q6 0 15 0.5t10 0.5l-19 -112q-30 -4 -54 -4q-61 0 -106 31t-45 100q0 19 5 54l56 311h134z" />
    <glyph glyph-name="upsilondieresis" unicode="&#x3cb;" horiz-adv-x="578" 
d="M237 753q34 0 57.5 -22.5t23.5 -55.5q0 -31 -24 -54t-57 -23q-31 0 -55.5 23.5t-24.5 53.5q0 33 24 55.5t56 22.5zM485 753q34 0 57.5 -22.5t23.5 -55.5q0 -31 -24 -54t-57 -23q-31 0 -55.5 23.5t-24.5 53.5q0 33 24 55.5t56 22.5zM528 485q10 -75 10 -136
q0 -57 -8.5 -108t-28.5 -98t-50 -81t-76 -54t-104 -20q-98 0 -156 53.5t-58 139.5q0 23 5 50l43 254h135l-47 -272q-3 -12 -3 -23q0 -36 24.5 -58t61.5 -22q45 0 74.5 37.5t40.5 93t11 130.5q0 38 -4 114h130z" />
    <glyph glyph-name="omicrontonos" unicode="&#x3cc;" horiz-adv-x="609" 
d="M491 780l-4 -24l-93 -185h-99l36 209h160zM318 497q108 0 181 -70t73 -174q0 -111 -84 -188t-198 -77q-108 0 -180 70t-72 173q0 111 83 188.5t197 77.5zM312 375q-57 0 -96 -41.5t-40 -100.5q-1 -54 33 -88.5t86 -34.5q58 0 98 40t41 99q1 55 -34 90.5t-88 35.5z" />
    <glyph glyph-name="upsilontonos" unicode="&#x3cd;" horiz-adv-x="578" 
d="M467 780l-4 -24l-93 -185h-99l36 209h160zM528 485q10 -75 10 -136q0 -57 -8.5 -108t-28.5 -98t-50 -81t-76 -54t-104 -20q-98 0 -156 53.5t-58 139.5q0 23 5 50l43 254h135l-47 -272q-3 -12 -3 -23q0 -36 24.5 -58t61.5 -22q45 0 74.5 37.5t40.5 93t11 130.5
q0 38 -4 114h130z" />
    <glyph glyph-name="omegatonos" unicode="&#x3ce;" horiz-adv-x="845" 
d="M608 756l-93 -185h-99l36 209h160zM631 494q82 -24 131 -81t49 -141q0 -48 -16 -96.5t-46 -91t-79.5 -69.5t-110.5 -27q-101 0 -153 66q-60 -66 -156 -66q-94 0 -154.5 57.5t-60.5 161.5q0 107 67.5 189t201.5 98l13 -119q-73 -16 -108.5 -59.5t-35.5 -101.5
q0 -51 25 -77.5t63 -26.5q36 0 60.5 24.5t32.5 68.5l26 154h129l-25 -136q-4 -28 -4 -38q0 -35 20.5 -54t54.5 -19q55 0 86.5 47t31.5 103q0 87 -93 123z" />
    <glyph glyph-name="uni2009" unicode="&#x2009;" horiz-adv-x="148" 
 />
    <glyph glyph-name="endash" unicode="&#x2013;" horiz-adv-x="500" 
d="M489 377l-20 -113h-430l21 113h429z" />
    <glyph glyph-name="emdash" unicode="&#x2014;" horiz-adv-x="1001" 
d="M975 377l-21 -113h-900l21 113h900z" />
    <glyph glyph-name="uni2015" unicode="&#x2015;" horiz-adv-x="1001" 
d="M975 377l-21 -113h-900l21 113h900z" />
    <glyph glyph-name="quoteleft" unicode="&#x2018;" horiz-adv-x="302" 
d="M292 660l-53 -278h-155l103 278h105z" />
    <glyph glyph-name="quoteright" unicode="&#x2019;" horiz-adv-x="302" 
d="M317 660l-102 -278h-106l53 278h155z" />
    <glyph glyph-name="quotesinglbase" unicode="&#x201a;" horiz-adv-x="302" 
d="M222 123l-103 -278h-105l53 278h155z" />
    <glyph glyph-name="quotedblleft" unicode="&#x201c;" horiz-adv-x="539" 
d="M292 660l-53 -278h-155l103 278h105zM530 660l-54 -278h-154l102 278h106z" />
    <glyph glyph-name="quotedblright" unicode="&#x201d;" horiz-adv-x="539" 
d="M317 660l-102 -278h-106l53 278h155zM554 660l-102 -278h-106l54 278h154z" />
    <glyph glyph-name="quotedblbase" unicode="&#x201e;" horiz-adv-x="538" 
d="M222 123l-103 -278h-105l53 278h155zM459 123l-103 -278h-106l54 278h155z" />
    <glyph glyph-name="dagger" unicode="&#x2020;" horiz-adv-x="485" 
d="M399 750l-26 -145h128l-19 -113h-128l-43 -244h-135l44 244h-128l20 113h127l25 145h135z" />
    <glyph glyph-name="daggerdbl" unicode="&#x2021;" horiz-adv-x="484" 
d="M399 750l-21 -115h128l-20 -113h-127l-23 -129h128l-20 -113h-128l-21 -116h-134l21 116h-127l19 113h128l22 129h-127l19 113h128l20 115h135z" />
    <glyph glyph-name="bullet" unicode="&#x2022;" horiz-adv-x="427" 
d="M220 430q67 0 114 -45.5t47 -113.5q0 -67 -47 -112.5t-114 -45.5q-68 0 -115.5 45.5t-47.5 112.5q0 68 47.5 113.5t115.5 45.5z" />
    <glyph glyph-name="ellipsis" unicode="&#x2026;" horiz-adv-x="787" 
d="M367 174q39 0 65.5 -27t26.5 -66q0 -40 -26.5 -66.5t-65.5 -26.5q-41 0 -67.5 26.5t-26.5 66.5q0 39 26.5 66t67.5 27zM625 174q39 0 65.5 -27t26.5 -66q0 -40 -26.5 -66.5t-65.5 -26.5q-40 0 -67 26.5t-27 66.5q0 39 27 66t67 27zM108 174q39 0 65.5 -27t26.5 -66
q0 -40 -26.5 -66.5t-65.5 -26.5q-40 0 -67 26.5t-27 66.5q0 39 27 66t67 27z" />
    <glyph glyph-name="perthousand" unicode="&#x2030;" horiz-adv-x="1215" 
d="M264 671q68 0 114.5 -46.5t46.5 -111.5q0 -70 -51 -119.5t-122 -49.5q-69 0 -115 46.5t-46 112.5q0 69 51 118.5t122 49.5zM752 660l-531 -660h-109l531 660h109zM261 578q-31 0 -50.5 -21t-19.5 -52q0 -30 18 -49.5t48 -19.5q31 0 49.5 21t18.5 53q0 29 -17.5 48.5
t-46.5 19.5zM995 317q68 0 114.5 -46t46.5 -112q0 -70 -51 -119.5t-122 -49.5q-69 0 -115 46.5t-46 112.5q0 69 51 118.5t122 49.5zM612 316q68 0 114.5 -46t46.5 -112q0 -70 -51.5 -119.5t-122.5 -49.5q-68 0 -114 47t-46 112q0 70 51 119t122 49zM992 224q-31 0 -50.5 -21
t-19.5 -52q0 -30 18 -49.5t48 -19.5q31 0 49.5 21t18.5 53q0 29 -17.5 48.5t-46.5 19.5zM609 224q-31 0 -50.5 -21t-19.5 -52t18 -50t48 -19q31 0 49.5 21t18.5 53q0 29 -17.5 48.5t-46.5 19.5z" />
    <glyph glyph-name="minute" unicode="&#x2032;" horiz-adv-x="288" 
d="M330 660l-136 -284h-103l83 284h156z" />
    <glyph glyph-name="second" unicode="&#x2033;" horiz-adv-x="525" 
d="M330 660l-136 -284h-103l83 284h156zM567 660l-136 -284h-103l83 284h156z" />
    <glyph glyph-name="guilsinglleft" unicode="&#x2039;" horiz-adv-x="340" 
d="M341 421l-162 -154l108 -151l-94 -71l-162 209l7 36l226 210z" />
    <glyph glyph-name="guilsinglright" unicode="&#x203a;" horiz-adv-x="340" 
d="M159 500l161 -209l-6 -36l-227 -210l-76 80l162 153l-108 151z" />
    <glyph glyph-name="fraction" unicode="&#x2044;" horiz-adv-x="267" 
d="M452 660l-494 -660h-111l493 660h112z" />
    <glyph glyph-name="uni2070" unicode="&#x2070;" horiz-adv-x="421" 
d="M302 788q71 0 106 -42.5t35 -116.5q0 -42 -11 -86.5t-33.5 -88t-64.5 -71t-97 -27.5q-70 0 -106 44t-36 118q0 42 11 85.5t33.5 86.5t64.5 70.5t98 27.5zM288 696q-25 0 -44 -18.5t-28.5 -47t-14 -55.5t-4.5 -52q0 -75 52 -75q25 0 44.5 19t29 48.5t14 56.5t4.5 51
q0 73 -53 73z" />
    <glyph glyph-name="uni2074" unicode="&#x2074;" horiz-adv-x="374" 
d="M412 514l-16 -86h-48l-11 -64h-93l11 64h-211l4 27l171 326h111l-141 -267h81l19 105h92l-18 -105h49z" />
    <glyph glyph-name="uni2075" unicode="&#x2075;" horiz-adv-x="370" 
d="M392 690h-156l-10 -56q20 2 28 2q51 0 89.5 -32.5t38.5 -90.5q0 -62 -45 -109.5t-123 -47.5q-62 0 -103.5 31t-55.5 81l79 41q25 -61 81 -61q30 0 47.5 16t17.5 40q0 47 -68 47h-96l40 229h252z" />
    <glyph glyph-name="uni2076" unicode="&#x2076;" horiz-adv-x="374" 
d="M281 651q45 -7 77.5 -44t32.5 -92q0 -68 -49.5 -113t-114.5 -45q-62 0 -106.5 41t-44.5 106q0 37 16.5 67t54.5 74l118 135h128zM231 449q25 0 42.5 18t17.5 45q0 25 -14.5 40t-38.5 15q-26 0 -43.5 -17.5t-17.5 -43.5q0 -24 15 -40.5t39 -16.5z" />
    <glyph glyph-name="uni2077" unicode="&#x2077;" horiz-adv-x="345" 
d="M128 780h296l-5 -27l-240 -389h-117l206 326h-156z" />
    <glyph glyph-name="uni2078" unicode="&#x2078;" horiz-adv-x="388" 
d="M340 569q55 -31 55 -84q0 -48 -40.5 -87.5t-113.5 -39.5q-37 0 -71.5 9t-63.5 37t-29 70q0 38 23.5 69.5t72.5 44.5q-38 33 -38 78q0 48 37 85t106 37q57 0 98.5 -27t41.5 -82q0 -71 -78 -110zM276 709q-21 0 -35 -12t-14 -30q0 -20 38 -47q60 22 60 50q0 17 -14 28
t-35 11zM235 438q30 0 45.5 13.5t15.5 32.5q0 28 -46 54q-39 -11 -56 -23.5t-17 -31.5q0 -21 15.5 -33t42.5 -12z" />
    <glyph glyph-name="uni2079" unicode="&#x2079;" horiz-adv-x="374" 
d="M264 787q61 0 105.5 -41t44.5 -106q0 -38 -16.5 -68t-53.5 -73l-119 -135h-127l112 129q-46 7 -78.5 44t-32.5 92q0 68 50 113t115 45zM253 577q25 0 43 17.5t18 43.5q0 24 -15.5 40.5t-38.5 16.5q-26 0 -43 -17.5t-17 -45.5q0 -25 14.5 -40t38.5 -15z" />
    <glyph glyph-name="uni207A" unicode="&#x207a;" horiz-adv-x="427" 
d="M346 750l-24 -134h131l-16 -87h-131l-23 -135h-98l24 135h-131l16 87h131l24 134h97z" />
    <glyph glyph-name="uni207B" unicode="&#x207b;" horiz-adv-x="427" 
d="M459 615l-16 -86h-358l16 86h358z" />
    <glyph glyph-name="uni207C" unicode="&#x207c;" horiz-adv-x="427" 
d="M466 698l-16 -87h-343l16 87h343zM437 535l-15 -88h-344l16 88h343z" />
    <glyph glyph-name="uni207D" unicode="&#x207d;" horiz-adv-x="278" 
d="M338 903l29 -63q-89 -47 -132 -140t-43 -199q0 -139 78 -205l-48 -54q-117 72 -117 256q0 84 24.5 164.5t79 147.5t129.5 93z" />
    <glyph glyph-name="uni207E" unicode="&#x207e;" horiz-adv-x="277" 
d="M173 903q117 -72 117 -256q0 -84 -24.5 -164.5t-79 -147.5t-129.5 -93l-29 63q89 47 132 140t43 199q0 139 -78 205z" />
    <glyph glyph-name="uni2080" unicode="&#x2080;" horiz-adv-x="421" 
d="M217 304q71 0 106 -42.5t35 -116.5q0 -42 -11 -86.5t-33.5 -88t-64.5 -71t-97 -27.5q-70 0 -106 44t-36 118q0 42 11 85.5t33.5 86.5t64.5 70.5t98 27.5zM203 212q-25 0 -44 -18.5t-28.5 -47t-14 -55.5t-4.5 -52q0 -75 52 -75q25 0 44.5 19t29 48.5t14 56.5t4.5 51
q0 73 -53 73z" />
    <glyph glyph-name="uni2081" unicode="&#x2081;" horiz-adv-x="370" 
d="M254 296l-57 -326h86l-16 -90h-288l16 90h101l42 236h-93l16 90h193z" />
    <glyph glyph-name="uni2082" unicode="&#x2082;" horiz-adv-x="384" 
d="M199 -7l-28 -23h127l-17 -90l-310 -1l3 21l177 160q70 63 70 105q0 22 -12.5 34.5t-33.5 12.5q-53 0 -53 -71v-10h-100q-1 6 -1 15q0 63 41 110.5t117 47.5q66 0 105.5 -37.5t39.5 -94.5q0 -45 -28.5 -83.5t-96.5 -95.5z" />
    <glyph glyph-name="uni2083" unicode="&#x2083;" horiz-adv-x="360" 
d="M328 296l-5 -27l-108 -130q31 -15 51 -45t20 -69q0 -59 -43.5 -106t-121.5 -47q-61 0 -101 31t-54 81l79 41q26 -61 77 -61q30 0 46.5 16t16.5 40q0 47 -69 47h-55l4 25l96 114h-123l17 90h273z" />
    <glyph glyph-name="uni2084" unicode="&#x2084;" horiz-adv-x="374" 
d="M327 30l-16 -86h-48l-11 -64h-93l11 64h-211l4 27l171 326h111l-141 -267h81l19 105h92l-18 -105h49z" />
    <glyph glyph-name="uni2085" unicode="&#x2085;" horiz-adv-x="370" 
d="M307 206h-156l-10 -56q20 2 28 2q51 0 89.5 -32.5t38.5 -90.5q0 -62 -45 -109.5t-123 -47.5q-62 0 -103.5 31t-55.5 81l79 41q25 -61 81 -61q30 0 47.5 16t17.5 40q0 47 -68 47h-96l40 229h252z" />
    <glyph glyph-name="uni2086" unicode="&#x2086;" horiz-adv-x="374" 
d="M196 167q45 -7 77.5 -44t32.5 -92q0 -68 -49.5 -113t-114.5 -45q-62 0 -106.5 41t-44.5 106q0 37 16.5 67t54.5 74l118 135h128zM146 -35q25 0 42.5 18t17.5 45q0 25 -14.5 40t-38.5 15q-26 0 -43.5 -17.5t-17.5 -43.5q0 -24 15 -40.5t39 -16.5z" />
    <glyph glyph-name="uni2087" unicode="&#x2087;" horiz-adv-x="345" 
d="M42 296h296l-5 -27l-240 -389h-117l206 326h-156z" />
    <glyph glyph-name="uni2088" unicode="&#x2088;" horiz-adv-x="388" 
d="M254 85q55 -31 55 -84q0 -48 -40.5 -87.5t-113.5 -39.5q-37 0 -71.5 9t-63.5 37t-29 70q0 38 23.5 69.5t72.5 44.5q-38 33 -38 78q0 48 37 85t106 37q57 0 98.5 -27t41.5 -82q0 -71 -78 -110zM190 225q-21 0 -35 -12t-14 -30q0 -20 38 -47q60 22 60 50q0 17 -14 28
t-35 11zM149 -46q30 0 45.5 13.5t15.5 32.5q0 28 -46 54q-39 -11 -56 -23.5t-17 -31.5q0 -21 15.5 -33t42.5 -12z" />
    <glyph glyph-name="uni2089" unicode="&#x2089;" horiz-adv-x="374" 
d="M179 303q61 0 105.5 -41t44.5 -106q0 -38 -16.5 -68t-53.5 -73l-119 -135h-127l112 129q-46 7 -78.5 44t-32.5 92q0 68 50 113t115 45zM168 93q25 0 43 17.5t18 43.5q0 24 -15.5 40.5t-38.5 16.5q-26 0 -43 -17.5t-17 -45.5q0 -25 14.5 -40t38.5 -15z" />
    <glyph glyph-name="uni208A" unicode="&#x208a;" horiz-adv-x="428" 
d="M261 265l-24 -134h131l-16 -87h-131l-23 -135h-98l24 135h-131l16 87h131l24 134h97z" />
    <glyph glyph-name="uni208B" unicode="&#x208b;" horiz-adv-x="422" 
d="M372 130l-15 -86h-358l15 86h358z" />
    <glyph glyph-name="uni208C" unicode="&#x208c;" horiz-adv-x="428" 
d="M381 213l-16 -87h-343l16 87h343zM352 50l-15 -88h-344l16 88h343z" />
    <glyph glyph-name="uni208D" unicode="&#x208d;" horiz-adv-x="277" 
d="M252 418l29 -63q-89 -47 -132 -140t-43 -199q0 -139 78 -205l-48 -54q-117 72 -117 256q0 84 24.5 164.5t79 147.5t129.5 93z" />
    <glyph glyph-name="uni208E" unicode="&#x208e;" horiz-adv-x="277" 
d="M87 418q117 -72 117 -256q0 -84 -24.5 -164.5t-79 -147.5t-129.5 -93l-29 63q89 47 132 140t43 199q0 139 -78 205z" />
    <glyph glyph-name="Euro" unicode="&#x20ac;" horiz-adv-x="676" 
d="M396 112q84 0 140 64l85 -77q-38 -52 -99 -81.5t-136 -29.5q-108 0 -181 58.5t-98 155.5h-110l17 96h82q2 40 5 60h-76l17 96h85q37 95 114 155.5t195 60.5q172 0 247 -127l-97 -69q-22 32 -61.5 52t-88.5 20q-104 0 -159 -92h244l-43 -96h-237q-6 -31 -6 -60h215
l-43 -96h-153q41 -90 142 -90z" />
    <glyph glyph-name="uni2105" unicode="&#x2105;" horiz-adv-x="831" 
d="M273 672q51 0 87.5 -24t52.5 -65l-77 -50q-26 44 -67 44q-33 0 -53 -21t-20 -54q0 -30 17 -47t47 -17q41 0 70 38l66 -58q-48 -75 -142 -75q-70 0 -117 44.5t-47 111.5q0 73 54 123t129 50zM733 660l-492 -660h-113l490 660h115zM611 317q70 0 116.5 -45.5t45.5 -112.5
q-1 -72 -54 -121.5t-126 -49.5q-70 0 -116 45.5t-45 113.5q1 72 53.5 121t125.5 49zM608 223q-30 0 -50 -21.5t-21 -54.5q-1 -29 16 -47t44 -18q30 0 49.5 21t20.5 54q0 31 -16 48.5t-43 17.5z" />
    <glyph glyph-name="uni2113" unicode="&#x2113;" horiz-adv-x="496" 
d="M248 249l-8 -47q-3 -15 -3 -31q0 -62 90 -62q42 0 92 8l-19 -114q-51 -15 -106 -15q-85 0 -139 37t-54 119q0 13 1 20q-10 -6 -60 -32l-42 109l126 69l42 244q37 208 210 208q151 0 151 -151q0 -91 -64.5 -178t-216.5 -184zM301 548l-25 -142q73 54 104.5 99t31.5 91
q0 53 -41 53q-27 0 -44 -23t-26 -78z" />
    <glyph glyph-name="uni2116" unicode="&#x2116;" horiz-adv-x="1121" 
d="M506 260l71 400h135l-118 -672h-45v1l-309 416l-71 -405h-135l118 672h44zM951 565q69 0 115.5 -45t45.5 -113q-1 -72 -54 -121.5t-126 -49.5q-70 0 -115.5 45.5t-44.5 113.5q1 72 53.5 121t125.5 49zM1009 404q0 32 -17.5 51t-45.5 19q-30 0 -50.5 -22.5t-21.5 -55.5
q0 -30 17.5 -49t44.5 -19q30 0 51 21.5t22 54.5zM725 84l15 85h324l-15 -85h-324z" />
    <glyph glyph-name="uni2117" unicode="&#x2117;" horiz-adv-x="786" 
d="M426 672q141 0 237.5 -94.5t96.5 -231.5q0 -148 -109.5 -253t-258.5 -105q-141 0 -238 95t-97 232q0 147 110 252t259 105zM422 592q-114 0 -195.5 -80.5t-81.5 -195.5q0 -107 70.5 -177.5t181.5 -70.5q124 0 200 85.5t76 193.5q0 103 -71.5 174t-179.5 71zM449 504
q62 0 97 -31t35 -84q0 -59 -44 -95t-113 -36h-59l-19 -104h-91l62 350h132zM444 425h-49l-16 -88h57q52 0 52 46q0 42 -44 42z" />
    <glyph glyph-name="trademark" unicode="&#x2122;" horiz-adv-x="984" 
d="M954 668h36l-80 -457h-113l35 196l-116 -116h-36l-76 123l-36 -203h-112l80 457h36l146 -236zM85 660h385l-18 -101h-136l-61 -348h-112l60 348h-136z" />
    <glyph glyph-name="uni2126" unicode="&#x2126;" horiz-adv-x="788" 
d="M765 368q0 -154 -135 -246h86l-22 -122h-280l21 122q95 37 143 99t48 137q0 85 -56 137t-146 52q-103 0 -164 -66t-61 -159q0 -127 122 -200l-21 -122h-286l21 122h124q-98 91 -98 208q0 54 22 111.5t63.5 110t113 86.5t159.5 34q148 0 247 -87.5t99 -216.5z" />
    <glyph glyph-name="estimated" unicode="&#x212e;" horiz-adv-x="795" 
d="M751 327h-544v-198q75 -104 219 -104q78 0 144 32t111 85l26 -23q-49 -60 -122 -94.5t-158 -34.5q-149 0 -248 97.5t-99 238.5q0 144 101.5 244t240.5 100q82 0 157.5 -35t125.5 -103t50 -151zM427 634q-141 0 -220 -104v-168h421v183q-75 89 -201 89z" />
    <glyph glyph-name="uni2150" unicode="&#x2150;" horiz-adv-x="983" 
d="M347 334l-16 -90h-288l16 90h101l42 236h-93l16 90h193l-57 -326h86zM710 660h112l-494 -660h-111zM701 416h296l-5 -27l-240 -389h-117l206 326h-156z" />
    <glyph glyph-name="uni2151" unicode="&#x2151;" horiz-adv-x="981" 
d="M347 334l-16 -90h-288l16 90h101l42 236h-93l16 90h193l-57 -326h86zM710 660h112l-494 -660h-111zM807 423q61 0 105.5 -41t44.5 -106q0 -38 -16.5 -68t-53.5 -73l-119 -135h-127l112 129q-46 7 -78.5 44t-32.5 92q0 68 50 113t115 45zM796 213q25 0 43 17.5t18 43.5
q0 24 -15.5 40.5t-38.5 16.5q-26 0 -43 -17.5t-17 -45.5q0 -25 14.5 -40t38.5 -15z" />
    <glyph glyph-name="uni2152" unicode="&#x2152;" horiz-adv-x="1428" 
d="M318 660l-57 -326h86l-16 -90h-288l16 90h101l42 236h-93l16 90h193zM822 660l-494 -660h-111l493 660h112zM1245 424q71 0 106 -42.5t35 -116.5q0 -42 -11 -86.5t-33.5 -88t-64.5 -71t-97 -27.5q-70 0 -106 44t-36 118q0 42 11 85.5t33.5 86.5t64.5 70.5t98 27.5z
M912 416l-57 -326h86l-16 -90h-288l16 90h101l42 236h-93l16 90h193zM1231 332q-25 0 -44 -18.5t-28.5 -47t-14 -55.5t-4.5 -52q0 -75 52 -75q25 0 44.5 19t29 48.5t14 56.5t4.5 51q0 73 -53 73z" />
    <glyph glyph-name="uni2153" unicode="&#x2153;" horiz-adv-x="997" 
d="M347 334l-16 -90h-288l16 90h101l42 236h-93l16 90h193l-57 -326h86zM710 660h112l-494 -660h-111zM986 416l-5 -27l-108 -130q31 -15 51 -45t20 -69q0 -59 -43.5 -106t-121.5 -47q-61 0 -101 31t-54 81l79 41q26 -61 77 -61q30 0 46.5 16t16.5 40q0 47 -69 47h-55l4 25
l96 114h-123l17 90h273z" />
    <glyph glyph-name="uni2154" unicode="&#x2154;" horiz-adv-x="1011" 
d="M362 334l-17 -90l-310 -1l3 21l177 160q70 63 70 105q0 22 -12.5 34.5t-33.5 12.5q-53 0 -53 -71v-10h-100q-1 6 -1 15q0 63 41 110.5t117 47.5q66 0 105.5 -37.5t39.5 -94.5q0 -45 -28.5 -83.5t-96.5 -95.5l-28 -23h127zM724 660h112l-494 -660h-111zM1001 416l-5 -27
l-108 -130q31 -15 51 -45t20 -69q0 -59 -43.5 -106t-121.5 -47q-61 0 -101 31t-54 81l79 41q26 -61 77 -61q31 0 47 16t16 40q0 47 -69 47h-55l4 25l96 114h-123l17 90h273z" />
    <glyph glyph-name="uni2155" unicode="&#x2155;" horiz-adv-x="999" 
d="M347 334l-16 -90h-288l16 90h101l42 236h-93l16 90h193l-57 -326h86zM710 660h112l-494 -660h-111zM957 326h-156l-10 -56q20 2 28 2q51 0 89.5 -32.5t38.5 -90.5q0 -62 -45 -109.5t-123 -47.5q-62 0 -103.5 31t-55.5 81l79 41q25 -61 81 -61q30 0 47.5 16t17.5 40
q0 47 -68 47h-96l40 229h252z" />
    <glyph glyph-name="uni2156" unicode="&#x2156;" horiz-adv-x="1013" 
d="M362 334l-17 -90l-310 -1l3 21l177 160q70 63 70 105q0 22 -12.5 34.5t-33.5 12.5q-53 0 -53 -71v-10h-100q-1 6 -1 15q0 63 41 110.5t117 47.5q66 0 105.5 -37.5t39.5 -94.5q0 -45 -28.5 -83.5t-96.5 -95.5l-28 -23h127zM724 660h112l-494 -660h-111zM972 326h-156
l-10 -56q20 2 28 2q51 0 89.5 -32.5t38.5 -90.5q0 -62 -45 -109.5t-123 -47.5q-62 0 -103.5 31t-55.5 81l79 41q25 -61 81 -61q30 0 47.5 16t17.5 40q0 47 -68 47h-96l40 229h252z" />
    <glyph glyph-name="uni2157" unicode="&#x2157;" horiz-adv-x="954" 
d="M350 389q0 -59 -43.5 -106t-121.5 -47q-61 0 -101 31t-54 81l79 41q26 -61 77 -61q30 0 46.5 16t16.5 40q0 47 -69 47h-54h-1l4 25l97 114h-124l17 90h273l-5 -27l-108 -130q31 -15 51 -45t20 -69zM665 660h112l-494 -660h-111zM912 326h-156l-10 -56q20 2 28 2
q51 0 89.5 -32.5t38.5 -90.5q0 -62 -45 -109.5t-123 -47.5q-62 0 -103.5 31t-55.5 81l79 41q25 -61 81 -61q30 0 47.5 16t17.5 40q0 47 -68 47h-96l40 229h252z" />
    <glyph glyph-name="uni2158" unicode="&#x2158;" horiz-adv-x="1013" 
d="M316 244h-93l11 64h-211l4 27l171 326h111l-142 -267h82l19 105h92l-18 -105h49l-16 -86h-48zM724 660h112l-494 -660h-111zM971 326h-156l-10 -56q20 2 28 2q51 0 89.5 -32.5t38.5 -90.5q0 -62 -45 -109.5t-123 -47.5q-62 0 -103.5 31t-55.5 81l79 41q25 -61 81 -61
q30 0 47.5 16t17.5 40q0 47 -68 47h-96l40 229h252z" />
    <glyph glyph-name="uni2159" unicode="&#x2159;" horiz-adv-x="931" 
d="M347 334l-16 -90h-288l16 90h101l42 236h-93l16 90h193l-57 -326h86zM710 660h112l-494 -660h-111zM774 287q45 -7 77.5 -44t32.5 -92q0 -68 -49.5 -113t-114.5 -45q-62 0 -106.5 41t-44.5 106q0 37 16.5 67t54.5 74l118 135h128zM724 85q25 0 42.5 18t17.5 45
q0 25 -14.5 40t-38.5 15q-26 0 -43.5 -17.5t-17.5 -43.5q0 -24 15 -40.5t39 -16.5z" />
    <glyph glyph-name="uni215A" unicode="&#x215a;" horiz-adv-x="895" 
d="M361 393q0 -62 -45 -109.5t-123 -47.5q-62 0 -103.5 31t-55.5 81l79 41q25 -61 81 -61q30 0 47.5 16t17.5 40q0 47 -68 47h-96l40 229h252l-16 -90h-156l-10 -57q13 3 28 3q51 0 89.5 -32.5t38.5 -90.5zM675 660h112l-494 -660h-111zM739 287q45 -7 77.5 -44t32.5 -92
q0 -68 -49.5 -113t-114.5 -45q-62 0 -106.5 41t-44.5 106q0 37 16.5 67t54.5 74l118 135h128zM689 85q25 0 42.5 18t17.5 45q0 25 -14.5 40t-38.5 15q-26 0 -43.5 -17.5t-17.5 -43.5q0 -24 15 -40.5t39 -16.5z" />
    <glyph glyph-name="oneeighth" unicode="&#x215b;" horiz-adv-x="980" 
d="M347 334l-16 -90h-288l16 90h101l42 236h-93l16 90h193l-57 -326h86zM710 660h112l-494 -660h-111zM868 205q55 -31 55 -84q0 -48 -40.5 -87.5t-113.5 -39.5q-37 0 -71.5 9t-63.5 37t-29 70q0 38 23.5 69.5t72.5 44.5q-38 33 -38 78q0 48 37 85t106 37q57 0 98.5 -27
t41.5 -82q0 -71 -78 -110zM804 345q-21 0 -35 -12t-14 -30q0 -20 38 -47q60 22 60 50q0 17 -14 28t-35 11zM763 74q30 0 45.5 13.5t15.5 32.5q0 28 -46 54q-39 -11 -56 -23.5t-17 -31.5q0 -21 15.5 -33t42.5 -12z" />
    <glyph glyph-name="threeeighths" unicode="&#x215c;" horiz-adv-x="935" 
d="M350 389q0 -59 -43.5 -106t-121.5 -47q-61 0 -101 31t-54 81l79 41q26 -61 77 -61q30 0 46.5 16t16.5 40q0 47 -69 47h-54h-1l4 25l97 114h-124l17 90h273l-5 -27l-108 -130q31 -15 51 -45t20 -69zM665 660h112l-494 -660h-111zM823 205q55 -31 55 -84q0 -48 -40.5 -87.5
t-113.5 -39.5q-37 0 -71.5 9t-63.5 37t-29 70q0 38 23.5 69.5t72.5 44.5q-38 33 -38 78q0 48 37 85t106 37q57 0 98.5 -27t41.5 -82q0 -71 -78 -110zM759 345q-21 0 -35 -12t-14 -30q0 -20 38 -47q60 22 60 50q0 17 -14 28t-35 11zM718 74q30 0 45.5 13.5t15.5 32.5
q0 28 -46 54q-39 -11 -56 -23.5t-17 -31.5q0 -21 15.5 -33t42.5 -12z" />
    <glyph glyph-name="fiveeighths" unicode="&#x215d;" horiz-adv-x="945" 
d="M361 393q0 -62 -45 -109.5t-123 -47.5q-62 0 -103.5 31t-55.5 81l79 41q25 -61 81 -61q30 0 47.5 16t17.5 40q0 47 -68 47h-96l40 229h252l-16 -90h-156l-10 -57q13 3 28 3q51 0 89.5 -32.5t38.5 -90.5zM675 660h112l-494 -660h-111zM833 205q55 -31 55 -84
q0 -48 -40.5 -87.5t-113.5 -39.5q-37 0 -71.5 9t-63.5 37t-29 70q0 38 23.5 69.5t72.5 44.5q-38 33 -38 78q0 48 37 85t106 37q57 0 98.5 -27t41.5 -82q0 -71 -78 -110zM769 345q-21 0 -35 -12t-14 -30q0 -20 38 -47q60 22 60 50q0 17 -14 28t-35 11zM728 74q30 0 45.5 13.5
t15.5 32.5q0 28 -46 54q-39 -11 -56 -23.5t-17 -31.5q0 -21 15.5 -33t42.5 -12z" />
    <glyph glyph-name="seveneighths" unicode="&#x215e;" horiz-adv-x="857" 
d="M158 244h-117l206 326h-156l16 90h296l-5 -27zM587 660h112l-494 -660h-111zM746 205q55 -31 55 -84q0 -48 -40.5 -87.5t-113.5 -39.5q-37 0 -71.5 9t-63.5 37t-29 70q0 38 23.5 69.5t72.5 44.5q-38 33 -38 78q0 48 37 85t106 37q57 0 98.5 -27t41.5 -82q0 -71 -78 -110z
M682 345q-21 0 -35 -12t-14 -30q0 -20 38 -47q60 22 60 50q0 17 -14 28t-35 11zM641 74q30 0 45.5 13.5t15.5 32.5q0 28 -46 54q-39 -11 -56 -23.5t-17 -31.5q0 -21 15.5 -33t42.5 -12z" />
    <glyph glyph-name="arrowleft" unicode="&#x2190;" horiz-adv-x="650" 
d="M619 264h-305l-68 3l158 -159l-79 -79l-278 278v26l278 279l79 -80l-156 -157l66 3h305v-114z" />
    <glyph glyph-name="arrowup" unicode="&#x2191;" horiz-adv-x="650" 
d="M636 324l-80 -80l-152 153l2 -64v-293h-122v293l3 65l-153 -154l-80 80l278 278h26z" />
    <glyph glyph-name="arrowright" unicode="&#x2192;" horiz-adv-x="650" 
d="M353 612l278 -279v-26l-278 -278l-80 79l159 159l-68 -3h-306v114h306l66 -3l-157 157z" />
    <glyph glyph-name="arrowdown" unicode="&#x2193;" horiz-adv-x="650" 
d="M545 397l80 -79l-278 -279h-26l-278 279l80 79l153 -153l-3 64v294h122v-294l-2 -63z" />
    <glyph glyph-name="arrowboth" unicode="&#x2194;" horiz-adv-x="947" 
d="M650 612l278 -279v-26l-278 -278l-80 79l159 159l-68 -3h-96h-132h-119l-68 3l158 -159l-79 -79l-278 278v26l278 279l79 -80l-156 -157l66 3h347l66 -3l-157 157z" />
    <glyph glyph-name="arrowupdn" unicode="&#x2195;" horiz-adv-x="650" 
d="M400 133l148 148l80 -79l-274 -275h-26l-274 275l80 79l149 -149l-3 64v268l3 64l-149 -149l-80 79l274 275h26l274 -275l-80 -79l-148 148l3 -63v-268z" />
    <glyph glyph-name="uni2196" unicode="&#x2196;" horiz-adv-x="650" 
d="M346 374l237 -237l-83 -83l-236 236l-39 43v-231h-117v410l17 18h404v-113h-230z" />
    <glyph glyph-name="uni2197" unicode="&#x2197;" horiz-adv-x="650" 
d="M528 530l18 -18v-410h-118v231l-39 -43l-235 -236l-83 83l236 237l48 43h-231v113h404z" />
    <glyph glyph-name="uni2198" unicode="&#x2198;" horiz-adv-x="650" 
d="M444 520h117v-410l-17 -19h-404v114h230l-47 43l-237 237l83 83l236 -236l39 -43v231z" />
    <glyph glyph-name="uni2199" unicode="&#x2199;" horiz-adv-x="650" 
d="M350 248l-47 -43h231v-114h-404l-18 19v410h118v-231l39 43l235 236l83 -83z" />
    <glyph glyph-name="partialdiff" unicode="&#x2202;" horiz-adv-x="615" 
d="M358 672q107 0 172.5 -70t65.5 -186q0 -49 -11.5 -104t-38 -113t-64 -104.5t-96 -76.5t-127.5 -30q-94 0 -156.5 50.5t-62.5 140.5q0 42 14.5 81t43.5 73.5t80 55.5t117 21q77 0 164 -32q1 13 1 36q0 136 -113 136q-67 0 -129 -60l-74 78q86 104 214 104zM270 107
q60 0 101.5 45.5t64.5 115.5q-78 24 -135 24q-63 0 -92.5 -28.5t-29.5 -70.5q0 -40 24 -63t67 -23z" />
    <glyph glyph-name="uni2206" unicode="&#x2206;" horiz-adv-x="661" 
d="M430 672l177 -672h-634l412 672h45zM435 122l-70 278l-169 -278h239z" />
    <glyph glyph-name="product" unicode="&#x220f;" horiz-adv-x="700" 
d="M699 660l-138 -781h-135l117 659h-280l-116 -659h-135l138 781h549z" />
    <glyph glyph-name="summation" unicode="&#x2211;" horiz-adv-x="561" 
d="M582 660l-21 -122h-276l108 -242l-5 -29l-189 -266h278l-21 -122h-494l5 29l277 390l-148 333l4 29h482z" />
    <glyph glyph-name="minus" unicode="&#x2212;" 
d="M540 378l-21 -115h-471l20 115h472z" />
    <glyph glyph-name="uni2219" unicode="&#x2219;" horiz-adv-x="270" 
d="M150 413q39 0 65.5 -27t26.5 -66q0 -40 -26 -66.5t-66 -26.5t-66.5 26.5t-26.5 66.5q0 39 26.5 66t66.5 27z" />
    <glyph glyph-name="radical" unicode="&#x221a;" horiz-adv-x="652" 
d="M618 750h121l-513 -883h-44v309h-164v108h273v-95z" />
    <glyph glyph-name="infinity" unicode="&#x221e;" horiz-adv-x="876" 
d="M682 518q86 0 138 -54t52 -130q0 -81 -58 -147t-162 -66q-70 0 -117.5 30.5t-88.5 84.5q-109 -115 -221 -115q-88 0 -140 53t-52 130q0 82 58 148t163 66q70 0 118 -30.5t89 -83.5q54 54 105.5 84t115.5 30zM244 239q59 0 140 83q-58 77 -124 77q-41 0 -69 -23t-28 -63
q0 -36 24 -55t57 -19zM646 239q40 0 67.5 23.5t27.5 62.5q0 37 -23.5 55.5t-57.5 18.5q-61 0 -137 -80q59 -80 123 -80z" />
    <glyph glyph-name="integral" unicode="&#x222b;" horiz-adv-x="359" 
d="M344 789q54 0 106 -19l-19 -110q-42 6 -59 6q-60 0 -85 -35t-25 -119v-365q0 -61 -10 -108.5t-33 -87t-67 -61t-106 -21.5q-52 0 -106 19l19 110q31 -6 59 -6q60 0 84.5 35.5t24.5 119.5v365q0 128 49 202.5t168 74.5z" />
    <glyph glyph-name="approxequal" unicode="&#x2248;" 
d="M195 551q45 0 96 -34l77 -51q39 -25 56 -25q30 0 38 51h103q-6 -84 -40 -129.5t-92 -45.5q-44 0 -96 33l-77 52q-39 25 -56 25q-30 0 -38 -51h-103q6 84 40 129.5t92 45.5zM155 321q45 0 95 -33l78 -51q36 -26 56 -26q17 0 25 13t13 39h102q-5 -84 -39.5 -130t-92.5 -46
q-46 0 -95 34l-78 51q-37 25 -56 25q-28 0 -38 -51h-102q5 84 39.5 129.5t92.5 45.5z" />
    <glyph glyph-name="notequal" unicode="&#x2260;" 
d="M529 371h-139l-71 -101h192l-20 -114h-252l-70 -100h-120l70 100h-80l20 114h140l71 101h-193l20 114h253l69 98h120l-69 -98h79z" />
    <glyph glyph-name="lessequal" unicode="&#x2264;" 
d="M557 560l-20 -120l-251 -85l221 -85l-20 -108l-433 181l7 36zM7 0l20 106h451l-19 -106h-452z" />
    <glyph glyph-name="greaterequal" unicode="&#x2265;" 
d="M115 560l433 -181l-6 -36l-496 -181l19 120l247 84l-216 86zM18 0l18 106h451l-18 -106h-451z" />
    <glyph glyph-name="uni24EA" unicode="&#x24ea;" horiz-adv-x="982" 
d="M507 762q179 0 305.5 -126.5t126.5 -305.5t-126.5 -305.5t-305.5 -126.5t-305 126.5t-126 305.5t126 305.5t305 126.5zM507 660q-137 0 -231.5 -94t-94.5 -236t94.5 -236t231.5 -94t231.5 94.5t94.5 235.5t-94.5 235.5t-231.5 94.5zM507 562q90 0 137 -63.5t47 -165.5
q0 -103 -47.5 -169.5t-136.5 -66.5t-136 66.5t-47 169.5q0 102 47 165.5t136 63.5zM507 462q-71 0 -71 -130q0 -135 71 -135q73 0 73 135q0 130 -73 130z" />
    <glyph glyph-name="uni24FF" unicode="&#x24ff;" horiz-adv-x="982" 
d="M507 762q179 0 305.5 -126.5t126.5 -305.5t-126.5 -305.5t-305.5 -126.5t-305 126.5t-126 305.5t126 305.5t305 126.5zM507 562q-89 0 -136.5 -63.5t-47.5 -165.5q0 -103 47.5 -169.5t136.5 -66.5t137 66.5t48 169.5q0 102 -47.5 165.5t-137.5 63.5zM507 460
q71 0 71 -128q0 -133 -71 -133q-70 0 -70 133q0 128 70 128z" />
    <glyph glyph-name="filledbox" unicode="&#x25a0;" horiz-adv-x="730" 
d="M656 605v-550h-550v550h550z" />
    <glyph glyph-name="uni25A1" unicode="&#x25a1;" horiz-adv-x="730" 
d="M656 605v-550h-550v550h550zM539 493h-316v-326h316v326z" />
    <glyph glyph-name="uni25AA" unicode="&#x25aa;" horiz-adv-x="541" 
d="M463 438v-380h-381v380h381z" />
    <glyph glyph-name="uni25AB" unicode="&#x25ab;" horiz-adv-x="541" 
d="M463 438v-380h-381v380h381zM353 332h-162v-169h162v169z" />
    <glyph glyph-name="triagup" unicode="&#x25b2;" horiz-adv-x="730" 
d="M350 660l336 -589l-9 -16h-672l-9 16l336 589h18z" />
    <glyph glyph-name="uni25B3" unicode="&#x25b3;" horiz-adv-x="730" 
d="M350 660l336 -589l-9 -16h-672l-9 16l336 589h18zM497 170l-156 273l-155 -273h311z" />
    <glyph glyph-name="uni25B4" unicode="&#x25b4;" horiz-adv-x="528" 
d="M246 477l230 -403l-9 -16h-460l-9 16l230 403h18z" />
    <glyph glyph-name="uni25B5" unicode="&#x25b5;" horiz-adv-x="528" 
d="M246 477l230 -403l-9 -16h-460l-9 16l230 403h18zM325 145l-88 154l-87 -154h175z" />
    <glyph glyph-name="uni25B6" unicode="&#x25b6;" horiz-adv-x="645" 
d="M122 672l516 -333v-18l-516 -333l-16 9v666z" />
    <glyph glyph-name="uni25B7" unicode="&#x25b7;" horiz-adv-x="645" 
d="M122 672l516 -333v-18l-516 -333l-16 9v666zM441 330l-218 140v-280z" />
    <glyph glyph-name="uni25B8" unicode="&#x25b8;" horiz-adv-x="480" 
d="M96 484l353 -227v-18l-353 -226l-16 8v454z" />
    <glyph glyph-name="uni25B9" unicode="&#x25b9;" horiz-adv-x="489" 
d="M105 484l353 -227v-18l-353 -226l-16 8v454zM302 248l-123 79v-157z" />
    <glyph glyph-name="triagrt" unicode="&#x25ba;" horiz-adv-x="970" 
d="M132 672l825 -333v-18l-825 -333l-16 9v666z" />
    <glyph glyph-name="uni25BB" unicode="&#x25bb;" horiz-adv-x="970" 
d="M132 672l825 -333v-18l-825 -333l-16 9v666zM671 330l-438 177v-354z" />
    <glyph glyph-name="triagdn" unicode="&#x25bc;" horiz-adv-x="730" 
d="M430 0h-18l-336 589l9 16h672l9 -16z" />
    <glyph glyph-name="uni25BD" unicode="&#x25bd;" horiz-adv-x="730" 
d="M757 605l9 -16l-336 -589h-18l-336 589l9 16h672zM577 490h-311l155 -273z" />
    <glyph glyph-name="uni25BE" unicode="&#x25be;" horiz-adv-x="528" 
d="M523 438l9 -16l-230 -403h-18l-230 403l9 16h460z" />
    <glyph glyph-name="uni25BF" unicode="&#x25bf;" horiz-adv-x="528" 
d="M523 438l9 -16l-230 -403h-18l-230 403l9 16h460zM381 350h-175l87 -154z" />
    <glyph glyph-name="uni25C0" unicode="&#x25c0;" horiz-adv-x="645" 
d="M555 672l16 -9v-666l-16 -9l-516 333v18z" />
    <glyph glyph-name="uni25C1" unicode="&#x25c1;" horiz-adv-x="645" 
d="M555 672l16 -9v-666l-16 -9l-516 333v18zM454 470l-218 -140l218 -141v281z" />
    <glyph glyph-name="uni25C2" unicode="&#x25c2;" horiz-adv-x="480" 
d="M387 484l16 -9v-454l-16 -8l-353 226v18z" />
    <glyph glyph-name="uni25C3" unicode="&#x25c3;" horiz-adv-x="480" 
d="M387 484l16 -9v-454l-16 -8l-353 226v18zM312 170v157l-122 -79z" />
    <glyph glyph-name="triaglf" unicode="&#x25c4;" horiz-adv-x="970" 
d="M869 672l16 -9v-666l-16 -9l-825 333v18z" />
    <glyph glyph-name="uni25C5" unicode="&#x25c5;" horiz-adv-x="970" 
d="M869 672l16 -9v-666l-16 -9l-825 333v18zM768 507l-437 -177l437 -177v354z" />
    <glyph glyph-name="lozenge" unicode="&#x25ca;" horiz-adv-x="665" 
d="M365 672l213 -342l-213 -342h-45l-213 342l213 342h45zM242 330l104 -163l98 163l-101 162z" />
    <glyph glyph-name="circle" unicode="&#x25cb;" horiz-adv-x="775" 
d="M405 659q134 0 231 -97t97 -231q0 -135 -97 -233t-231 -98q-135 0 -233 97.5t-98 232.5t98 232t233 97zM405 546q-90 0 -152.5 -63t-62.5 -153t62.5 -153.5t151.5 -63.5t151 63.5t62 154.5q0 90 -61.5 152.5t-150.5 62.5z" />
    <glyph glyph-name="uni25CF" unicode="&#x25cf;" horiz-adv-x="775" 
d="M405 659q134 0 231 -97t97 -231q0 -135 -97 -233t-231 -98q-135 0 -233 97.5t-98 232.5t98 232t233 97z" />
    <glyph glyph-name="uni261C" unicode="&#x261c;" horiz-adv-x="1210" 
d="M1192 286v-36l-89 -74l52 -177l-34 -23l-233 146q-96 -48 -192.5 -76t-168.5 -28q-119 0 -119 72q0 21 14 37q-46 15 -46 58q0 30 25 47q-37 17 -37 53q0 18 12 35l-179 3q-83 2 -122 26t-39 76q0 56 46 76t146 20q72 0 163 -8q2 45 31 70t67 25q36 0 74 -23l248 -151
q34 -9 72 -23l238 149l34 -23l-52 -177zM511 530q-25 0 -29 -27q43 -6 127 -20l-71 39q-14 8 -27 8zM510 88q60 0 163.5 29.5t185.5 74.5v150q-118 47 -301 76t-373 29q-37 0 -51 -5.5t-14 -19.5q0 -23 59 -26l108 -3q172 -1 279 -10v-65l-109 1q-16 0 -16 -15q0 -16 15 -16
h121v-65h-109q-6 0 -10.5 -4.5t-4.5 -11.5q0 -16 15 -16h121v-65q-44 -6 -76 -6h-13q-6 0 -10.5 -4.5t-4.5 -10.5q0 -17 25 -17zM940 358v-181l107 -65l-30 98l76 58l-76 58l30 98z" />
    <glyph glyph-name="uni261E" unicode="&#x261e;" horiz-adv-x="1214" 
d="M1019 521q101 0 147 -20t46 -76q0 -52 -39 -76t-122 -26l-180 -3q13 -16 13 -35q0 -36 -36 -53q25 -17 25 -47q0 -42 -47 -58q14 -17 14 -37q0 -72 -119 -72q-72 0 -168.5 28t-192.5 76l-233 -146l-33 23l51 177l-88 74v36l88 73l-51 178l33 23l238 -149q38 14 72 23
l248 151q38 23 74 23q38 0 67 -25t31 -70q91 8 162 8zM710 522l-71 -39q78 13 127 20q-4 27 -29 27q-13 0 -27 -8zM1069 396q59 3 59 26q0 25 -62 25q-193 0 -375.5 -29t-301.5 -76v-150q83 -46 186 -75t164 -29q24 0 24 17q0 15 -16 15h-12q-31 0 -75 6v65h120q15 0 15 16
q0 7 -4.5 11.5t-10.5 4.5h-109v65h121q15 0 15 16q0 15 -17 15l-107 -1v65q105 9 278 10zM308 177v181l-107 66l30 -98l-76 -58l76 -58l-29 -98z" />
    <glyph glyph-name="uni2661" unicode="&#x2661;" horiz-adv-x="860" 
d="M649 672q81 0 137 -55t56 -141q0 -50 -24 -95t-84 -109l-260 -284h-20l-260 284q-59 65 -83 109.5t-24 94.5q0 86 56 141t137 55q64 0 113 -35.5t71 -92.5q22 57 71.5 92.5t113.5 35.5zM633 340q23 26 35.5 41.5t22.5 38t10 44.5q0 37 -22.5 58.5t-56.5 21.5
q-46 0 -77.5 -42.5t-45.5 -108.5h-69q-14 66 -45.5 108.5t-78.5 42.5q-34 0 -56 -21.5t-22 -58.5q0 -31 16.5 -58.5t50.5 -65.5l169 -190z" />
    <glyph glyph-name="heart" unicode="&#x2665;" horiz-adv-x="860" 
d="M649 672q81 0 137 -55t56 -141q0 -50 -24 -95t-84 -109l-260 -284h-20l-260 284q-59 65 -83 109.5t-24 94.5q0 86 56 141t137 55q64 0 113 -35.5t71 -92.5q22 57 71.5 92.5t113.5 35.5z" />
    <glyph glyph-name="uni275B" unicode="&#x275b;" horiz-adv-x="635" 
d="M394 421q88 0 147 -59.5t59 -146.5q0 -94 -67.5 -160.5t-176.5 -66.5q-128 0 -216.5 91.5t-88.5 221.5q0 61 21 123.5t62 119t113.5 92.5t163.5 36q121 0 215 -77l-61 -84q-69 54 -151 54q-109 0 -177 -76.5t-68 -179.5q0 -26 4 -47q23 70 84.5 114.5t136.5 44.5z" />
    <glyph glyph-name="uni275C" unicode="&#x275c;" horiz-adv-x="635" 
d="M311 672q129 0 217 -91t88 -222q0 -61 -21 -123.5t-62.5 -119t-113.5 -92.5t-164 -36q-120 0 -214 77l61 84q70 -54 151 -54q109 0 177 76.5t68 179.5q0 27 -4 47q-23 -70 -84.5 -114.5t-136.5 -44.5q-88 0 -147 59.5t-59 146.5q0 94 67.5 160.5t176.5 66.5z" />
    <glyph glyph-name="uni275D" unicode="&#x275d;" horiz-adv-x="1248" 
d="M1007 421q88 0 147 -59.5t59 -146.5q0 -94 -67.5 -160.5t-176.5 -66.5q-129 0 -217 91t-88 222q0 61 21 123.5t62 119t113.5 92.5t163.5 36q121 0 215 -77l-61 -84q-70 54 -151 54q-109 0 -177 -76.5t-68 -179.5q0 -26 4 -46q23 69 84.5 113.5t136.5 44.5zM414 565
q-109 0 -177 -76.5t-68 -179.5q0 -26 4 -47q23 70 84.5 114.5t136.5 44.5q88 0 147 -59.5t59 -146.5q0 -94 -67.5 -160.5t-176.5 -66.5q-128 0 -216.5 91.5t-88.5 221.5q0 61 21 123.5t62 119t113.5 92.5t163.5 36q121 0 215 -77l-61 -84q-69 54 -151 54z" />
    <glyph glyph-name="uni275E" unicode="&#x275e;" horiz-adv-x="1258" 
d="M934 672q128 0 216.5 -91.5t88.5 -221.5q0 -61 -21 -123.5t-62.5 -119t-114 -92.5t-163.5 -36q-120 0 -214 77l61 84q71 -54 151 -54q109 0 177 76.5t68 179.5q0 26 -4 46q-23 -69 -84.5 -113.5t-136.5 -44.5q-88 0 -147 59.5t-59 146.5q0 94 67 160.5t177 66.5zM311 672
q129 0 217 -91t88 -222q0 -61 -21 -123.5t-62.5 -119t-113.5 -92.5t-164 -36q-120 0 -214 77l61 84q70 -54 151 -54q109 0 177 76.5t68 179.5q0 27 -4 47q-23 -70 -84.5 -114.5t-136.5 -44.5q-88 0 -147 59.5t-59 146.5q0 94 67.5 160.5t176.5 66.5z" />
    <glyph glyph-name="uni2776" unicode="&#x2776;" horiz-adv-x="982" 
d="M507 762q179 0 305.5 -126.5t126.5 -305.5t-126.5 -305.5t-305.5 -126.5t-305 126.5t-126 305.5t126 305.5t305 126.5zM567 554h-198v-93h87v-263h-93v-93h289v93h-85v356z" />
    <glyph glyph-name="uni2777" unicode="&#x2777;" horiz-adv-x="982" 
d="M507 762q179 0 305.5 -126.5t126.5 -305.5t-126.5 -305.5t-305.5 -126.5t-305 126.5t-126 305.5t126 305.5t305 126.5zM504 562q-73 0 -120 -46t-47 -108q0 -15 5 -38h101q-3 16 -3 29q0 27 15.5 44t43.5 17q25 0 40 -15t15 -40q0 -24 -13 -45t-45 -57l-157 -176v-23h341
v94h-149l56 62q40 42 60.5 77t20.5 78q0 64 -46.5 105.5t-117.5 41.5z" />
    <glyph glyph-name="uni2778" unicode="&#x2778;" horiz-adv-x="982" 
d="M507 762q179 0 305.5 -126.5t126.5 -305.5t-126.5 -305.5t-305.5 -126.5t-305 126.5t-126 305.5t126 305.5t305 126.5zM662 554h-300v-100h134l-84 -122v-28h62q81 0 81 -51q0 -25 -18 -39.5t-46 -14.5q-48 0 -88 58l-77 -54q23 -49 67 -77.5t102 -28.5q74 0 124 44.5
t50 112.5q0 51 -28.5 86t-72.5 49l94 136v29z" />
    <glyph glyph-name="uni2779" unicode="&#x2779;" horiz-adv-x="982" 
d="M507 762q179 0 305.5 -126.5t126.5 -305.5t-126.5 -305.5t-305.5 -126.5t-305 126.5t-126 305.5t126 305.5t305 126.5zM547 554h-118l-127 -352v-30h226v-67h111v67h53v97h-53v103h-111v-103h-91z" />
    <glyph glyph-name="uni277A" unicode="&#x277a;" horiz-adv-x="982" 
d="M507 762q179 0 305.5 -126.5t126.5 -305.5t-126.5 -305.5t-305.5 -126.5t-305 126.5t-126 305.5t126 305.5t305 126.5zM651 554h-275v-250h107q81 0 81 -50q0 -26 -19 -41t-49 -15q-50 0 -92 59l-76 -54q22 -48 67.5 -77t104.5 -29q76 0 127 45t51 113q0 66 -46 105
t-105 39q-25 0 -45 -4v59h169v100z" />
    <glyph glyph-name="uni277B" unicode="&#x277b;" horiz-adv-x="982" 
d="M507 762q179 0 305.5 -126.5t126.5 -305.5t-126.5 -305.5t-305.5 -126.5t-305 126.5t-126 305.5t126 305.5t305 126.5zM631 554h-132l-112 -151q-33 -46 -47 -75.5t-14 -65.5q0 -71 50.5 -118t119.5 -47t120.5 47t51.5 117q0 50 -27 88t-69 53q-25 9 -47 8zM496 324
q26 0 44 -17.5t18 -44.5t-18 -45t-43 -18q-26 0 -43.5 18.5t-17.5 45.5q0 26 17.5 43.5t42.5 17.5z" />
    <glyph glyph-name="uni277C" unicode="&#x277c;" horiz-adv-x="982" 
d="M507 762q179 0 305.5 -126.5t126.5 -305.5t-126.5 -305.5t-305.5 -126.5t-305 126.5t-126 305.5t126 305.5t305 126.5zM679 554h-323v-101h176l-169 -348h122l194 420v29z" />
    <glyph glyph-name="uni277D" unicode="&#x277d;" horiz-adv-x="982" 
d="M507 762q179 0 305.5 -126.5t126.5 -305.5t-126.5 -305.5t-305.5 -126.5t-305 126.5t-126 305.5t126 305.5t305 126.5zM508 562q-68 0 -111 -32.5t-43 -90.5q0 -64 63 -102q-83 -34 -83 -109q0 -60 49 -95.5t125 -35.5t124.5 35.5t48.5 95.5q0 76 -82 110q62 37 62 102
q0 58 -43 90t-110 32zM508 475q22 0 36 -11.5t14 -31.5q0 -31 -51 -53q-49 21 -49 53q0 20 14 31.5t36 11.5zM507 299q32 -12 48.5 -26.5t16.5 -37.5t-16.5 -37t-47.5 -14q-32 0 -48.5 14.5t-16.5 37.5t16.5 37t47.5 26z" />
    <glyph glyph-name="uni277E" unicode="&#x277e;" horiz-adv-x="982" 
d="M507 762q179 0 305.5 -126.5t126.5 -305.5t-126.5 -305.5t-305.5 -126.5t-305 126.5t-126 305.5t126 305.5t305 126.5zM518 563q-69 0 -120.5 -47t-51.5 -117q0 -50 27.5 -88t69.5 -53q24 -9 47 -8l-106 -144h131l112 151q33 46 47 75.5t14 65.5q0 71 -50.5 118
t-119.5 47zM517 461q26 0 43.5 -18.5t17.5 -45.5q0 -26 -17.5 -43.5t-42.5 -17.5q-26 0 -44 17.5t-18 44.5t18 45t43 18z" />
    <glyph glyph-name="uni2780" unicode="&#x2780;" horiz-adv-x="982" 
d="M507 762q179 0 305.5 -126.5t126.5 -305.5t-126.5 -305.5t-305.5 -126.5t-305 126.5t-126 305.5t126 305.5t305 126.5zM507 657q-137 0 -230.5 -93t-93.5 -234t93.5 -234t230.5 -93t230.5 93.5t93.5 233.5t-93.5 233.5t-230.5 93.5zM567 554v-356h85v-93h-289v93h93v263
h-87v93h198z" />
    <glyph glyph-name="uni2781" unicode="&#x2781;" horiz-adv-x="982" 
d="M507 762q179 0 305.5 -126.5t126.5 -305.5t-126.5 -305.5t-305.5 -126.5t-305 126.5t-126 305.5t126 305.5t305 126.5zM507 657q-137 0 -230.5 -93t-93.5 -234t93.5 -234t230.5 -93t230.5 93.5t93.5 233.5t-93.5 233.5t-230.5 93.5zM504 562q71 0 117.5 -41.5
t46.5 -105.5q0 -43 -20.5 -78t-60.5 -77l-56 -62h149v-94h-341v23l157 176q32 36 45 57t13 45q0 25 -15 40t-40 15q-28 0 -43.5 -17t-15.5 -44q0 -12 3 -29h-101q-5 23 -5 38q0 62 47 108t120 46z" />
    <glyph glyph-name="uni2782" unicode="&#x2782;" horiz-adv-x="982" 
d="M507 762q179 0 305.5 -126.5t126.5 -305.5t-126.5 -305.5t-305.5 -126.5t-305 126.5t-126 305.5t126 305.5t305 126.5zM507 657q-137 0 -230.5 -93t-93.5 -234t93.5 -234t230.5 -93t230.5 93.5t93.5 233.5t-93.5 233.5t-230.5 93.5zM662 554v-29l-94 -136
q44 -14 72.5 -49t28.5 -86q0 -68 -50 -112.5t-124 -44.5q-58 0 -102 28.5t-67 77.5l77 54q40 -58 88 -58q28 0 46 14.5t18 39.5q0 51 -81 51h-62v28l84 122h-134v100h300z" />
    <glyph glyph-name="uni2783" unicode="&#x2783;" horiz-adv-x="982" 
d="M507 762q179 0 305.5 -126.5t126.5 -305.5t-126.5 -305.5t-305.5 -126.5t-305 126.5t-126 305.5t126 305.5t305 126.5zM507 657q-137 0 -230.5 -93t-93.5 -234t93.5 -234t230.5 -93t230.5 93.5t93.5 233.5t-93.5 233.5t-230.5 93.5zM547 554l-110 -285h91v103h111v-103
h53v-97h-53v-67h-111v67h-226v30l127 352h118z" />
    <glyph glyph-name="uni2784" unicode="&#x2784;" horiz-adv-x="982" 
d="M507 762q179 0 305.5 -126.5t126.5 -305.5t-126.5 -305.5t-305.5 -126.5t-305 126.5t-126 305.5t126 305.5t305 126.5zM507 657q-137 0 -230.5 -93t-93.5 -234t93.5 -234t230.5 -93t230.5 93.5t93.5 233.5t-93.5 233.5t-230.5 93.5zM652 554v-100h-169v-59q20 4 44 4
q60 0 106 -39t46 -105q0 -68 -51 -113t-127 -45q-59 0 -104.5 28.5t-68.5 77.5l77 54q42 -59 91 -59q30 0 49.5 15t19.5 41q0 50 -81 50h-107v250h275z" />
    <glyph glyph-name="uni2785" unicode="&#x2785;" horiz-adv-x="982" 
d="M507 762q179 0 305.5 -126.5t126.5 -305.5t-126.5 -305.5t-305.5 -126.5t-305 126.5t-126 305.5t126 305.5t305 126.5zM507 657q-137 0 -230.5 -93t-93.5 -234t93.5 -234t230.5 -93t230.5 93.5t93.5 233.5t-93.5 233.5t-230.5 93.5zM631 554l-106 -144q22 1 47 -8
q42 -15 69 -53t27 -88q0 -70 -51.5 -117t-120.5 -47t-119.5 47t-50.5 118q0 36 14 65.5t47 75.5l112 151h132zM496 324q-25 0 -42.5 -17.5t-17.5 -43.5q0 -27 17.5 -45.5t43.5 -18.5q25 0 43 18t18 45t-18 44.5t-44 17.5z" />
    <glyph glyph-name="uni2786" unicode="&#x2786;" horiz-adv-x="982" 
d="M507 762q179 0 305.5 -126.5t126.5 -305.5t-126.5 -305.5t-305.5 -126.5t-305 126.5t-126 305.5t126 305.5t305 126.5zM507 657q-137 0 -230.5 -93t-93.5 -234t93.5 -234t230.5 -93t230.5 93.5t93.5 233.5t-93.5 233.5t-230.5 93.5zM679 554v-29l-195 -420h-121l169 348
h-176v101h323z" />
    <glyph glyph-name="uni2787" unicode="&#x2787;" horiz-adv-x="982" 
d="M507 762q179 0 305.5 -126.5t126.5 -305.5t-126.5 -305.5t-305.5 -126.5t-305 126.5t-126 305.5t126 305.5t305 126.5zM507 657q-137 0 -230.5 -93t-93.5 -234t93.5 -234t230.5 -93t230.5 93.5t93.5 233.5t-93.5 233.5t-230.5 93.5zM508 562q67 0 110 -32t43 -90
q0 -65 -62 -102q82 -34 82 -110q0 -60 -48.5 -95.5t-124.5 -35.5t-125 35.5t-49 95.5q0 75 83 109q-63 38 -63 102q0 58 43 90.5t111 32.5zM508 475q-22 0 -36 -11.5t-14 -31.5q0 -32 49 -53q51 22 51 53q0 20 -14 31.5t-36 11.5zM507 299q-31 -12 -47.5 -26t-16.5 -37
t16.5 -37.5t48.5 -14.5q31 0 47.5 14t16.5 37t-16.5 37.5t-48.5 26.5z" />
    <glyph glyph-name="uni2788" unicode="&#x2788;" horiz-adv-x="982" 
d="M507 762q179 0 305.5 -126.5t126.5 -305.5t-126.5 -305.5t-305.5 -126.5t-305 126.5t-126 305.5t126 305.5t305 126.5zM507 657q-137 0 -230.5 -93.5t-93.5 -233.5t93.5 -233.5t230.5 -93.5t230.5 93t93.5 234t-93.5 234t-230.5 93zM518 563q69 0 119.5 -47t50.5 -118
q0 -36 -14 -65.5t-47 -75.5l-112 -151h-131l106 144q-23 -1 -47 8q-42 15 -69.5 53t-27.5 88q0 70 51.5 117t120.5 47zM517 461q-25 0 -43 -18t-18 -45t18 -44.5t44 -17.5q25 0 42.5 17.5t17.5 43.5q0 27 -17.5 45.5t-43.5 18.5z" />
    <glyph glyph-name="uni27F5" unicode="&#x27f5;" horiz-adv-x="1208" 
d="M1177 264h-863l-68 3l158 -159l-79 -79l-278 278v26l278 279l79 -80l-156 -157l66 3h863v-114z" />
    <glyph glyph-name="uni27F6" unicode="&#x27f6;" horiz-adv-x="1208" 
d="M910 612l279 -279v-26l-279 -278l-79 79l159 159l-69 -3h-863v114h863l67 -3l-157 157z" />
    <glyph glyph-name="uniF8FF" unicode="&#xf8ff;" horiz-adv-x="722" 
d="M99 0v660h524v-660h-524zM458 123q36 0 58 22.5t22 53.5q0 27 -17 55.5t-45 45.5l-24 -25q45 -43 45 -76q0 -17 -10 -28t-27 -11q-23 0 -43 27t-54 103q82 47 110.5 77.5t28.5 62.5q0 39 -27.5 60.5t-74.5 21.5q-11 0 -33 -2l26 55l-41 7l-33 -71q-46 -9 -103 -36
q-23 -64 -23 -161q0 -80 20 -158l42 -8q23 116 43 186.5t52 147.5q20 4 41 4q70 0 70 -50q0 -24 -26.5 -48t-113.5 -74l-1 -6q39 -99 67 -137t71 -38zM231 202q-2 35 -2 81q0 88 23 157q24 13 51 20q-51 -130 -65 -258h-7z" />
    <glyph glyph-name="Alpha.ordn" horiz-adv-x="429" 
d="M314 244l-10 46h-151l-25 -46h-117l262 424h33l114 -424h-106zM289 366l-27 118l-67 -118h94z" />
    <glyph glyph-name="Eta.ordn" horiz-adv-x="477" 
d="M495 660l-73 -416h-104l29 169h-157l-29 -169h-104l73 416h104l-27 -153h156l28 153h104z" />
    <glyph glyph-name="Nu.ordn" horiz-adv-x="477" 
d="M391 660h104l-75 -424h-34l-187 226l-38 -218h-104l74 424h34l188 -224z" />
    <glyph glyph-name="Omicron.ordn" horiz-adv-x="505" 
d="M306 668q89 0 147.5 -57.5t58.5 -144.5q0 -96 -69.5 -163t-167.5 -67q-90 0 -149 57.5t-59 144.5q0 96 70 163t169 67zM299 572q-53 0 -89.5 -37t-36.5 -92q0 -49 31 -79.5t78 -30.5q52 0 88 36.5t36 91.5q0 50 -30.5 80.5t-76.5 30.5z" />
    <glyph glyph-name="Rho.ordn" horiz-adv-x="397" 
d="M272 660q70 0 110.5 -36t40.5 -97q0 -68 -50 -109t-130 -41h-59l-23 -133h-104l73 416h142zM267 569h-48l-18 -101h56q30 0 45.5 14.5t15.5 39.5q0 47 -51 47z" />
    <glyph glyph-name="Sigma.ordn" horiz-adv-x="371" 
d="M410 660l-17 -94h-155l52 -109l-3 -21l-79 -99h153l-17 -93h-318l4 21l148 193l-83 181l4 21h311z" />
    <glyph glyph-name="Upsilon.ordn" horiz-adv-x="409" 
d="M472 660l-187 -258l-27 -158h-103l28 160l-98 256h110l54 -148l105 148h118z" />
    <glyph glyph-name="alpha.ordn" horiz-adv-x="433" 
d="M418 328q3 0 8 0.5t8 0.5l-16 -88q-15 -3 -36 -3q-60 0 -80 44q-39 -44 -101 -44q-66 0 -104.5 43t-38.5 104q0 41 17 81.5t56 70.5t93 30q63 0 95 -40l5 32h104l-32 -185q-3 -12 -3 -21q0 -25 25 -25zM226 330q31 0 51.5 21.5t21.5 53.5q1 31 -17 50t-47 19
q-31 0 -51.5 -22t-20.5 -55q-1 -30 16.5 -48.5t46.5 -18.5z" />
    <glyph glyph-name="eta.ordn" horiz-adv-x="409" 
d="M290 565q50 -1 78.5 -30.5t28.5 -75.5q0 -20 -5 -43l-49 -285h-104l49 274q3 18 3 26q0 19 -12 30t-30 11q-45 0 -53 -49l-32 -179h-103l32 184q4 19 4 24q0 21 -26 21h-15l16 87q17 5 37 5q55 0 77 -39q49 40 104 39z" />
    <glyph glyph-name="nu.ordn" horiz-adv-x="367" 
d="M301 559h114l-216 -323h-33l-102 323h107l40 -145z" />
    <glyph glyph-name="omicron.ordn" horiz-adv-x="403" 
d="M240 572q70 0 116 -45t45 -113q-1 -72 -54 -121.5t-126 -49.5q-70 0 -115.5 45t-44.5 113q1 73 53.5 122t125.5 49zM236 479q-31 0 -51 -22t-21 -55q0 -30 17 -48t45 -18q30 0 50 21.5t21 54.5q0 30 -17 48.5t-44 18.5z" />
    <glyph glyph-name="rho.ordn" horiz-adv-x="414" 
d="M249 565q74 0 118.5 -42t44.5 -107q0 -66 -42.5 -123t-117.5 -57q-62 0 -94 41l-27 -146h-103l49 274q29 160 172 160zM307 406q0 30 -17 48t-43 18q-31 0 -50.5 -22t-19.5 -52q-1 -30 16.5 -49t44.5 -19q29 0 48.5 22t20.5 54z" />
    <glyph glyph-name="uni03C2.ordn" horiz-adv-x="352" 
d="M241 565q52 0 88.5 -25t51.5 -64l-78 -48q-25 43 -66 43q-32 0 -52.5 -20t-20.5 -51q0 -27 15.5 -41.5t48.5 -30.5q28 -14 41.5 -22t28.5 -20.5t20.5 -28.5t5.5 -37q0 -37 -28 -89h-103q24 44 24 64q0 13 -8 23t-15 13.5t-24 12.5q-24 12 -39 21.5t-34 27t-28.5 42
t-9.5 55.5q0 75 53.5 125t128.5 50z" />
    <glyph glyph-name="sigma.ordn" horiz-adv-x="418" 
d="M466 559l-16 -87h-75q25 -31 25 -74q0 -67 -53 -114t-127 -47q-70 0 -115.5 44t-45.5 112q0 73 54.5 119.5t140.5 46.5h212zM294 404q1 31 -15.5 48t-43.5 17q-30 0 -49.5 -19.5t-20.5 -53.5q0 -30 16.5 -48t43.5 -18q30 0 49.5 20.5t19.5 53.5z" />
    <glyph glyph-name="upsilon.ordn" horiz-adv-x="396" 
d="M389 559q5 -48 5 -82q0 -106 -43 -173t-135 -67q-64 0 -103.5 35t-39.5 94q0 17 3 35l27 158h104l-29 -160q-3 -15 -3 -23q0 -20 12.5 -32t31.5 -12q70 0 70 163q0 18 -2 64h102z" />
    <glyph glyph-name="zero.lf" horiz-adv-x="635" 
d="M384 672q108 0 163.5 -68t55.5 -185q0 -51 -10 -106.5t-34 -114.5t-59.5 -105t-91.5 -75.5t-125 -29.5q-107 0 -162.5 69.5t-55.5 187.5q0 51 9.5 105.5t33.5 113t59 104t91.5 75t125.5 29.5zM368 548q-46 0 -81 -32t-52 -82t-25 -97.5t-8 -90.5q0 -69 26.5 -101.5
t71.5 -32.5q46 0 80.5 33.5t52 84t25.5 98t8 88.5q0 132 -98 132z" />
    <glyph glyph-name="one.lf" horiz-adv-x="402" 
d="M341 660h44l-116 -660h-135l89 510l-129 -29l-13 121z" />
    <glyph glyph-name="two.lf" horiz-adv-x="584" 
d="M364 190l-92 -76h237l-19 -114l-487 -1l4 30l283 247q66 57 93.5 99.5t27.5 83.5t-23 64.5t-63 23.5q-52 0 -77 -37.5t-25 -88.5v-22h-136q-1 8 -1 27q0 95 63.5 170.5t180.5 75.5q100 0 159.5 -57t59.5 -146q0 -71 -42.5 -133.5t-142.5 -145.5z" />
    <glyph glyph-name="three.lf" horiz-adv-x="549" 
d="M563 660l-7 -36l-182 -213q54 -22 89 -71t35 -113q0 -93 -68 -166t-189 -73q-94 0 -155.5 47.5t-84.5 122.5l105 57q46 -103 136 -103q56 0 86.5 31t30.5 76t-32 69t-92 24h-73l6 36l163 192h-213l21 120h424z" />
    <glyph glyph-name="four.lf" horiz-adv-x="577" 
d="M559 221l-20 -113h-85l-19 -108h-134l19 108h-328l7 36l283 517h144l-243 -440h156l33 186h134l-32 -186h85z" />
    <glyph glyph-name="five.lf" horiz-adv-x="564" 
d="M528 540h-252l-20 -118q28 5 52 5q85 0 145.5 -52.5t60.5 -143.5q0 -97 -70 -170t-192 -73q-96 0 -159 47.5t-86 122.5l105 57q45 -103 140 -103q58 0 90.5 31t32.5 77q0 43 -31 67.5t-91 24.5h-147l61 348h382z" />
    <glyph glyph-name="six.lf" horiz-adv-x="563" 
d="M319 446q82 -2 142 -62t60 -151q0 -104 -77 -174t-179 -70q-97 0 -164.5 63.5t-67.5 162.5q0 60 27 108t87 117l190 220h168zM271 111q49 0 83 33.5t34 85.5q0 47 -29 76.5t-76 29.5q-49 0 -83 -33.5t-34 -83.5q0 -47 29 -77.5t76 -30.5z" />
    <glyph glyph-name="seven.lf" horiz-adv-x="525" 
d="M112 660h463l-6 -36l-407 -624h-152l360 541h-279z" />
    <glyph glyph-name="eight.lf" horiz-adv-x="588" 
d="M433 329q100 -55 100 -142q0 -75 -63 -136.5t-180 -61.5q-44 0 -87 10t-82 30t-63 56.5t-24 84.5q0 62 42.5 111.5t123.5 71.5q-72 54 -72 130q0 75 57.5 131.5t163.5 56.5q89 0 153.5 -42t64.5 -126q0 -116 -134 -174zM348 562q-43 0 -68.5 -21.5t-25.5 -55.5
q0 -25 16.5 -44.5t55.5 -44.5q55 18 84 39.5t29 55.5q0 32 -25.5 51.5t-65.5 19.5zM283 100q58 0 87 25.5t29 60.5q0 31 -23 53.5t-70 46.5q-71 -18 -103.5 -42.5t-32.5 -61.5t29.5 -59.5t83.5 -22.5z" />
    <glyph glyph-name="nine.lf" horiz-adv-x="563" 
d="M329 671q97 0 164 -63.5t67 -162.5q0 -60 -26.5 -107.5t-86.5 -116.5l-191 -221h-168l187 215q-82 2 -142 62t-60 151q0 104 76.5 173.5t179.5 69.5zM310 325q50 0 84 33t34 84q0 47 -29.5 77.5t-75.5 30.5q-49 0 -83 -33.5t-34 -85.5q0 -47 29 -76.5t75 -29.5z" />
    <glyph glyph-name="zero.slash.lf" horiz-adv-x="635" 
d="M383 672q108 0 163.5 -68t55.5 -185q0 -51 -10 -106.5t-34 -114t-59.5 -105t-91.5 -76t-124 -29.5q-108 0 -163 69.5t-55 186.5q0 51 9.5 106t33.5 113.5t59 104t91 75t125 29.5zM370 556q-46 0 -81 -28t-53.5 -73.5t-28 -89.5t-12.5 -89l264 224q-26 56 -89 56zM294 104
q44 0 78.5 28t54 73.5t30.5 89.5t14 89l-263 -223q26 -57 86 -57z" />
    <glyph glyph-name="zero.slash" horiz-adv-x="659" 
d="M347 549q116 0 196.5 -76.5t80.5 -190.5q0 -122 -90.5 -208t-214.5 -86q-116 0 -195.5 76.5t-79.5 190.5q0 122 90 208t213 86zM344 433q-70 0 -118.5 -52t-48.5 -125q0 -22 6 -43l248 192q-37 28 -87 28zM322 105q70 0 119.5 49.5t49.5 123.5q0 29 -7 51l-252 -195
q39 -29 90 -29z" />
    <glyph glyph-name="zero.tf" 
d="M340 671q100 0 153 -67.5t53 -185.5q0 -49 -8.5 -103t-30 -113.5t-54 -105.5t-84.5 -76.5t-117 -30.5q-100 0 -152 68.5t-52 188.5q0 49 8 102.5t29 112t53 104.5t84.5 76t117.5 30zM326 546q-38 0 -67.5 -34.5t-44.5 -87t-22.5 -101.5t-7.5 -89q0 -120 82 -120
q37 0 66.5 35.5t45 87.5t23.5 102t8 90q0 117 -83 117z" />
    <glyph glyph-name="one.tf" 
d="M352 114h155l-20 -114h-467l20 114h177l69 395l-160 -42l-15 120l294 82h44z" />
    <glyph glyph-name="two.tf" 
d="M358 190l-93 -77h239l-20 -113l-487 -1l5 29l282 247q123 105 123 184q0 41 -23.5 65t-63.5 24q-53 0 -78 -37.5t-25 -89.5q0 -14 1 -22h-136q-1 8 -1 27q0 60 24.5 114t82 93t137.5 39q100 0 159.5 -57t59.5 -146q0 -71 -43 -133.5t-143 -145.5z" />
    <glyph glyph-name="three.tf" 
d="M563 660l-7 -36l-183 -213q55 -22 90 -71t35 -113q0 -92 -68.5 -165.5t-188.5 -73.5q-95 0 -156 47t-85 123l105 57q46 -103 136 -103q56 0 87 31t31 76t-32.5 69t-91.5 24h-73l6 36l163 193h-213l21 119h424z" />
    <glyph glyph-name="four.tf" 
d="M535 221l-21 -113h-68l-19 -108h-135l19 108h-321l6 36l271 517h144l-233 -440h153l32 183h135l-32 -183h69z" />
    <glyph glyph-name="five.tf" 
d="M530 541h-252l-21 -119q30 5 52 5q85 0 145.5 -52.5t60.5 -143.5q0 -97 -69.5 -170t-191.5 -73q-96 0 -159 47.5t-86 122.5l105 57q45 -103 140 -103q58 0 90 31t32 77q0 43 -31 67.5t-91 24.5h-147l61 348h383z" />
    <glyph glyph-name="six.tf" 
d="M321 446q82 -2 141 -62t59 -151q0 -104 -76.5 -174t-178.5 -70q-97 0 -164.5 63.5t-67.5 162.5q0 60 27 108t87 117l190 220h167zM272 110q49 0 83.5 34t34.5 86q0 47 -29.5 77t-75.5 30q-50 0 -84.5 -33.5t-34.5 -84.5q0 -47 30 -78t76 -31z" />
    <glyph glyph-name="seven.tf" 
d="M136 660h462l-6 -36l-406 -624h-152l359 541h-278z" />
    <glyph glyph-name="eight.tf" 
d="M415 328q101 -54 101 -142q0 -74 -62.5 -135.5t-178.5 -61.5q-43 0 -85.5 10t-81 30t-62 56.5t-23.5 84.5q0 63 42.5 112.5t122.5 70.5q-72 56 -72 130q0 75 57 131t163 56q87 0 150.5 -41.5t63.5 -124.5q0 -118 -135 -176zM334 564q-41 0 -67.5 -23t-26.5 -57
q0 -25 17 -44.5t55 -44.5q54 18 83 40t29 56q0 32 -26 52.5t-64 20.5zM268 97q56 0 85 26.5t29 62.5q0 30 -22 53t-67 48q-70 -18 -102.5 -43t-32.5 -63t29 -61t81 -23z" />
    <glyph glyph-name="nine.tf" 
d="M327 671q96 0 163.5 -64t67.5 -162q0 -61 -27 -109t-87 -116l-190 -220h-168l186 214q-81 2 -141 62t-60 151q0 104 76.5 174t179.5 70zM308 324q50 0 84 33t34 84q0 47 -29.5 77.5t-75.5 30.5q-49 0 -83 -33.5t-34 -85.5q0 -47 29 -76.5t75 -29.5z" />
    <glyph glyph-name="zero.slash.tf" 
d="M340 671q100 0 153 -67.5t53 -185.5q0 -49 -8.5 -103t-30 -113.5t-54 -105.5t-84.5 -76.5t-117 -30.5q-100 0 -152 68.5t-52 188.5q0 49 8 102.5t29 112t53 104.5t84.5 76t117.5 30zM328 555q-32 0 -59 -24t-44 -64.5t-27.5 -82.5t-15.5 -87l227 194q-16 64 -81 64z
M264 105q42 0 74 43t48 97t24 117l-226 -192q17 -65 80 -65z" />
    <glyph glyph-name="zero.tosf" 
d="M296 547q107 0 177 -71t70 -181q0 -52 -17.5 -105t-49.5 -98.5t-85.5 -74.5t-119.5 -29q-107 0 -175.5 71t-68.5 181q0 52 17 105t49 99t85 74.5t118 28.5zM293 423q-45 0 -76 -32t-41.5 -70t-10.5 -77q0 -61 29.5 -96.5t79.5 -35.5q46 0 77.5 33t42 71.5t10.5 76.5
q0 60 -30.5 95t-80.5 35z" />
    <glyph glyph-name="one.tosf" 
d="M421 537l-75 -424h164l-20 -113h-475l20 113h176l54 305h-165l22 119h299z" />
    <glyph glyph-name="two.tosf" 
d="M327 121l-14 -9h182l-19 -112h-488l5 29l233 153q42 28 62.5 43t46 37.5t36 43t10.5 43.5q0 34 -23 55t-63 21q-51 0 -73.5 -31.5t-22.5 -72.5q0 -15 1 -25h-129q-6 24 -6 45q0 82 67 145t170 63q95 0 156 -54.5t61 -133.5q0 -68 -48 -122.5t-144 -117.5z" />
    <glyph glyph-name="three.tosf" 
d="M541 537l-7 -36l-181 -211q54 -22 89 -71t35 -113q0 -93 -69 -166t-188 -73q-95 0 -156 46.5t-85 122.5l105 58q23 -52 55.5 -78t80.5 -26q55 0 86 31.5t31 76.5q0 44 -31.5 68.5t-89.5 24.5h-75l6 35l165 192h-216l21 119h424z" />
    <glyph glyph-name="four.tosf" 
d="M516 112l-20 -112h-71l-21 -121h-134l21 121h-321l7 36l280 501h145l-242 -425h151l31 178h134l-31 -178h71z" />
    <glyph glyph-name="five.tosf" 
d="M508 418h-252l-20 -118q30 5 51 5q85 0 146 -52.5t61 -142.5q0 -97 -69.5 -170t-190.5 -73q-95 0 -158.5 47t-87.5 122l105 58q46 -104 139 -104q58 0 90 31t32 77q0 44 -31 68t-91 24h-146l60 347h383z" />
    <glyph glyph-name="six.tosf" 
d="M323 446q82 -2 141.5 -62t59.5 -151q0 -104 -76.5 -174t-179.5 -70q-96 0 -163.5 63.5t-67.5 162.5q0 60 26.5 108t86.5 117l191 220h166zM274 110q49 0 83.5 34t34.5 86q0 47 -29.5 77t-75.5 30q-49 0 -84 -34t-35 -84q0 -47 30 -78t76 -31z" />
    <glyph glyph-name="seven.tosf" 
d="M114 537h463l-6 -36l-405 -622h-152l358 539h-279z" />
    <glyph glyph-name="eight.tosf" 
d="M415 328q101 -54 101 -142q0 -74 -62.5 -135.5t-178.5 -61.5q-43 0 -85.5 10t-81 30t-62 56.5t-23.5 84.5q0 63 42.5 112.5t122.5 70.5q-72 56 -72 130q0 75 57 131t163 56q87 0 150.5 -41.5t63.5 -124.5q0 -118 -135 -176zM334 564q-41 0 -67.5 -23t-26.5 -57
q0 -25 17 -44.5t55 -44.5q54 18 83 40t29 56q0 32 -26 52.5t-64 20.5zM268 97q56 0 85 26.5t29 62.5q0 30 -22 53t-67 48q-70 -18 -102.5 -43t-32.5 -63t29 -61t81 -23z" />
    <glyph glyph-name="nine.tosf" 
d="M308 549q97 0 164.5 -63.5t67.5 -162.5q0 -60 -27 -108t-87 -117l-189 -219h-167l184 214q-82 2 -142 62t-60 151q0 103 77 173t179 70zM290 202q49 0 84 34t35 84q0 47 -30 77.5t-77 30.5q-49 0 -83 -33.5t-34 -85.5q0 -48 29 -77.5t76 -29.5z" />
    <glyph glyph-name="zero.slash.tosf" 
d="M297 547q107 0 176.5 -71t69.5 -181q0 -71 -28.5 -139t-92.5 -118t-150 -50q-107 0 -176 71t-69 181q0 72 28.5 140t92 117.5t149.5 49.5zM296 433q-39 0 -68 -19.5t-44 -50t-22 -61t-7 -59.5q0 -4 0.5 -10.5t0.5 -9.5l221 180q-31 30 -81 30zM274 102q39 0 68.5 20
t44.5 51t22 61.5t7 59.5q0 17 -1 25l-224 -183q31 -34 83 -34z" />
    <glyph glyph-name="zero.dnom" horiz-adv-x="421" 
d="M238 424q71 0 106 -42.5t35 -116.5q0 -42 -11 -86.5t-33.5 -88t-64.5 -71t-97 -27.5q-70 0 -106 44t-36 118q0 42 11 85.5t33.5 86.5t64.5 70.5t98 27.5zM224 332q-25 0 -44 -18.5t-28.5 -47t-14 -55.5t-4.5 -52q0 -75 52 -75q25 0 44.5 19t29 48.5t14 56.5t4.5 51
q0 73 -53 73z" />
    <glyph glyph-name="one.dnom" horiz-adv-x="370" 
d="M275 416l-57 -326h86l-16 -90h-288l16 90h101l42 236h-93l16 90h193z" />
    <glyph glyph-name="two.dnom" horiz-adv-x="384" 
d="M220 113l-28 -23h127l-17 -90l-310 -1l3 21l177 160q70 63 70 105q0 22 -12.5 34.5t-33.5 12.5q-53 0 -53 -71v-10h-100q-1 6 -1 15q0 63 41 110.5t117 47.5q66 0 105.5 -37.5t39.5 -94.5q0 -45 -28.5 -83.5t-96.5 -95.5z" />
    <glyph glyph-name="three.dnom" horiz-adv-x="360" 
d="M349 416l-5 -27l-108 -130q31 -15 51 -45t20 -69q0 -59 -43.5 -106t-121.5 -47q-61 0 -101 31t-54 81l79 41q26 -61 77 -61q31 0 47 16t16 40q0 47 -69 47h-55l4 25l96 114h-123l17 90h273z" />
    <glyph glyph-name="four.dnom" horiz-adv-x="374" 
d="M348 150l-16 -86h-48l-11 -64h-93l11 64h-211l4 27l171 326h111l-141 -267h81l19 105h92l-18 -105h49z" />
    <glyph glyph-name="five.dnom" horiz-adv-x="370" 
d="M328 326h-156l-10 -56q20 2 28 2q51 0 89.5 -32.5t38.5 -90.5q0 -62 -45 -109.5t-123 -47.5q-62 0 -103.5 31t-55.5 81l79 41q25 -61 81 -61q30 0 47.5 16t17.5 40q0 47 -68 47h-96l40 229h252z" />
    <glyph glyph-name="six.dnom" horiz-adv-x="374" 
d="M217 287q45 -7 77.5 -44t32.5 -92q0 -68 -49.5 -113t-114.5 -45q-62 0 -106.5 41t-44.5 106q0 37 16.5 67t54.5 74l118 135h128zM167 85q25 0 42.5 18t17.5 45q0 25 -14.5 40t-38.5 15q-26 0 -43.5 -17.5t-17.5 -43.5q0 -24 15 -40.5t39 -16.5z" />
    <glyph glyph-name="seven.dnom" horiz-adv-x="345" 
d="M64 416h296l-5 -27l-240 -389h-117l206 326h-156z" />
    <glyph glyph-name="eight.dnom" horiz-adv-x="388" 
d="M276 205q55 -31 55 -84q0 -48 -40.5 -87.5t-113.5 -39.5q-37 0 -71.5 9t-63.5 37t-29 70q0 38 23.5 69.5t72.5 44.5q-38 33 -38 78q0 48 37 85t106 37q57 0 98.5 -27t41.5 -82q0 -71 -78 -110zM212 345q-21 0 -35 -12t-14 -30q0 -20 38 -47q60 22 60 50q0 17 -14 28
t-35 11zM171 74q30 0 45.5 13.5t15.5 32.5q0 28 -46 54q-39 -11 -56 -23.5t-17 -31.5q0 -21 15.5 -33t42.5 -12z" />
    <glyph glyph-name="nine.dnom" horiz-adv-x="374" 
d="M200 423q61 0 105.5 -41t44.5 -106q0 -38 -16.5 -68t-53.5 -73l-119 -135h-127l112 129q-46 7 -78.5 44t-32.5 92q0 68 50 113t115 45zM189 213q25 0 43 17.5t18 43.5q0 24 -15.5 40.5t-38.5 16.5q-26 0 -43 -17.5t-17 -45.5q0 -25 14.5 -40t38.5 -15z" />
    <glyph glyph-name="zero.numr" horiz-adv-x="421" 
d="M281 668q71 0 106 -42.5t35 -116.5q0 -42 -11 -86.5t-33.5 -88t-64.5 -71t-97 -27.5q-70 0 -106 44t-36 118q0 42 11 85.5t33.5 86.5t64.5 70.5t98 27.5zM267 576q-25 0 -44 -18.5t-28.5 -47t-14 -55.5t-4.5 -52q0 -75 52 -75q25 0 44.5 19t29 48.5t14 56.5t4.5 51
q0 73 -53 73z" />
    <glyph glyph-name="one.numr" horiz-adv-x="370" 
d="M318 660l-57 -326h86l-16 -90h-288l16 90h101l42 236h-93l16 90h193z" />
    <glyph glyph-name="two.numr" horiz-adv-x="384" 
d="M263 357l-28 -23h127l-17 -90l-310 -1l3 21l177 160q70 63 70 105q0 22 -12.5 34.5t-33.5 12.5q-53 0 -53 -71v-10h-100q-1 6 -1 15q0 63 41 110.5t117 47.5q66 0 105.5 -37.5t39.5 -94.5q0 -45 -28.5 -83.5t-96.5 -95.5z" />
    <glyph glyph-name="three.numr" horiz-adv-x="360" 
d="M392 660l-5 -27l-108 -130q31 -15 51 -45t20 -69q0 -59 -43.5 -106t-121.5 -47q-61 0 -101 31t-54 81l79 41q26 -61 77 -61q30 0 46.5 16t16.5 40q0 47 -69 47h-54h-1l4 25l97 114h-124l17 90h273z" />
    <glyph glyph-name="four.numr" horiz-adv-x="374" 
d="M391 394l-16 -86h-48l-11 -64h-93l11 64h-211l4 27l171 326h111l-142 -267h82l19 105h92l-18 -105h49z" />
    <glyph glyph-name="five.numr" horiz-adv-x="370" 
d="M371 570h-156l-10 -57q13 3 28 3q51 0 89.5 -32.5t38.5 -90.5q0 -62 -45 -109.5t-123 -47.5q-62 0 -103.5 31t-55.5 81l79 41q25 -61 81 -61q30 0 47.5 16t17.5 40q0 47 -68 47h-96l40 229h252z" />
    <glyph glyph-name="six.numr" horiz-adv-x="374" 
d="M260 531q46 -7 78 -44t32 -92q0 -68 -49.5 -113t-114.5 -45q-62 0 -106.5 41t-44.5 106q0 37 16.5 67t54.5 74l118 135h128zM210 329q25 0 42.5 18t17.5 45q0 25 -14.5 40t-38.5 15q-26 0 -43.5 -17.5t-17.5 -43.5q0 -24 15 -40.5t39 -16.5z" />
    <glyph glyph-name="seven.numr" horiz-adv-x="345" 
d="M107 660h296l-5 -27l-240 -389h-117l206 326h-156z" />
    <glyph glyph-name="eight.numr" horiz-adv-x="388" 
d="M319 449q55 -31 55 -84q0 -48 -40.5 -87.5t-113.5 -39.5q-37 0 -71.5 9t-63.5 37t-29 70q0 38 23.5 69.5t72.5 44.5q-38 33 -38 78q0 48 37 85t106 37q57 0 98.5 -27t41.5 -82q0 -71 -78 -110zM255 589q-21 0 -35 -12t-14 -30q0 -20 38 -47q60 21 60 50q0 17 -14 28
t-35 11zM214 318q30 0 45.5 13.5t15.5 32.5q0 29 -46 54q-39 -11 -56 -23.5t-17 -31.5q0 -21 15.5 -33t42.5 -12z" />
    <glyph glyph-name="nine.numr" horiz-adv-x="374" 
d="M243 667q61 0 105.5 -41t44.5 -106q0 -38 -16.5 -68t-53.5 -73l-119 -135h-127l112 129q-46 7 -78.5 44t-32.5 92q0 68 50 113t115 45zM232 457q25 0 43 17.5t18 43.5q0 24 -15.5 40.5t-38.5 16.5q-26 0 -43 -17.5t-17 -45.5q0 -25 14.5 -40t38.5 -15z" />
    <glyph glyph-name="backslash.case" horiz-adv-x="646" 
d="M221 761l362 -861h-126l-362 861h126z" />
    <glyph glyph-name="periodcentered.case" horiz-adv-x="270" 
d="M155 441q39 0 65.5 -27t26.5 -66q0 -40 -26 -66.5t-66 -26.5t-66.5 26.5t-26.5 66.5q0 39 26.5 66t66.5 27z" />
    <glyph glyph-name="bullet.case" horiz-adv-x="426" 
d="M224 458q68 0 115 -45.5t47 -113.5q0 -67 -47 -112.5t-115 -45.5q-67 0 -115 45.5t-48 112.5q0 68 47.5 113.5t115.5 45.5z" />
    <glyph glyph-name="slash.case" horiz-adv-x="643" 
d="M732 762l-646 -862h-144l645 862h145z" />
    <glyph glyph-name="comma.subs" horiz-adv-x="205" 
d="M123 -16l-80 -229h-82l44 229h118z" />
    <glyph glyph-name="period.subs" horiz-adv-x="205" 
d="M51 12q29 0 49 -20.5t20 -49.5q0 -31 -20 -51t-49 -20q-31 0 -51.5 20t-20.5 51q0 30 20.5 50t51.5 20z" />
    <glyph glyph-name="comma.sups" horiz-adv-x="205" 
d="M208 468l-80 -229h-82l44 229h118z" />
    <glyph glyph-name="period.sups" horiz-adv-x="205" 
d="M136 496q29 0 49 -20.5t20 -49.5q0 -31 -20 -51t-49 -20q-31 0 -51.5 20t-20.5 51q0 30 20.5 50t51.5 20z" />
    <glyph glyph-name="braceleft.case" horiz-adv-x="411" 
d="M384 760h80l-19 -108h-57q-44 0 -61 -26t-17 -76v-92q0 -63 -18.5 -93t-73.5 -39q59 -12 59 -63q0 -31 -28 -107t-28 -102q0 -46 54 -46h57l-19 -108h-81q-58 0 -95.5 30t-37.5 87q0 42 29 118t29 97q0 37 -48 37h-62l20 114h66q37 0 50.5 18t13.5 59v100q0 200 187 200z
" />
    <glyph glyph-name="braceright.case" horiz-adv-x="413" 
d="M334 384h63l-21 -115h-66q-38 0 -51 -19t-13 -61v-86q0 -203 -187 -203h-79l18 108h57q45 0 61.5 26t16.5 79v82q0 64 19 94t77 38q-63 13 -63 67q0 30 28 108t28 104q0 46 -54 46h-57l19 108h82q57 0 94.5 -30t37.5 -87q0 -42 -28.5 -122t-28.5 -102q0 -35 47 -35z" />
    <glyph glyph-name="bracketleft.case" horiz-adv-x="359" 
d="M411 760l-19 -108h-113l-113 -643h113l-19 -109h-228l151 860h228z" />
    <glyph glyph-name="bracketright.case" horiz-adv-x="360" 
d="M360 760l-151 -860h-228l18 108h113l114 643h-113l18 109h229z" />
    <glyph glyph-name="parenleft.case" horiz-adv-x="367" 
d="M382 765l39 -84q-79 -38 -131.5 -116t-73.5 -162.5t-21 -174.5q0 -99 26 -159t75 -101l-66 -74q-71 43 -112 127t-41 208q0 79 18 159.5t53.5 156.5t96 135t137.5 85z" />
    <glyph glyph-name="parenright.case" horiz-adv-x="368" 
d="M169 765q70 -43 111 -127t41 -208q0 -79 -18 -159.5t-53 -156.5t-95.5 -135t-137.5 -85l-40 84q79 38 132 116t74 162.5t21 174.5q0 99 -26 159t-75 101z" />
    <glyph glyph-name="emdash.case" horiz-adv-x="1001" 
d="M980 404l-21 -113h-900l21 113h900z" />
    <glyph glyph-name="endash.case" horiz-adv-x="501" 
d="M494 405l-20 -113h-430l21 113h429z" />
    <glyph glyph-name="uni2015.case" horiz-adv-x="1001" 
d="M980 404l-21 -113h-900l21 113h900z" />
    <glyph glyph-name="hyphen.case" horiz-adv-x="340" 
d="M324 404l-20 -113h-249l20 113h249z" />
    <glyph glyph-name="uni00AD.case" horiz-adv-x="340" 
d="M324 404l-20 -113h-249l20 113h249z" />
    <glyph glyph-name="guillemotleft.case" horiz-adv-x="596" 
d="M602 449l-163 -154l109 -151l-94 -71l-162 209l7 36l226 210zM345 449l-162 -154l109 -151l-94 -71l-162 209l6 36l227 210z" />
    <glyph glyph-name="guillemotright.case" horiz-adv-x="597" 
d="M420 528l162 -209l-7 -36l-226 -210l-77 80l162 154l-108 150zM325 319l-6 -36l-226 -210l-77 80l162 153l-108 151l94 71z" />
    <glyph glyph-name="guilsinglleft.case" horiz-adv-x="340" 
d="M345 449l-162 -154l109 -151l-94 -71l-162 209l6 36l227 210z" />
    <glyph glyph-name="guilsinglright.case" horiz-adv-x="340" 
d="M164 528l161 -209l-6 -36l-226 -210l-77 80l162 153l-108 151z" />
    <glyph glyph-name="cent.tf" 
d="M307 189q77 0 128 65l85 -73q-73 -105 -204 -114l-29 -164h-118l32 181q-72 27 -115 87.5t-43 140.5q0 104 71 180t175 90l29 167h118l-31 -174q103 -29 144 -123l-99 -65q-48 76 -126 76q-61 0 -102 -42.5t-41 -104.5q0 -57 34.5 -92t91.5 -35z" />
    <glyph glyph-name="currency.tf" 
d="M520 338q0 -76 -49 -142l68 -77l-84 -78l-73 84q-40 -18 -92 -18q-71 0 -125 34l-88 -87l-77 83l89 86q-21 45 -21 90q0 74 46 138l-64 74l84 78l69 -79q42 20 94 20q72 0 127 -36l89 83l77 -85l-90 -82q20 -40 20 -86zM288 225q44 0 73.5 30t29.5 76q0 41 -26.5 67
t-66.5 26q-43 0 -72.5 -29t-29.5 -74q0 -42 26 -69t66 -27z" />
    <glyph glyph-name="dollar.tf" 
d="M365 368q121 -61 121 -158q0 -67 -49 -124t-138 -65l-21 -118h-118l23 131q-97 35 -149 135l99 63q59 -91 143 -91q34 0 55 15t21 41q0 21 -15.5 37t-48.5 33l-60 31q-119 61 -119 159q0 70 50 120t130 58l21 114h118l-23 -128q69 -28 114 -105l-100 -67q-43 66 -108 66
q-35 0 -51.5 -14.5t-16.5 -36.5q0 -20 14.5 -34.5t42.5 -28.5z" />
    <glyph glyph-name="Euro.tf" 
d="M436 548q-106 0 -160 -94h257l-44 -96h-248q-6 -30 -6 -60h227l-44 -96h-167q38 -90 147 -90q47 0 95 15l14 -117q-61 -22 -127 -22q-110 0 -181 58.5t-94 155.5h-95l16 96h71q0 30 6 60h-66l17 96h76q38 96 114 157t189 61q100 0 178 -46l-50 -109q-62 31 -125 31z" />
    <glyph glyph-name="florin.tf" 
d="M484 672q51 0 98 -17l-20 -109q-33 3 -60 3q-84 0 -105 -68l-23 -75h116l-21 -113h-129l-78 -259q-51 -167 -214 -167q-51 0 -99 16l20 110q31 -4 61 -4q84 0 104 68l71 236h-96l21 113h109l30 99q24 82 80 124.5t135 42.5z" />
    <glyph glyph-name="sterling.tf" 
d="M303 228q-7 -65 -53 -114h250l-19 -114h-488l6 29q156 97 169 199h-125l19 114h89q-27 77 -27 118q0 83 60 147t171 64q91 0 151.5 -49.5t71.5 -150.5l-119 -30q-15 106 -101 106q-51 0 -75.5 -33t-24.5 -74q0 -29 27 -98h161l-20 -114h-123z" />
    <glyph glyph-name="yen.tf" 
d="M360 310h166l-7 -42l-19 -108h-166l-28 -160h-135l28 160h-165l7 41l19 109h165l6 30l-142 320h144l82 -210l152 210h153l-255 -320z" />
    <glyph glyph-name="section.case" horiz-adv-x="595" 
d="M452 435q116 -88 116 -169q0 -52 -36 -94.5t-102 -61.5q3 -12 3 -26q0 -64 -51 -113t-142 -49q-74 0 -123 33.5t-71 85.5l87 64q39 -70 109 -70q29 0 46.5 14t17.5 36q0 18 -12.5 33.5t-42.5 40.5l-77 61q-116 88 -116 169q0 52 36 94.5t101 61.5q-2 16 -2 26
q0 64 51 113t142 49q74 0 123 -33.5t71 -85.5l-87 -64q-38 70 -109 70q-29 0 -46.5 -14t-17.5 -36q0 -18 12.5 -33.5t42.5 -40.5zM389 191q51 23 51 66q0 37 -63 88l-85 67q-36 27 -56 52q-51 -23 -51 -66q0 -37 64 -88l85 -67q36 -29 55 -52z" />
    <glyph glyph-name="dieresis.case" horiz-adv-x="492" 
d="M213 892q33 0 57 -22.5t24 -55.5q0 -31 -24 -54t-57 -23q-32 0 -56.5 23t-24.5 54q0 33 24.5 55.5t56.5 22.5zM477 892q34 0 57.5 -22.5t23.5 -56.5q0 -31 -24 -54t-57 -23q-32 0 -56.5 23t-24.5 54q0 33 24.5 56t56.5 23z" />
    <glyph glyph-name="dieresis.i" horiz-adv-x="453" 
d="M188 754q34 0 57.5 -22.5t23.5 -55.5q0 -32 -23.5 -55t-57.5 -23q-31 0 -55.5 23.5t-24.5 54.5q0 33 24 55.5t56 22.5zM416 754q34 0 57.5 -22.5t23.5 -55.5q0 -32 -23.5 -55t-57.5 -23q-32 0 -56.5 23.5t-24.5 54.5q0 33 24.5 55.5t56.5 22.5z" />
    <glyph glyph-name="otatonos" horiz-adv-x="220" 
d="M285 780l-4 -24l-93 -185h-99l36 209h160z" />
    </font>
</defs>
</svg>
