<?xml version="1.0" standalone="no"?>
<!DOCTYPE svg PUBLIC "-//W3C//DTD SVG 1.1//EN" "http://www.w3.org/Graphics/SVG/1.1/DTD/svg11.dtd" >
<svg xmlns="http://www.w3.org/2000/svg" xmlns:xlink="http://www.w3.org/1999/xlink" version="1.1">
<metadata>
Created by FontForge 20170731 at Fri Apr  3 18:32:38 2015
 By Aleksey,,,
Copyright (c) 2015 by Jakob Runge, under exclusive license to type me! fonts. All rights reserved.
</metadata>
<defs>
<font id="CeraGR-ThinItalic" horiz-adv-x="560" >
  <font-face 
    font-family="CeraGR-ThinItalic"
    font-weight="400"
    font-style="italic"
    font-stretch="normal"
    units-per-em="1000"
    panose-1="0 0 3 0 0 0 0 0 0 0"
    ascent="800"
    descent="-200"
    x-height="471"
    cap-height="660"
    bbox="-128 -257 1277 900"
    underline-thickness="50"
    underline-position="-150"
    slope="-10"
    unicode-range="U+0020-F8FF"
  />
<missing-glyph horiz-adv-x="702" 
d="M177 660h496l-116 -660h-496zM532 29l106 603h-437z" />
    <glyph glyph-name=".notdef" horiz-adv-x="702" 
d="M177 660h496l-116 -660h-496zM532 29l106 603h-437z" />
    <glyph glyph-name=".null" horiz-adv-x="0" 
 />
    <glyph glyph-name="nonmarkingreturn" horiz-adv-x="333" 
 />
    <glyph glyph-name="space" unicode=" " horiz-adv-x="280" 
 />
    <glyph glyph-name="exclam" unicode="!" horiz-adv-x="271" 
d="M228 660l-89 -478h-28l78 478h39zM97 68q16 0 28 -11t12 -29q0 -17 -12 -27.5t-28 -10.5q-15 0 -26.5 10.5t-11.5 27.5q0 18 11.5 29t26.5 11z" />
    <glyph glyph-name="quotedbl" unicode="&#x22;" horiz-adv-x="405" 
d="M237 660l-74 -240h-27l61 240h40zM377 660l-74 -240h-27l61 240h40z" />
    <glyph glyph-name="numbersign" unicode="#" horiz-adv-x="533" 
d="M539 418h-99l-31 -176h99l-5 -28h-99l-37 -214h-30l38 214h-227l-37 -214h-30l38 214h-98l5 28h98l30 176h-97l5 28h97l38 214h29l-37 -214h226l38 214h29l-37 -214h99zM153 242h227l30 176h-226z" />
    <glyph glyph-name="dollar" unicode="$" horiz-adv-x="534" 
d="M463 516q-43 70 -113 84l-45 -255l23 -14q54 -33 82.5 -68.5t28.5 -83.5q0 -62 -46.5 -109.5t-132.5 -47.5h-11l-20 -113h-31l20 116q-111 20 -173 137l28 14q55 -103 150 -121l49 274l-26 16q-31 19 -50.5 34t-38 44.5t-18.5 62.5q0 58 44 103t127 45h15l21 117h31
l-21 -121q85 -16 133 -98zM277 362l43 242h-10q-67 0 -102.5 -34t-35.5 -82q0 -40 25 -66.5t69 -52.5zM311 305l-11 7l-46 -260h8q68 0 106 37t38 89q0 40 -23.5 69.5t-71.5 57.5z" />
    <glyph glyph-name="percent" unicode="%" horiz-adv-x="794" 
d="M270 670q65 0 107.5 -44.5t42.5 -108.5q0 -68 -47.5 -115.5t-115.5 -47.5q-66 0 -107.5 44.5t-41.5 108.5q0 68 47 115.5t115 47.5zM689 660l-515 -660h-33l515 660h33zM271 642q-56 0 -93.5 -38.5t-37.5 -96.5q0 -54 33.5 -89.5t86.5 -35.5q55 0 91.5 38.5t36.5 96.5
q0 54 -32 89.5t-85 35.5zM569 306q65 0 107.5 -44.5t42.5 -108.5q0 -68 -47.5 -115.5t-115.5 -47.5q-66 0 -107.5 44.5t-41.5 108.5q0 68 47 115.5t115 47.5zM570 278q-56 0 -93.5 -38.5t-37.5 -96.5q0 -54 33.5 -89.5t86.5 -35.5q55 0 91.5 38.5t36.5 96.5q0 54 -32 89.5
t-85 35.5z" />
    <glyph glyph-name="ampersand" unicode="&#x26;" horiz-adv-x="588" 
d="M572 259q-107 -123 -127 -144l76 -115h-37l-61 93q-52 -52 -100.5 -77.5t-104.5 -25.5q-75 0 -127 43t-52 114q0 66 49 116.5t152 109.5q-55 87 -55 148q0 60 38.5 104.5t102.5 44.5q57 0 90.5 -35.5t33.5 -85.5q0 -56 -42 -97t-126 -90l146 -222q22 23 64.5 73t56.5 66z
M326 640q-52 0 -80.5 -34.5t-28.5 -85.5q0 -57 49 -134q77 42 114.5 80.5t37.5 84.5q0 38 -24 63.5t-68 25.5zM218 20q91 0 189 98l-151 231q-101 -59 -142.5 -99.5t-41.5 -99.5q0 -61 42 -95.5t104 -34.5z" />
    <glyph glyph-name="quotesingle" unicode="'" horiz-adv-x="265" 
d="M237 660l-74 -240h-27l61 240h40z" />
    <glyph glyph-name="parenleft" unicode="(" horiz-adv-x="316" 
d="M362 729l9 -24q-64 -28 -114.5 -89.5t-80 -137t-44.5 -153.5t-15 -150q0 -196 111 -284l-16 -22q-125 95 -125 308q0 80 16.5 163t48.5 161t86.5 139.5t123.5 88.5z" />
    <glyph glyph-name="parenright" unicode=")" horiz-adv-x="315" 
d="M124 729q125 -95 125 -308q0 -80 -16.5 -163t-48.5 -161t-86.5 -139.5t-123.5 -88.5l-9 24q64 28 114.5 89.5t80 137t44.5 153.5t15 150q0 196 -111 284z" />
    <glyph glyph-name="asterisk" unicode="*" horiz-adv-x="364" 
d="M384 644l-109 -42l87 -78l-15 -18l-91 73l-24 -115l-24 4l17 116l-110 -37l-9 23l109 42l-87 78l15 18l91 -73l24 115l24 -4l-17 -116l110 37z" />
    <glyph glyph-name="plus" unicode="+" 
d="M346 527l-36 -204h198l-5 -28h-198l-36 -204h-30l36 204h-199l5 28h199l36 204h30z" />
    <glyph glyph-name="comma" unicode="," horiz-adv-x="270" 
d="M130 63l-74 -243h-28l62 243h40z" />
    <glyph glyph-name="hyphen" unicode="-" horiz-adv-x="340" 
d="M295 323l-5 -28h-220l5 28h220z" />
    <glyph glyph-name="period" unicode="." horiz-adv-x="270" 
d="M97 68q16 0 28 -11t12 -29q0 -17 -12 -27.5t-28 -10.5q-15 0 -26.5 10.5t-11.5 27.5q0 18 11.5 29t26.5 11z" />
    <glyph glyph-name="slash" unicode="/" horiz-adv-x="575" 
d="M660 780l-677 -901h-36l677 901h36z" />
    <glyph glyph-name="zero" unicode="0" horiz-adv-x="667" 
d="M353 540q109 0 184.5 -75.5t75.5 -184.5q0 -119 -88 -204.5t-206 -85.5q-109 0 -183 74.5t-74 184.5q0 120 87 205.5t204 85.5zM354 512q-106 0 -183 -77.5t-77 -186.5q0 -98 63.5 -164t161.5 -66q108 0 185 77.5t77 185.5q0 98 -64.5 164.5t-162.5 66.5z" />
    <glyph glyph-name="one" unicode="1" horiz-adv-x="473" 
d="M327 530l-88 -502h151l-5 -28h-342l5 28h160l83 474h-149l5 28h180z" />
    <glyph glyph-name="two" unicode="2" horiz-adv-x="531" 
d="M248 128l-161 -100h351l-5 -28h-426l2 12l225 140q51 32 79 51.5t60 48.5t46 59.5t14 66.5q0 57 -36.5 95.5t-102.5 38.5q-79 0 -118.5 -52.5t-39.5 -109.5q0 -18 3 -40h-31q-4 23 -4 41q0 76 54 132.5t139 56.5q75 0 121.5 -45.5t46.5 -114.5q0 -41 -16 -76t-51 -67
t-66 -54t-84 -55z" />
    <glyph glyph-name="three" unicode="3" horiz-adv-x="503" 
d="M469 530l-2 -12l-241 -237q78 -5 132.5 -56.5t54.5 -133.5q0 -89 -63.5 -156.5t-170.5 -67.5q-145 0 -210 143l27 14q57 -129 184 -129q95 0 148 59.5t53 136.5q0 75 -52 119t-137 44h-24l2 12l238 236h-317l5 28h373z" />
    <glyph glyph-name="four" unicode="4" horiz-adv-x="516" 
d="M459 28l-5 -28h-105l-21 -121h-32l21 121h-333l2 12l316 518h34l-306 -502h292l45 253h32l-45 -253h105z" />
    <glyph glyph-name="five" unicode="5" horiz-adv-x="532" 
d="M453 502h-276l-39 -226q48 3 85 3q105 0 162 -50.5t57 -136.5q0 -93 -62.5 -159t-168.5 -66q-147 0 -213 143l27 14q29 -63 72.5 -96t112.5 -33q97 0 148.5 59t51.5 137q0 72 -47.5 116t-137.5 44h-124l49 279h308z" />
    <glyph glyph-name="six" unicode="6" horiz-adv-x="542" 
d="M275 409q87 0 144 -57.5t57 -141.5q0 -91 -65 -155t-157 -64q-87 0 -144.5 57.5t-57.5 142.5q0 23 6 47t11 39t22 41t22 33t29 37t26 32l193 240h40l-228 -279q47 28 102 28zM254 19q79 0 134.5 54.5t55.5 135.5q0 74 -47.5 123t-121.5 49q-80 0 -135.5 -56t-55.5 -136
q0 -74 48 -122t122 -48z" />
    <glyph glyph-name="seven" unicode="7" horiz-adv-x="482" 
d="M83 530h423l-2 -12l-467 -639h-36l455 623h-378z" />
    <glyph glyph-name="eight" unicode="8" horiz-adv-x="568" 
d="M338 345q152 -71 152 -174q0 -29 -11.5 -58.5t-35.5 -58t-70 -46.5t-106 -18q-100 0 -159 46.5t-59 121.5q0 77 61 125t155 68q-123 63 -123 153q0 65 52 114t142 49q78 0 130.5 -39t52.5 -109q0 -65 -47 -109t-134 -65zM174 505q0 -46 33.5 -78.5t96.5 -63.5
q83 20 133 55t50 97q0 57 -43 90.5t-109 33.5q-73 0 -117 -39.5t-44 -94.5zM267 18q52 0 91.5 15.5t60 40t30 49.5t9.5 50q0 29 -12 52t-38.5 43t-48 32.5t-60.5 31.5q-218 -46 -218 -172q0 -63 49.5 -102.5t136.5 -39.5z" />
    <glyph glyph-name="nine" unicode="9" horiz-adv-x="542" 
d="M297 540q87 0 144.5 -57.5t57.5 -142.5q0 -20 -2.5 -38.5t-11.5 -38.5t-13.5 -31.5t-21 -34t-20 -28t-25 -31t-22.5 -27.5l-187 -232h-40l222 271q-47 -28 -102 -28q-87 0 -144 57.5t-57 141.5q0 91 65 155t157 64zM276 150q80 0 135.5 56t55.5 136q0 74 -48 122t-122 48
q-79 0 -134.5 -54.5t-55.5 -135.5q0 -74 47.5 -123t121.5 -49z" />
    <glyph glyph-name="colon" unicode=":" horiz-adv-x="270" 
d="M170 482q16 0 28 -10.5t12 -29.5q0 -17 -12 -27.5t-28 -10.5q-15 0 -26.5 10.5t-11.5 27.5q0 18 11.5 29t26.5 11zM97 68q16 0 28 -11t12 -29q0 -17 -12 -27.5t-28 -10.5q-15 0 -26.5 10.5t-11.5 27.5q0 18 11.5 29t26.5 11z" />
    <glyph glyph-name="semicolon" unicode=";" horiz-adv-x="270" 
d="M170 482q16 0 28 -10.5t12 -29.5q0 -17 -12 -27.5t-28 -10.5q-15 0 -26.5 10.5t-11.5 27.5q0 18 11.5 29t26.5 11zM130 63l-74 -243h-28l62 243h40z" />
    <glyph glyph-name="less" unicode="&#x3c;" 
d="M524 490l-5 -32l-387 -149l334 -149l-5 -30l-387 174l2 12z" />
    <glyph glyph-name="equal" unicode="=" 
d="M515 423l-5 -28h-407l5 28h407zM480 222l-5 -28h-407l5 28h407z" />
    <glyph glyph-name="greater" unicode="&#x3e;" 
d="M124 490l387 -174l-2 -12l-447 -174l6 33l384 148l-333 150z" />
    <glyph glyph-name="question" unicode="?" horiz-adv-x="440" 
d="M290 670q63 0 103.5 -38t40.5 -101q0 -23 -7 -45.5t-15.5 -38t-26.5 -35t-27.5 -28.5t-32.5 -28.5t-29 -24.5q-49 -43 -65.5 -73.5t-24.5 -75.5h-30q7 49 28 88t74 84q73 62 98.5 94.5t25.5 78.5q0 53 -32 84t-83 31q-92 0 -143 -100l-26 13q28 53 72.5 84t99.5 31z
M177 68q15 0 27 -11t12 -28q0 -18 -12 -28.5t-27 -10.5q-16 0 -27.5 10.5t-11.5 28.5t12 28.5t27 10.5z" />
    <glyph glyph-name="at" unicode="@" horiz-adv-x="904" 
d="M486 646q165 0 266.5 -97.5t101.5 -241.5q0 -73 -26 -132.5t-85.5 -99t-144.5 -39.5h-23l16 88q-26 -41 -72 -63.5t-95 -22.5q-81 0 -132 55.5t-51 134.5q0 88 62.5 155.5t160.5 67.5q66 0 108 -31t57 -77l17 99h30l-67 -379q55 1 97 21.5t66.5 55.5t37 77t12.5 89
q0 133 -91 222.5t-244 89.5q-93 0 -170.5 -36t-125 -94t-73.5 -126.5t-26 -136.5q0 -141 102 -239.5t257 -98.5q66 0 125 21l8 -25q-60 -24 -137 -24q-167 0 -277 106.5t-110 258.5q0 74 28.5 148t80.5 135.5t135 100t182 38.5zM432 65q86 0 134.5 65.5t48.5 141.5
q0 70 -44 110.5t-109 40.5q-80 0 -134.5 -57.5t-54.5 -135.5q0 -68 43 -116.5t116 -48.5z" />
    <glyph glyph-name="A" unicode="A" horiz-adv-x="665" 
d="M552 0l-43 176h-362l-103 -176h-36l398 670h15l162 -670h-31zM503 204l-99 407l-241 -407h340z" />
    <glyph glyph-name="B" unicode="B" horiz-adv-x="610" 
d="M425 360q59 -16 91.5 -61t32.5 -104q0 -84 -62 -139.5t-168 -55.5h-258l116 660h201q79 0 120 -39.5t41 -103.5q0 -55 -30 -97.5t-84 -59.5zM204 632l-45 -259h195q73 0 112.5 41.5t39.5 101.5q0 54 -33.5 85t-99.5 31h-169zM319 28q91 0 144 47.5t53 119.5
q0 63 -41.5 105.5t-117.5 42.5h-204l-55 -315h221z" />
    <glyph glyph-name="C" unicode="C" horiz-adv-x="709" 
d="M438 670q83 0 149 -37.5t106 -104.5l-26 -18q-37 61 -96 95.5t-135 34.5q-135 0 -231.5 -99t-96.5 -237q0 -121 77 -202.5t199 -81.5q143 0 243 107l22 -20q-51 -55 -120.5 -86t-146.5 -31q-135 0 -221.5 90t-86.5 223q0 151 108 259t256 108z" />
    <glyph glyph-name="D" unicode="D" horiz-adv-x="701" 
d="M326 660q158 0 245.5 -86.5t87.5 -215.5q0 -47 -11.5 -94t-40.5 -95.5t-72.5 -85t-114 -60t-158.5 -23.5h-201l116 660h149zM264 27q78 0 141 20.5t103 53.5t67 76.5t38.5 87.5t11.5 88q0 118 -79 198.5t-222 80.5h-120l-106 -604z" />
    <glyph glyph-name="E" unicode="E" horiz-adv-x="561" 
d="M583 660l-5 -28h-374l-46 -259h294l-4 -28h-294l-56 -317h386l-5 -28h-418l116 660h406z" />
    <glyph glyph-name="F" unicode="F" horiz-adv-x="514" 
d="M573 660l-5 -28h-364l-49 -278h304l-5 -28h-304l-57 -326h-32l116 660h396z" />
    <glyph glyph-name="G" unicode="G" horiz-adv-x="749" 
d="M407 315h290l-32 -183q-48 -64 -123.5 -103t-160.5 -39q-134 0 -220.5 90t-86.5 223q0 151 108 259t255 108q83 0 149.5 -38t107.5 -104l-26 -18q-36 60 -96 95t-137 35q-135 0 -231 -99t-96 -237q0 -121 77 -202.5t199 -81.5q74 0 139 32.5t111 87.5l26 147h-258z" />
    <glyph glyph-name="H" unicode="H" horiz-adv-x="704" 
d="M675 660l-116 -660h-32l60 345h-434l-60 -345h-32l116 660h32l-50 -287h434l50 287h32z" />
    <glyph glyph-name="I" unicode="I" horiz-adv-x="238" 
d="M209 660l-116 -660h-32l116 660h32z" />
    <glyph glyph-name="J" unicode="J" horiz-adv-x="361" 
d="M333 660l-94 -532q-25 -138 -155 -138q-45 0 -95 15l5 28q52 -13 89 -13q106 0 125 110l93 530h32z" />
    <glyph glyph-name="K" unicode="K" horiz-adv-x="598" 
d="M177 660h32l-116 -660h-32zM610 660l-393 -303l299 -357h-39l-302 359l387 301h48z" />
    <glyph glyph-name="L" unicode="L" horiz-adv-x="493" 
d="M209 660l-111 -632h334l-5 -28h-366l116 660h32z" />
    <glyph glyph-name="M" unicode="M" horiz-adv-x="782" 
d="M740 670h15l-118 -670h-32l102 583l-310 -362h-15l-186 368l-103 -589h-32l118 670h15l202 -404z" />
    <glyph glyph-name="N" unicode="N" horiz-adv-x="704" 
d="M643 660h32l-118 -670h-15l-345 609l-104 -599h-32l118 670h15l344 -613z" />
    <glyph glyph-name="O" unicode="O" horiz-adv-x="784" 
d="M436 670q133 0 219.5 -90t86.5 -223q0 -151 -107.5 -259t-254.5 -108q-133 0 -219.5 90.5t-86.5 223.5q0 151 107.5 258.5t254.5 107.5zM435 640q-135 0 -231 -99t-96 -237q0 -121 76.5 -202.5t196.5 -81.5q135 0 231 99.5t96 237.5q0 120 -76.5 201.5t-196.5 81.5z" />
    <glyph glyph-name="P" unicode="P" 
d="M376 660q89 0 135.5 -44t46.5 -116q0 -82 -58 -135.5t-159 -53.5h-193l-55 -311h-32l116 660h199zM339 339q91 0 138 45.5t47 115.5q0 62 -38 97t-116 35h-166l-51 -293h186z" />
    <glyph glyph-name="Q" unicode="Q" horiz-adv-x="785" 
d="M872 -160q25 0 70 3l-4 -26q-40 -7 -85 -7q-242 0 -360 199q-57 -19 -113 -19q-133 0 -219.5 90.5t-86.5 223.5q0 151 107.5 258.5t254.5 107.5q133 0 219.5 -90t86.5 -223q0 -111 -61.5 -202.5t-159.5 -134.5q35 -57 79 -95t92.5 -55.5t89 -23.5t90.5 -6zM108 304
q0 -121 76.5 -202.5t196.5 -81.5q135 0 231 99.5t96 237.5q0 120 -76.5 201.5t-196.5 81.5q-135 0 -231 -99t-96 -237z" />
    <glyph glyph-name="R" unicode="R" horiz-adv-x="608" 
d="M558 500q0 -78 -52.5 -130.5t-145.5 -57.5l183 -312h-37l-182 311h-176l-55 -311h-32l116 660h199q89 0 135.5 -44t46.5 -116zM204 632l-51 -293h186q91 0 138 45.5t47 115.5q0 62 -38 97t-116 35h-166z" />
    <glyph glyph-name="S" unicode="S" horiz-adv-x="555" 
d="M326 670q132 0 198 -113l-26 -16q-62 99 -172 99q-75 0 -115 -38.5t-40 -92.5q0 -46 27.5 -76t77.5 -59l69 -42q60 -36 91.5 -75.5t31.5 -92.5q0 -69 -51.5 -121.5t-146.5 -52.5q-157 0 -238 155l29 14q75 -139 211 -139q77 0 119.5 42t42.5 101q0 45 -26.5 78t-79.5 65
l-73 44q-34 21 -55.5 38t-42 49.5t-20.5 69.5q0 63 48.5 113t140.5 50z" />
    <glyph glyph-name="T" unicode="T" horiz-adv-x="583" 
d="M631 660l-5 -28h-249l-111 -632h-32l111 632h-249l5 28h530z" />
    <glyph glyph-name="U" unicode="U" horiz-adv-x="678" 
d="M659 660l-76 -441q-18 -107 -91 -168t-170 -61q-100 0 -164.5 61.5t-64.5 157.5q0 26 5 59l68 392h32l-69 -395q-4 -24 -4 -51q0 -89 57 -141.5t142 -52.5t148 53.5t80 148.5l75 438h32z" />
    <glyph glyph-name="V" unicode="V" horiz-adv-x="665" 
d="M653 660h36l-398 -670h-15l-162 670h31l148 -611z" />
    <glyph glyph-name="W" unicode="W" horiz-adv-x="1076" 
d="M1052 660h34l-357 -670h-15l-121 613l-336 -613h-15l-123 670h31l109 -607l337 617h15l120 -615z" />
    <glyph glyph-name="X" unicode="X" horiz-adv-x="578" 
d="M595 660l-269 -324l170 -336h-34l-158 313l-268 -313h-39l291 341l-158 319h34l146 -297l246 297h39z" />
    <glyph glyph-name="Y" unicode="Y" horiz-adv-x="610" 
d="M619 660l-296 -375l-50 -285h-32l50 287l-164 373h31l152 -346l272 346h37z" />
    <glyph glyph-name="Z" unicode="Z" horiz-adv-x="590" 
d="M623 660l-2 -12l-568 -620h460l-5 -28h-508l2 12l568 620h-415l5 28h463z" />
    <glyph glyph-name="bracketleft" unicode="[" horiz-adv-x="337" 
d="M362 729l-4 -28h-134l-141 -804h134l-5 -28h-164l150 860h164z" />
    <glyph glyph-name="backslash" unicode="\" horiz-adv-x="579" 
d="M137 780l367 -901h-32l-366 901h31z" />
    <glyph glyph-name="bracketright" unicode="]" horiz-adv-x="337" 
d="M311 729l-151 -860h-165l5 28h135l141 804h-135l5 28h165z" />
    <glyph glyph-name="asciicircum" unicode="^" horiz-adv-x="493" 
d="M329 670l104 -378h-31l-88 321l-201 -321h-35l236 378h15z" />
    <glyph glyph-name="underscore" unicode="_" horiz-adv-x="500" 
d="M393 -84l-5 -28h-400l5 28h400z" />
    <glyph glyph-name="a" unicode="a" horiz-adv-x="630" 
d="M542 471h30l-83 -471h-30l17 94q-31 -50 -85.5 -77t-113.5 -27q-96 0 -158 66t-62 162q0 104 71 183.5t187 79.5q81 0 133.5 -39.5t71.5 -95.5zM282 18q55 0 99 24.5t70 62.5t40 80.5t14 83.5q0 85 -55.5 134.5t-134.5 49.5q-96 0 -161 -70t-65 -164q0 -83 52 -142
t141 -59z" />
    <glyph glyph-name="b" unicode="b" horiz-adv-x="632" 
d="M354 481q95 0 157 -66.5t62 -161.5q0 -104 -71 -183.5t-185 -79.5q-80 0 -134 40t-73 96l-22 -126h-30l131 750h30l-65 -377q31 52 85.5 80t114.5 28zM317 18q95 0 159.5 70t64.5 164q0 83 -52 142t-141 59q-55 0 -99 -24.5t-70 -62.5t-40 -80.5t-14 -82.5
q0 -84 56 -134.5t136 -50.5z" />
    <glyph glyph-name="c" unicode="c" horiz-adv-x="555" 
d="M319 481q61 0 112.5 -27t82.5 -74l-25 -16q-59 89 -169 89q-94 0 -162 -67t-68 -163q0 -87 56.5 -146t144.5 -59q101 0 169 75l20 -19q-76 -84 -188 -84q-100 0 -167 65.5t-67 165.5q0 108 77 184t184 76z" />
    <glyph glyph-name="d" unicode="d" horiz-adv-x="630" 
d="M591 750h30l-132 -750h-30l16 94q-30 -49 -83.5 -76.5t-114.5 -27.5q-97 0 -158.5 65.5t-61.5 161.5q0 104 71.5 184t187.5 80q81 0 133.5 -39t70.5 -95zM281 18q55 0 99.5 24t70.5 62.5t40 81t14 83.5q0 85 -55.5 134.5t-134.5 49.5q-96 0 -161 -71t-65 -165
q0 -83 51.5 -141t140.5 -58z" />
    <glyph glyph-name="e" unicode="e" horiz-adv-x="565" 
d="M505 232h-416v-11q0 -87 56 -145t144 -58q103 0 171 75l19 -19q-76 -84 -191 -84q-99 0 -165 66t-66 164q0 106 75 183t179 77q85 0 143.5 -52.5t58.5 -137.5q0 -15 -2 -29.5t-4 -21.5zM311 452q-82 0 -143.5 -55t-75.5 -137h387q2 18 2 29q0 74 -48.5 118.5t-121.5 44.5
z" />
    <glyph glyph-name="f" unicode="f" horiz-adv-x="270" 
d="M313 760q32 0 66 -11l-5 -25q-31 8 -58 8q-97 0 -115 -108l-27 -153h132l-5 -28h-132l-89 -507q-11 -65 -48.5 -95.5t-91.5 -30.5q-32 0 -66 11l5 25q31 -8 58 -8q97 0 115 108l87 497h-69l5 28h69l29 163q11 65 48.5 95.5t91.5 30.5z" />
    <glyph glyph-name="g" unicode="g" horiz-adv-x="630" 
d="M542 471h30l-79 -449q-18 -102 -86 -157t-162 -55q-73 0 -130.5 31.5t-88.5 80.5l25 18q29 -46 80 -74t115 -28q84 0 142.5 48.5t74.5 138.5l12 69q-31 -50 -86 -77t-114 -27q-96 0 -157 66t-61 160q0 105 74 185t191 80q81 0 131 -39t67 -94zM282 18q55 0 99 24.5
t70 62.5t40 81t14 84q0 84 -53.5 133.5t-131.5 49.5q-97 0 -164 -71.5t-67 -164.5q0 -81 52 -140t141 -59z" />
    <glyph glyph-name="h" unicode="h" horiz-adv-x="551" 
d="M312 481q73 0 116.5 -42.5t43.5 -109.5q0 -18 -6 -54l-48 -275h-30l49 279q5 28 5 44q0 58 -35.5 94t-96.5 36q-63 0 -109.5 -40t-58.5 -108l-54 -305h-30l131 750h30l-60 -345q57 76 153 76z" />
    <glyph glyph-name="i" unicode="i" horiz-adv-x="228" 
d="M190 700q14 0 24 -10t10 -24t-10 -24t-24 -10t-24 10t-10 24t10 24t24 10zM170 471l-83 -471h-30l83 471h30z" />
    <glyph glyph-name="j" unicode="j" horiz-adv-x="230" 
d="M191 700q14 0 24 -10t10 -24t-10 -24t-24 -10t-24 10t-10 24t10 24t24 10zM171 471l-94 -539q-22 -122 -140 -122q-35 0 -65 11l5 26q30 -9 61 -9q92 0 109 97l94 536h30z" />
    <glyph glyph-name="k" unicode="k" horiz-adv-x="461" 
d="M189 750h30l-132 -750h-30zM460 471l-266 -209l205 -262h-38l-209 265l263 206h45z" />
    <glyph glyph-name="l" unicode="l" horiz-adv-x="228" 
d="M219 750l-132 -750h-30l132 750h30z" />
    <glyph glyph-name="m" unicode="m" horiz-adv-x="861" 
d="M627 481q71 0 113 -42.5t42 -109.5q0 -18 -6 -54l-48 -275h-30l49 279q5 28 5 44q0 58 -34 94t-92 36q-59 0 -105.5 -39t-58.5 -109l-54 -305h-30l49 279q5 28 5 44q0 58 -34 94t-92 36q-59 0 -105.5 -39t-58.5 -109l-54 -305h-30l82 471h30l-11 -66q55 76 149 76
q57 0 96.5 -29.5t51.5 -77.5q25 48 69 77.5t102 29.5z" />
    <glyph glyph-name="n" unicode="n" horiz-adv-x="551" 
d="M312 481q73 0 116.5 -42.5t43.5 -109.5q0 -18 -6 -54l-48 -275h-30l49 279q5 28 5 44q0 58 -35.5 94t-96.5 36q-63 0 -109.5 -40t-58.5 -108l-54 -305h-30l82 471h30l-11 -66q55 76 153 76z" />
    <glyph glyph-name="o" unicode="o" horiz-adv-x="612" 
d="M320 481q99 0 166 -66.5t67 -164.5q0 -108 -78.5 -184t-185.5 -76q-99 0 -165 66.5t-66 164.5q0 108 77.5 184t184.5 76zM319 453q-95 0 -162 -68t-67 -164q0 -87 56.5 -145t143.5 -58q96 0 163.5 68t67.5 163q0 86 -57.5 145t-144.5 59z" />
    <glyph glyph-name="p" unicode="p" horiz-adv-x="631" 
d="M352 481q97 0 158.5 -66t61.5 -162q0 -104 -71 -183.5t-185 -79.5q-81 0 -135 40.5t-72 96.5l-54 -307h-30l115 651h30l-16 -93q30 49 84.5 76t113.5 27zM316 18q96 0 160 70t64 164q0 83 -52 142t-141 59q-55 0 -99 -24.5t-70 -63t-40 -81t-14 -82.5q0 -84 56 -134
t136 -50z" />
    <glyph glyph-name="q" unicode="q" horiz-adv-x="630" 
d="M542 471h30l-115 -651h-30l48 274q-30 -50 -84.5 -77t-113.5 -27q-96 0 -158 66.5t-62 162.5q0 104 71 183t187 79q81 0 133.5 -39.5t71.5 -95.5zM282 18q55 0 99 24.5t70 62.5t40 80.5t14 83.5q0 85 -55.5 134.5t-135.5 49.5q-96 0 -160.5 -69.5t-64.5 -164.5
q0 -83 52 -142t141 -59z" />
    <glyph glyph-name="r" unicode="r" horiz-adv-x="340" 
d="M319 478q24 0 44 -6l-4 -24q-24 3 -38 3q-62 0 -115 -39.5t-66 -110.5l-53 -301h-30l83 471h30l-12 -69q58 76 161 76z" />
    <glyph glyph-name="s" unicode="s" horiz-adv-x="455" 
d="M249 481q93 0 148 -80l-23 -19q-52 71 -126 71q-47 0 -80 -24t-33 -64q0 -30 20.5 -51.5t65.5 -45.5l43 -23q56 -30 84 -58t28 -72q0 -58 -46.5 -91.5t-111.5 -33.5q-119 0 -178 111l26 17q56 -100 154 -100q60 0 92 30t32 68q0 19 -8 34.5t-25 29t-30 21.5t-37 20
l-41 22q-48 26 -74 53.5t-26 67.5q0 52 43 84.5t103 32.5z" />
    <glyph glyph-name="t" unicode="t" horiz-adv-x="350" 
d="M183 443l-55 -309q-3 -16 -3 -30q0 -86 114 -86q17 0 47 3l-5 -26q-20 -5 -48 -5q-138 0 -138 111q0 15 3 35l55 307h-86l4 28h87l26 149h30l-26 -149h159l-4 -28h-160z" />
    <glyph glyph-name="u" unicode="u" horiz-adv-x="544" 
d="M493 471l-55 -314q-13 -76 -66.5 -121.5t-124.5 -45.5q-73 0 -120 45t-47 116q0 19 3 38l49 282h30l-50 -285q-3 -17 -3 -34q0 -61 39.5 -97.5t101.5 -36.5q58 0 102 37.5t56 103.5l55 312h30z" />
    <glyph glyph-name="v" unicode="v" horiz-adv-x="519" 
d="M483 471h35l-300 -481h-15l-132 481h32l116 -428z" />
    <glyph glyph-name="w" unicode="w" horiz-adv-x="841" 
d="M807 471h33l-270 -481h-15l-108 430l-259 -430h-15l-102 481h32l87 -424l258 434h15l108 -436z" />
    <glyph glyph-name="x" unicode="x" horiz-adv-x="467" 
d="M463 471l-209 -226l141 -245h-34l-129 222l-204 -222h-40l229 249l-129 222h34l117 -202l184 202h40z" />
    <glyph glyph-name="y" unicode="y" horiz-adv-x="562" 
d="M474 471h30l-85 -483q-15 -86 -69.5 -132t-129.5 -46q-60 0 -108.5 30t-76.5 81l25 17q54 -100 161 -100q63 0 109 39t59 113l13 75q-56 -75 -152 -75q-73 0 -116.5 42.5t-43.5 109.5q0 18 6 54l48 275h30l-49 -279q-5 -28 -5 -44q0 -58 35.5 -94t96.5 -36q63 0 109.5 40
t58.5 108z" />
    <glyph glyph-name="z" unicode="z" horiz-adv-x="447" 
d="M445 471l-2 -12l-396 -431h326l-5 -28h-372l2 12l395 431h-297l5 28h344z" />
    <glyph glyph-name="braceleft" unicode="{" horiz-adv-x="393" 
d="M374 729h44l-5 -28h-44q-125 0 -125 -167v-112q0 -56 -16 -85.5t-59 -38.5q46 -11 46 -59q0 -33 -36.5 -128.5t-36.5 -135.5q0 -78 89 -78h42l-5 -28h-42q-50 0 -82 25.5t-32 77.5q0 46 36.5 141.5t36.5 124.5q0 47 -60 47h-56l5 28h53q46 0 66.5 25.5t20.5 82.5v113
q0 195 160 195z" />
    <glyph glyph-name="bar" unicode="|" horiz-adv-x="332" 
d="M197 780v-901h-30v901h30z" />
    <glyph glyph-name="braceright" unicode="}" horiz-adv-x="393" 
d="M289 313h56l-5 -28h-53q-46 0 -66.5 -25.5t-20.5 -82.5v-113q0 -195 -160 -195h-44l5 28h44q125 0 125 167v112q0 56 16 85.5t59 38.5q-46 11 -46 59q0 33 36.5 128.5t36.5 135.5q0 78 -89 78h-42l5 28h42q50 0 82 -25.5t32 -77.5q0 -46 -36.5 -141.5t-36.5 -124.5
q0 -47 60 -47z" />
    <glyph glyph-name="asciitilde" unicode="~" 
d="M169 384q6 0 12.5 -1t11 -2t11.5 -4l10 -5q4 -1 12 -6l10 -6q2 -1 11 -7t11 -7l87 -58q43 -29 66 -29q43 0 52 65h29q-10 -93 -80 -93q-6 0 -12.5 1t-11 2t-11.5 4l-11 4q-3 2 -11 6l-10 6q-2 2 -11 8t-11 7l-87 58q-44 29 -66 29q-43 0 -52 -65h-29q10 93 80 93z" />
    <glyph glyph-name="cent" unicode="&#xa2;" horiz-adv-x="554" 
d="M487 460q-52 78 -143 88l-77 -439q6 -1 19 -1q101 0 172 76l20 -19q-77 -85 -193 -85q-15 0 -23 1l-30 -172h-31l31 177q-80 17 -130 79.5t-50 148.5q0 110 78.5 187t186.5 77h2l30 173h31l-31 -175q107 -14 163 -100zM84 316q0 -74 42.5 -130t110.5 -72l77 436
q-93 -1 -161.5 -69t-68.5 -165z" />
    <glyph glyph-name="sterling" unicode="&#xa3;" horiz-adv-x="494" 
d="M330 670q27 0 52 -7t51 -24t45 -51.5t26 -82.5l-33 -7q-9 68 -45 105t-95 37q-72 0 -110 -47.5t-38 -108.5q0 -35 20 -102.5t25 -94.5h162l-5 -28h-154q1 -7 1 -21q0 -64 -30 -119.5t-88 -90.5h296l-5 -28h-379l2 12q172 75 172 222q0 17 -1 25h-117l5 28h108
q-4 20 -25 89t-21 108q0 76 48.5 131t132.5 55z" />
    <glyph glyph-name="currency" unicode="&#xa4;" horiz-adv-x="667" 
d="M591 341q0 -109 -79 -186l110 -120l-20 -19l-110 121q-72 -56 -160 -56q-101 0 -168 69l-138 -134l-20 21l140 134q-50 64 -50 150q0 112 81 188l-101 116l20 18l102 -116q68 52 155 52q105 0 172 -72l145 136l20 -21l-146 -136q47 -65 47 -145zM128 321
q0 -90 58.5 -150.5t145.5 -60.5q94 0 160.5 67.5t66.5 162.5q0 89 -59 149.5t-147 60.5q-93 0 -159 -66.5t-66 -162.5z" />
    <glyph glyph-name="yen" unicode="&#xa5;" horiz-adv-x="516" 
d="M578 660l-286 -321h207l-5 -28h-207l-22 -121h208l-5 -28h-208l-28 -162h-32l28 162h-205l5 28h205l22 121h-206l5 28h206v1l-174 320h32l161 -295l260 295h39z" />
    <glyph glyph-name="brokenbar" unicode="&#xa6;" horiz-adv-x="332" 
d="M197 780v-300h-30v300h30zM197 179v-300h-30v300h30z" />
    <glyph glyph-name="section" unicode="&#xa7;" horiz-adv-x="547" 
d="M406 331q85 -82 85 -149q0 -51 -38 -90.5t-111 -42.5q3 -12 3 -26q0 -55 -41 -93t-101 -38q-92 0 -142 86l24 17q45 -75 119 -75q46 0 77.5 29t31.5 73q0 54 -66 118l-93 91q-84 81 -84 148q0 51 37.5 90.5t110.5 43.5q-3 12 -3 26q0 55 41 93t101 38q92 0 142 -86
l-24 -17q-45 75 -119 75q-46 0 -77.5 -29t-31.5 -73q0 -54 66 -118zM333 77q56 3 91 30.5t35 73.5q0 56 -71 125l-99 97q-45 43 -62 82q-55 -3 -90 -30.5t-35 -73.5q0 -57 70 -125l99 -97q45 -43 62 -82z" />
    <glyph glyph-name="dieresis" unicode="&#xa8;" horiz-adv-x="330" 
d="M140 700q14 0 24 -10t10 -24t-10 -24t-24 -10t-24 10t-10 24t10 24t24 10zM341 700q14 0 24 -10t10 -24t-10 -24t-24 -10t-24 10t-10 24t10 24t24 10z" />
    <glyph glyph-name="copyright" unicode="&#xa9;" horiz-adv-x="793" 
d="M428 670q133 0 227 -95.5t94 -230.5q0 -145 -106 -249.5t-246 -104.5q-133 0 -227 95.5t-94 230.5q0 145 106 249.5t246 104.5zM427 642q-130 0 -225 -96t-95 -230q0 -124 84.5 -211t206.5 -87q130 0 225 96t95 230q0 124 -84.5 211t-206.5 87zM428 530q99 0 154 -84
l-23 -17q-48 73 -133 73q-74 0 -125.5 -53.5t-51.5 -130.5q0 -67 45 -113.5t113 -46.5q77 0 132 60l19 -18q-62 -70 -153 -70q-80 0 -134 55.5t-54 134.5q0 88 62.5 149t148.5 61z" />
    <glyph glyph-name="guillemotleft" unicode="&#xab;" horiz-adv-x="426" 
d="M263 425l-174 -159l118 -158l-24 -17l-133 172l2 12l191 172zM412 425l-174 -159l118 -158l-24 -17l-133 172l2 12l191 172z" />
    <glyph glyph-name="logicalnot" unicode="&#xac;" 
d="M478 323l-42 -234h-30l37 206h-367l5 28h397z" />
    <glyph glyph-name="uni00AD" unicode="&#xad;" horiz-adv-x="340" 
d="M295 323l-5 -28h-220l5 28h220z" />
    <glyph glyph-name="registered" unicode="&#xae;" horiz-adv-x="570" 
d="M330 667q94 0 158.5 -64.5t64.5 -157.5q0 -99 -72.5 -170t-171.5 -71q-93 0 -158 65t-65 157q0 99 73 170t171 71zM308 232q88 0 152 63t64 151q0 81 -55.5 137t-138.5 56q-88 0 -151.5 -62.5t-63.5 -150.5q0 -81 55.5 -137.5t137.5 -56.5zM423 491q0 -59 -62 -73
l65 -108h-37l-63 104h-62l-18 -104h-30l43 251h93q32 0 51.5 -20.5t19.5 -49.5zM284 534l-16 -93h62q30 0 46 13t16 36q0 20 -12 32t-34 12h-62z" />
    <glyph glyph-name="degree" unicode="&#xb0;" horiz-adv-x="360" 
d="M235 670q58 0 98.5 -40t40.5 -97q0 -60 -43.5 -102.5t-104.5 -42.5q-59 0 -98.5 40t-39.5 97q0 60 43 102.5t104 42.5zM236 642q-47 0 -81 -34.5t-34 -82.5q0 -45 30.5 -77t75.5 -32q47 0 80.5 34t33.5 83q0 45 -29.5 77t-75.5 32z" />
    <glyph glyph-name="plusminus" unicode="&#xb1;" 
d="M346 527l-34 -189h188l-5 -28h-188l-33 -189h-30l33 189h-189l5 28h189l34 189h30zM446 28l-5 -28h-407l5 28h407z" />
    <glyph glyph-name="uni00B2" unicode="&#xb2;" horiz-adv-x="358" 
d="M257 499l-131 -107h218l-5 -28h-281l2 9l179 147q100 81 100 151q0 39 -23.5 63t-64.5 24q-50 0 -76 -34.5t-26 -79.5q0 -13 1 -19h-31q-1 5 -1 20q0 55 34.5 98t99.5 43q55 0 87 -31.5t32 -81.5q0 -82 -114 -174z" />
    <glyph glyph-name="uni00B3" unicode="&#xb3;" horiz-adv-x="350" 
d="M385 780l-2 -10l-145 -150q46 -6 78 -38t32 -82q0 -57 -40 -99.5t-109 -42.5q-96 0 -136 92l25 14q35 -79 111 -79q56 0 86.5 34.5t30.5 79.5t-30.5 70.5t-81.5 25.5h-20l2 10l142 147h-188l5 28h240z" />
    <glyph glyph-name="uni00B5" unicode="&#xb5;" horiz-adv-x="577" 
d="M486 19q12 0 28 2l-5 -26q-14 -4 -29 -4q-32 0 -54.5 20t-22.5 60v1q-55 -82 -157 -82q-54 0 -92 24t-53 65l-46 -259h-30l115 651h30l-49 -279q-5 -28 -5 -44q0 -58 35.5 -94t96.5 -36q63 0 109.5 40t58.5 108l54 305h30l-62 -353q-5 -33 -5 -46q0 -27 14.5 -40
t38.5 -13z" />
    <glyph glyph-name="paragraph" unicode="&#xb6;" horiz-adv-x="599" 
d="M356 660v-410h-61q-100 0 -165 57t-65 150q0 92 65 147.5t165 55.5h61zM442 660v-703q0 -147 -138 -147q-33 0 -70 10v28q43 -9 67 -9q51 0 81 26t30 92v703h30z" />
    <glyph glyph-name="periodcentered" unicode="&#xb7;" horiz-adv-x="271" 
d="M147 348q16 0 28 -11t12 -29q0 -17 -12 -27.5t-28 -10.5q-15 0 -26.5 10.5t-11.5 27.5q0 18 11.5 29t26.5 11z" />
    <glyph glyph-name="uni00B9" unicode="&#xb9;" horiz-adv-x="341" 
d="M288 780l-68 -388h101l-5 -28h-242l5 28h111l63 360h-112l5 28h142z" />
    <glyph glyph-name="guillemotright" unicode="&#xbb;" horiz-adv-x="427" 
d="M238 275l-2 -12l-191 -172l-20 22l174 159l-118 158l24 17zM254 447l133 -172l-2 -12l-191 -172l-20 22l174 159l-118 158z" />
    <glyph glyph-name="onequarter" unicode="&#xbc;" horiz-adv-x="872" 
d="M300 272l-5 -28h-242l5 28h111l63 360h-112l5 28h142l-68 -388h101zM711 660h33l-495 -660h-33zM828 110l-5 -28h-65l-14 -82h-31l14 82h-209l2 10l194 324h34l-185 -306h169l27 151h31l-27 -151h65z" />
    <glyph glyph-name="onehalf" unicode="&#xbd;" horiz-adv-x="911" 
d="M300 272l-5 -28h-242l5 28h111l63 360h-112l5 28h142l-68 -388h101zM711 660h33l-495 -660h-33zM746 135l-131 -107h218l-5 -28h-281l2 9l179 147q100 81 100 151q0 39 -23.5 63t-64.5 24q-50 0 -76 -34.5t-26 -79.5q0 -13 1 -19h-31q-1 5 -1 20q0 55 34.5 98t99.5 43
q55 0 87 -31.5t32 -81.5q0 -82 -114 -174z" />
    <glyph glyph-name="threequarters" unicode="&#xbe;" horiz-adv-x="845" 
d="M327 380q0 -57 -40 -99.5t-109 -42.5q-96 0 -136 92l25 14q35 -79 111 -79q56 0 86.5 34.5t30.5 79.5t-30.5 70.5t-81.5 25.5h-20l2 10l142 147h-188l5 28h240l-2 -10l-145 -150q46 -6 78 -38t32 -82zM685 660h33l-495 -660h-33zM801 110l-5 -28h-65l-14 -82h-31l14 82
h-209l2 10l194 324h34l-185 -306h169l27 151h31l-27 -151h65z" />
    <glyph glyph-name="multiply" unicode="&#xd7;" 
d="M153 499l141 -170l185 156l18 -21l-186 -156l142 -171l-22 -19l-141 171l-186 -157l-18 21l186 157l-142 170z" />
    <glyph glyph-name="divide" unicode="&#xf7;" 
d="M324 513q14 0 24 -10t10 -24t-10 -24t-24 -10t-24 10t-10 24t10 24t24 10zM508 323l-4 -28h-427l4 28h427zM264 172q14 0 24 -10t10 -24t-10 -24t-24 -10t-24 10t-10 24t10 24t24 10z" />
    <glyph glyph-name="florin" unicode="&#x192;" horiz-adv-x="436" 
d="M440 670q28 0 59 -7l-4 -25q-33 5 -56 5q-87 0 -117 -97l-47 -156h116l-5 -28h-120l-113 -373q-38 -122 -147 -122q-28 0 -59 7l4 25q33 -5 56 -5q88 0 117 97l113 371h-82l5 28h85l48 158q38 122 147 122z" />
    <glyph glyph-name="uni030C" unicode="&#x30c;" horiz-adv-x="0" 
d="M60 750l-69 -210h-26l57 210h38z" />
    <glyph glyph-name="dieresistonos" unicode="&#x385;" horiz-adv-x="390" 
d="M313 780v-5l-48 -213h-27l38 218h37zM151 700q14 0 24 -10t10 -24t-10 -24t-24 -10t-24 10t-10 24t10 24t24 10zM392 700q14 0 24 -10t10 -24t-10 -24t-24 -10t-24 10t-10 24t10 24t24 10z" />
    <glyph glyph-name="Alphatonos" unicode="&#x386;" horiz-adv-x="665" 
d="M187 720l-69 -210h-26l57 210h38zM552 0l-43 176h-362l-103 -176h-36l398 670h15l162 -670h-31zM503 204l-99 407l-241 -407h340z" />
    <glyph glyph-name="Epsilontonos" unicode="&#x388;" horiz-adv-x="561" 
d="M78 720l-69 -210h-26l57 210h38zM583 660l-5 -28h-374l-46 -259h294l-4 -28h-294l-56 -317h386l-5 -28h-418l116 660h406z" />
    <glyph glyph-name="Etatonos" unicode="&#x389;" horiz-adv-x="704" 
d="M78 720l-69 -210h-26l57 210h38zM675 660l-116 -660h-32l60 345h-434l-60 -345h-32l116 660h32l-50 -287h434l50 287h32z" />
    <glyph glyph-name="Iotatonos" unicode="&#x38a;" horiz-adv-x="238" 
d="M78 720l-69 -210h-26l57 210h38zM209 660l-116 -660h-32l116 660h32z" />
    <glyph glyph-name="Omicrontonos" unicode="&#x38c;" horiz-adv-x="784" 
d="M118 720l-69 -210h-26l57 210h38zM436 670q133 0 219.5 -90t86.5 -223q0 -151 -107.5 -259t-254.5 -108q-133 0 -219.5 90.5t-86.5 223.5q0 151 107.5 258.5t254.5 107.5zM435 640q-135 0 -231 -99t-96 -237q0 -121 76.5 -202.5t196.5 -81.5q135 0 231 99.5t96 237.5
q0 120 -76.5 201.5t-196.5 81.5z" />
    <glyph glyph-name="Upsilontonos" unicode="&#x38e;" horiz-adv-x="610" 
d="M-57 510l57 210h38l-69 -210h-26zM619 660l-296 -375l-50 -285h-32l50 287l-164 373h31l152 -346l272 346h37z" />
    <glyph glyph-name="Omegatonos" unicode="&#x38f;" horiz-adv-x="794" 
d="M120 720l-69 -210h-26l57 210h38zM750 361q0 -218 -245 -333h180l-5 -28h-245l5 30q276 108 276 333q0 121 -79 199t-209 78q-66 0 -120.5 -22t-90 -56.5t-60.5 -79t-35.5 -88.5t-10.5 -86q0 -172 190 -278l-6 -30h-265l5 28h217q-175 103 -175 279q0 47 12.5 95.5
t40.5 97t68 86t99.5 61t130.5 23.5q141 0 231.5 -85t90.5 -224z" />
    <glyph glyph-name="iotadieresistonos" unicode="&#x390;" horiz-adv-x="261" 
d="M228 780v-5l-48 -213h-27l38 218h37zM66 700q14 0 24 -10t10 -24t-10 -24t-24 -10t-24 10t-10 24t10 24t24 10zM307 700q14 0 24 -10t10 -24t-10 -24t-24 -10t-24 10t-10 24t10 24t24 10zM166 471l-62 -353q-5 -32 -5 -41q0 -59 67 -59q14 0 32 2l-5 -26q-18 -4 -35 -4
q-37 0 -63 21t-26 65q0 17 5 45l62 350h30z" />
    <glyph glyph-name="Alpha" unicode="&#x391;" horiz-adv-x="665" 
d="M552 0l-43 176h-362l-103 -176h-36l398 670h15l162 -670h-31zM503 204l-99 407l-241 -407h340z" />
    <glyph glyph-name="Beta" unicode="&#x392;" horiz-adv-x="610" 
d="M425 360q59 -16 91.5 -61t32.5 -104q0 -84 -62 -139.5t-168 -55.5h-258l116 660h201q79 0 120 -39.5t41 -103.5q0 -55 -30 -97.5t-84 -59.5zM204 632l-45 -259h195q73 0 112.5 41.5t39.5 101.5q0 54 -33.5 85t-99.5 31h-169zM319 28q91 0 144 47.5t53 119.5
q0 63 -41.5 105.5t-117.5 42.5h-204l-55 -315h221z" />
    <glyph glyph-name="Gamma" unicode="&#x393;" horiz-adv-x="493" 
d="M543 660l-5 -28h-334l-111 -632h-32l116 660h366z" />
    <glyph glyph-name="Delta" unicode="&#x394;" horiz-adv-x="665" 
d="M421 670l162 -670h-575l398 670h15zM546 28l-141 586l-346 -586h487z" />
    <glyph glyph-name="Epsilon" unicode="&#x395;" horiz-adv-x="561" 
d="M583 660l-5 -28h-374l-46 -259h294l-4 -28h-294l-56 -317h386l-5 -28h-418l116 660h406z" />
    <glyph glyph-name="Zeta" unicode="&#x396;" horiz-adv-x="590" 
d="M623 660l-2 -12l-568 -620h460l-5 -28h-508l2 12l568 620h-415l5 28h463z" />
    <glyph glyph-name="Eta" unicode="&#x397;" horiz-adv-x="704" 
d="M675 660l-116 -660h-32l60 345h-434l-60 -345h-32l116 660h32l-50 -287h434l50 287h32z" />
    <glyph glyph-name="Theta" unicode="&#x398;" horiz-adv-x="784" 
d="M436 670q133 0 219.5 -90t86.5 -223q0 -151 -107.5 -259t-254.5 -108q-133 0 -219.5 90.5t-86.5 223.5q0 151 107.5 258.5t254.5 107.5zM435 640q-135 0 -231 -99t-96 -237q0 -121 76.5 -202.5t196.5 -81.5q135 0 231 99.5t96 237.5q0 120 -76.5 201.5t-196.5 81.5z
M562 354l-5 -28h-302l5 28h302z" />
    <glyph glyph-name="Iota" unicode="&#x399;" horiz-adv-x="238" 
d="M209 660l-116 -660h-32l116 660h32z" />
    <glyph glyph-name="Kappa" unicode="&#x39a;" horiz-adv-x="598" 
d="M177 660h32l-116 -660h-32zM610 660l-393 -303l299 -357h-39l-302 359l387 301h48z" />
    <glyph glyph-name="Lambda" unicode="&#x39b;" horiz-adv-x="665" 
d="M583 0h-31l-147 614l-362 -614h-35l398 670h15z" />
    <glyph glyph-name="Mu" unicode="&#x39c;" horiz-adv-x="782" 
d="M740 670h15l-118 -670h-32l102 583l-310 -362h-15l-186 368l-103 -589h-32l118 670h15l202 -404z" />
    <glyph glyph-name="Nu" unicode="&#x39d;" horiz-adv-x="704" 
d="M643 660h32l-118 -670h-15l-345 609l-104 -599h-32l118 670h15l344 -613z" />
    <glyph glyph-name="Xi" unicode="&#x39e;" horiz-adv-x="528" 
d="M562 660l-5 -28h-448l5 28h448zM500 373l-4 -28h-426l4 28h426zM451 28l-5 -28h-448l5 28h448z" />
    <glyph glyph-name="Omicron" unicode="&#x39f;" horiz-adv-x="784" 
d="M436 670q133 0 219.5 -90t86.5 -223q0 -151 -107.5 -259t-254.5 -108q-133 0 -219.5 90.5t-86.5 223.5q0 151 107.5 258.5t254.5 107.5zM435 640q-135 0 -231 -99t-96 -237q0 -121 76.5 -202.5t196.5 -81.5q135 0 231 99.5t96 237.5q0 120 -76.5 201.5t-196.5 81.5z" />
    <glyph glyph-name="Pi" unicode="&#x3a0;" horiz-adv-x="674" 
d="M645 660l-116 -660h-32l111 632h-404l-111 -632h-32l116 660h468z" />
    <glyph glyph-name="Rho" unicode="&#x3a1;" 
d="M376 660q89 0 135.5 -44t46.5 -116q0 -82 -58 -135.5t-159 -53.5h-193l-55 -311h-32l116 660h199zM339 339q91 0 138 45.5t47 115.5q0 62 -38 97t-116 35h-166l-51 -293h186z" />
    <glyph glyph-name="Sigma" unicode="&#x3a3;" horiz-adv-x="543" 
d="M565 660l-5 -28h-388l192 -287l-2 -12l-291 -305h395l-5 -28h-448l2 12l315 330l-203 306l2 12h436z" />
    <glyph glyph-name="Tau" unicode="&#x3a4;" horiz-adv-x="584" 
d="M631 660l-5 -28h-249l-111 -632h-32l111 632h-249l5 28h530z" />
    <glyph glyph-name="Upsilon" unicode="&#x3a5;" horiz-adv-x="610" 
d="M619 660l-296 -375l-50 -285h-32l50 287l-164 373h31l152 -346l272 346h37z" />
    <glyph glyph-name="Phi" unicode="&#x3a6;" horiz-adv-x="769" 
d="M464 596q112 -6 187.5 -72.5t75.5 -176.5q0 -126 -98.5 -202t-245.5 -76h-12l-17 -99h-32l18 99q-113 6 -189 73t-76 177q0 126 98.5 202t245.5 76h14l16 93h32zM109 320q0 -98 67 -156.5t169 -63.5l82 467h-12q-131 0 -218.5 -67.5t-87.5 -179.5zM387 99
q131 0 218.5 67.5t87.5 179.5q0 98 -66.5 156.5t-167.5 63.5l-82 -467h10z" />
    <glyph glyph-name="Chi" unicode="&#x3a7;" horiz-adv-x="578" 
d="M595 660l-269 -324l170 -336h-34l-158 313l-268 -313h-39l291 341l-158 319h34l146 -297l246 297h39z" />
    <glyph glyph-name="Psi" unicode="&#x3a8;" horiz-adv-x="785" 
d="M773 660l-48 -274q-41 -228 -330 -228l-28 -158h-32l28 158q-111 0 -180 59.5t-69 158.5q0 26 6 59l40 225h32l-40 -227q-6 -33 -6 -56q0 -89 60 -140t162 -51l87 494h32l-87 -494q125 0 199.5 47.5t93.5 155.5l48 271h32z" />
    <glyph glyph-name="Omega" unicode="&#x3a9;" horiz-adv-x="794" 
d="M750 361q0 -218 -245 -333h180l-5 -28h-245l5 30q276 108 276 333q0 121 -79 199t-209 78q-66 0 -120.5 -22t-90 -56.5t-60.5 -79t-35.5 -88.5t-10.5 -86q0 -172 190 -278l-6 -30h-265l5 28h217q-175 103 -175 279q0 47 12.5 95.5t40.5 97t68 86t99.5 61t130.5 23.5
q141 0 231.5 -85t90.5 -224z" />
    <glyph glyph-name="Iotadieresis" unicode="&#x3aa;" horiz-adv-x="238" 
d="M108 840q14 0 24 -10t10 -24t-10 -24t-24 -10t-24 10t-10 24t10 24t24 10zM329 840q14 0 24 -10t10 -24t-10 -24t-24 -10t-24 10t-10 24t10 24t24 10zM209 660l-116 -660h-32l116 660h32z" />
    <glyph glyph-name="Upsilondieresis" unicode="&#x3ab;" horiz-adv-x="610" 
d="M257 772q-14 0 -24 10t-10 24t10 24t24 10t24 -10t10 -24t-10 -24t-24 -10zM478 772q-14 0 -24 10t-10 24t10 24t24 10t24 -10t10 -24t-10 -24t-24 -10zM619 660l-296 -375l-50 -285h-32l50 287l-164 373h31l152 -346l272 346h37z" />
    <glyph glyph-name="alphatonos" unicode="&#x3ac;" horiz-adv-x="649" 
d="M424 775l-48 -213h-27l38 218h38zM558 19q12 0 28 2l-5 -26q-14 -4 -29 -4q-32 0 -54.5 20t-22.5 60q0 3 0.5 11t0.5 13q-30 -50 -85 -77.5t-114 -27.5q-96 0 -158 66t-62 162q0 104 71 183.5t187 79.5q83 0 136 -41t70 -98l30 129h30q-41 -176 -49 -224l-22 -129
q-5 -33 -5 -46q0 -27 14.5 -40t38.5 -13zM282 18q55 0 99 24.5t70 62.5t40 80.5t14 83.5q0 85 -55.5 134.5t-134.5 49.5q-96 0 -161 -70t-65 -164q0 -83 52 -142t141 -59z" />
    <glyph glyph-name="epsilontonos" unicode="&#x3ad;" horiz-adv-x="487" 
d="M355 775l-48 -213h-27l38 218h38zM280 453q-61 0 -94 -25t-33 -67q0 -38 26 -64.5t75 -26.5h92l-5 -28h-86q-78 0 -122.5 -31t-44.5 -83q0 -49 40 -79.5t106 -30.5q89 0 153 70l20 -19q-70 -79 -171 -79q-81 0 -130.5 38.5t-49.5 98.5q0 50 34.5 85t96.5 45
q-66 31 -66 104q0 54 43 87t116 33q121 0 165 -83l-24 -15q-39 70 -141 70z" />
    <glyph glyph-name="etatonos" unicode="&#x3ae;" horiz-adv-x="569" 
d="M403 775l-48 -213h-27l38 218h38zM329 481q73 0 116.5 -42.5t43.5 -109.5q0 -18 -6 -54l-79 -455h-30l80 459q5 28 5 44q0 58 -35.5 94t-96.5 36q-63 0 -109.5 -40t-58.5 -108l-54 -305h-30l62 353q5 33 5 46q0 27 -14.5 40t-38.5 13q-12 0 -28 -2l5 26q14 4 29 4
q32 0 54.5 -20t22.5 -60v-1q55 82 157 82z" />
    <glyph glyph-name="iotatonos" unicode="&#x3af;" horiz-adv-x="261" 
d="M227 780l-1 -5l-48 -213h-27l38 218h38zM166 471l-62 -353q-5 -32 -5 -41q0 -59 67 -59q14 0 32 2l-5 -26q-18 -4 -35 -4q-37 0 -63 21t-26 65q0 17 5 45l62 350h30z" />
    <glyph glyph-name="upsilondieresistonos" unicode="&#x3b0;" horiz-adv-x="534" 
d="M369 780v-5l-48 -213h-27l38 218h37zM207 700q14 0 24 -10t10 -24t-10 -24t-24 -10t-24 10t-10 24t10 24t24 10zM448 700q14 0 24 -10t10 -24t-10 -24t-24 -10t-24 10t-10 24t10 24t24 10zM446 471q18 -72 18 -158q0 -63 -11 -117.5t-34.5 -102t-67 -75.5t-101.5 -28
q-76 0 -123 44.5t-47 116.5q0 19 3 38l49 282h30l-50 -285q-3 -17 -3 -34q0 -61 39.5 -97.5t101.5 -36.5q51 0 88.5 26.5t57 72t28.5 94t9 103.5q0 80 -17 157h30z" />
    <glyph glyph-name="alpha" unicode="&#x3b1;" horiz-adv-x="649" 
d="M558 19q12 0 28 2l-5 -26q-14 -4 -29 -4q-32 0 -54.5 20t-22.5 60q0 3 0.5 11t0.5 13q-30 -50 -85 -77.5t-114 -27.5q-96 0 -158 66t-62 162q0 104 71 183.5t187 79.5q83 0 136 -41t70 -98l30 129h30q-41 -176 -49 -224l-22 -129q-5 -33 -5 -46q0 -27 14.5 -40t38.5 -13z
M282 18q55 0 99 24.5t70 62.5t40 80.5t14 83.5q0 85 -55.5 134.5t-134.5 49.5q-96 0 -161 -70t-65 -164q0 -83 52 -142t141 -59z" />
    <glyph glyph-name="beta" unicode="&#x3b2;" horiz-adv-x="585" 
d="M381 419q141 -64 141 -190q0 -40 -14 -80.5t-41.5 -77t-75.5 -59t-108 -22.5q-83 0 -138 43t-55 129q0 22 5 54l63 357q18 94 71 140.5t124 46.5t112 -42.5t41 -108.5q0 -108 -125 -190zM189 571l-40 -228q164 56 244.5 120.5t80.5 147.5q0 57 -35 89t-90 32
q-59 0 -102.5 -39.5t-57.5 -121.5zM283 18q54 0 96 20.5t65 52.5t34.5 67t11.5 69q0 117 -136 175q-85 -49 -211 -89l-17 -98q-5 -32 -5 -52q0 -74 45.5 -109.5t116.5 -35.5z" />
    <glyph glyph-name="gamma" unicode="&#x3b3;" horiz-adv-x="518" 
d="M517 471l-291 -466l-32 -185h-30l33 189l-126 462h31l116 -429l264 429h35z" />
    <glyph glyph-name="delta" unicode="&#x3b4;" horiz-adv-x="611" 
d="M623 750l-5 -28h-402l254 -286q82 -92 82 -184q0 -109 -77.5 -185.5t-184.5 -76.5q-99 0 -165.5 67.5t-66.5 164.5q0 105 77 182t181 77q50 0 97 -22l-252 279l2 12h460zM520 248q0 85 -57.5 145t-145.5 60q-95 0 -161 -69t-66 -163q0 -86 57.5 -144.5t143.5 -58.5
q95 0 162 68.5t67 161.5z" />
    <glyph glyph-name="epsilon" unicode="&#x3b5;" horiz-adv-x="487" 
d="M280 453q-61 0 -94 -25t-33 -67q0 -38 26 -64.5t75 -26.5h92l-5 -28h-86q-78 0 -122.5 -31t-44.5 -83q0 -49 40 -79.5t106 -30.5q89 0 153 70l20 -19q-70 -79 -171 -79q-81 0 -130.5 38.5t-49.5 98.5q0 50 34.5 85t96.5 45q-66 31 -66 104q0 54 43 87t116 33
q121 0 165 -83l-24 -15q-39 70 -141 70z" />
    <glyph glyph-name="zeta" unicode="&#x3b6;" horiz-adv-x="487" 
d="M543 738l-341 -339q-66 -67 -92.5 -113.5t-26.5 -91.5q0 -53 32.5 -88t102.5 -59l79 -27q56 -19 82 -44.5t26 -66.5q0 -43 -32 -89h-32q32 56 32 86t-21 50.5t-67 36.5l-81 28q-77 27 -115 67.5t-38 102.5q0 53 30.5 105.5t99.5 121.5l307 304h-302l5 28h354z" />
    <glyph glyph-name="eta" unicode="&#x3b7;" horiz-adv-x="569" 
d="M329 481q73 0 116.5 -42.5t43.5 -109.5q0 -18 -6 -54l-79 -455h-30l80 459q5 28 5 44q0 58 -35.5 94t-96.5 36q-63 0 -109.5 -40t-58.5 -108l-54 -305h-30l62 353q5 33 5 46q0 27 -14.5 40t-38.5 13q-12 0 -28 -2l5 26q14 4 29 4q32 0 54.5 -20t22.5 -60v-1q55 82 157 82
z" />
    <glyph glyph-name="theta" unicode="&#x3b8;" horiz-adv-x="598" 
d="M374 760q178 0 178 -251q0 -55 -8 -118.5t-28.5 -136.5t-51.5 -130.5t-81.5 -95.5t-113.5 -38q-31 0 -59 9.5t-57 33.5t-46.5 74t-17.5 122q0 57 14 146h31q-13 -86 -13 -141q0 -105 39 -160.5t108 -55.5q46 0 84.5 24t65.5 66.5t46 90.5t32 106q-146 60 -223.5 126.5
t-77.5 152.5q0 69 47 122.5t132 53.5zM227 587q0 -41 20 -77t60 -67t85 -55.5t110 -53.5q18 93 18 177q0 110 -38.5 165.5t-109.5 55.5q-66 0 -105.5 -42.5t-39.5 -102.5z" />
    <glyph glyph-name="iota" unicode="&#x3b9;" horiz-adv-x="261" 
d="M166 471l-62 -353q-5 -32 -5 -41q0 -59 67 -59q14 0 32 2l-5 -26q-18 -4 -35 -4q-37 0 -63 21t-26 65q0 17 5 45l62 350h30z" />
    <glyph glyph-name="kappa" unicode="&#x3ba;" horiz-adv-x="461" 
d="M140 471h30l-83 -471h-30zM460 471l-267 -216l206 -255h-38l-210 258l264 213h45z" />
    <glyph glyph-name="lambda" unicode="&#x3bb;" horiz-adv-x="529" 
d="M459 21h11l-5 -26q-10 -2 -20 -2q-52 0 -64 69l-64 379l-295 -441h-33l320 477l-26 148q-10 56 -38.5 81.5t-64.5 25.5q-20 0 -32 -1l5 27q16 2 29 2q107 0 129 -120l99 -567q5 -29 16 -40.5t33 -11.5z" />
    <glyph glyph-name="mu" unicode="&#x3bc;" horiz-adv-x="577" 
d="M486 19q12 0 28 2l-5 -26q-14 -4 -29 -4q-32 0 -54.5 20t-22.5 60v1q-55 -82 -157 -82q-54 0 -92 24t-53 65l-46 -259h-30l115 651h30l-49 -279q-5 -28 -5 -44q0 -58 35.5 -94t96.5 -36q63 0 109.5 40t58.5 108l54 305h30l-62 -353q-5 -33 -5 -46q0 -27 14.5 -40
t38.5 -13z" />
    <glyph glyph-name="nu" unicode="&#x3bd;" horiz-adv-x="519" 
d="M483 471h35l-300 -481h-15l-132 481h32l116 -428z" />
    <glyph glyph-name="xi" unicode="&#x3be;" horiz-adv-x="505" 
d="M379 760q115 0 172 -98l-24 -16q-47 86 -147 86q-71 0 -120.5 -44.5t-49.5 -113.5q0 -62 40.5 -103.5t112.5 -41.5h75l-5 -28h-98q-116 0 -174.5 -59.5t-58.5 -138.5q0 -32 11.5 -57.5t26.5 -42t44 -32t50 -23.5t58 -21t54.5 -20t39.5 -20.5t30.5 -32t8.5 -44.5
q0 -44 -32 -90h-32q32 56 32 88q0 37 -25 54t-87 38q-38 12 -61.5 21.5t-55 27t-49.5 37t-31.5 50.5t-13.5 68q0 77 51.5 140.5t155.5 77.5q-45 20 -72 60t-27 89q0 71 53 130t148 59z" />
    <glyph glyph-name="omicron" unicode="&#x3bf;" horiz-adv-x="612" 
d="M321 481q99 0 165.5 -66.5t66.5 -164.5q0 -108 -79 -184t-186 -76q-99 0 -164.5 66.5t-65.5 164.5q0 108 78 184t185 76zM320 453q-95 0 -162.5 -68t-67.5 -165q0 -86 56 -144t143 -58q96 0 164 68t68 163q0 86 -57 145t-144 59z" />
    <glyph glyph-name="pi" unicode="&#x3c0;" horiz-adv-x="589" 
d="M492 -9q-32 0 -55 19.5t-23 57.5q0 22 6 53l57 322h-312l-77 -443h-30l82 471h372l-62 -353q-5 -28 -5 -45q0 -54 53 -54q12 0 28 2l-5 -26q-14 -4 -29 -4z" />
    <glyph glyph-name="rho" unicode="&#x3c1;" horiz-adv-x="623" 
d="M340 481q99 0 161.5 -66.5t62.5 -161.5q0 -103 -72 -183t-184 -80q-82 0 -135.5 43.5t-69.5 101.5l-56 -315h-30l77 438q18 103 86 163t160 60zM310 18q95 0 158.5 71t63.5 164q0 83 -52 141.5t-142 58.5q-54 0 -98 -23.5t-69 -61t-38.5 -79t-13.5 -82.5q0 -85 55.5 -137
t135.5 -52z" />
    <glyph glyph-name="uni03C2" unicode="&#x3c2;" horiz-adv-x="521" 
d="M336 -180q32 56 32 86q0 9 -2 17t-4.5 14t-8 12.5t-9.5 10.5t-12.5 9t-12.5 7.5t-15 7t-15 6t-16.5 6t-15.5 5.5q-31 11 -53.5 21t-51.5 29.5t-47.5 42.5t-31.5 58.5t-13 77.5q0 110 74 180.5t180 70.5q130 0 200 -101l-25 -16q-62 89 -175 89q-93 0 -157.5 -63.5
t-64.5 -160.5q0 -44 14 -78.5t41.5 -57.5t55 -37.5t65.5 -27.5q33 -11 50.5 -18.5t39.5 -21.5t32 -34t10 -46q0 -42 -32 -88h-32z" />
    <glyph glyph-name="sigma" unicode="&#x3c3;" horiz-adv-x="613" 
d="M644 471l-5 -28h-215q55 -24 87.5 -74t32.5 -118q0 -109 -78 -185t-185 -76q-98 0 -161.5 65t-63.5 160q0 106 78 181t195 75h315zM512 250q0 85 -54.5 139t-140.5 54q-95 0 -162 -63.5t-67 -160.5q0 -86 54.5 -143.5t140.5 -57.5q96 0 162.5 68t66.5 164z" />
    <glyph glyph-name="tau" unicode="&#x3c4;" horiz-adv-x="421" 
d="M226 443l-53 -297q-3 -16 -3 -30q0 -49 33.5 -73.5t88.5 -24.5q30 0 65 5l-5 -26q-30 -7 -63 -7q-69 0 -109 31.5t-40 91.5q0 15 3 35l53 295h-138l5 28h362l-5 -28h-194z" />
    <glyph glyph-name="upsilon" unicode="&#x3c5;" horiz-adv-x="534" 
d="M446 471q18 -72 18 -158q0 -63 -11 -117.5t-34.5 -102t-67 -75.5t-101.5 -28q-76 0 -123 44.5t-47 116.5q0 19 3 38l49 282h30l-50 -285q-3 -17 -3 -34q0 -61 39.5 -97.5t101.5 -36.5q51 0 88.5 26.5t57 72t28.5 94t9 103.5q0 80 -17 157h30z" />
    <glyph glyph-name="phi" unicode="&#x3c6;" horiz-adv-x="684" 
d="M633 307q0 -55 -17.5 -108t-53 -101t-100 -77.5t-149.5 -30.5l-30 -170h-30l30 170q-96 3 -161.5 61t-65.5 159q0 90 55 164.5t167 103.5l8 -27q-99 -27 -148.5 -91.5t-49.5 -146.5q0 -92 58 -142t142 -53l56 318q25 145 147 145q68 0 105 -46t37 -128zM318 18
q75 1 132 27.5t88.5 70t47 91.5t15.5 99q0 69 -28.5 108t-82.5 39q-96 0 -117 -122z" />
    <glyph glyph-name="chi" unicode="&#x3c7;" horiz-adv-x="471" 
d="M314 -101q10 -32 23.5 -43t40.5 -11h11l-5 -26q-10 -2 -21 -2q-31 0 -48.5 16.5t-27.5 51.5l-72 243l-231 -308h-37l256 338l-71 246q-12 41 -53 41q-13 0 -21 -1l5 27q12 2 23 2q58 0 74 -58l66 -230l214 286h36l-239 -317z" />
    <glyph glyph-name="psi" unicode="&#x3c8;" horiz-adv-x="726" 
d="M456 660l-113 -643q62 0 111.5 18t81.5 47.5t53.5 69.5t30.5 82.5t9 87.5q0 72 -17 149h30q18 -72 18 -150q0 -66 -18 -123t-55 -105t-101 -75.5t-148 -27.5l-30 -170h-28l28 170q-92 0 -156.5 52.5t-64.5 144.5q0 29 4 54l41 230h30l-42 -233q-4 -23 -4 -49
q0 -81 58.5 -126.5t138.5 -45.5l113 643h30z" />
    <glyph glyph-name="omega" unicode="&#x3c9;" horiz-adv-x="826" 
d="M624 476q145 -68 145 -211q0 -64 -24 -125t-77 -105.5t-122 -44.5q-57 0 -98.5 29.5t-53.5 83.5q-23 -54 -67 -83.5t-101 -29.5q-75 0 -124.5 50.5t-49.5 144.5q0 63 22 118.5t77.5 104t137.5 68.5l6 -26q-106 -28 -158.5 -99.5t-52.5 -160.5q0 -83 41 -127.5t103 -44.5
q60 0 103.5 42t56.5 113l35 199h30l-31 -176q-6 -36 -6 -50q0 -57 35 -92.5t92 -35.5q59 0 105 40.5t67.5 96t21.5 111.5q0 127 -127 184z" />
    <glyph glyph-name="iotadieresis" unicode="&#x3ca;" horiz-adv-x="261" 
d="M106 700q14 0 24 -10t10 -24t-10 -24t-24 -10t-24 10t-10 24t10 24t24 10zM267 700q14 0 24 -10t10 -24t-10 -24t-24 -10t-24 10t-10 24t10 24t24 10zM166 471l-62 -353q-5 -32 -5 -41q0 -59 67 -59q14 0 32 2l-5 -26q-18 -4 -35 -4q-37 0 -63 21t-26 65q0 17 5 45
l62 350h30z" />
    <glyph glyph-name="upsilondieresis" unicode="&#x3cb;" horiz-adv-x="534" 
d="M232 700q14 0 24 -10t10 -24t-10 -24t-24 -10t-24 10t-10 24t10 24t24 10zM433 700q14 0 24 -10t10 -24t-10 -24t-24 -10t-24 10t-10 24t10 24t24 10zM446 471q18 -72 18 -158q0 -63 -11 -117.5t-34.5 -102t-67 -75.5t-101.5 -28q-76 0 -123 44.5t-47 116.5q0 19 3 38
l49 282h30l-50 -285q-3 -17 -3 -34q0 -61 39.5 -97.5t101.5 -36.5q51 0 88.5 26.5t57 72t28.5 94t9 103.5q0 80 -17 157h30z" />
    <glyph glyph-name="omicrontonos" unicode="&#x3cc;" horiz-adv-x="612" 
d="M416 780l-1 -5l-48 -213h-27l38 218h38zM321 481q99 0 165.5 -66.5t66.5 -164.5q0 -108 -79 -184t-186 -76q-99 0 -164.5 66.5t-65.5 164.5q0 108 78 184t185 76zM320 453q-95 0 -162.5 -68t-67.5 -165q0 -86 56 -144t143 -58q96 0 164 68t68 163q0 86 -57 145t-144 59z
" />
    <glyph glyph-name="upsilontonos" unicode="&#x3cd;" horiz-adv-x="534" 
d="M368 780l-1 -5l-48 -213h-27l38 218h38zM446 471q18 -72 18 -158q0 -63 -11 -117.5t-34.5 -102t-67 -75.5t-101.5 -28q-76 0 -123 44.5t-47 116.5q0 19 3 38l49 282h30l-50 -285q-3 -17 -3 -34q0 -61 39.5 -97.5t101.5 -36.5q51 0 88.5 26.5t57 72t28.5 94t9 103.5
q0 80 -17 157h30z" />
    <glyph glyph-name="omegatonos" unicode="&#x3ce;" horiz-adv-x="826" 
d="M528 775l-48 -213h-27l38 218h38zM624 476q145 -68 145 -211q0 -64 -24 -125t-77 -105.5t-122 -44.5q-57 0 -98.5 29.5t-53.5 83.5q-23 -54 -67 -83.5t-101 -29.5q-75 0 -124.5 50.5t-49.5 144.5q0 63 22 118.5t77.5 104t137.5 68.5l6 -26q-106 -28 -158.5 -99.5
t-52.5 -160.5q0 -83 41 -127.5t103 -44.5q60 0 103.5 42t56.5 113l35 199h30l-31 -176q-6 -36 -6 -50q0 -57 35 -92.5t92 -35.5q59 0 105 40.5t67.5 96t21.5 111.5q0 127 -127 184z" />
    <glyph glyph-name="uni2009" unicode="&#x2009;" horiz-adv-x="146" 
 />
    <glyph glyph-name="endash" unicode="&#x2013;" horiz-adv-x="500" 
d="M465 323l-5 -28h-400l5 28h400z" />
    <glyph glyph-name="emdash" unicode="&#x2014;" horiz-adv-x="1000" 
d="M965 323l-5 -28h-900l5 28h900z" />
    <glyph glyph-name="uni2015" unicode="&#x2015;" horiz-adv-x="1000" 
d="M965 323l-5 -28h-900l5 28h900z" />
    <glyph glyph-name="quoteleft" unicode="&#x2018;" horiz-adv-x="265" 
d="M235 660l-61 -240h-40l74 240h27z" />
    <glyph glyph-name="quoteright" unicode="&#x2019;" horiz-adv-x="265" 
d="M237 660l-74 -240h-27l61 240h40z" />
    <glyph glyph-name="quotesinglbase" unicode="&#x201a;" horiz-adv-x="265" 
d="M132 63l-75 -240h-27l62 240h40z" />
    <glyph glyph-name="quotedblleft" unicode="&#x201c;" horiz-adv-x="405" 
d="M235 660l-61 -240h-40l74 240h27zM375 660l-61 -240h-40l74 240h27z" />
    <glyph glyph-name="quotedblright" unicode="&#x201d;" horiz-adv-x="405" 
d="M237 660l-74 -240h-27l61 240h40zM377 660l-74 -240h-27l61 240h40z" />
    <glyph glyph-name="quotedblbase" unicode="&#x201e;" horiz-adv-x="405" 
d="M132 63l-75 -240h-27l62 240h40zM272 63l-75 -240h-27l62 240h40z" />
    <glyph glyph-name="dagger" unicode="&#x2020;" horiz-adv-x="427" 
d="M318 750l-22 -126h123l-5 -28h-123l-37 -210h-30l37 210h-123l5 28h123l22 126h30z" />
    <glyph glyph-name="daggerdbl" unicode="&#x2021;" horiz-adv-x="426" 
d="M318 750l-17 -96h123l-5 -28h-123l-26 -146h123l-5 -28h-123l-17 -96h-30l17 96h-123l5 28h123l26 146h-123l5 28h123l17 96h30z" />
    <glyph glyph-name="bullet" unicode="&#x2022;" horiz-adv-x="337" 
d="M173 370q42 0 74 -29.5t32 -76.5t-32 -76.5t-74 -29.5t-74.5 29.5t-32.5 76.5t32.5 76.5t74.5 29.5z" />
    <glyph glyph-name="ellipsis" unicode="&#x2026;" horiz-adv-x="750" 
d="M97 68q16 0 28 -11t12 -29q0 -17 -12 -27.5t-28 -10.5q-15 0 -26.5 10.5t-11.5 27.5q0 18 11.5 29t26.5 11zM337 68q16 0 28 -11t12 -29q0 -17 -12 -27.5t-28 -10.5q-15 0 -26.5 10.5t-11.5 27.5q0 18 11.5 29t26.5 11zM577 68q16 0 28 -11t12 -29q0 -17 -12 -27.5
t-28 -10.5q-15 0 -26.5 10.5t-11.5 27.5q0 18 11.5 29t26.5 11z" />
    <glyph glyph-name="perthousand" unicode="&#x2030;" horiz-adv-x="1187" 
d="M270 670q65 0 107.5 -44.5t42.5 -108.5q0 -68 -47.5 -115.5t-115.5 -47.5q-66 0 -107.5 44.5t-41.5 108.5q0 68 47 115.5t115 47.5zM689 660l-515 -660h-33l515 660h33zM271 642q-56 0 -93.5 -38.5t-37.5 -96.5q0 -54 33.5 -89.5t86.5 -35.5q55 0 91.5 38.5t36.5 96.5
q0 54 -32 89.5t-85 35.5zM962 308q65 0 107.5 -44.5t42.5 -108.5q0 -68 -47.5 -115.5t-115.5 -47.5q-66 0 -107.5 44.5t-41.5 108.5q0 68 47 115.5t115 47.5zM569 306q65 0 107.5 -44.5t42.5 -108.5q0 -68 -47.5 -115.5t-115.5 -47.5q-66 0 -107.5 44.5t-41.5 108.5
q0 68 47 115.5t115 47.5zM963 280q-56 0 -93.5 -38.5t-37.5 -96.5q0 -54 33.5 -89.5t86.5 -35.5q55 0 91.5 38.5t36.5 96.5q0 54 -32 89.5t-85 35.5zM570 278q-56 0 -93.5 -38.5t-37.5 -96.5q0 -54 33.5 -89.5t86.5 -35.5q55 0 91.5 38.5t36.5 96.5q0 54 -32 89.5t-85 35.5z
" />
    <glyph glyph-name="minute" unicode="&#x2032;" horiz-adv-x="213" 
d="M230 660l-104 -262h-28l90 262h42z" />
    <glyph glyph-name="second" unicode="&#x2033;" horiz-adv-x="353" 
d="M230 660l-104 -262h-28l90 262h42zM370 660l-104 -262h-28l90 262h42z" />
    <glyph glyph-name="guilsinglleft" unicode="&#x2039;" horiz-adv-x="277" 
d="M263 425l-174 -159l118 -158l-24 -17l-133 172l2 12l191 172z" />
    <glyph glyph-name="guilsinglright" unicode="&#x203a;" horiz-adv-x="278" 
d="M105 447l133 -172l-2 -12l-191 -172l-20 22l174 159l-118 158z" />
    <glyph glyph-name="fraction" unicode="&#x2044;" horiz-adv-x="246" 
d="M403 660l-495 -660h-33l495 660h33z" />
    <glyph glyph-name="uni2070" unicode="&#x2070;" horiz-adv-x="404" 
d="M289 786q60 0 91.5 -41.5t31.5 -114.5q0 -31 -5 -64.5t-18 -71.5t-32.5 -67.5t-51.5 -49t-72 -19.5q-60 0 -92 41.5t-32 114.5q0 39 9 82t28 87.5t56 73.5t87 29zM286 758q-40 0 -70.5 -26.5t-45.5 -68t-22 -79.5t-7 -72q0 -68 27.5 -97t67.5 -29t70 27t45 68t22 79.5
t7 71.5q0 67 -27 96.5t-67 29.5z" />
    <glyph glyph-name="uni2074" unicode="&#x2074;" horiz-adv-x="344" 
d="M364 474l-5 -28h-65l-14 -82h-31l14 82h-209l2 10l194 324h34l-185 -306h169l27 151h31l-27 -151h65z" />
    <glyph glyph-name="uni2075" unicode="&#x2075;" horiz-adv-x="363" 
d="M370 752h-171l-23 -134q32 2 47 2q66 0 102.5 -32t36.5 -87q0 -59 -40 -101t-108 -42q-99 0 -138 92l25 14q36 -78 112 -78q57 0 87 33.5t30 79.5q0 43 -27.5 68.5t-81.5 25.5h-81l33 187h202z" />
    <glyph glyph-name="uni2076" unicode="&#x2076;" horiz-adv-x="373" 
d="M242 626q54 0 89.5 -36.5t35.5 -90.5q0 -59 -42 -100t-101 -41q-55 0 -92 37t-37 92q0 12 1.5 23.5t7 24t8.5 20t13 21t13 17.5t15.5 20t14.5 18l121 149h39l-137 -166q23 12 51 12zM226 386q46 0 77.5 32t31.5 80q0 44 -27 72t-70 28q-47 0 -79 -32.5t-32 -79.5
q0 -44 28 -72t71 -28z" />
    <glyph glyph-name="uni2077" unicode="&#x2077;" horiz-adv-x="315" 
d="M119 780h271l-2 -10l-291 -406h-35l279 388h-227z" />
    <glyph glyph-name="uni2078" unicode="&#x2078;" horiz-adv-x="378" 
d="M283 580q87 -41 87 -106q0 -43 -34.5 -79t-106.5 -36q-62 0 -101 29t-39 78q0 47 36.5 77.5t93.5 42.5q-72 38 -72 94q0 42 33 74t90 32q50 0 84.5 -25t34.5 -71q0 -79 -106 -110zM177 681q0 -26 19 -45.5t56 -38.5q107 27 107 90q0 33 -25.5 53t-63.5 20
q-42 0 -67.5 -23.5t-25.5 -55.5zM228 385q58 0 84.5 28t26.5 62q0 32 -22.5 51.5t-68.5 43.5q-128 -30 -128 -102q0 -37 28.5 -60t79.5 -23z" />
    <glyph glyph-name="uni2079" unicode="&#x2079;" horiz-adv-x="372" 
d="M266 786q55 0 92 -37t37 -92q0 -12 -1.5 -23.5t-7 -24t-8.5 -20t-13 -21t-13 -17.5t-15.5 -20t-14.5 -18l-121 -149h-39l137 166q-22 -12 -51 -12q-54 0 -89.5 36.5t-35.5 90.5q0 59 42 100t101 41zM252 546q47 0 79 32.5t32 79.5q0 44 -28 72t-71 28q-46 0 -77.5 -32
t-31.5 -80q0 -44 27 -72t70 -28z" />
    <glyph glyph-name="uni207A" unicode="&#x207a;" horiz-adv-x="427" 
d="M317 739l-27 -153h149l-5 -27h-149l-27 -153h-30l27 153h-149l5 27h149l27 153h30z" />
    <glyph glyph-name="uni207B" unicode="&#x207b;" horiz-adv-x="427" 
d="M439 586l-5 -27h-328l5 27h328z" />
    <glyph glyph-name="uni207C" unicode="&#x207c;" horiz-adv-x="427" 
d="M444 663l-5 -27h-312l5 27h312zM416 509l-4 -27h-312l4 27h312z" />
    <glyph glyph-name="uni207D" unicode="&#x207d;" horiz-adv-x="243" 
d="M326 900l10 -23q-88 -47 -140.5 -159t-52.5 -236q0 -148 85 -217l-16 -20q-98 73 -98 234q0 133 56.5 254t155.5 167z" />
    <glyph glyph-name="uni207E" unicode="&#x207e;" horiz-adv-x="243" 
d="M148 900q98 -74 98 -234q0 -133 -56.5 -254t-155.5 -167l-10 23q88 47 140.5 159t52.5 236q0 148 -85 217z" />
    <glyph glyph-name="uni2080" unicode="&#x2080;" horiz-adv-x="404" 
d="M204 302q60 0 91.5 -41.5t31.5 -114.5q0 -31 -5 -64.5t-18 -71.5t-32.5 -67.5t-51.5 -49t-72 -19.5q-60 0 -92 41.5t-32 114.5q0 39 9 82t28 87.5t56 73.5t87 29zM201 274q-40 0 -70.5 -26.5t-45.5 -68t-22 -79.5t-7 -72q0 -68 27.5 -97t67.5 -29t70 27t45 68t22 79.5
t7 71.5q0 67 -27 96.5t-67 29.5z" />
    <glyph glyph-name="uni2081" unicode="&#x2081;" horiz-adv-x="341" 
d="M203 296l-68 -388h101l-5 -28h-242l5 28h111l63 360h-112l5 28h142z" />
    <glyph glyph-name="uni2082" unicode="&#x2082;" horiz-adv-x="358" 
d="M172 15l-131 -107h218l-5 -28h-281l2 9l179 147q100 81 100 151q0 39 -23.5 63t-64.5 24q-50 0 -76 -34.5t-26 -79.5q0 -13 1 -19h-31q-1 5 -1 20q0 55 34.5 98t99.5 43q55 0 87 -31.5t32 -81.5q0 -82 -114 -174z" />
    <glyph glyph-name="uni2083" unicode="&#x2083;" horiz-adv-x="350" 
d="M300 296l-2 -10l-145 -150q46 -6 78 -38t32 -82q0 -57 -40 -99.5t-109 -42.5q-96 0 -136 92l25 14q35 -79 111 -79q56 0 86.5 34.5t30.5 79.5t-30.5 70.5t-81.5 25.5h-20l2 10l142 147h-188l5 28h240z" />
    <glyph glyph-name="uni2084" unicode="&#x2084;" horiz-adv-x="344" 
d="M279 -10l-5 -28h-65l-14 -82h-31l14 82h-209l2 10l194 324h34l-185 -306h169l27 151h31l-27 -151h65z" />
    <glyph glyph-name="uni2085" unicode="&#x2085;" horiz-adv-x="363" 
d="M285 268h-171l-23 -134q32 2 47 2q66 0 102.5 -32t36.5 -87q0 -59 -40 -101t-108 -42q-99 0 -138 92l25 14q36 -78 112 -78q57 0 87 33.5t30 79.5q0 43 -27.5 68.5t-81.5 25.5h-81l33 187h202z" />
    <glyph glyph-name="uni2086" unicode="&#x2086;" horiz-adv-x="373" 
d="M156 142q54 0 89.5 -36.5t35.5 -90.5q0 -59 -42 -100t-101 -41q-55 0 -92 37t-37 92q0 12 1.5 23.5t7 24t8.5 20t13 21t13 17.5t15.5 20t14.5 18l121 149h39l-137 -166q23 12 51 12zM140 -98q46 0 77.5 32t31.5 80q0 44 -27 72t-70 28q-47 0 -79 -32.5t-32 -79.5
q0 -44 28 -72t71 -28z" />
    <glyph glyph-name="uni2087" unicode="&#x2087;" horiz-adv-x="315" 
d="M34 296h271l-2 -10l-291 -406h-35l279 388h-227z" />
    <glyph glyph-name="uni2088" unicode="&#x2088;" horiz-adv-x="378" 
d="M198 96q87 -41 87 -106q0 -43 -34.5 -79t-106.5 -36q-62 0 -101 29t-39 78q0 47 36.5 77.5t93.5 42.5q-72 38 -72 94q0 42 33 74t90 32q50 0 84.5 -25t34.5 -71q0 -79 -106 -110zM92 197q0 -26 19 -45.5t56 -38.5q107 27 107 90q0 33 -25.5 53t-63.5 20
q-42 0 -67.5 -23.5t-25.5 -55.5zM143 -99q58 0 84.5 28t26.5 62q0 32 -22.5 51.5t-68.5 43.5q-128 -30 -128 -102q0 -37 28.5 -60t79.5 -23z" />
    <glyph glyph-name="uni2089" unicode="&#x2089;" horiz-adv-x="372" 
d="M180 302q55 0 92 -37t37 -92q0 -12 -1.5 -23.5t-7 -24t-8.5 -20t-13 -21t-13 -17.5t-15.5 -20t-14.5 -18l-121 -149h-39l137 166q-23 -12 -51 -12q-54 0 -89.5 36.5t-35.5 90.5q0 59 42 100t101 41zM166 62q47 0 79 32.5t32 79.5q0 44 -28 72t-71 28q-46 0 -77.5 -32
t-31.5 -80q0 -44 27 -72t70 -28z" />
    <glyph glyph-name="uni208A" unicode="&#x208a;" horiz-adv-x="428" 
d="M232 254l-27 -153h149l-5 -27h-149l-27 -153h-30l27 153h-149l5 27h149l27 153h30z" />
    <glyph glyph-name="uni208B" unicode="&#x208b;" horiz-adv-x="428" 
d="M354 101l-5 -27h-328l5 27h328z" />
    <glyph glyph-name="uni208C" unicode="&#x208c;" horiz-adv-x="428" 
d="M359 178l-5 -27h-312l5 27h312zM331 24l-4 -27h-312l4 27h312z" />
    <glyph glyph-name="uni208D" unicode="&#x208d;" horiz-adv-x="243" 
d="M241 415l10 -23q-88 -47 -140.5 -159t-52.5 -236q0 -148 85 -217l-16 -20q-98 74 -98 234q0 133 56.5 254t155.5 167z" />
    <glyph glyph-name="uni208E" unicode="&#x208e;" horiz-adv-x="242" 
d="M62 415q98 -74 98 -234q0 -133 -56.5 -254t-155.5 -167l-10 23q88 47 140.5 159t52.5 236q0 148 -85 217z" />
    <glyph glyph-name="Euro" unicode="&#x20ac;" horiz-adv-x="684" 
d="M458 670q143 0 218 -106l-25 -18q-63 94 -191 94q-111 0 -180 -64t-99 -160h343l-13 -28h-338q-12 -54 -12 -101q0 -13 1 -20h293l-13 -28h-278q13 -97 77 -158t168 -61q108 0 176 75l21 -20q-78 -85 -200 -85q-114 0 -188 70t-88 179h-122l5 28h114v18q0 49 12 103h-102
l5 28h105q33 108 110 181t201 73z" />
    <glyph glyph-name="uni2105" unicode="&#x2105;" horiz-adv-x="793" 
d="M274 670q84 0 125 -67l-24 -16q-35 56 -101 56q-56 0 -96 -40.5t-40 -98.5q0 -52 33.5 -87.5t84.5 -35.5q61 0 102 48l19 -18q-47 -57 -121 -57q-63 0 -106 42.5t-43 106.5q0 69 49.5 118t117.5 49zM671 660l-495 -660h-33l495 660h33zM571 306q63 0 105.5 -43t42.5 -106
q0 -70 -50.5 -118.5t-118.5 -48.5q-63 0 -105 42.5t-42 106.5q0 69 50 118t118 49zM570 278q-56 0 -95.5 -40.5t-39.5 -98.5q0 -52 32.5 -86.5t83.5 -34.5q57 0 97 40.5t40 97.5q0 52 -33.5 87t-84.5 35z" />
    <glyph glyph-name="uni2113" unicode="&#x2113;" horiz-adv-x="363" 
d="M112 116q0 -99 114 -99q27 0 62 5l-5 -26q-32 -6 -60 -6q-67 0 -104 31t-37 93q0 24 7 59l7 38l-72 -58l-16 22q40 31 95 78l60 341q16 89 50.5 127.5t88.5 38.5q95 0 95 -108q0 -176 -266 -411l-13 -71q-6 -36 -6 -54zM193 594l-55 -309q228 209 228 368q0 42 -16 60
t-48 18q-41 0 -68.5 -30.5t-40.5 -106.5z" />
    <glyph glyph-name="uni2116" unicode="&#x2116;" horiz-adv-x="1127" 
d="M538 57l105 603h32l-118 -670h-15l-345 609l-104 -599h-32l118 670h15zM949 554q63 0 105.5 -43t42.5 -106q0 -70 -50.5 -118.5t-118.5 -48.5q-63 0 -105 42.5t-42 106.5q0 69 50 118t118 49zM929 266q57 0 97 40.5t40 97.5q0 52 -33.5 87t-84.5 35q-56 0 -95.5 -40.5
t-39.5 -98.5q0 -52 32.5 -86.5t83.5 -34.5zM743 120l5 28h295l-5 -28h-295z" />
    <glyph glyph-name="uni2117" unicode="&#x2117;" horiz-adv-x="793" 
d="M428 670q133 0 227 -95.5t94 -230.5q0 -145 -106 -249.5t-246 -104.5q-133 0 -227 95.5t-94 230.5q0 145 106 249.5t246 104.5zM427 642q-130 0 -225 -96t-95 -230q0 -124 84.5 -211t206.5 -87q130 0 225 96t95 230q0 124 -84.5 211t-206.5 87zM459 509q56 0 85 -27
t29 -72q0 -51 -36 -85t-99 -34h-107l-24 -137h-31l62 355h121zM456 482h-91l-29 -164h103q51 0 77 25.5t26 64.5q0 74 -86 74z" />
    <glyph glyph-name="trademark" unicode="&#x2122;" horiz-adv-x="939" 
d="M925 667h13l-80 -456h-32l65 372l-198 -229h-13l-123 233l-66 -376h-31l80 456h12l140 -271zM84 632l5 28h363l-5 -28h-166l-74 -421h-31l74 421h-166z" />
    <glyph glyph-name="uni2126" unicode="&#x2126;" horiz-adv-x="794" 
d="M750 361q0 -218 -245 -333h180l-5 -28h-245l5 30q276 108 276 333q0 121 -79 199t-209 78q-66 0 -120.5 -22t-90 -56.5t-60.5 -79t-35.5 -88.5t-10.5 -86q0 -172 190 -278l-6 -30h-265l5 28h217q-175 103 -175 279q0 47 12.5 95.5t40.5 97t68 86t99.5 61t130.5 23.5
q141 0 231.5 -85t90.5 -224z" />
    <glyph glyph-name="estimated" unicode="&#x212e;" horiz-adv-x="795" 
d="M751 327h-544v-205q75 -104 220 -104q80 0 146.5 32.5t111.5 87.5l22 -19q-49 -60 -122 -94.5t-158 -34.5q-149 0 -248 97.5t-99 238.5q0 144 101.5 244t241.5 100q81 0 156 -34.5t125.5 -102.5t50.5 -152zM427 641q-142 0 -220 -104v-182h421v197q-75 89 -201 89z" />
    <glyph glyph-name="uni2150" unicode="&#x2150;" horiz-adv-x="903" 
d="M300 272l-5 -28h-242l5 28h111l63 360h-112l5 28h142l-68 -388h101zM711 660h33l-495 -660h-33zM643 416h271l-2 -10l-291 -406h-35l279 388h-227z" />
    <glyph glyph-name="uni2151" unicode="&#x2151;" horiz-adv-x="930" 
d="M300 272l-5 -28h-242l5 28h111l63 360h-112l5 28h142l-68 -388h101zM711 660h33l-495 -660h-33zM759 422q55 0 92 -37t37 -92q0 -12 -1.5 -23.5t-7 -24t-8.5 -20t-13 -21t-13 -17.5t-15.5 -20t-14.5 -18l-121 -149h-39l137 166q-22 -12 -51 -12q-54 0 -89.5 36.5
t-35.5 90.5q0 59 42 100t101 41zM745 182q47 0 79 32.5t32 79.5q0 44 -28 72t-71 28q-46 0 -77.5 -32t-31.5 -80q0 -44 27 -72t70 -28z" />
    <glyph glyph-name="uni2152" unicode="&#x2152;" horiz-adv-x="1333" 
d="M267 660l-68 -388h101l-5 -28h-242l5 28h111l63 360h-112l5 28h142zM744 660l-495 -660h-33l495 660h33zM1154 422q60 0 91.5 -41.5t31.5 -114.5q0 -31 -5 -64.5t-18 -71.5t-32.5 -67.5t-51.5 -49t-72 -19.5q-60 0 -92 41.5t-32 114.5q0 39 9 82t28 87.5t56 73.5t87 29z
M812 416l-68 -388h101l-5 -28h-242l5 28h111l63 360h-112l5 28h142zM1151 394q-40 0 -70.5 -26.5t-45.5 -68t-22 -79.5t-7 -72q0 -68 27.5 -97t67.5 -29t70 27t45 68t22 79.5t7 71.5q0 67 -27 96.5t-67 29.5z" />
    <glyph glyph-name="uni2153" unicode="&#x2153;" horiz-adv-x="938" 
d="M300 272l-5 -28h-242l5 28h111l63 360h-112l5 28h142l-68 -388h101zM711 660h33l-495 -660h-33zM909 416l-2 -10l-145 -150q46 -6 78 -38t32 -82q0 -57 -40 -99.5t-109 -42.5q-96 0 -136 92l25 14q35 -79 111 -79q56 0 86.5 34.5t30.5 79.5t-30.5 70.5t-81.5 25.5h-20
l2 10l142 147h-188l5 28h240z" />
    <glyph glyph-name="uni2154" unicode="&#x2154;" horiz-adv-x="955" 
d="M323 272l-5 -28h-281l2 9l179 147q100 81 100 151q0 39 -23.5 63t-64.5 24q-50 0 -76 -34.5t-26 -79.5q0 -13 1 -19h-31q-1 5 -1 20q0 55 34.5 98t99.5 43q55 0 87 -31.5t32 -81.5q0 -82 -114 -174l-131 -107h218zM728 660h33l-495 -660h-33zM926 416l-2 -10l-145 -150
q46 -6 78 -38t32 -82q0 -57 -40 -99.5t-109 -42.5q-96 0 -136 92l25 14q35 -79 111 -79q56 0 86.5 34.5t30.5 79.5t-30.5 70.5t-81.5 25.5h-20l2 10l142 147h-188l5 28h240z" />
    <glyph glyph-name="uni2155" unicode="&#x2155;" horiz-adv-x="943" 
d="M300 272l-5 -28h-242l5 28h111l63 360h-112l5 28h142l-68 -388h101zM711 660h33l-495 -660h-33zM886 388h-171l-23 -134q32 2 47 2q66 0 102.5 -32t36.5 -87q0 -59 -40 -101t-108 -42q-99 0 -138 92l25 14q36 -78 112 -78q57 0 87 33.5t30 79.5q0 43 -27.5 68.5
t-81.5 25.5h-81l33 187h202z" />
    <glyph glyph-name="uni2156" unicode="&#x2156;" horiz-adv-x="960" 
d="M323 272l-5 -28h-281l2 9l179 147q100 81 100 151q0 39 -23.5 63t-64.5 24q-50 0 -76 -34.5t-26 -79.5q0 -13 1 -19h-31q-1 5 -1 20q0 55 34.5 98t99.5 43q55 0 87 -31.5t32 -81.5q0 -82 -114 -174l-131 -107h218zM728 660h33l-495 -660h-33zM903 388h-171l-23 -134
q32 2 47 2q66 0 102.5 -32t36.5 -87q0 -59 -40 -101t-108 -42q-99 0 -138 92l25 14q36 -78 112 -78q57 0 87 33.5t30 79.5q0 43 -27.5 68.5t-81.5 25.5h-81l33 187h202z" />
    <glyph glyph-name="uni2157" unicode="&#x2157;" horiz-adv-x="916" 
d="M327 380q0 -57 -40 -99.5t-109 -42.5q-96 0 -136 92l25 14q35 -79 111 -79q56 0 86.5 34.5t30.5 79.5t-30.5 70.5t-81.5 25.5h-20l2 10l142 147h-188l5 28h240l-2 -10l-145 -150q46 -6 78 -38t32 -82zM685 660h33l-495 -660h-33zM859 388h-171l-23 -134q32 2 47 2
q66 0 102.5 -32t36.5 -87q0 -59 -40 -101t-108 -42q-99 0 -138 92l25 14q36 -78 112 -78q57 0 87 33.5t30 79.5q0 43 -27.5 68.5t-81.5 25.5h-81l33 187h202z" />
    <glyph glyph-name="uni2158" unicode="&#x2158;" horiz-adv-x="955" 
d="M259 244h-31l14 82h-209l2 10l194 324h34l-185 -306h169l27 151h31l-27 -151h65l-5 -28h-65zM724 660h33l-495 -660h-33zM898 388h-171l-23 -134q32 2 47 2q66 0 102.5 -32t36.5 -87q0 -59 -40 -101t-108 -42q-99 0 -138 92l25 14q36 -78 112 -78q57 0 87 33.5t30 79.5
q0 43 -27.5 68.5t-81.5 25.5h-81l33 187h202z" />
    <glyph glyph-name="uni2159" unicode="&#x2159;" horiz-adv-x="881" 
d="M300 272l-5 -28h-242l5 28h111l63 360h-112l5 28h142l-68 -388h101zM711 660h33l-495 -660h-33zM685 262q54 0 89.5 -36.5t35.5 -90.5q0 -59 -42 -100t-101 -41q-55 0 -92 37t-37 92q0 12 1.5 23.5t7 24t8.5 20t13 21t13 17.5t15.5 20t14.5 18l121 149h39l-137 -166
q22 12 51 12zM669 22q46 0 77.5 32t31.5 80q0 44 -27 72t-70 28q-47 0 -79 -32.5t-32 -79.5q0 -44 28 -72t71 -28z" />
    <glyph glyph-name="uni215A" unicode="&#x215a;" horiz-adv-x="867" 
d="M341 381q0 -59 -40 -101t-108 -42q-99 0 -138 92l25 14q36 -78 112 -78q57 0 87 33.5t30 79.5q0 43 -27.5 68.5t-81.5 25.5h-81l33 187h202l-5 -28h-171l-23 -134q32 2 47 2q66 0 102.5 -32t36.5 -87zM698 660h33l-495 -660h-33zM671 262q54 0 89.5 -36.5t35.5 -90.5
q0 -59 -42 -100t-101 -41q-55 0 -92 37t-37 92q0 12 1.5 23.5t7 24t8.5 20t13 21t13 17.5t15.5 20t14.5 18l121 149h39l-137 -166q22 12 51 12zM655 22q46 0 77.5 32t31.5 80q0 44 -27 72t-70 28q-47 0 -79 -32.5t-32 -79.5q0 -44 28 -72t71 -28z" />
    <glyph glyph-name="oneeighth" unicode="&#x215b;" horiz-adv-x="921" 
d="M300 272l-5 -28h-242l5 28h111l63 360h-112l5 28h142l-68 -388h101zM711 660h33l-495 -660h-33zM762 216q87 -41 87 -106q0 -43 -34.5 -79t-106.5 -36q-62 0 -101 29t-39 78q0 47 36.5 77.5t93.5 42.5q-72 38 -72 94q0 42 33 74t90 32q50 0 84.5 -25t34.5 -71
q0 -79 -106 -110zM656 317q0 -26 19 -45.5t56 -38.5q107 27 107 90q0 33 -25.5 53t-63.5 20q-42 0 -67.5 -23.5t-25.5 -55.5zM707 21q58 0 84.5 28t26.5 62q0 32 -22.5 51.5t-68.5 43.5q-128 -30 -128 -102q0 -37 28.5 -60t79.5 -23z" />
    <glyph glyph-name="threeeighths" unicode="&#x215c;" horiz-adv-x="894" 
d="M327 380q0 -57 -40 -99.5t-109 -42.5q-96 0 -136 92l25 14q35 -79 111 -79q56 0 86.5 34.5t30.5 79.5t-30.5 70.5t-81.5 25.5h-20l2 10l142 147h-188l5 28h240l-2 -10l-145 -150q46 -6 78 -38t32 -82zM685 660h33l-495 -660h-33zM735 216q87 -41 87 -106q0 -43 -34.5 -79
t-106.5 -36q-62 0 -101 29t-39 78q0 47 36.5 77.5t93.5 42.5q-72 38 -72 94q0 42 33 74t90 32q50 0 84.5 -25t34.5 -71q0 -79 -106 -110zM629 317q0 -26 19 -45.5t56 -38.5q107 27 107 90q0 33 -25.5 53t-63.5 20q-42 0 -67.5 -23.5t-25.5 -55.5zM680 21q58 0 84.5 28
t26.5 62q0 32 -22.5 51.5t-68.5 43.5q-128 -30 -128 -102q0 -37 28.5 -60t79.5 -23z" />
    <glyph glyph-name="fiveeighths" unicode="&#x215d;" horiz-adv-x="907" 
d="M341 381q0 -59 -40 -101t-108 -42q-99 0 -138 92l25 14q36 -78 112 -78q57 0 87 33.5t30 79.5q0 43 -27.5 68.5t-81.5 25.5h-81l33 187h202l-5 -28h-171l-23 -134q32 2 47 2q66 0 102.5 -32t36.5 -87zM698 660h33l-495 -660h-33zM748 216q87 -41 87 -106q0 -43 -34.5 -79
t-106.5 -36q-62 0 -101 29t-39 78q0 47 36.5 77.5t93.5 42.5q-72 38 -72 94q0 42 33 74t90 32q50 0 84.5 -25t34.5 -71q0 -79 -106 -110zM642 317q0 -26 19 -45.5t56 -38.5q107 27 107 90q0 33 -25.5 53t-63.5 20q-42 0 -67.5 -23.5t-25.5 -55.5zM693 21q58 0 84.5 28
t26.5 62q0 32 -22.5 51.5t-68.5 43.5q-128 -30 -128 -102q0 -37 28.5 -60t79.5 -23z" />
    <glyph glyph-name="seveneighths" unicode="&#x215e;" horiz-adv-x="796" 
d="M369 660l-2 -10l-291 -406h-35l279 388h-227l5 28h271zM587 660h33l-495 -660h-33zM637 216q87 -41 87 -106q0 -43 -34.5 -79t-106.5 -36q-62 0 -101 29t-39 78q0 47 36.5 77.5t93.5 42.5q-72 38 -72 94q0 42 33 74t90 32q50 0 84.5 -25t34.5 -71q0 -79 -106 -110z
M531 317q0 -26 19 -45.5t56 -38.5q107 27 107 90q0 33 -25.5 53t-63.5 20q-42 0 -67.5 -23.5t-25.5 -55.5zM582 21q58 0 84.5 28t26.5 62q0 32 -22.5 51.5t-68.5 43.5q-128 -30 -128 -102q0 -37 28.5 -60t79.5 -23z" />
    <glyph glyph-name="arrowleft" unicode="&#x2190;" horiz-adv-x="650" 
d="M590 295h-457l209 -209l-19 -19l-237 237v12l237 237l19 -19l-211 -211h459v-28z" />
    <glyph glyph-name="arrowup" unicode="&#x2191;" horiz-adv-x="650" 
d="M588 305l-19 -19l-205 205v-425h-30v427l-207 -207l-19 19l234 234h12z" />
    <glyph glyph-name="arrowright" unicode="&#x2192;" horiz-adv-x="650" 
d="M351 553l237 -237v-12l-237 -237l-19 19l209 209h-457v28h459l-211 211z" />
    <glyph glyph-name="arrowdown" unicode="&#x2193;" horiz-adv-x="650" 
d="M547 335l19 -19l-234 -234h-12l-234 234l19 19l207 -207v427h30v-425z" />
    <glyph glyph-name="arrowboth" unicode="&#x2194;" horiz-adv-x="936" 
d="M637 553l237 -237v-12l-237 -237l-19 19l209 209h-694l209 -209l-19 -19l-237 237v12l237 237l19 -19l-211 -211h698l-211 211z" />
    <glyph glyph-name="arrowupdn" unicode="&#x2195;" horiz-adv-x="650" 
d="M357 0l205 205l19 -19l-234 -234h-12l-234 234l19 19l207 -207v664l-207 -207l-19 19l234 234h12l234 -234l-19 -19l-205 205v-660z" />
    <glyph glyph-name="uni2196" unicode="&#x2196;" horiz-adv-x="650" 
d="M528 109l-21 -21l-340 340v-306h-29v350l8 8h350v-28h-310z" />
    <glyph glyph-name="uni2197" unicode="&#x2197;" horiz-adv-x="650" 
d="M504 480l8 -8v-350h-29v306l-340 -340l-21 21l342 343h-310v28h350z" />
    <glyph glyph-name="uni2198" unicode="&#x2198;" horiz-adv-x="650" 
d="M482 478h29v-350l-8 -8h-350v28h310l-342 343l21 21l340 -340v306z" />
    <glyph glyph-name="uni2199" unicode="&#x2199;" horiz-adv-x="650" 
d="M196 148h310v-28h-350l-8 8v350h29v-306l340 340l21 -21z" />
    <glyph glyph-name="partialdiff" unicode="&#x2202;" horiz-adv-x="549" 
d="M323 670q87 0 140.5 -58.5t53.5 -171.5q0 -50 -10 -107.5t-33.5 -119t-56.5 -110.5t-84.5 -81t-112.5 -32q-78 0 -131 48t-53 127q0 36 12.5 73t39.5 74t79.5 60t122.5 23q79 0 190 -32q6 43 6 78q0 101 -46.5 151t-120.5 50q-90 0 -158 -73l-19 19q72 82 181 82zM218 18
q55 0 100.5 29t76 77t50 101t30.5 110q-110 32 -187 32q-109 0 -164.5 -58.5t-55.5 -138.5q0 -70 41.5 -111t108.5 -41z" />
    <glyph glyph-name="uni2206" unicode="&#x2206;" horiz-adv-x="665" 
d="M421 670l162 -670h-575l398 670h15zM546 28l-141 586l-346 -586h487z" />
    <glyph glyph-name="product" unicode="&#x220f;" horiz-adv-x="684" 
d="M655 660l-138 -781h-32l133 753h-414l-133 -753h-32l138 781h478z" />
    <glyph glyph-name="summation" unicode="&#x2211;" horiz-adv-x="543" 
d="M565 660l-5 -28h-390l183 -345l-2 -12l-306 -368h399l-5 -28h-448l2 12l328 394l-194 363l2 12h436z" />
    <glyph glyph-name="minus" unicode="&#x2212;" 
d="M508 323l-5 -28h-427l5 28h427z" />
    <glyph glyph-name="uni2219" unicode="&#x2219;" horiz-adv-x="271" 
d="M147 348q16 0 28 -11t12 -29q0 -17 -12 -27.5t-28 -10.5q-15 0 -26.5 10.5t-11.5 27.5q0 18 11.5 29t26.5 11z" />
    <glyph glyph-name="radical" unicode="&#x221a;" horiz-adv-x="645" 
d="M693 750h32l-513 -883h-15v368h-153v28h183v-315z" />
    <glyph glyph-name="infinity" unicode="&#x221e;" horiz-adv-x="777" 
d="M603 452q60 0 100.5 -36.5t40.5 -94.5q0 -65 -48 -110.5t-120 -45.5q-60 0 -99 31t-78 89q-53 -58 -98.5 -89t-102.5 -31q-61 0 -101 36.5t-40 94.5q0 64 48 110t120 46q60 0 99.5 -31t78.5 -88q52 57 98 88t102 31zM200 193q34 0 68.5 18.5t56.5 39.5t57 59
q-25 36 -43 57t-48.5 39t-66.5 18q-57 0 -96 -36.5t-39 -90.5q0 -50 33 -77t78 -27zM578 193q57 0 95.5 36.5t38.5 90.5q0 51 -32.5 77.5t-77.5 26.5q-49 0 -89.5 -30t-92.5 -87q26 -37 43.5 -57.5t48 -38.5t66.5 -18z" />
    <glyph glyph-name="integral" unicode="&#x222b;" horiz-adv-x="302" 
d="M323 785q33 0 66 -10l-5 -25q-32 7 -62 7q-78 0 -108.5 -52t-30.5 -175v-411q0 -132 -37 -188.5t-133 -56.5q-35 0 -68 10l5 25q32 -7 62 -7q79 0 109 49t30 168v411q0 134 37.5 194.5t134.5 60.5z" />
    <glyph glyph-name="approxequal" unicode="&#x2248;" 
d="M188 482q6 0 12.5 -1t11 -2t11.5 -4l11 -5q3 -1 10 -6l10 -6q3 -1 12 -7t11 -7l87 -58q43 -29 66 -29q43 0 52 65h29q-10 -93 -80 -93q-6 0 -12.5 1t-11 2t-11.5 4l-11 4q-3 2 -11 6l-10 6q-2 2 -11 8t-11 7l-87 58q-43 29 -66 29q-43 0 -52 -65h-29q10 93 80 93z
M153 282q6 0 12.5 -1t11 -2t11.5 -4l10 -5q4 -1 12 -6l10 -6q2 -1 11 -7t11 -7l87 -58q43 -29 66 -29q43 0 52 65h29q-10 -93 -80 -93q-6 0 -12.5 1t-11 2t-11.5 4l-11 4q-3 2 -11 6l-10 6q-2 2 -11 8t-11 7l-87 58q-44 29 -66 29q-43 0 -52 -65h-29q10 93 80 93z" />
    <glyph glyph-name="notequal" unicode="&#x2260;" 
d="M510 395h-131l-136 -173h237l-5 -28h-254l-94 -120h-37l94 120h-116l5 28h133l136 173h-239l5 28h256l94 119h37l-94 -119h114z" />
    <glyph glyph-name="lessequal" unicode="&#x2264;" 
d="M526 500l-5 -32l-383 -139l333 -140l-5 -29l-388 164l2 12zM31 0l5 28h407l-5 -28h-407z" />
    <glyph glyph-name="greaterequal" unicode="&#x2265;" 
d="M127 500l388 -164l-2 -12l-446 -164l5 32l383 139l-333 140zM39 0l5 28h407l-5 -28h-407z" />
    <glyph glyph-name="uni24EA" unicode="&#x24ea;" horiz-adv-x="984" 
d="M507 760q178 0 304 -126t126 -304t-126 -304t-304 -126q-179 0 -304.5 126t-125.5 304t125.5 304t304.5 126zM507 732q-167 0 -284.5 -118t-117.5 -284t117.5 -284t284.5 -118q166 0 284 118t118 284t-118 284t-284 118zM507 561q79 0 118 -62t39 -166q0 -103 -38.5 -169
t-118.5 -66t-118 66t-38 169q0 104 39 166t117 62zM507 533q-124 0 -124 -200q0 -93 30 -150t94 -57q65 0 95 57t30 150q0 200 -125 200z" />
    <glyph glyph-name="uni24FF" unicode="&#x24ff;" horiz-adv-x="984" 
d="M507 760q178 0 304 -126t126 -304t-126 -304t-304 -126q-179 0 -304.5 126t-125.5 304t125.5 304t304.5 126zM507 561q-78 0 -117 -62t-39 -166q0 -103 38 -169t118 -66t118.5 66t38.5 169q0 104 -39 166t-118 62zM507 533q125 0 125 -200q0 -93 -30 -150t-95 -57
q-64 0 -94 57t-30 150q0 200 124 200z" />
    <glyph glyph-name="filledbox" unicode="&#x25a0;" horiz-adv-x="730" 
d="M656 605v-550h-550v550h550z" />
    <glyph glyph-name="uni25A1" unicode="&#x25a1;" horiz-adv-x="730" 
d="M656 605v-550h-550v550h550zM625 577h-488v-494h488v494z" />
    <glyph glyph-name="uni25AA" unicode="&#x25aa;" horiz-adv-x="541" 
d="M461 430v-380h-381v380h381z" />
    <glyph glyph-name="uni25AB" unicode="&#x25ab;" horiz-adv-x="541" 
d="M461 430v-380h-381v380h381zM431 402h-321v-324h321v324z" />
    <glyph glyph-name="triagup" unicode="&#x25b2;" horiz-adv-x="730" 
d="M346 660l340 -595l-4 -10h-682l-4 10l340 595h10z" />
    <glyph glyph-name="uni25B3" unicode="&#x25b3;" horiz-adv-x="730" 
d="M346 660l340 -595l-4 -10h-682l-4 10l340 595h10zM641 84l-300 525l-300 -525h600z" />
    <glyph glyph-name="uni25B4" unicode="&#x25b4;" horiz-adv-x="528" 
d="M269 469l234 -409l-4 -10h-470l-4 10l234 409h10z" />
    <glyph glyph-name="uni25B5" unicode="&#x25b5;" horiz-adv-x="528" 
d="M269 469l234 -409l-4 -10h-470l-4 10l234 409h10zM459 78l-195 340l-196 -340h391z" />
    <glyph glyph-name="uni25B6" unicode="&#x25b6;" horiz-adv-x="645" 
d="M116 670l522 -335v-10l-522 -335l-10 4v672z" />
    <glyph glyph-name="uni25B7" unicode="&#x25b7;" horiz-adv-x="645" 
d="M116 670l522 -335v-10l-522 -335l-10 4v672zM591 330l-454 291v-582z" />
    <glyph glyph-name="uni25B8" unicode="&#x25b8;" horiz-adv-x="480" 
d="M90 476l359 -230v-10l-359 -231l-10 4v463z" />
    <glyph glyph-name="uni25B9" unicode="&#x25b9;" horiz-adv-x="480" 
d="M90 476l359 -230v-10l-359 -231l-10 4v463zM404 241l-294 188v-377z" />
    <glyph glyph-name="triagrt" unicode="&#x25ba;" horiz-adv-x="973" 
d="M127 670l831 -335v-10l-831 -335l-10 4v672z" />
    <glyph glyph-name="uni25BB" unicode="&#x25bb;" horiz-adv-x="973" 
d="M127 670l831 -335v-10l-831 -335l-10 4v672zM891 330l-743 300v-600z" />
    <glyph glyph-name="triagdn" unicode="&#x25bc;" horiz-adv-x="730" 
d="M426 0h-10l-340 595l4 10h682l4 -10z" />
    <glyph glyph-name="uni25BD" unicode="&#x25bd;" horiz-adv-x="730" 
d="M762 605l4 -10l-340 -595h-10l-340 595l4 10h682zM721 576h-600l300 -525z" />
    <glyph glyph-name="uni25BE" unicode="&#x25be;" horiz-adv-x="528" 
d="M499 430l4 -10l-234 -409h-10l-234 409l4 10h470z" />
    <glyph glyph-name="uni25BF" unicode="&#x25bf;" horiz-adv-x="528" 
d="M499 430l4 -10l-234 -409h-10l-234 409l4 10h470zM459 402h-391l196 -340z" />
    <glyph glyph-name="uni25C0" unicode="&#x25c0;" horiz-adv-x="645" 
d="M561 670l10 -4v-672l-10 -4l-522 335v10z" />
    <glyph glyph-name="uni25C1" unicode="&#x25c1;" horiz-adv-x="645" 
d="M561 670l10 -4v-672l-10 -4l-522 335v10zM540 39v582l-454 -291z" />
    <glyph glyph-name="uni25C2" unicode="&#x25c2;" horiz-adv-x="480" 
d="M390 476l10 -4v-463l-10 -4l-359 231v10z" />
    <glyph glyph-name="uni25C3" unicode="&#x25c3;" horiz-adv-x="480" 
d="M390 476l10 -4v-463l-10 -4l-359 231v10zM370 429l-294 -188l294 -189v377z" />
    <glyph glyph-name="triaglf" unicode="&#x25c4;" horiz-adv-x="973" 
d="M878 670l10 -4v-672l-10 -4l-831 335v10z" />
    <glyph glyph-name="uni25C5" unicode="&#x25c5;" horiz-adv-x="973" 
d="M878 670l10 -4v-672l-10 -4l-831 335v10zM857 30v600l-743 -300z" />
    <glyph glyph-name="lozenge" unicode="&#x25ca;" horiz-adv-x="665" 
d="M343 670l213 -340l-213 -340h-15l-213 341l213 339h15zM335 36l185 294l-185 294l-184 -293z" />
    <glyph glyph-name="circle" unicode="&#x25cb;" horiz-adv-x="775" 
d="M402 658q136 0 232 -96.5t96 -232.5t-96 -231t-232 -95t-231.5 95t-95.5 231t95.5 232.5t231.5 96.5zM402 628q-122 0 -209 -88t-87 -211q0 -122 87 -209t209 -87q123 0 210 87t87 209q0 123 -87 211t-210 88z" />
    <glyph glyph-name="uni25CF" unicode="&#x25cf;" horiz-adv-x="775" 
d="M402 658q136 0 232 -96.5t96 -232.5t-96 -231t-232 -95t-231.5 95t-95.5 231t95.5 232.5t231.5 96.5z" />
    <glyph glyph-name="uni261C" unicode="&#x261c;" horiz-adv-x="1210" 
d="M1168 272v-12l-84 -71l44 -169l-12 -8l-220 137q-83 -46 -186.5 -75t-168.5 -29q-90 0 -90 61q0 25 15 38q-20 5 -33.5 21.5t-13.5 36.5q0 27 24 43q-36 17 -36 53q0 25 19 39l-195 13q-93 6 -129 21t-36 52q0 39 39.5 53t141.5 14q94 0 198 -11v4q0 37 18.5 57t47.5 20
q24 0 49 -15l232 -133q50 -14 100 -32l224 140l12 -8l-44 -169zM475 482v-6q110 -13 217 -38l-143 82q-19 10 -35 10q-39 0 -39 -48zM919 364v-196l164 -100l-34 130l79 68l-79 68l35 131zM481 110q0 -37 63 -37q60 0 162.5 29.5t182.5 76.5v173q-139 50 -315 80t-333 30
q-85 0 -115 -8.5t-30 -30.5t28.5 -31.5t108.5 -14.5l167 -11l159 -10v-28l-83 5q-17 1 -28 -8t-11 -25q0 -15 9.5 -24.5t24.5 -9.5h98v-28h-86q-13 0 -23.5 -9.5t-10.5 -24.5t9.5 -24.5t24.5 -9.5h98v-28h-42h-26q-13 0 -22.5 -9t-9.5 -23z" />
    <glyph glyph-name="uni261E" unicode="&#x261e;" horiz-adv-x="1210" 
d="M1004 490q102 0 141.5 -14t39.5 -53q0 -37 -36 -52t-129 -21l-195 -13q19 -14 19 -39q0 -36 -36 -53q24 -16 24 -43q0 -20 -13.5 -36.5t-33.5 -21.5q15 -13 15 -38q0 -61 -90 -61q-65 0 -168.5 29t-186.5 75l-220 -137l-12 8l44 169l-84 71v12l84 71l-44 169l12 8
l224 -140q50 18 100 32l232 133q25 15 49 15q29 0 47.5 -20t18.5 -57v-4q104 11 198 11zM702 520l-143 -82q107 25 217 38v6q0 48 -39 48q-16 0 -35 -10zM332 168v196l-165 101l35 -131l-79 -68l79 -68l-34 -130zM1018 377q80 5 108.5 14.5t28.5 31.5t-30 30.5t-115 8.5
q-157 0 -333 -30t-315 -80v-173q80 -47 182.5 -76.5t162.5 -29.5q63 0 63 37q0 14 -9.5 23t-22.5 9h-26h-42v28h98q15 0 24.5 9.5t9.5 24.5t-10.5 24.5t-23.5 9.5h-86v28h98q15 0 24.5 9.5t9.5 24.5q0 16 -11 25t-28 8l-83 -5v28l159 10z" />
    <glyph glyph-name="uni2661" unicode="&#x2661;" horiz-adv-x="860" 
d="M650 670q81 0 137 -54.5t56 -141.5q0 -52 -24.5 -97t-83.5 -107l-263 -280h-10l-263 280q-59 62 -83.5 107t-24.5 97q0 87 56 141.5t137 54.5q64 0 112.5 -35.5t70.5 -92.5q22 57 70.5 92.5t112.5 35.5zM709 288q55 58 77.5 100t22.5 87q0 72 -46.5 117.5t-113.5 45.5
q-112 0 -177 -151h-10q-65 151 -177 151q-67 0 -113.5 -45.5t-46.5 -117.5q0 -45 22.5 -87t77.5 -100l242 -258z" />
    <glyph glyph-name="heart" unicode="&#x2665;" horiz-adv-x="860" 
d="M650 670q81 0 137 -54.5t56 -141.5q0 -52 -24.5 -96.5t-83.5 -107.5l-263 -280h-10l-263 280q-59 62 -83.5 107t-24.5 97q0 87 56 141.5t137 54.5q64 0 112.5 -35.5t70.5 -92.5q22 57 70.5 92.5t112.5 35.5z" />
    <glyph glyph-name="uni275B" unicode="&#x275b;" horiz-adv-x="672" 
d="M101 301q0 -71 34 -135.5t95 -104.5q-50 58 -50 135q0 94 69 160.5t162 66.5q88 0 147.5 -59.5t59.5 -145.5q0 -90 -65.5 -159t-174.5 -69q-129 0 -219 93.5t-90 218.5q0 44 12 92.5t40 98t68 88.5t101 64t134 25q128 0 218 -77l-19 -24q-80 73 -198 73
q-68 0 -124.5 -23.5t-92.5 -60t-61 -83t-35.5 -90.5t-10.5 -84z" />
    <glyph glyph-name="uni275C" unicode="&#x275c;" horiz-adv-x="672" 
d="M326 670q129 0 219 -93.5t90 -218.5q0 -44 -12 -92.5t-40 -98t-68 -88.5t-101 -64t-134 -25q-128 0 -218 77l19 24q80 -73 198 -73q68 0 124.5 23.5t92.5 60t61 83t35.5 90.5t10.5 84q0 71 -34 135.5t-95 104.5q50 -58 50 -135q0 -94 -69 -160.5t-162 -66.5
q-88 0 -147.5 59.5t-59.5 145.5q0 90 65.5 159t174.5 69z" />
    <glyph glyph-name="uni275D" unicode="&#x275d;" horiz-adv-x="1292" 
d="M69 302q0 44 12 92.5t40 98t68 88.5t101 64t134 25q128 0 218 -77l-19 -24q-80 73 -198 73q-68 0 -124.5 -23.5t-92.5 -60t-61 -83t-35.5 -90.5t-10.5 -84q0 -71 34 -135.5t95 -104.5q-50 58 -50 135q0 94 69 160.5t162 66.5q88 0 147.5 -59.5t59.5 -145.5
q0 -90 -65.5 -159t-174.5 -69q-129 0 -219 93.5t-90 218.5zM721 301q0 -71 34 -135.5t95 -104.5q-50 58 -50 135q0 94 69 160.5t162 66.5q88 0 147.5 -59.5t59.5 -145.5q0 -90 -65.5 -159t-174.5 -69q-129 0 -219 93.5t-90 218.5q0 44 12 92.5t40 98t68 88.5t101 64t134 25
q128 0 218 -77l-19 -24q-80 73 -198 73q-68 0 -124.5 -23.5t-92.5 -60t-61 -83t-35.5 -90.5t-10.5 -84z" />
    <glyph glyph-name="uni275E" unicode="&#x275e;" horiz-adv-x="1302" 
d="M326 670q129 0 219 -93.5t90 -218.5q0 -44 -12 -92.5t-40 -98t-68 -88.5t-101 -64t-134 -25q-128 0 -218 77l19 24q80 -73 198 -73q68 0 124.5 23.5t92.5 60t61 83t35.5 90.5t10.5 84q0 71 -34 135.5t-95 104.5q50 -58 50 -135q0 -94 -69 -160.5t-162 -66.5
q-88 0 -147.5 59.5t-59.5 145.5q0 90 65.5 159t174.5 69zM956 670q129 0 219 -93.5t90 -218.5q0 -44 -12 -92.5t-40 -98t-68 -88.5t-101 -64t-134 -25q-128 0 -218 77l19 24q80 -73 198 -73q68 0 124.5 23.5t92.5 60t61 83t35.5 90.5t10.5 84q0 71 -34 135.5t-95 104.5
q50 -58 50 -135q0 -94 -69 -160.5t-162 -66.5q-88 0 -147.5 59.5t-59.5 145.5q0 90 65.5 159t174.5 69z" />
    <glyph glyph-name="uni2776" unicode="&#x2776;" horiz-adv-x="984" 
d="M507 760q178 0 304 -126t126 -304t-126 -304t-304 -126q-179 0 -304.5 126t-125.5 304t125.5 304t304.5 126zM526 554h-131v-27h101v-395h-108v-27h239v27h-101v422z" />
    <glyph glyph-name="uni2777" unicode="&#x2777;" horiz-adv-x="984" 
d="M507 760q178 0 304 -126t126 -304t-126 -304t-304 -126q-179 0 -304.5 126t-125.5 304t125.5 304t304.5 126zM502 561q-63 0 -102.5 -39.5t-39.5 -93.5q0 -27 6 -48h28q-6 28 -6 46q0 45 31 76t82 31q50 0 77 -28.5t27 -71.5q0 -40 -22 -74.5t-63 -75.5l-163 -168v-10
h302v27h-247l130 133q31 31 48 51.5t32 52.5t15 63q0 55 -37.5 92t-97.5 37z" />
    <glyph glyph-name="uni2778" unicode="&#x2778;" horiz-adv-x="984" 
d="M507 760q178 0 304 -126t126 -304t-126 -304t-304 -126q-179 0 -304.5 126t-125.5 304t125.5 304t304.5 126zM634 554h-259v-27h210l-135 -164v-10h37q60 0 94 -29.5t34 -79.5q0 -52 -34 -85t-87 -33q-75 0 -124 76l-23 -17q55 -87 146 -87q63 0 108.5 39.5t45.5 106.5
q0 66 -43.5 100.5t-103.5 35.5l134 163v11z" />
    <glyph glyph-name="uni2779" unicode="&#x2779;" horiz-adv-x="984" 
d="M507 760q178 0 304 -126t126 -304t-126 -304t-304 -126q-179 0 -304.5 126t-125.5 304t125.5 304t304.5 126zM517 554h-32l-151 -350v-10h226v-89h31v89h70v27h-70v165h-31v-165h-187z" />
    <glyph glyph-name="uni277A" unicode="&#x277a;" horiz-adv-x="984" 
d="M507 760q178 0 304 -126t126 -304t-126 -304t-304 -126q-179 0 -304.5 126t-125.5 304t125.5 304t304.5 126zM615 554h-216v-201h99q61 0 94.5 -29t33.5 -80q0 -52 -34 -85.5t-85 -33.5q-76 0 -127 77l-23 -17q55 -88 149 -88q61 0 106.5 40t45.5 107t-44.5 102
t-110.5 35q-26 0 -74 -4v150h186v27z" />
    <glyph glyph-name="uni277B" unicode="&#x277b;" horiz-adv-x="984" 
d="M507 760q178 0 304 -126t126 -304t-126 -304t-304 -126q-179 0 -304.5 126t-125.5 304t125.5 304t304.5 126zM562 554h-37l-112 -166q-2 -4 -11 -17.5t-11.5 -17t-9.5 -15t-9 -15.5l-7 -14q-5 -10 -6.5 -16t-4 -15t-3 -17.5t-0.5 -17.5q0 -61 42.5 -103t103.5 -42
q62 0 104.5 42t42.5 103t-42 102.5t-103 41.5q-38 0 -62 -17zM497 360q49 0 82 -34t33 -83q0 -50 -33 -83.5t-82 -33.5t-81.5 33.5t-32.5 83.5q0 49 33 83t81 34z" />
    <glyph glyph-name="uni277C" unicode="&#x277c;" horiz-adv-x="984" 
d="M507 760q178 0 304 -126t126 -304t-126 -304t-304 -126q-179 0 -304.5 126t-125.5 304t125.5 304t304.5 126zM665 555h-291v-27h250l-232 -422h33l240 439v10z" />
    <glyph glyph-name="uni277D" unicode="&#x277d;" horiz-adv-x="984" 
d="M507 760q178 0 304 -126t126 -304t-126 -304t-304 -126q-179 0 -304.5 126t-125.5 304t125.5 304t304.5 126zM508 561q-56 0 -93 -28.5t-37 -78.5q0 -76 95 -113q-117 -38 -117 -124q0 -53 41.5 -86t110.5 -33t110 33t41 85q0 82 -116 126q94 35 94 111q0 51 -37 79.5
t-92 28.5zM508 533q42 0 69.5 -22t27.5 -59q0 -35 -25 -56t-73 -39q-48 18 -72.5 39t-24.5 56q0 37 27.5 59t70.5 22zM507 326q59 -20 89.5 -43t30.5 -66q0 -41 -31.5 -66t-87.5 -25t-88 25t-32 66q0 30 18.5 52t40.5 33t60 24z" />
    <glyph glyph-name="uni277E" unicode="&#x277e;" horiz-adv-x="984" 
d="M507 760q179 0 304.5 -126t125.5 -304t-125.5 -304t-304.5 -126q-178 0 -304 126t-126 304t126 304t304 126zM517 562q-62 0 -104.5 -42t-42.5 -103t42 -102.5t103 -41.5q38 0 62 17l-125 -184h37l112 166q2 4 11 17.5t11.5 17t9.5 15t9 15.5l7 14q5 10 6.5 16t4 15
t3 17.5t0.5 17.5q0 61 -42.5 103t-103.5 42zM517 534q49 0 81.5 -33.5t32.5 -83.5q0 -49 -33 -83t-81 -34q-49 0 -82 34t-33 83q0 50 33 83.5t82 33.5z" />
    <glyph glyph-name="uni2780" unicode="&#x2780;" horiz-adv-x="984" 
d="M507 760q178 0 304 -126t126 -304t-126 -304t-304 -126q-179 0 -304.5 126t-125.5 304t125.5 304t304.5 126zM507 732q-167 0 -284.5 -118t-117.5 -284t117.5 -284t284.5 -118q166 0 284 118t118 284t-118 284t-284 118zM526 554v-422h101v-27h-239v27h108v395h-101v27
h131z" />
    <glyph glyph-name="uni2781" unicode="&#x2781;" horiz-adv-x="984" 
d="M507 760q178 0 304 -126t126 -304t-126 -304t-304 -126q-179 0 -304.5 126t-125.5 304t125.5 304t304.5 126zM507 732q-167 0 -284.5 -118t-117.5 -284t117.5 -284t284.5 -118q166 0 284 118t118 284t-118 284t-284 118zM502 561q60 0 97.5 -37t37.5 -92q0 -45 -24 -82
t-71 -85l-130 -133h247v-27h-302v10l163 168q41 41 63 75.5t22 74.5q0 43 -27 71.5t-77 28.5q-51 0 -82 -31t-31 -76q0 -18 6 -46h-28q-6 21 -6 48q0 54 39.5 93.5t102.5 39.5z" />
    <glyph glyph-name="uni2782" unicode="&#x2782;" horiz-adv-x="984" 
d="M507 760q178 0 304 -126t126 -304t-126 -304t-304 -126q-179 0 -304.5 126t-125.5 304t125.5 304t304.5 126zM507 732q-167 0 -284.5 -118t-117.5 -284t117.5 -284t284.5 -118q166 0 284 118t118 284t-118 284t-284 118zM634 554v-11l-134 -163q60 -1 103.5 -35.5
t43.5 -100.5q0 -67 -45.5 -106.5t-108.5 -39.5q-91 0 -146 87l23 17q49 -76 124 -76q53 0 87 33t34 85q0 50 -34 79.5t-94 29.5h-37v10l135 164h-210v27h259z" />
    <glyph glyph-name="uni2783" unicode="&#x2783;" horiz-adv-x="984" 
d="M507 760q178 0 304 -126t126 -304t-126 -304t-304 -126q-179 0 -304.5 126t-125.5 304t125.5 304t304.5 126zM507 732q-167 0 -284.5 -118t-117.5 -284t117.5 -284t284.5 -118q166 0 284 118t118 284t-118 284t-284 118zM517 554l-144 -333h187v165h31v-165h70v-27h-70
v-89h-31v89h-226v10l151 350h32z" />
    <glyph glyph-name="uni2784" unicode="&#x2784;" horiz-adv-x="984" 
d="M507 760q178 0 304 -126t126 -304t-126 -304t-304 -126q-179 0 -304.5 126t-125.5 304t125.5 304t304.5 126zM507 732q-167 0 -284.5 -118t-117.5 -284t117.5 -284t284.5 -118q166 0 284 118t118 284t-118 284t-284 118zM615 554v-27h-186v-150q48 4 74 4q66 0 110.5 -35
t44.5 -102t-45.5 -107t-106.5 -40q-94 0 -149 88l23 17q51 -77 127 -77q51 0 85 33.5t34 85.5q0 51 -33.5 80t-94.5 29h-99v201h216z" />
    <glyph glyph-name="uni2785" unicode="&#x2785;" horiz-adv-x="984" 
d="M507 760q178 0 304 -126t126 -304t-126 -304t-304 -126q-179 0 -304.5 126t-125.5 304t125.5 304t304.5 126zM507 732q-167 0 -284.5 -118t-117.5 -284t117.5 -284t284.5 -118q166 0 284 118t118 284t-118 284t-284 118zM562 554l-125 -184q24 17 62 17q61 0 103 -41.5
t42 -102.5t-42.5 -103t-104.5 -42q-61 0 -103.5 42t-42.5 103q0 9 0.5 17.5t3 17.5t4 15t6.5 16l7 14q2 4 9 15.5t9.5 15t11.5 17t11 17.5l112 166h37zM497 360q-48 0 -81 -34t-33 -83q0 -50 32.5 -83.5t81.5 -33.5t82 33.5t33 83.5q0 49 -33 83t-82 34z" />
    <glyph glyph-name="uni2786" unicode="&#x2786;" horiz-adv-x="984" 
d="M507 760q178 0 304 -126t126 -304t-126 -304t-304 -126q-179 0 -304.5 126t-125.5 304t125.5 304t304.5 126zM507 732q-167 0 -284.5 -118t-117.5 -284t117.5 -284t284.5 -118q166 0 284 118t118 284t-118 284t-284 118zM665 555v-10l-240 -439h-33l232 422h-250v27h291z
" />
    <glyph glyph-name="uni2787" unicode="&#x2787;" horiz-adv-x="984" 
d="M507 760q178 0 304 -126t126 -304t-126 -304t-304 -126q-179 0 -304.5 126t-125.5 304t125.5 304t304.5 126zM507 732q-167 0 -284.5 -118t-117.5 -284t117.5 -284t284.5 -118q166 0 284 118t118 284t-118 284t-284 118zM508 561q55 0 92 -28.5t37 -79.5q0 -76 -94 -111
q116 -44 116 -126q0 -52 -41 -85t-110 -33t-110.5 33t-41.5 86q0 86 117 124q-95 37 -95 113q0 50 37 78.5t93 28.5zM508 533q-43 0 -70.5 -22t-27.5 -59q0 -35 24.5 -56t72.5 -39q48 18 73 39t25 56q0 37 -27.5 59t-69.5 22zM507 326q-38 -13 -60 -24t-40.5 -33t-18.5 -52
q0 -41 32 -66t88 -25t87.5 25t31.5 66q0 43 -30.5 66t-89.5 43z" />
    <glyph glyph-name="uni2788" unicode="&#x2788;" horiz-adv-x="984" 
d="M507 760q179 0 304.5 -126t125.5 -304t-125.5 -304t-304.5 -126q-178 0 -304 126t-126 304t126 304t304 126zM507 732q-166 0 -284 -118t-118 -284t118 -284t284 -118q167 0 284.5 118t117.5 284t-117.5 284t-284.5 118zM517 562q61 0 103.5 -42t42.5 -103
q0 -9 -0.5 -17.5t-3 -17.5t-4 -15t-6.5 -16l-7 -14q-2 -4 -9 -15.5t-9.5 -15t-11.5 -17t-11 -17.5l-112 -166h-37l125 184q-24 -17 -62 -17q-61 0 -103 41.5t-42 102.5t42.5 103t104.5 42zM517 534q-49 0 -82 -33.5t-33 -83.5q0 -49 33 -83t82 -34q48 0 81 34t33 83
q0 50 -32.5 83.5t-81.5 33.5z" />
    <glyph glyph-name="uni27F5" unicode="&#x27f5;" horiz-adv-x="1236" 
d="M1176 295h-1043l209 -209l-19 -19l-237 237v12l237 237l19 -19l-211 -211h1045v-28z" />
    <glyph glyph-name="uni27F6" unicode="&#x27f6;" horiz-adv-x="1236" 
d="M937 553l237 -237v-12l-237 -237l-19 19l209 209h-1043v28h1045l-211 211z" />
    <glyph glyph-name="uniF8FF" unicode="&#xf8ff;" horiz-adv-x="722" 
d="M99 0v660h524v-660h-524zM458 123q36 0 58 22.5t22 53.5q0 27 -17 55.5t-45 45.5l-24 -25q45 -43 45 -76q0 -17 -10 -28t-27 -11q-23 0 -43 27t-54 103q82 47 110.5 77.5t28.5 62.5q0 39 -27.5 60.5t-74.5 21.5q-11 0 -33 -2l26 55l-41 7l-33 -71q-46 -9 -103 -36
q-23 -64 -23 -161q0 -80 20 -158l42 -8q23 116 43 186.5t52 147.5q20 4 41 4q70 0 70 -50q0 -24 -26.5 -48t-113.5 -74l-1 -6q39 -99 67 -137t71 -38zM231 202q-2 35 -2 81q0 88 23 157q24 13 51 20q-51 -130 -65 -258h-7z" />
    <glyph glyph-name="Alpha.ordn" horiz-adv-x="439" 
d="M374 244l-24 101h-220l-59 -101h-35l252 422h13l104 -422h-31zM343 372l-57 238l-140 -238h197z" />
    <glyph glyph-name="Eta.ordn" horiz-adv-x="475" 
d="M472 660l-73 -416h-32l37 211h-258l-37 -211h-31l73 416h31l-31 -177h258l31 177h32z" />
    <glyph glyph-name="Nu.ordn" horiz-adv-x="475" 
d="M440 660h32l-74 -422h-13l-214 359l-62 -353h-31l74 422h13l213 -361z" />
    <glyph glyph-name="Omicron.ordn" horiz-adv-x="509" 
d="M310 666q84 0 139 -56.5t55 -140.5q0 -95 -68 -163t-162 -68q-84 0 -139 56.5t-55 141.5q0 95 68 162.5t162 67.5zM308 638q-81 0 -138.5 -59.5t-57.5 -142.5q0 -72 46 -121t118 -49q81 0 138.5 59.5t57.5 142.5q0 72 -46 121t-118 49z" />
    <glyph glyph-name="Rho.ordn" horiz-adv-x="374" 
d="M276 660q59 0 89.5 -29t30.5 -76q0 -54 -38 -88.5t-105 -34.5h-111l-33 -188h-31l73 416h125zM270 633h-93l-30 -174h103q58 0 86.5 26t28.5 69q0 79 -95 79z" />
    <glyph glyph-name="Sigma.ordn" horiz-adv-x="354" 
d="M393 660l-5 -28h-232l111 -173l-1 -9l-169 -178h235l-5 -28h-287l1 9l192 204l-122 193l2 10h280z" />
    <glyph glyph-name="Upsilon.ordn" horiz-adv-x="402" 
d="M435 660l-186 -240l-31 -176h-31l31 177l-103 239h33l90 -209l163 209h34z" />
    <glyph glyph-name="alpha.ordn" horiz-adv-x="434" 
d="M399 266q3 0 9 0.5t8 0.5l-5 -25q-7 -3 -20 -3q-24 0 -39 14t-15 43v4q-41 -62 -120 -62q-61 0 -100 42.5t-39 103.5q0 67 44.5 119t118.5 52q49 0 80.5 -23t44.5 -57l13 73h30l-39 -221q-3 -12 -3 -28q0 -33 32 -33zM223 266q61 0 96.5 48t35.5 102q0 51 -32.5 81
t-79.5 30q-57 0 -95.5 -42.5t-38.5 -98.5q0 -50 30.5 -85t83.5 -35z" />
    <glyph glyph-name="eta.ordn" horiz-adv-x="384" 
d="M249 553q46 0 73.5 -28t27.5 -72q0 -14 -3 -32l-50 -290h-30l51 289q3 17 3 29q0 35 -20 55.5t-56 20.5q-40 0 -67 -23.5t-34 -62.5l-34 -195h-30l39 221q4 26 4 28q0 31 -33 31h-17l4 24q9 3 20 3q52 0 55 -47q35 49 97 49z" />
    <glyph glyph-name="nu.ordn" horiz-adv-x="345" 
d="M339 548h33l-192 -310h-13l-85 310h31l68 -259z" />
    <glyph glyph-name="omicron.ordn" horiz-adv-x="417" 
d="M246 554q63 0 105.5 -43t42.5 -106q0 -70 -50.5 -118.5t-118.5 -48.5q-63 0 -105 42.5t-42 106.5q0 69 50 118t118 49zM245 526q-56 0 -95.5 -40.5t-39.5 -98.5q0 -52 32.5 -86.5t83.5 -34.5q57 0 97 40.5t40 97.5q0 52 -33.5 87t-84.5 35z" />
    <glyph glyph-name="rho.ordn" horiz-adv-x="422" 
d="M255 554q64 0 104 -42t40 -104q0 -67 -44 -118.5t-116 -51.5q-47 0 -80 23t-47 57l-33 -187h-30l49 276q12 71 54.5 109t102.5 38zM237 265q56 0 93.5 43t37.5 99q0 50 -30.5 85t-83.5 35q-61 0 -96 -46.5t-35 -100.5q0 -52 33.5 -83.5t80.5 -31.5z" />
    <glyph glyph-name="uni03C2.ordn" horiz-adv-x="349" 
d="M243 554q84 0 126 -67l-24 -16q-37 56 -101 56q-56 0 -95 -38t-39 -94q0 -48 28 -75t81 -50q52 -22 65 -37q15 -16 15 -42q0 -28 -21 -61h-31q21 38 21 57q0 15 -9 25.5t-19 16t-34 15.5q-27 11 -44 20.5t-39 27t-33 43t-11 57.5q0 69 48 115.5t116 46.5z" />
    <glyph glyph-name="sigma.ordn" horiz-adv-x="402" 
d="M454 548l-4 -27h-127q66 -35 66 -116q0 -69 -49.5 -118t-117.5 -49q-63 0 -103.5 42t-40.5 104q0 68 50 116t125 48h201zM358 405q0 51 -32 83t-82 32q-56 0 -95.5 -38t-39.5 -96q0 -52 31.5 -86.5t82.5 -34.5q56 0 95.5 41.5t39.5 98.5z" />
    <glyph glyph-name="upsilon.ordn" horiz-adv-x="366" 
d="M331 548q11 -44 11 -98q0 -89 -34 -150.5t-106 -61.5q-50 0 -81.5 30t-31.5 76q0 10 2 26l31 178h30l-32 -181q-2 -14 -2 -22q0 -35 24 -57t60 -22q57 0 83 55t26 132q0 45 -9 95h29z" />
    <glyph glyph-name="zero.lf" horiz-adv-x="600" 
d="M359 670q93 0 142 -65.5t49 -182.5q0 -48 -7.5 -100.5t-27.5 -113t-50 -108t-80 -79t-113 -31.5q-93 0 -142.5 65.5t-49.5 181.5q0 39 5.5 82.5t17.5 93.5t34 94.5t51.5 81.5t73.5 59t97 22zM355 640q-54 0 -98 -30.5t-70 -76t-43.5 -103.5t-24 -107t-6.5 -92
q0 -114 47 -162.5t115 -48.5q54 0 98 30.5t70 76t43.5 103t24 107t6.5 92.5q0 114 -47 162.5t-115 48.5z" />
    <glyph glyph-name="one.lf" horiz-adv-x="365" 
d="M301 660h15l-116 -660h-32l110 627l-168 -38l-4 28z" />
    <glyph glyph-name="two.lf" horiz-adv-x="541" 
d="M313 220l-240 -192h376l-5 -28h-437l2 12l285 230q85 68 125 127.5t40 123.5q0 66 -39.5 106.5t-109.5 40.5q-44 0 -78.5 -17t-54 -45.5t-29.5 -61t-10 -67.5q0 -22 1 -32h-33q-2 16 -2 34q0 85 53.5 152t153.5 67q83 0 132.5 -49t49.5 -127q0 -69 -43.5 -135
t-136.5 -139z" />
    <glyph glyph-name="three.lf" horiz-adv-x="528" 
d="M517 660l-2 -12l-243 -244q78 -5 132.5 -56.5t54.5 -133.5q0 -90 -63 -157t-170 -67q-145 0 -210 143l27 14q57 -129 184 -129q95 0 147.5 59.5t52.5 136.5q0 75 -52 119t-137 44h-24l2 12l240 243h-316l5 28h372z" />
    <glyph glyph-name="four.lf" horiz-adv-x="524" 
d="M482 162l-5 -28h-104l-24 -134h-32l24 134h-334l2 12l316 514h33l-306 -498h293l45 253h32l-45 -253h105z" />
    <glyph glyph-name="five.lf" horiz-adv-x="547" 
d="M491 632h-276l-40 -233q48 3 85 3q105 0 162 -50.5t57 -136.5q0 -93 -62.5 -159t-168.5 -66q-147 0 -213 143l27 14q29 -63 72.5 -96t112.5 -33q97 0 148.5 59t51.5 137q0 72 -47.5 116t-137.5 44h-124l50 286h308z" />
    <glyph glyph-name="six.lf" horiz-adv-x="542" 
d="M275 409q87 0 144 -57.5t57 -141.5q0 -91 -65 -155t-157 -64q-87 0 -144.5 57.5t-57.5 142.5q0 23 6 47t11 39t22 41t22 33t29 37t26 32l193 240h40l-228 -279q47 28 102 28zM254 19q79 0 134.5 54.5t55.5 135.5q0 74 -47.5 123t-121.5 49q-80 0 -135.5 -56t-55.5 -136
q0 -74 48 -122t122 -48z" />
    <glyph glyph-name="seven.lf" horiz-adv-x="482" 
d="M106 660h423l-2 -12l-475 -648h-34l463 632h-380z" />
    <glyph glyph-name="eight.lf" horiz-adv-x="568" 
d="M338 345q152 -71 152 -174q0 -29 -11.5 -58.5t-35.5 -58t-70 -46.5t-106 -18q-100 0 -159 46.5t-59 121.5q0 77 61 125t155 68q-123 63 -123 153q0 65 52 114t142 49q78 0 130.5 -39t52.5 -109q0 -65 -47 -109t-134 -65zM174 505q0 -46 33.5 -78.5t96.5 -63.5
q83 20 133 55t50 97q0 57 -43 90.5t-109 33.5q-73 0 -117 -39.5t-44 -94.5zM267 18q52 0 91.5 15.5t60 40t30 49.5t9.5 50q0 29 -12 52t-38.5 43t-48 32.5t-60.5 31.5q-218 -46 -218 -172q0 -63 49.5 -102.5t136.5 -39.5z" />
    <glyph glyph-name="nine.lf" horiz-adv-x="542" 
d="M320 670q87 0 144.5 -57.5t57.5 -142.5q0 -20 -2.5 -38.5t-11.5 -38.5t-13.5 -31.5t-21 -34t-20 -28t-25 -31t-22.5 -27.5l-195 -241h-40l230 280q-47 -28 -102 -28q-87 0 -144 57.5t-57 141.5q0 91 65 155t157 64zM299 280q80 0 135.5 56t55.5 136q0 74 -48 122t-122 48
q-79 0 -134.5 -54.5t-55.5 -135.5q0 -74 47.5 -123t121.5 -49z" />
    <glyph glyph-name="zero.slash.lf" horiz-adv-x="600" 
d="M359 670q93 0 142 -65.5t49 -182.5q0 -48 -7.5 -100.5t-27.5 -113t-50 -108t-80 -79t-113 -31.5q-93 0 -142.5 65.5t-49.5 181.5q0 39 5.5 82.5t17.5 93.5t34 94.5t51.5 81.5t73.5 59t97 22zM355 640q-54 0 -98 -30.5t-70 -76t-43.5 -103.5t-24 -107t-6.5 -92
q0 -29 3 -53l393 333q-17 69 -59 99t-95 30zM275 20q54 0 98 30.5t70 76t43.5 103t24 107t6.5 92.5q0 27 -3 49l-392 -333q17 -67 59 -96t94 -29z" />
    <glyph glyph-name="zero.slash" horiz-adv-x="667" 
d="M353 540q109 0 184.5 -75.5t75.5 -184.5q0 -119 -88 -204.5t-206 -85.5q-109 0 -183 74.5t-74 184.5q0 120 87 205.5t204 85.5zM354 512q-106 0 -183 -77.5t-77 -186.5q0 -72 36 -128l400 309q-65 83 -176 83zM319 18q108 0 185 77.5t77 185.5q0 70 -35 125l-400 -309
q64 -79 173 -79z" />
    <glyph glyph-name="zero.tf" 
d="M340 670q90 0 135.5 -65t45.5 -183q0 -48 -6.5 -100.5t-25.5 -113.5t-47.5 -108t-77.5 -78.5t-111 -31.5q-90 0 -136 65t-46 182q0 48 7 100.5t25.5 113.5t47.5 108.5t78 79t111 31.5zM337 640q-54 0 -97 -31t-67.5 -76t-41 -103t-22 -106.5t-5.5 -91.5q0 -116 43 -164
t108 -48q54 0 96.5 30.5t67.5 75.5t41 103t22 106.5t6 91.5q0 116 -42.5 164.5t-108.5 48.5z" />
    <glyph glyph-name="one.tf" 
d="M281 28h191l-5 -28h-432l5 28h209l106 598l-208 -53l-4 27l235 60h15z" />
    <glyph glyph-name="two.tf" 
d="M333 220l-240 -192h376l-5 -28h-437l2 12l285 230q85 68 125 127.5t40 123.5q0 66 -39.5 106.5t-109.5 40.5q-44 0 -78.5 -17t-54 -45.5t-29.5 -61t-10 -67.5q0 -22 1 -32h-33q-2 16 -2 34q0 85 53.5 152t153.5 67q83 0 132.5 -49t49.5 -127q0 -69 -43.5 -135
t-136.5 -139z" />
    <glyph glyph-name="three.tf" 
d="M522 660l-2 -12l-243 -244q78 -5 132.5 -56.5t54.5 -133.5q0 -90 -63 -157t-170 -67q-145 0 -210 143l27 14q57 -129 184 -129q95 0 147.5 59.5t52.5 136.5q0 75 -52 119t-137 44h-24l2 12l240 243h-316l5 28h372z" />
    <glyph glyph-name="four.tf" 
d="M492 162l-5 -28h-104l-24 -134h-32l24 134h-334l2 12l320 514h34l-310 -498h293l42 240h32l-42 -240h104z" />
    <glyph glyph-name="five.tf" 
d="M495 632h-276l-40 -233q48 3 85 3q105 0 162 -50.5t57 -136.5q0 -93 -62.5 -159t-168.5 -66q-147 0 -213 143l27 14q29 -63 72.5 -96t112.5 -33q97 0 148.5 59t51.5 137q0 72 -47.5 116t-137.5 44h-124l50 286h308z" />
    <glyph glyph-name="six.tf" 
d="M290 409q87 0 144 -57.5t57 -141.5q0 -91 -65 -155t-157 -64q-87 0 -144.5 57.5t-57.5 142.5q0 23 6 47t11 39t22 41t22 33t29 37t26 32l193 240h40l-228 -279q47 28 102 28zM269 19q79 0 134.5 54.5t55.5 135.5q0 74 -47.5 123t-121.5 49q-80 0 -135.5 -56t-55.5 -136
q0 -74 48 -122t122 -48z" />
    <glyph glyph-name="seven.tf" 
d="M146 660h422l-2 -12l-472 -648h-36l460 632h-377z" />
    <glyph glyph-name="eight.tf" 
d="M336 345q150 -70 150 -174q0 -29 -11.5 -58.5t-35.5 -58t-69 -46.5t-105 -18q-99 0 -157.5 47t-58.5 121q0 77 61 125t153 68q-121 64 -121 153q0 65 51.5 114t140.5 49q77 0 129 -39t52 -109q0 -129 -179 -174zM174 505q0 -46 33 -78.5t95 -63.5q82 21 131.5 55.5
t49.5 96.5q0 57 -42.5 90.5t-107.5 33.5q-72 0 -115.5 -39.5t-43.5 -94.5zM265 18q98 0 143.5 48.5t45.5 106.5q0 29 -11.5 52t-38.5 43.5t-47.5 32t-59.5 31.5q-216 -47 -216 -172q0 -62 49 -102t135 -40z" />
    <glyph glyph-name="nine.tf" 
d="M331 669q87 0 144.5 -57.5t57.5 -142.5q0 -23 -6 -47t-11 -39t-22 -41t-22 -33t-29 -37t-26 -32l-193 -240h-40l228 279q-47 -28 -102 -28q-87 0 -144 57.5t-57 141.5q0 91 65 155t157 64zM310 279q80 0 135.5 56t55.5 136q0 74 -48 122t-122 48q-79 0 -134.5 -54.5
t-55.5 -135.5q0 -74 47.5 -123t121.5 -49z" />
    <glyph glyph-name="zero.slash.tf" 
d="M340 670q90 0 135.5 -65t45.5 -183q0 -48 -6.5 -100.5t-25.5 -113.5t-47.5 -108t-77.5 -78.5t-111 -31.5q-90 0 -136 65t-46 182q0 48 7 100.5t25.5 113.5t47.5 108.5t78 79t111 31.5zM337 640q-54 0 -97 -31t-67.5 -76t-41 -103t-22 -106.5t-5.5 -91.5q0 -20 2 -48
l376 320q-26 136 -145 136zM255 20q54 0 96.5 30.5t67.5 75.5t41 103t22 106.5t6 91.5q0 17 -2 45l-375 -321q27 -131 144 -131z" />
    <glyph glyph-name="zero.tosf" 
d="M298 539q106 0 169.5 -71.5t63.5 -176.5q0 -70 -27 -136.5t-89 -115.5t-146 -49q-105 0 -168.5 71t-63.5 177q0 71 27 137.5t88.5 115t145.5 48.5zM296 511q-60 0 -106 -28t-71 -71.5t-37.5 -88.5t-12.5 -87q0 -92 55.5 -155t148.5 -63q60 0 106.5 28.5t71 73t36.5 89.5
t12 86q0 92 -55.5 154t-147.5 62z" />
    <glyph glyph-name="one.tosf" 
d="M360 530l-88 -502h191l-5 -28h-432l5 28h210l83 474h-189l5 28h220z" />
    <glyph glyph-name="two.tosf" 
d="M248 128l-161 -100h351l-5 -28h-426l2 12l225 140q51 32 79 51.5t60 48.5t46 59.5t14 66.5q0 57 -36.5 95.5t-102.5 38.5q-79 0 -118.5 -52.5t-39.5 -109.5q0 -18 3 -40h-31q-4 23 -4 41q0 76 54 132.5t139 56.5q75 0 121.5 -45.5t46.5 -114.5q0 -41 -16 -76t-51 -67
t-66 -54t-84 -55z" />
    <glyph glyph-name="three.tosf" 
d="M499 530l-2 -12l-241 -237q78 -5 132.5 -56.5t54.5 -133.5q0 -89 -63.5 -156.5t-170.5 -67.5q-145 0 -210 143l27 14q57 -129 184 -129q95 0 148 59.5t53 136.5q0 75 -52 119t-137 44h-24l2 12l238 236h-317l5 28h373z" />
    <glyph glyph-name="four.tosf" 
d="M459 28l-5 -28h-105l-21 -121h-32l21 121h-333l2 12l316 518h34l-306 -502h292l45 253h32l-45 -253h105z" />
    <glyph glyph-name="five.tosf" 
d="M473 502h-276l-39 -226q48 3 85 3q105 0 162 -50.5t57 -136.5q0 -93 -62.5 -159t-168.5 -66q-147 0 -213 143l27 14q29 -63 72.5 -96t112.5 -33q97 0 148.5 59t51.5 137q0 72 -47.5 116t-137.5 44h-124l49 279h308z" />
    <glyph glyph-name="six.tosf" 
d="M287 409q87 0 144 -57.5t57 -141.5q0 -91 -65 -155t-157 -64q-87 0 -144.5 57.5t-57.5 142.5q0 23 6 47t11 39t22 41t22 33t29 37t26 32l193 240h40l-228 -279q47 28 102 28zM266 19q79 0 134.5 54.5t55.5 135.5q0 74 -47.5 123t-121.5 49q-80 0 -135.5 -56t-55.5 -136
q0 -74 48 -122t122 -48z" />
    <glyph glyph-name="seven.tosf" 
d="M123 530h423l-2 -12l-467 -639h-36l455 623h-378z" />
    <glyph glyph-name="eight.tosf" 
d="M336 345q150 -70 150 -174q0 -29 -11.5 -58.5t-35.5 -58t-69 -46.5t-105 -18q-99 0 -157.5 47t-58.5 121q0 77 61 125t153 68q-121 64 -121 153q0 65 51.5 114t140.5 49q77 0 129 -39t52 -109q0 -129 -179 -174zM174 505q0 -46 33 -78.5t95 -63.5q82 21 131.5 55.5
t49.5 96.5q0 57 -42.5 90.5t-107.5 33.5q-72 0 -115.5 -39.5t-43.5 -94.5zM265 18q98 0 143.5 48.5t45.5 106.5q0 29 -11.5 52t-38.5 43.5t-47.5 32t-59.5 31.5q-216 -47 -216 -172q0 -62 49 -102t135 -40z" />
    <glyph glyph-name="nine.tosf" 
d="M309 540q87 0 144.5 -57.5t57.5 -142.5q0 -20 -2.5 -38.5t-11.5 -38.5t-13.5 -31.5t-21 -34t-20 -28t-25 -31t-22.5 -27.5l-187 -232h-40l222 271q-47 -28 -102 -28q-87 0 -144 57.5t-57 141.5q0 91 65 155t157 64zM288 150q80 0 135.5 56t55.5 136q0 74 -48 122t-122 48
q-79 0 -134.5 -54.5t-55.5 -135.5q0 -74 47.5 -123t121.5 -49z" />
    <glyph glyph-name="zero.slash.tosf" 
d="M301 539q106 0 169.5 -71.5t63.5 -176.5q0 -70 -27 -136.5t-89 -115.5t-146 -49q-105 0 -168.5 71t-63.5 177q0 71 27 137.5t88.5 115t145.5 48.5zM299 511q-60 0 -106 -28t-71 -71.5t-37.5 -88.5t-12.5 -87q0 -63 28 -116l362 309q-56 82 -163 82zM276 18
q60 0 106.5 28.5t71 73t36.5 89.5t12 86q0 61 -26 111l-361 -310q58 -78 161 -78z" />
    <glyph glyph-name="zero.dnom" horiz-adv-x="404" 
d="M225 422q60 0 91.5 -41.5t31.5 -114.5q0 -31 -5 -64.5t-18 -71.5t-32.5 -67.5t-51.5 -49t-72 -19.5q-60 0 -92 41.5t-32 114.5q0 39 9 82t28 87.5t56 73.5t87 29zM222 394q-40 0 -70.5 -26.5t-45.5 -68t-22 -79.5t-7 -72q0 -68 27.5 -97t67.5 -29t70 27t45 68t22 79.5
t7 71.5q0 67 -27 96.5t-67 29.5z" />
    <glyph glyph-name="one.dnom" horiz-adv-x="341" 
d="M224 416l-68 -388h101l-5 -28h-242l5 28h111l63 360h-112l5 28h142z" />
    <glyph glyph-name="two.dnom" horiz-adv-x="358" 
d="M193 135l-131 -107h218l-5 -28h-281l2 9l179 147q100 81 100 151q0 39 -23.5 63t-64.5 24q-50 0 -76 -34.5t-26 -79.5q0 -13 1 -19h-31q-1 5 -1 20q0 55 34.5 98t99.5 43q55 0 87 -31.5t32 -81.5q0 -82 -114 -174z" />
    <glyph glyph-name="three.dnom" horiz-adv-x="350" 
d="M321 416l-2 -10l-145 -150q46 -6 78 -38t32 -82q0 -57 -40 -99.5t-109 -42.5q-96 0 -136 92l25 14q35 -79 111 -79q56 0 86.5 34.5t30.5 79.5t-30.5 70.5t-81.5 25.5h-20l2 10l142 147h-188l5 28h240z" />
    <glyph glyph-name="four.dnom" horiz-adv-x="344" 
d="M300 110l-5 -28h-65l-14 -82h-31l14 82h-209l2 10l194 324h34l-185 -306h169l27 151h31l-27 -151h65z" />
    <glyph glyph-name="five.dnom" horiz-adv-x="363" 
d="M306 388h-171l-23 -134q32 2 47 2q66 0 102.5 -32t36.5 -87q0 -59 -40 -101t-108 -42q-99 0 -138 92l25 14q36 -78 112 -78q57 0 87 33.5t30 79.5q0 43 -27.5 68.5t-81.5 25.5h-81l33 187h202z" />
    <glyph glyph-name="six.dnom" horiz-adv-x="373" 
d="M177 262q54 0 89.5 -36.5t35.5 -90.5q0 -59 -42 -100t-101 -41q-55 0 -92 37t-37 92q0 12 1.5 23.5t7 24t8.5 20t13 21t13 17.5t15.5 20t14.5 18l121 149h39l-137 -166q22 12 51 12zM161 22q46 0 77.5 32t31.5 80q0 44 -27 72t-70 28q-47 0 -79 -32.5t-32 -79.5
q0 -44 28 -72t71 -28z" />
    <glyph glyph-name="seven.dnom" horiz-adv-x="315" 
d="M55 416h271l-2 -10l-291 -406h-35l279 388h-227z" />
    <glyph glyph-name="eight.dnom" horiz-adv-x="378" 
d="M219 216q87 -41 87 -106q0 -43 -34.5 -79t-106.5 -36q-62 0 -101 29t-39 78q0 47 36.5 77.5t93.5 42.5q-72 38 -72 94q0 42 33 74t90 32q50 0 84.5 -25t34.5 -71q0 -79 -106 -110zM113 317q0 -26 19 -45.5t56 -38.5q107 27 107 90q0 33 -25.5 53t-63.5 20
q-42 0 -67.5 -23.5t-25.5 -55.5zM164 21q58 0 84.5 28t26.5 62q0 32 -22.5 51.5t-68.5 43.5q-128 -30 -128 -102q0 -37 28.5 -60t79.5 -23z" />
    <glyph glyph-name="nine.dnom" horiz-adv-x="372" 
d="M201 422q55 0 92 -37t37 -92q0 -12 -1.5 -23.5t-7 -24t-8.5 -20t-13 -21t-13 -17.5t-15.5 -20t-14.5 -18l-121 -149h-39l137 166q-22 -12 -51 -12q-54 0 -89.5 36.5t-35.5 90.5q0 59 42 100t101 41zM187 182q47 0 79 32.5t32 79.5q0 44 -28 72t-71 28q-46 0 -77.5 -32
t-31.5 -80q0 -44 27 -72t70 -28z" />
    <glyph glyph-name="zero.numr" horiz-adv-x="404" 
d="M268 666q60 0 91.5 -41.5t31.5 -114.5q0 -31 -5 -64.5t-18 -71.5t-32.5 -67.5t-51.5 -49t-72 -19.5q-60 0 -92 41.5t-32 114.5q0 39 9 82t28 87.5t56 73.5t87 29zM265 638q-40 0 -70.5 -26.5t-45.5 -68t-22 -79.5t-7 -72q0 -68 27.5 -97t67.5 -29t70 27t45 68t22 79.5
t7 71.5q0 67 -27 96.5t-67 29.5z" />
    <glyph glyph-name="one.numr" horiz-adv-x="341" 
d="M267 660l-68 -388h101l-5 -28h-242l5 28h111l63 360h-112l5 28h142z" />
    <glyph glyph-name="two.numr" horiz-adv-x="358" 
d="M236 379l-131 -107h218l-5 -28h-281l2 9l179 147q100 81 100 151q0 39 -23.5 63t-64.5 24q-50 0 -76 -34.5t-26 -79.5q0 -13 1 -19h-31q-1 5 -1 20q0 55 34.5 98t99.5 43q55 0 87 -31.5t32 -81.5q0 -82 -114 -174z" />
    <glyph glyph-name="three.numr" horiz-adv-x="350" 
d="M364 660l-2 -10l-145 -150q46 -6 78 -38t32 -82q0 -57 -40 -99.5t-109 -42.5q-96 0 -136 92l25 14q35 -79 111 -79q56 0 86.5 34.5t30.5 79.5t-30.5 70.5t-81.5 25.5h-20l2 10l142 147h-188l5 28h240z" />
    <glyph glyph-name="four.numr" horiz-adv-x="344" 
d="M343 354l-5 -28h-65l-14 -82h-31l14 82h-209l2 10l194 324h34l-185 -306h169l27 151h31l-27 -151h65z" />
    <glyph glyph-name="five.numr" horiz-adv-x="363" 
d="M349 632h-171l-23 -134q32 2 47 2q66 0 102.5 -32t36.5 -87q0 -59 -40 -101t-108 -42q-99 0 -138 92l25 14q36 -78 112 -78q57 0 87 33.5t30 79.5q0 43 -27.5 68.5t-81.5 25.5h-81l33 187h202z" />
    <glyph glyph-name="six.numr" horiz-adv-x="373" 
d="M221 506q54 0 89.5 -36.5t35.5 -90.5q0 -59 -42 -100t-101 -41q-55 0 -92 37t-37 92q0 12 1.5 23.5t7 24t8.5 20t13 21t13 17.5t15.5 20t14.5 18l121 149h39l-137 -166q23 12 51 12zM205 266q46 0 77.5 32t31.5 80q0 44 -27 72t-70 28q-47 0 -79 -32.5t-32 -79.5
q0 -44 28 -72t71 -28z" />
    <glyph glyph-name="seven.numr" horiz-adv-x="315" 
d="M98 660h271l-2 -10l-291 -406h-35l279 388h-227z" />
    <glyph glyph-name="eight.numr" horiz-adv-x="378" 
d="M262 460q87 -41 87 -106q0 -43 -34.5 -79t-106.5 -36q-62 0 -101 29t-39 78q0 47 36.5 77.5t93.5 42.5q-72 38 -72 94q0 42 33 74t90 32q50 0 84.5 -25t34.5 -71q0 -79 -106 -110zM156 561q0 -26 19 -45.5t56 -38.5q107 27 107 90q0 33 -25.5 53t-63.5 20
q-42 0 -67.5 -23.5t-25.5 -55.5zM207 265q58 0 84.5 28t26.5 62q0 32 -22.5 51.5t-68.5 43.5q-128 -30 -128 -102q0 -37 28.5 -60t79.5 -23z" />
    <glyph glyph-name="nine.numr" horiz-adv-x="372" 
d="M244 666q55 0 92 -37t37 -92q0 -12 -1.5 -23.5t-7 -24t-8.5 -20t-13 -21t-13 -17.5t-15.5 -20t-14.5 -18l-121 -149h-39l137 166q-22 -12 -51 -12q-54 0 -89.5 36.5t-35.5 90.5q0 59 42 100t101 41zM230 426q47 0 79 32.5t32 79.5q0 44 -28 72t-71 28q-46 0 -77.5 -32
t-31.5 -80q0 -44 27 -72t70 -28z" />
    <glyph glyph-name="backslash.case" horiz-adv-x="554" 
d="M134 760l349 -860h-31l-349 860h31z" />
    <glyph glyph-name="periodcentered.case" horiz-adv-x="271" 
d="M156 398q16 0 28 -11t12 -29q0 -17 -12 -27.5t-28 -10.5q-15 0 -26.5 10.5t-11.5 27.5q0 18 11.5 29t26.5 11z" />
    <glyph glyph-name="bullet.case" horiz-adv-x="337" 
d="M182 420q42 0 74 -29.5t32 -76.5t-32 -76.5t-74 -29.5t-74.5 29.5t-32.5 76.5t32.5 76.5t74.5 29.5z" />
    <glyph glyph-name="slash.case" horiz-adv-x="550" 
d="M632 760l-646 -860h-36l646 860h36z" />
    <glyph glyph-name="comma.subs" horiz-adv-x="211" 
d="M75 -68l-59 -189h-27l48 189h38z" />
    <glyph glyph-name="period.subs" horiz-adv-x="211" 
d="M46 -61q14 0 24 -9t10 -25q0 -14 -10.5 -23.5t-23.5 -9.5t-23 9.5t-10 23.5q0 16 10 25t23 9z" />
    <glyph glyph-name="comma.sups" horiz-adv-x="212" 
d="M161 416l-59 -189h-27l48 189h38z" />
    <glyph glyph-name="period.sups" horiz-adv-x="210" 
d="M131 423q14 0 24 -9t10 -25q0 -14 -10.5 -23.5t-23.5 -9.5t-23 9.5t-10 23.5q0 16 10 25t23 9z" />
    <glyph glyph-name="braceleft.case" horiz-adv-x="393" 
d="M379 760h44l-5 -28h-44q-125 0 -125 -167v-112q0 -56 -16 -85.5t-59 -38.5q46 -11 46 -59q0 -33 -36.5 -128.5t-36.5 -135.5q0 -78 89 -78h42l-5 -28h-42q-50 0 -82 25.5t-32 77.5q0 46 36.5 141.5t36.5 124.5q0 47 -60 47h-56l5 28h53q46 0 66.5 25.5t20.5 82.5v113
q0 195 160 195z" />
    <glyph glyph-name="braceright.case" horiz-adv-x="394" 
d="M295 344h56l-5 -28h-53q-46 0 -66.5 -25.5t-20.5 -82.5v-113q0 -195 -160 -195h-44l5 28h44q125 0 125 167v112q0 56 16 85.5t59 38.5q-46 11 -46 59q0 33 36.5 128.5t36.5 135.5q0 78 -89 78h-42l5 28h42q50 0 82 -25.5t32 -77.5q0 -46 -36.5 -141.5t-36.5 -124.5
q0 -47 60 -47z" />
    <glyph glyph-name="bracketleft.case" horiz-adv-x="338" 
d="M368 760l-4 -28h-134l-141 -804h134l-5 -28h-164l150 860h164z" />
    <glyph glyph-name="bracketright.case" horiz-adv-x="338" 
d="M317 760l-151 -860h-165l5 28h135l141 804h-135l5 28h165z" />
    <glyph glyph-name="parenleft.case" horiz-adv-x="315" 
d="M367 760l9 -24q-64 -28 -114.5 -89.5t-80 -137t-44.5 -153.5t-15 -150q0 -196 111 -284l-16 -22q-125 95 -125 308q0 80 16.5 163t48.5 161t86.5 139.5t123.5 88.5z" />
    <glyph glyph-name="parenright.case" horiz-adv-x="315" 
d="M130 760q125 -95 125 -308q0 -80 -16.5 -163t-48.5 -161t-86.5 -139.5t-123.5 -88.5l-9 24q64 28 114.5 89.5t80 137t44.5 153.5t15 150q0 196 -111 284z" />
    <glyph glyph-name="emdash.case" horiz-adv-x="1001" 
d="M974 373l-5 -28h-900l5 28h900z" />
    <glyph glyph-name="endash.case" horiz-adv-x="500" 
d="M474 374l-5 -28h-400l5 28h400z" />
    <glyph glyph-name="uni2015.case" horiz-adv-x="1001" 
d="M974 373l-5 -28h-900l5 28h900z" />
    <glyph glyph-name="hyphen.case" horiz-adv-x="341" 
d="M304 373l-5 -28h-220l5 28h220z" />
    <glyph glyph-name="uni00AD.case" horiz-adv-x="341" 
d="M304 373l-5 -28h-220l5 28h220z" />
    <glyph glyph-name="guillemotleft.case" horiz-adv-x="427" 
d="M272 475l-174 -159l118 -158l-24 -17l-133 172l2 12l191 172zM421 475l-174 -159l118 -158l-24 -17l-133 172l2 12l191 172z" />
    <glyph glyph-name="guillemotright.case" horiz-adv-x="426" 
d="M246 325l-2 -12l-191 -172l-20 22l174 159l-118 158l24 17zM262 497l133 -172l-2 -12l-191 -172l-20 22l174 159l-118 158z" />
    <glyph glyph-name="guilsinglleft.case" horiz-adv-x="278" 
d="M272 475l-174 -159l118 -158l-24 -17l-133 172l2 12l191 172z" />
    <glyph glyph-name="guilsinglright.case" horiz-adv-x="277" 
d="M113 497l133 -172l-2 -12l-191 -172l-20 22l174 159l-118 158z" />
    <glyph glyph-name="cent.tf" 
d="M505 460q-52 78 -143 88l-77 -439q6 -1 19 -1q101 0 172 76l20 -19q-77 -85 -193 -85q-15 0 -23 1l-30 -172h-31l31 177q-80 17 -130 79.5t-50 148.5q0 110 78.5 187t186.5 77h2l30 173h31l-31 -175q107 -14 163 -100zM102 316q0 -74 42.5 -130t110.5 -72l77 436
q-93 -1 -161.5 -69t-68.5 -165z" />
    <glyph glyph-name="currency.tf" 
d="M505 341q0 -94 -68 -160l95 -103l-20 -19l-96 104q-60 -46 -134 -46q-86 0 -144 60l-119 -115l-20 21l121 115q-41 54 -41 126q0 96 70 161l-87 100l20 18l88 -101q59 43 130 43q89 0 149 -62l123 117l20 -21l-126 -117q39 -53 39 -121zM111 325q0 -76 49.5 -127.5
t122.5 -51.5q78 0 134 57t56 137q0 75 -49.5 125.5t-123.5 50.5q-78 0 -133.5 -55t-55.5 -136z" />
    <glyph glyph-name="dollar.tf" 
d="M485 516q-43 70 -113 84l-45 -255l23 -14q54 -33 82.5 -68.5t28.5 -83.5q0 -62 -46.5 -109.5t-132.5 -47.5h-11l-20 -113h-31l20 116q-111 20 -173 137l28 14q55 -103 150 -121l49 274l-26 16q-31 19 -50.5 34t-38 44.5t-18.5 62.5q0 58 44 103t127 45h15l21 117h31
l-21 -121q85 -16 133 -98zM299 362l43 242h-10q-67 0 -102.5 -34t-35.5 -82q0 -40 25 -66.5t69 -52.5zM333 305l-11 7l-46 -260h8q68 0 106 37t38 89q0 40 -23.5 69.5t-71.5 57.5z" />
    <glyph glyph-name="Euro.tf" 
d="M441 640q-102 0 -171.5 -63t-101.5 -161h336l-13 -28h-332q-14 -58 -14 -111v-10h290l-13 -28h-275q10 -100 71 -159.5t164 -59.5q59 0 110 23l4 -29q-52 -24 -115 -24q-115 0 -186 68.5t-82 180.5h-105l5 28h98v9q0 53 14 112h-89l5 28h92q35 110 114 182t193 72
q89 0 159 -48l-12 -25q-65 43 -146 43z" />
    <glyph glyph-name="florin.tf" 
d="M492 670q32 0 68 -7l-4 -25q-40 5 -65 5q-98 0 -128 -97l-47 -156h135l-5 -28h-139l-113 -373q-38 -122 -158 -122q-32 0 -68 7l4 25q40 -5 65 -5q99 0 128 97l113 371h-112l5 28h115l48 158q38 122 158 122z" />
    <glyph glyph-name="sterling.tf" 
d="M359 670q66 0 118.5 -37t66.5 -128l-33 -7q-10 68 -48.5 105t-102.5 37q-76 0 -116.5 -47.5t-40.5 -109.5q0 -34 20 -101t25 -95h162l-5 -28h-154q1 -7 1 -21q0 -64 -30 -119.5t-88 -90.5h306l-5 -28h-389l2 12q172 75 172 222q0 17 -1 25h-117l5 28h108q-4 20 -25 89
t-21 108q0 76 51 131t139 55z" />
    <glyph glyph-name="yen.tf" 
d="M600 660l-286 -321h207l-5 -28h-207l-22 -121h208l-5 -28h-208l-28 -162h-32l28 162h-205l5 28h205l22 121h-206l5 28h206v1l-174 320h32l161 -295l262 295h37z" />
    <glyph glyph-name="section.case" horiz-adv-x="548" 
d="M415 379q85 -82 85 -149q0 -51 -38 -90.5t-111 -42.5q3 -12 3 -26q0 -55 -41 -93t-101 -38q-92 0 -142 86l24 17q45 -75 119 -75q46 0 77.5 29t31.5 73q0 54 -66 118l-93 91q-84 81 -84 148q0 51 37.5 90.5t110.5 43.5q-3 12 -3 26q0 55 41 93t101 38q92 0 142 -86
l-24 -17q-45 75 -119 75q-46 0 -77.5 -29t-31.5 -73q0 -54 66 -118zM342 125q56 3 91 30.5t35 73.5q0 56 -71 125l-99 97q-45 43 -62 82q-55 -3 -90 -30.5t-35 -73.5q0 -57 70 -125l99 -97q45 -43 62 -82z" />
    <glyph glyph-name="dieresis.case" horiz-adv-x="350" 
d="M164 840q14 0 24 -10t10 -24t-10 -24t-24 -10t-24 10t-10 24t10 24t24 10zM385 840q14 0 24 -10t10 -24t-10 -24t-24 -10t-24 10t-10 24t10 24t24 10z" />
    <glyph glyph-name="dieresis.i" horiz-adv-x="290" 
d="M140 700q14 0 24 -10t10 -24t-10 -24t-24 -10t-24 10t-10 24t10 24t24 10zM301 700q14 0 24 -10t10 -24t-10 -24t-24 -10t-24 10t-10 24t10 24t24 10z" />
    <glyph glyph-name="otatonos" horiz-adv-x="98" 
d="M163 780l-1 -5l-48 -213h-27l38 218h38z" />
    </font>
</defs>
</svg>
