<?xml version="1.0" standalone="no"?>
<!DOCTYPE svg PUBLIC "-//W3C//DTD SVG 1.1//EN" "http://www.w3.org/Graphics/SVG/1.1/DTD/svg11.dtd" >
<svg xmlns="http://www.w3.org/2000/svg" xmlns:xlink="http://www.w3.org/1999/xlink" version="1.1">
<metadata>
Created by FontForge 20170731 at Fri Apr  3 18:32:35 2015
 By Aleksey,,,
Copyright (c) 2015 by Jakob Runge, under exclusive license to type me! fonts. All rights reserved.
</metadata>
<defs>
<font id="CeraGR-MediumItalic" horiz-adv-x="560" >
  <font-face 
    font-family="CeraGR-MediumItalic"
    font-weight="400"
    font-style="italic"
    font-stretch="normal"
    units-per-em="1000"
    panose-1="0 0 6 0 0 0 0 0 0 0"
    ascent="799"
    descent="-201"
    x-height="481"
    cap-height="660"
    bbox="-145 -243 1351 903"
    underline-thickness="50"
    underline-position="-150"
    slope="-10"
    unicode-range="U+0020-F8FF"
  />
<missing-glyph horiz-adv-x="710" 
d="M157 660h544l-116 -660h-544zM521 63l93 529h-396z" />
    <glyph glyph-name=".notdef" horiz-adv-x="710" 
d="M157 660h544l-116 -660h-544zM521 63l93 529h-396z" />
    <glyph glyph-name=".null" horiz-adv-x="0" 
 />
    <glyph glyph-name="nonmarkingreturn" horiz-adv-x="333" 
 />
    <glyph glyph-name="space" unicode=" " horiz-adv-x="280" 
 />
    <glyph glyph-name="exclam" unicode="!" horiz-adv-x="325" 
d="M300 660l-97 -435h-87l56 435h128zM132 144q33 0 55.5 -22t22.5 -56q0 -33 -22.5 -55t-55.5 -22t-55.5 22t-22.5 55q0 34 22.5 56t55.5 22z" />
    <glyph glyph-name="quotedbl" unicode="&#x22;" horiz-adv-x="501" 
d="M294 660l-94 -268h-84l56 268h122zM504 660l-94 -268h-84l56 268h122z" />
    <glyph glyph-name="numbersign" unicode="#" horiz-adv-x="585" 
d="M588 391h-96l-21 -122h96l-15 -89h-97l-32 -180h-87l32 180h-171l-31 -180h-88l32 180h-95l15 89h96l21 122h-95l16 89h95l32 180h87l-32 -180h171l31 180h88l-32 -180h96zM213 266h170l22 128h-170z" />
    <glyph glyph-name="dollar" unicode="$" horiz-adv-x="537" 
d="M351 357q118 -62 118 -155q0 -67 -48.5 -121t-136.5 -60l-21 -116h-97l22 127q-99 29 -155 135l80 50q40 -66 92 -88l32 178l-8 4q-115 60 -115 154q0 68 49 116.5t131 53.5l20 114h98l-23 -126q73 -25 118 -103l-80 -53q-26 40 -55 56l-29 -162zM220 471q0 -34 35 -59
l22 125q-57 -13 -57 -66zM301 120q62 16 62 72q0 36 -38 64z" />
    <glyph glyph-name="percent" unicode="%" horiz-adv-x="821" 
d="M266 670q67 0 112 -45.5t45 -110.5q0 -70 -50 -119t-120 -49q-67 0 -112 46.5t-45 111.5q0 69 49.5 117.5t120.5 48.5zM735 660l-526 -660h-88l524 660h90zM264 596q-38 0 -62.5 -26t-24.5 -65q0 -37 22 -60.5t58 -23.5q38 0 61.5 26t23.5 65q0 36 -21 60t-57 24z
M600 314q67 0 112.5 -46t45.5 -111q0 -70 -50 -118.5t-121 -48.5q-67 0 -112 46t-45 111q0 69 50 118t120 49zM598 239q-38 0 -62 -26t-24 -64q0 -37 22 -61t58 -24q38 0 61 26t23 65q0 36 -21 60t-57 24z" />
    <glyph glyph-name="ampersand" unicode="&#x26;" horiz-adv-x="650" 
d="M629 273q-94 -110 -134 -150l80 -123h-117l-37 56q-86 -67 -180 -67q-85 0 -145 47t-60 127q0 62 42.5 110.5t133.5 103.5q-44 73 -44 129q0 64 45 114.5t126 50.5q68 0 109 -38t41 -97q0 -54 -36 -97t-106 -87l94 -145q5 5 115 131zM334 579q-31 0 -48 -19t-17 -50
q0 -40 32 -86q88 52 88 104q0 23 -14 37t-41 14zM244 83q57 0 124 54l-108 166q-61 -38 -88 -65.5t-27 -65.5q0 -40 28.5 -64.5t70.5 -24.5z" />
    <glyph glyph-name="quotesingle" unicode="'" horiz-adv-x="291" 
d="M294 660l-94 -268h-84l56 268h122z" />
    <glyph glyph-name="parenleft" unicode="(" horiz-adv-x="353" 
d="M373 736l31 -69q-61 -29 -107.5 -83t-72.5 -120t-38.5 -134t-12.5 -137q0 -180 101 -265l-52 -60q-145 92 -145 327q0 108 29 214t98.5 199.5t168.5 127.5z" />
    <glyph glyph-name="parenright" unicode=")" horiz-adv-x="352" 
d="M152 736q145 -94 145 -328q0 -79 -17.5 -160.5t-51.5 -158t-93 -136t-134 -85.5l-31 68q61 29 107 83t72 120t39 134t13 137q0 182 -101 265z" />
    <glyph glyph-name="asterisk" unicode="*" horiz-adv-x="438" 
d="M461 598l-103 -49l79 -80l-40 -48l-92 64l-31 -109l-60 11l9 113l-111 -28l-22 58l102 49l-79 81l40 47l95 -65l30 110l61 -11l-9 -113l108 28z" />
    <glyph glyph-name="plus" unicode="+" 
d="M387 546l-32 -183h176l-16 -91h-176l-33 -185h-102l33 185h-180l16 91h180l33 183h101z" />
    <glyph glyph-name="comma" unicode="," horiz-adv-x="270" 
d="M180 106l-96 -284h-85l59 284h122z" />
    <glyph glyph-name="hyphen" unicode="-" horiz-adv-x="340" 
d="M313 362l-16 -89h-241l16 89h241z" />
    <glyph glyph-name="period" unicode="." horiz-adv-x="270" 
d="M105 144q33 0 55 -22t22 -56q0 -33 -22 -55t-55 -22t-55.5 22t-22.5 55q0 34 22.5 56t55.5 22z" />
    <glyph glyph-name="slash" unicode="/" horiz-adv-x="641" 
d="M731 780l-677 -901h-113l676 901h114z" />
    <glyph glyph-name="zero" unicode="0" horiz-adv-x="661" 
d="M349 546q114 0 193 -76t79 -189q0 -121 -89.5 -206.5t-212.5 -85.5q-114 0 -192 76t-78 188q0 122 89 207.5t211 85.5zM346 451q-79 0 -134 -58t-55 -139q0 -73 46 -121.5t119 -48.5q79 0 135 56.5t56 138.5q0 74 -47.5 123t-119.5 49z" />
    <glyph glyph-name="one" unicode="1" horiz-adv-x="504" 
d="M378 535l-78 -444h136l-15 -91h-389l16 91h146l63 348h-138l17 96h242z" />
    <glyph glyph-name="two" unicode="2" horiz-adv-x="567" 
d="M313 122l-49 -32h224l-16 -90h-471l4 25l231 150q46 30 68 45.5t49.5 40t39 47.5t11.5 50q0 39 -27 65t-74 26q-59 0 -86.5 -37t-27.5 -82q0 -8 2 -30h-103q-4 17 -4 42q0 82 63 143t161 61q90 0 146.5 -51.5t56.5 -128.5q0 -70 -50 -125.5t-148 -118.5z" />
    <glyph glyph-name="three" unicode="3" horiz-adv-x="527" 
d="M512 535l-5 -29l-195 -217q61 -19 100 -68.5t39 -118.5q0 -92 -67.5 -163.5t-184.5 -71.5q-91 0 -149 45t-83 117l83 46q24 -54 59.5 -82.5t90.5 -28.5q67 0 105 39t38 93q0 53 -38.5 83t-104.5 30h-61l5 28l183 203h-242l17 95h410z" />
    <glyph glyph-name="four" unicode="4" horiz-adv-x="559" 
d="M518 90l-16 -90h-90l-21 -121h-105l21 121h-330l5 29l291 506h113l-258 -445h195l36 205h105l-36 -205h90z" />
    <glyph glyph-name="five" unicode="5" horiz-adv-x="547" 
d="M485 442h-259l-26 -150q33 6 61 6q91 0 150.5 -52t59.5 -141q0 -96 -67.5 -167t-184.5 -71q-93 0 -153.5 45t-85.5 117l84 46q51 -111 154 -111q68 0 106.5 38.5t38.5 93.5q0 52 -36 81.5t-104 29.5h-141l57 328h362z" />
    <glyph glyph-name="six" unicode="6" horiz-adv-x="557" 
d="M305 435q84 0 144 -59.5t60 -149.5q0 -100 -73.5 -168t-172.5 -68q-94 0 -159 61.5t-65 156.5q0 43 17.5 84.5t37.5 68.5t60 73l191 226h133l-194 -226q6 1 21 1zM267 86q57 0 96.5 39t39.5 99q0 55 -33.5 89.5t-87.5 34.5q-58 0 -97.5 -39.5t-39.5 -98.5q0 -54 34 -89
t88 -35z" />
    <glyph glyph-name="seven" unicode="7" horiz-adv-x="513" 
d="M88 535h452l-5 -29l-422 -627h-121l385 563h-305z" />
    <glyph glyph-name="eight" unicode="8" horiz-adv-x="582" 
d="M410 334q111 -58 111 -151q0 -73 -60.5 -133t-176.5 -60q-62 0 -116 17.5t-92 59t-38 99.5q0 66 47 115t131 71q-84 57 -84 137q0 72 55.5 127t157.5 55q86 0 147 -41.5t61 -122.5q0 -118 -143 -173zM344 581q-51 0 -80.5 -25.5t-29.5 -64.5q0 -31 20 -53.5t66 -49.5
q63 19 96.5 44t33.5 67q0 38 -29.5 60t-76.5 22zM279 80q69 0 102.5 30.5t33.5 71.5q0 37 -27.5 62t-85.5 54q-80 -20 -118.5 -49t-38.5 -72t35 -70t99 -27z" />
    <glyph glyph-name="nine" unicode="9" horiz-adv-x="557" 
d="M304 546q94 0 159 -61.5t65 -156.5q0 -43 -17.5 -84.5t-37 -67.5t-60.5 -74l-188 -223h-133l191 223q-6 -1 -21 -1q-84 0 -143.5 59.5t-59.5 149.5q0 100 73 168t172 68zM286 188q57 0 96.5 39.5t39.5 98.5q0 54 -33.5 89t-87.5 35q-58 0 -97.5 -39t-39.5 -99
q0 -55 33.5 -89.5t88.5 -34.5z" />
    <glyph glyph-name="colon" unicode=":" horiz-adv-x="270" 
d="M167 498q33 0 55 -22t22 -56q0 -33 -22 -55t-55 -22t-55.5 22t-22.5 55q0 34 22.5 56t55.5 22zM105 144q33 0 55 -22t22 -56q0 -33 -22 -55t-55 -22t-55.5 22t-22.5 55q0 34 22.5 56t55.5 22z" />
    <glyph glyph-name="semicolon" unicode=";" horiz-adv-x="270" 
d="M167 498q33 0 55 -22t22 -56q0 -33 -22 -55t-55 -22t-55.5 22t-22.5 55q0 34 22.5 56t55.5 22zM180 106l-96 -284h-85l59 284h122z" />
    <glyph glyph-name="less" unicode="&#x3c;" 
d="M546 530l-17 -100l-296 -117l255 -118l-16 -88l-417 196l5 30z" />
    <glyph glyph-name="equal" unicode="=" 
d="M539 469l-16 -91h-439l16 91h439zM502 257l-16 -91h-439l16 91h439z" />
    <glyph glyph-name="greater" unicode="&#x3e;" 
d="M116 529l416 -196l-5 -30l-485 -196l17 99l297 117l-255 119z" />
    <glyph glyph-name="question" unicode="?" horiz-adv-x="448" 
d="M285 671q73 0 121.5 -40.5t48.5 -111.5q0 -40 -19.5 -75.5t-40 -54t-58.5 -47.5q-28 -22 -41.5 -35t-27 -34t-18.5 -47h-90q2 47 21 84.5t71 76.5q37 29 53 43t28.5 34.5t12.5 42.5q0 33 -20.5 50.5t-51.5 17.5q-62 0 -106 -77l-79 48q66 125 196 125zM190 144
q33 0 55 -22.5t22 -55.5t-22 -55t-55 -22t-55.5 22t-22.5 55q0 34 22.5 56t55.5 22z" />
    <glyph glyph-name="at" unicode="@" horiz-adv-x="941" 
d="M510 661q181 0 287 -102.5t106 -251.5q0 -120 -74.5 -198t-219.5 -78h-58l8 46q-51 -54 -132 -54q-82 0 -132 58.5t-50 139.5q0 88 59 159.5t161 71.5q104 0 146 -73l12 64h89l-58 -328q76 1 118.5 52.5t42.5 138.5q0 119 -80 194.5t-225 75.5q-94 0 -168.5 -33.5
t-117.5 -87t-65.5 -115t-22.5 -124.5q0 -133 93.5 -219t238.5 -86q55 0 106 12l10 -76q-51 -20 -129 -20q-178 0 -293.5 110.5t-115.5 273.5q0 80 31 159t87 144.5t146.5 106t199.5 40.5zM457 113q58 0 94 43.5t36 98.5q0 51 -31 79t-79 28q-55 0 -92 -38t-37 -95
q0 -50 29 -83t80 -33z" />
    <glyph glyph-name="A" unicode="A" horiz-adv-x="662" 
d="M491 0l-28 110h-294l-66 -110h-120l408 671h36l173 -671h-109zM440 201l-61 270l-156 -270h217z" />
    <glyph glyph-name="B" unicode="B" horiz-adv-x="617" 
d="M477 350q91 -48 91 -153q0 -87 -65.5 -142t-169.5 -55h-292l116 660h211q86 0 136 -46t50 -120q0 -94 -77 -144zM351 568h-106l-31 -179h122q52 0 81 27.5t29 70.5q0 38 -24.5 59.5t-70.5 21.5zM331 93q61 0 95.5 28.5t34.5 78.5q0 44 -28 71t-79 27h-156l-36 -205h169z
" />
    <glyph glyph-name="C" unicode="C" horiz-adv-x="717" 
d="M435 671q94 0 166 -44.5t111 -122.5l-87 -53q-63 123 -197 123q-109 0 -183 -76.5t-74 -187.5q0 -98 60.5 -161t158.5 -63q120 0 208 104l74 -60q-51 -67 -126.5 -104t-163.5 -37q-140 0 -230.5 90t-90.5 227q0 152 110 258.5t264 106.5z" />
    <glyph glyph-name="D" unicode="D" horiz-adv-x="696" 
d="M334 660q150 0 241.5 -86.5t91.5 -218.5q0 -49 -13 -97t-43 -95t-74 -83t-112 -58t-152 -22h-232l116 660h177zM280 95q133 1 205 75.5t72 178.5q0 96 -61.5 155.5t-169.5 59.5h-80l-82 -469h116z" />
    <glyph glyph-name="E" unicode="E" horiz-adv-x="570" 
d="M591 660l-17 -95h-328l-30 -169h246l-16 -92h-246l-36 -209h339l-16 -95h-446l116 660h434z" />
    <glyph glyph-name="F" unicode="F" horiz-adv-x="529" 
d="M581 660l-17 -95h-318l-35 -197h262l-16 -96h-262l-48 -272h-106l116 660h424z" />
    <glyph glyph-name="G" unicode="G" horiz-adv-x="749" 
d="M412 349h309l-36 -206q-48 -70 -128 -112t-175 -42q-140 0 -230.5 90t-90.5 227q0 152 110 258.5t264 106.5q89 0 158.5 -40t111.5 -112l-81 -60q-69 115 -195 115q-109 0 -183.5 -76.5t-74.5 -187.5q0 -100 61 -162.5t160 -62.5q114 0 191 84l15 86h-203z" />
    <glyph glyph-name="H" unicode="H" horiz-adv-x="711" 
d="M701 660l-116 -660h-106l53 302h-332l-53 -302h-106l116 660h106l-45 -263h332l45 263h106z" />
    <glyph glyph-name="I" unicode="I" horiz-adv-x="272" 
d="M263 660l-116 -660h-106l116 660h106z" />
    <glyph glyph-name="J" unicode="J" horiz-adv-x="381" 
d="M373 660l-89 -505q-30 -166 -188 -166q-59 0 -116 19l16 89q59 -11 83 -11q87 0 102 87l86 487h106z" />
    <glyph glyph-name="K" unicode="K" horiz-adv-x="650" 
d="M157 660h106l-116 -660h-106zM675 660l-333 -319l247 -341h-122l-255 351l323 309h140z" />
    <glyph glyph-name="L" unicode="L" horiz-adv-x="516" 
d="M263 660l-99 -565h302l-17 -95h-408l116 660h106z" />
    <glyph glyph-name="M" unicode="M" horiz-adv-x="793" 
d="M750 671h36l-118 -671h-106l71 405l-223 -239h-36l-152 259l-75 -425h-106l118 671h37l212 -369l341 367z" />
    <glyph glyph-name="N" unicode="N" horiz-adv-x="711" 
d="M595 660h106l-118 -671h-36l-320 465l-80 -454h-106l118 671h37l320 -463z" />
    <glyph glyph-name="O" unicode="O" horiz-adv-x="780" 
d="M433 671q138 0 228 -90.5t90 -226.5q0 -151 -109.5 -258t-261.5 -107q-139 0 -229 90.5t-90 226.5q0 152 109.5 258.5t262.5 106.5zM425 574q-107 0 -181 -76.5t-74 -186.5q0 -98 60.5 -161.5t155.5 -63.5q107 0 181.5 77t74.5 187q0 98 -61 161t-156 63z" />
    <glyph glyph-name="P" unicode="P" horiz-adv-x="588" 
d="M373 660q102 0 159.5 -51.5t57.5 -137.5q0 -96 -71 -156t-186 -60h-141l-45 -255h-106l116 660h216zM348 349q64 0 98.5 32t34.5 85q0 47 -28.5 73.5t-83.5 26.5h-122l-39 -217h140z" />
    <glyph glyph-name="Q" unicode="Q" horiz-adv-x="780" 
d="M908 -121q34 0 60 2l-14 -83q-42 -10 -94 -10q-47 0 -92.5 8t-101.5 28.5t-108 65.5t-91 109q-40 -10 -87 -10q-139 0 -229 90.5t-90 226.5q0 152 109.5 258.5t262.5 106.5q138 0 228 -90.5t90 -226.5q0 -101 -52 -186t-138 -132q65 -94 149.5 -125.5t197.5 -31.5z
M170 311q0 -98 60.5 -161.5t155.5 -63.5q106 0 180.5 77t74.5 187q0 98 -60.5 161t-155.5 63q-107 0 -181 -76.5t-74 -186.5z" />
    <glyph glyph-name="R" unicode="R" horiz-adv-x="631" 
d="M590 474q0 -75 -46 -130t-123 -76l156 -268h-116l-151 255h-118l-45 -255h-106l116 660h216q102 0 159.5 -51t57.5 -135zM247 566l-38 -217h139q64 0 98.5 32t34.5 85q0 47 -28.5 73.5t-83.5 26.5h-122z" />
    <glyph glyph-name="S" unicode="S" horiz-adv-x="558" 
d="M326 671q141 0 214 -126l-81 -51q-53 81 -138 81q-52 0 -77.5 -24t-25.5 -59q0 -32 19.5 -52.5t57.5 -41.5l71 -39q130 -68 130 -173q0 -78 -58 -137.5t-164 -59.5q-90 0 -154 44.5t-102 116.5l81 51q69 -116 178 -116q52 0 81.5 25.5t29.5 65.5q0 32 -20 54.5t-64 45.5
l-70 38q-124 67 -124 172q0 77 59 131t157 54z" />
    <glyph glyph-name="T" unicode="T" horiz-adv-x="587" 
d="M643 660l-17 -95h-222l-100 -565h-106l100 565h-222l17 95h550z" />
    <glyph glyph-name="U" unicode="U" horiz-adv-x="693" 
d="M691 660l-74 -426q-21 -117 -98.5 -181t-186.5 -64q-112 0 -183 64.5t-71 168.5q0 30 6 63l66 375h106l-67 -378q-5 -30 -5 -52q0 -64 43.5 -104t109.5 -40q67 0 114.5 41.5t60.5 114.5l73 418h106z" />
    <glyph glyph-name="V" unicode="V" horiz-adv-x="662" 
d="M589 660h122l-409 -671h-35l-173 671h112l112 -455z" />
    <glyph glyph-name="W" unicode="W" horiz-adv-x="1044" 
d="M960 660h120l-375 -671h-35l-111 467l-284 -467h-35l-140 671h110l87 -445l277 456h36l107 -454z" />
    <glyph glyph-name="X" unicode="X" horiz-adv-x="601" 
d="M641 660l-261 -333l160 -327h-113l-121 250l-198 -250h-130l280 347l-150 313h113l110 -236l180 236h130z" />
    <glyph glyph-name="Y" unicode="Y" horiz-adv-x="620" 
d="M660 660l-298 -397l-46 -263h-106l47 268l-159 392h108l118 -289l213 289h123z" />
    <glyph glyph-name="Z" unicode="Z" horiz-adv-x="588" 
d="M631 660l-6 -29l-456 -536h363l-16 -95h-532l5 29l454 536h-316l16 95h488z" />
    <glyph glyph-name="bracketleft" unicode="[" horiz-adv-x="353" 
d="M392 729l-16 -88h-114l-120 -682h114l-15 -90h-209l151 860h209z" />
    <glyph glyph-name="backslash" unicode="\" horiz-adv-x="644" 
d="M199 780l376 -901h-100l-375 901h99z" />
    <glyph glyph-name="bracketright" unicode="]" horiz-adv-x="353" 
d="M342 729l-151 -860h-209l15 88h114l121 683h-115l16 89h209z" />
    <glyph glyph-name="asciicircum" unicode="^" horiz-adv-x="522" 
d="M354 670l121 -390h-96l-67 225l-146 -225h-105l258 390h35z" />
    <glyph glyph-name="underscore" unicode="_" horiz-adv-x="500" 
d="M406 -70l-15 -85h-421l15 85h421z" />
    <glyph glyph-name="a" unicode="a" horiz-adv-x="629" 
d="M491 481h105l-85 -481h-98l10 58q-63 -69 -163 -69q-97 0 -157 66.5t-60 162.5q0 48 17 96t48.5 88.5t83 65.5t114.5 25q118 0 173 -81zM291 84q73 0 117 53.5t44 121.5q0 63 -40 100.5t-98 37.5q-69 0 -116 -50t-47 -119q-1 -62 37.5 -103t102.5 -41z" />
    <glyph glyph-name="b" unicode="b" horiz-adv-x="631" 
d="M371 493q96 0 156.5 -67.5t60.5 -163.5q0 -65 -28 -126t-90 -104.5t-144 -43.5q-118 0 -173 85l-13 -73h-105l131 750h105l-56 -319q64 62 156 62zM480 252q0 63 -39 104t-102 41q-73 0 -116.5 -54t-44.5 -121q0 -62 40.5 -100t99.5 -38q68 0 115 49.5t47 118.5z" />
    <glyph glyph-name="c" unicode="c" horiz-adv-x="559" 
d="M319 492q72 0 127 -33t83 -89l-79 -53q-50 80 -134 80q-69 0 -117 -48.5t-48 -118.5q0 -63 40.5 -104.5t103.5 -41.5q81 0 136 67l67 -58q-75 -104 -208 -104q-105 0 -175.5 67.5t-70.5 169.5q0 111 81 188.5t194 77.5z" />
    <glyph glyph-name="d" unicode="d" horiz-adv-x="629" 
d="M538 750h105l-132 -750h-97l11 59q-62 -70 -165 -70q-97 0 -157 66.5t-60 162.5q0 48 17 96t48.5 88.5t83 65.5t114.5 25q118 0 173 -81zM291 84q73 0 117 53.5t44 120.5q0 64 -39.5 101.5t-98.5 37.5q-69 0 -116 -50t-47 -119q-1 -62 37.5 -103t102.5 -41z" />
    <glyph glyph-name="e" unicode="e" horiz-adv-x="565" 
d="M527 286q0 -39 -14 -81h-364q7 -59 47.5 -91.5t104.5 -32.5q74 0 145 53l44 -71q-87 -74 -198 -74q-109 0 -178.5 67t-69.5 169q0 110 79 188.5t190 78.5q94 0 154 -58t60 -148zM306 403q-54 0 -95 -31.5t-56 -84.5h269v5q0 53 -33 82t-85 29z" />
    <glyph glyph-name="f" unicode="f" horiz-adv-x="323" 
d="M354 666q-40 0 -63.5 -19t-30.5 -63l-18 -103h114l-16 -90h-114l-76 -427q-13 -78 -60 -116.5t-119 -38.5q-47 0 -88 15l14 86q35 -7 58 -7q79 0 94 83l71 405h-70l16 90h70l22 124q14 79 61.5 117.5t119.5 38.5q46 0 87 -15l-14 -86q-36 6 -58 6z" />
    <glyph glyph-name="g" unicode="g" horiz-adv-x="631" 
d="M492 481h105l-79 -451q-19 -109 -92 -165t-175 -56q-150 0 -242 112l66 67q70 -83 176 -83q64 0 107.5 32t55.5 96l5 30q-63 -56 -156 -56q-96 0 -157.5 62.5t-61.5 154.5q0 64 29 124t91.5 102.5t144.5 42.5q116 0 171 -81zM291 98q74 0 118 51.5t45 116.5
q0 61 -39.5 97.5t-98.5 36.5q-69 0 -116.5 -49t-47.5 -116q0 -58 37.5 -97.5t101.5 -39.5z" />
    <glyph glyph-name="h" unicode="h" horiz-adv-x="575" 
d="M350 493q75 0 121.5 -45.5t46.5 -117.5q0 -22 -6 -55l-48 -275h-106l48 274q5 23 5 37q0 42 -25.5 65t-69.5 23q-47 0 -81 -27t-43 -76l-52 -296h-105l131 750h105l-53 -305q56 48 132 48z" />
    <glyph glyph-name="i" unicode="i" horiz-adv-x="257" 
d="M206 744q30 0 51 -20.5t21 -49.5t-21 -49t-51 -20t-51 20t-21 49t21 49.5t51 20.5zM224 481l-85 -481h-105l85 481h105z" />
    <glyph glyph-name="j" unicode="j" horiz-adv-x="258" 
d="M205 744q30 0 51.5 -20.5t21.5 -49.5t-21.5 -49t-51.5 -20q-29 0 -50 20t-21 49t21 49.5t50 20.5zM225 481l-91 -516q-14 -78 -60.5 -117t-117.5 -39q-47 0 -85 15l15 86q32 -5 54 -5q78 0 92 77l87 499h106z" />
    <glyph glyph-name="k" unicode="k" horiz-adv-x="531" 
d="M166 750h105l-132 -750h-105zM548 481l-236 -218l168 -263h-119l-169 273l222 208h134z" />
    <glyph glyph-name="l" unicode="l" horiz-adv-x="257" 
d="M271 750l-132 -750h-105l132 750h105z" />
    <glyph glyph-name="m" unicode="m" horiz-adv-x="883" 
d="M657 493q77 0 122.5 -45t45.5 -118q0 -22 -6 -55l-48 -275h-105l48 273q5 25 5 38q0 42 -25 65t-67 23q-45 0 -78 -27t-42 -76l-51 -296h-106l49 274q4 28 4 37q0 42 -24.5 65t-66.5 23q-46 0 -78.5 -27t-41.5 -76l-52 -296h-105l84 481h97l-8 -44q59 56 140 56
q98 0 141 -75q65 75 168 75z" />
    <glyph glyph-name="n" unicode="n" horiz-adv-x="575" 
d="M350 493q75 0 121.5 -45.5t46.5 -117.5q0 -22 -6 -55l-48 -275h-106l48 272q5 25 5 38q0 42 -26 65.5t-69 23.5q-47 0 -81 -27t-43 -76l-52 -296h-105l84 481h97l-8 -45q59 57 142 57z" />
    <glyph glyph-name="o" unicode="o" horiz-adv-x="610" 
d="M318 493q106 0 177.5 -69.5t71.5 -171.5q0 -110 -82 -186.5t-195 -76.5q-105 0 -175.5 68.5t-70.5 170.5q0 111 81.5 188t192.5 77zM314 397q-67 0 -114.5 -49t-47.5 -119q-1 -63 39.5 -103.5t102.5 -40.5q68 0 116 47.5t49 116.5q1 64 -41 106t-104 42z" />
    <glyph glyph-name="p" unicode="p" horiz-adv-x="631" 
d="M371 493q96 0 156.5 -67.5t60.5 -163.5q0 -66 -28.5 -127t-90.5 -104t-144 -43q-119 0 -174 85l-44 -253h-105l117 661h97l-11 -61q61 73 166 73zM480 252q1 61 -38 103t-103 42q-72 0 -116 -54t-45 -121q0 -63 40.5 -100.5t99.5 -37.5q69 0 115.5 50t46.5 118z" />
    <glyph glyph-name="q" unicode="q" horiz-adv-x="629" 
d="M491 481h105l-117 -661h-105l41 229q-61 -60 -155 -60q-96 0 -156.5 67t-60.5 163q0 104 70.5 189t192.5 85q119 0 172 -83zM291 84q73 0 117 53.5t44 121.5q0 63 -40 100.5t-98 37.5q-69 0 -116 -50t-47 -119q-1 -62 37.5 -103t102.5 -41z" />
    <glyph glyph-name="r" unicode="r" horiz-adv-x="375" 
d="M344 487q32 0 55 -9l-17 -91q-27 4 -48 4q-57 0 -97 -32.5t-52 -96.5l-46 -262h-105l85 481h97l-9 -50q55 56 137 56z" />
    <glyph glyph-name="s" unicode="s" horiz-adv-x="456" 
d="M251 493q115 0 174 -86l-66 -59q-46 55 -111 55q-29 0 -47.5 -12t-18.5 -34q0 -18 12.5 -30t43.5 -27l42 -21q63 -29 91.5 -60.5t28.5 -78.5q0 -67 -51.5 -109.5t-132.5 -42.5q-69 0 -120.5 30t-81.5 79l70 60q31 -39 60.5 -59t71.5 -20q34 0 57.5 14t23.5 40
q0 20 -14 32t-48 29l-45 21q-56 27 -84 58.5t-28 79.5q0 65 49.5 103t123.5 38z" />
    <glyph glyph-name="t" unicode="t" horiz-adv-x="396" 
d="M232 391l-39 -217q-3 -14 -3 -25q0 -39 27.5 -53.5t78.5 -14.5q14 0 44 2l-16 -89q-30 -5 -58 -5q-77 0 -129.5 32.5t-52.5 110.5q0 16 5 43l38 216h-80l15 90h81l24 139h106l-25 -139h147l-16 -90h-147z" />
    <glyph glyph-name="u" unicode="u" horiz-adv-x="569" 
d="M541 481l-52 -299q-17 -93 -78 -143t-147 -50q-88 0 -144.5 51.5t-56.5 134.5q0 19 5 44l45 262h105l-48 -275q-2 -18 -2 -26q0 -43 28.5 -69t72.5 -26q43 0 75 25.5t41 73.5l51 297h105z" />
    <glyph glyph-name="v" unicode="v" horiz-adv-x="546" 
d="M444 481h119l-323 -492h-37l-150 492h106l88 -313z" />
    <glyph glyph-name="w" unicode="w" horiz-adv-x="852" 
d="M752 481h117l-304 -492h-36l-95 318l-212 -318h-37l-132 492h107l75 -316l208 327h37l92 -319z" />
    <glyph glyph-name="x" unicode="x" horiz-adv-x="512" 
d="M528 481l-210 -234l138 -247h-116l-94 177l-148 -177h-126l224 256l-127 225h117l82 -154l133 154h127z" />
    <glyph glyph-name="y" unicode="y" horiz-adv-x="586" 
d="M447 481h105l-82 -467q-18 -98 -82 -151.5t-154 -53.5q-65 0 -123.5 29t-96.5 83l66 68q69 -84 154 -84q51 0 86 28t45 85l7 37q-56 -46 -131 -46q-76 0 -122 45.5t-46 116.5q0 23 6 53l45 257h106l-46 -256q-4 -17 -4 -35q0 -41 25.5 -65t69.5 -24q46 0 80.5 27.5
t42.5 75.5z" />
    <glyph glyph-name="z" unicode="z" horiz-adv-x="461" 
d="M478 481l-5 -29l-314 -361h254l-16 -91h-417l5 29l314 361h-228l15 91h392z" />
    <glyph glyph-name="braceleft" unicode="{" horiz-adv-x="403" 
d="M375 729h69l-15 -88h-53q-52 0 -70 -29.5t-18 -88.5v-97q0 -60 -18 -91t-69 -40q54 -11 54 -62q0 -31 -30 -112.5t-30 -111.5q0 -52 61 -52h53l-15 -88h-70q-56 0 -92 29t-36 85q0 43 30.5 124.5t30.5 104.5q0 39 -50 39h-61l16 91h63q40 0 55 19.5t15 65.5v105
q0 197 180 197z" />
    <glyph glyph-name="bar" unicode="|" horiz-adv-x="332" 
d="M226 780v-901h-88v901h88z" />
    <glyph glyph-name="braceright" unicode="}" horiz-adv-x="404" 
d="M317 343h61l-16 -91h-63q-40 0 -55 -20t-15 -66v-98q0 -199 -180 -199h-69l15 88h53q52 0 70 30t18 90v92q0 60 18.5 91t69.5 40q-55 13 -55 64q0 31 30 113.5t30 112.5q0 51 -61 51h-53l15 88h71q55 0 91 -28.5t36 -84.5q0 -43 -30.5 -126.5t-30.5 -107.5q0 -39 50 -39z
" />
    <glyph glyph-name="asciitilde" unicode="~" 
d="M173 422q42 0 93 -34l80 -53q40 -26 59 -26q31 0 41 55h83q-4 -71 -34 -113t-83 -42q-41 0 -94 34l-79 53q-40 26 -59 26q-32 0 -42 -55h-83q5 71 35 113t83 42z" />
    <glyph glyph-name="cent" unicode="&#xa2;" horiz-adv-x="557" 
d="M322 168q72 7 121 68l68 -59q-76 -103 -205 -106l-29 -166h-98l32 180q-74 24 -118 85t-44 142q0 105 72 181.5t177 87.5l29 168h98l-31 -174q103 -25 147 -116l-78 -53q-36 54 -86 72zM156 316q0 -90 73 -131l51 296q-55 -14 -89.5 -59.5t-34.5 -105.5z" />
    <glyph glyph-name="sterling" unicode="&#xa3;" horiz-adv-x="548" 
d="M286 236q-5 -88 -68 -145h257l-16 -91h-452l4 25q164 93 169 211h-124l16 91h94q-3 8 -11 32t-11.5 36.5t-7 33t-3.5 38.5q0 81 56.5 142.5t157.5 61.5q83 0 140 -46t68 -144l-95 -24q-7 57 -35 87t-75 30q-56 0 -83.5 -37.5t-27.5 -84.5q0 -20 4.5 -39t15.5 -47t14 -39
h157l-16 -91h-128z" />
    <glyph glyph-name="currency" unicode="&#xa4;" horiz-adv-x="667" 
d="M608 343q0 -95 -63 -172l88 -99l-66 -61l-89 101q-63 -37 -138 -37q-88 0 -154 47l-112 -111l-60 66l110 109q-39 59 -39 131q0 93 62 171l-82 94l65 61l84 -96q62 38 139 38q90 0 156 -49l116 107l60 -66l-114 -106q37 -60 37 -128zM338 172q68 0 115 48t47 118
q0 64 -42 107t-104 43q-68 0 -114.5 -48t-46.5 -118q0 -65 41.5 -107.5t103.5 -42.5z" />
    <glyph glyph-name="yen" unicode="&#xa5;" horiz-adv-x="576" 
d="M644 660l-256 -292h164l-15 -89h-189l-13 -77h188l-15 -88h-189l-20 -114h-106l20 114h-186l15 88h187l13 77h-186l15 89h162l-152 292h111l124 -237l206 237h122z" />
    <glyph glyph-name="brokenbar" unicode="&#xa6;" horiz-adv-x="332" 
d="M226 780v-300h-88v300h88zM226 179v-300h-88v300h88z" />
    <glyph glyph-name="section" unicode="&#xa7;" horiz-adv-x="580" 
d="M431 366q107 -86 107 -163q0 -52 -36.5 -94t-103.5 -57q2 -9 2 -26q0 -62 -48 -108t-130 -46q-66 0 -111.5 31t-67.5 79l71 53q39 -71 110 -71q33 0 53.5 17.5t20.5 45.5q0 21 -13.5 40t-44.5 45l-79 68q-107 86 -107 164q0 51 37 93t103 58q-3 12 -3 25q0 62 48 108
t131 46q67 0 112.5 -31t66.5 -79l-71 -53q-39 71 -110 71q-33 0 -53.5 -17t-20.5 -45q0 -37 57 -85zM368 118q67 23 67 78q0 22 -15 42.5t-51 52.5l-87 75q-36 30 -59 62q-66 -21 -66 -77q0 -22 14.5 -43.5t50.5 -52.5l87 -75q39 -32 59 -62z" />
    <glyph glyph-name="dieresis" unicode="&#xa8;" horiz-adv-x="432" 
d="M175 739q28 0 48 -18.5t20 -46.5q0 -26 -20 -45.5t-48 -19.5q-27 0 -47.5 19.5t-20.5 45.5q0 28 20.5 46.5t47.5 18.5zM410 739q28 0 48 -18.5t20 -46.5q0 -26 -20 -45.5t-48 -19.5q-27 0 -47.5 19.5t-20.5 45.5q0 28 20 46.5t48 18.5z" />
    <glyph glyph-name="copyright" unicode="&#xa9;" horiz-adv-x="789" 
d="M427 671q139 0 235 -94.5t96 -231.5q0 -146 -108.5 -251t-255.5 -105q-139 0 -235 95t-96 232q0 146 108.5 250.5t255.5 104.5zM424 604q-118 0 -203 -84t-85 -204q0 -111 74 -185.5t187 -74.5q124 0 205.5 88t81.5 202q0 109 -74.5 183.5t-185.5 74.5zM423 518
q100 0 152 -85l-66 -48q-35 54 -91 54q-46 0 -76.5 -33.5t-30.5 -81.5q0 -44 26.5 -73.5t70.5 -29.5q51 0 90 46l56 -54q-62 -70 -151 -70q-78 0 -129.5 51t-51.5 126q0 84 59.5 141t141.5 57z" />
    <glyph glyph-name="guillemotleft" unicode="&#xab;" horiz-adv-x="549" 
d="M319 422l-166 -155l111 -153l-74 -56l-154 199l6 29l216 199zM546 422l-166 -155l111 -153l-74 -56l-154 199l5 29l217 199z" />
    <glyph glyph-name="logicalnot" unicode="&#xac;" 
d="M501 363l-47 -264h-102l31 173h-327l16 91h429z" />
    <glyph glyph-name="uni00AD" unicode="&#xad;" horiz-adv-x="340" 
d="M313 362l-16 -89h-241l16 89h241z" />
    <glyph glyph-name="registered" unicode="&#xae;" horiz-adv-x="583" 
d="M337 681q102 0 172 -70t70 -171q0 -108 -79 -185.5t-187 -77.5q-102 0 -172 70t-70 171q0 109 79.5 186t186.5 77zM316 234q89 0 146.5 63t57.5 144q0 78 -53 131t-132 53q-85 0 -145 -60t-60 -146q0 -80 52.5 -132.5t133.5 -52.5zM436 481q0 -55 -54 -79l53 -91h-72
l-45 79h-32l-14 -79h-64l44 251h98q38 0 62 -23.5t24 -57.5zM306 506l-11 -60h34q41 0 41 32q0 12 -8.5 20t-21.5 8h-34z" />
    <glyph glyph-name="degree" unicode="&#xb0;" horiz-adv-x="359" 
d="M234 670q63 0 105.5 -42t42.5 -103q0 -64 -47 -109t-112 -45q-62 0 -104.5 42.5t-42.5 103.5q0 64 46.5 108.5t111.5 44.5zM233 597q-34 0 -57 -23t-23 -56q0 -32 20.5 -53t53.5 -21q34 0 56 23t22 57q0 31 -20 52t-52 21z" />
    <glyph glyph-name="plusminus" unicode="&#xb1;" 
d="M386 546l-26 -145h168l-16 -88h-168l-26 -151h-103l27 151h-169l16 88h169l25 145h103zM472 88l-15 -88h-439l15 88h439z" />
    <glyph glyph-name="uni00B2" unicode="&#xb2;" horiz-adv-x="376" 
d="M276 482l-53 -43h148l-14 -75h-301l4 18l175 156q78 68 78 116q0 26 -15.5 41.5t-41.5 15.5q-32 0 -48 -22t-16 -57v-11h-83v15q0 61 39 106t111 45q64 0 101 -36t37 -91q0 -45 -28 -83.5t-93 -94.5z" />
    <glyph glyph-name="uni00B3" unicode="&#xb3;" horiz-adv-x="357" 
d="M406 780l-4 -23l-116 -133q35 -13 57 -44t22 -73q0 -58 -42 -104t-118 -46q-60 0 -97 29t-52 77l65 35q29 -65 84 -65q37 0 56.5 20.5t19.5 49.5q0 58 -78 58h-47l4 22l106 122h-138l14 75h264z" />
    <glyph glyph-name="uni00B5" unicode="&#xb5;" horiz-adv-x="601" 
d="M531 80q17 0 25 1l-16 -87q-20 -5 -45 -5q-74 0 -101 57q-52 -57 -134 -57q-75 0 -115 50l-37 -219h-106l117 661h105l-47 -272q-5 -20 -5 -35q0 -42 27 -67t71 -25q46 0 78.5 27t41.5 77l52 295h106l-57 -321q-5 -32 -5 -39q0 -41 45 -41z" />
    <glyph glyph-name="paragraph" unicode="&#xb6;" horiz-adv-x="650" 
d="M350 660v-433h-59q-105 0 -174 60t-69 158q0 97 68.5 156t174.5 59h59zM518 660v-674q0 -177 -182 -177q-40 0 -86 11v90q9 -1 22.5 -2t23.5 -2t19 -1q49 0 73.5 20.5t24.5 70.5v664h105z" />
    <glyph glyph-name="periodcentered" unicode="&#xb7;" horiz-adv-x="270" 
d="M149 394q33 0 55 -22t22 -55t-22 -55.5t-55 -22.5t-55.5 22t-22.5 56q0 33 22.5 55t55.5 22z" />
    <glyph glyph-name="uni00B9" unicode="&#xb9;" horiz-adv-x="361" 
d="M325 780l-60 -341h88l-13 -75h-274l14 75h102l47 266h-96l13 75h179z" />
    <glyph glyph-name="guillemotright" unicode="&#xbb;" horiz-adv-x="549" 
d="M297 287l-5 -30l-217 -199l-60 63l165 155l-111 154l75 55zM370 485l153 -198l-5 -30l-217 -199l-60 63l165 155l-111 154z" />
    <glyph glyph-name="onequarter" unicode="&#xbc;" horiz-adv-x="927" 
d="M332 319l-13 -75h-274l14 75h102l47 266h-96l13 75h179l-60 -341h88zM709 660h90l-494 -660h-89zM895 140l-13 -71h-51l-12 -69h-77l12 69h-210l4 23l175 324h92l-151 -276h102l20 116h77l-20 -116h52z" />
    <glyph glyph-name="onehalf" unicode="&#xbd;" horiz-adv-x="963" 
d="M332 319l-13 -75h-274l14 75h102l47 266h-96l13 75h179l-60 -341h88zM709 660h90l-494 -660h-89zM799 118l-53 -43h148l-14 -75h-301l4 18l175 156q78 68 78 116q0 26 -15.5 41.5t-41.5 15.5q-32 0 -48 -22t-16 -57v-11h-83v15q0 61 39 106t111 45q64 0 101 -36t37 -91
q0 -45 -28 -83.5t-93 -94.5z" />
    <glyph glyph-name="threequarters" unicode="&#xbe;" horiz-adv-x="888" 
d="M343 387q0 -58 -42 -104t-118 -46q-60 0 -97 29t-52 77l65 35q29 -65 84 -65q37 0 56.5 20.5t19.5 49.5q0 58 -78 58h-46v1l-1 -1l4 22l106 122h-138l14 75h264l-4 -23l-116 -134q34 -13 56.5 -44t22.5 -72zM670 660h90l-494 -660h-89zM856 140l-13 -71h-51l-12 -69h-77
l12 69h-210l4 23l175 324h92l-151 -276h102l20 116h77l-20 -116h52z" />
    <glyph glyph-name="multiply" unicode="&#xd7;" 
d="M175 540l127 -158l176 140l55 -69l-177 -141l127 -161l-70 -55l-127 159l-177 -142l-55 71l177 141l-127 160z" />
    <glyph glyph-name="divide" unicode="&#xf7;" 
d="M327 564q29 0 48.5 -18.5t19.5 -46.5q0 -27 -20 -46t-48 -19t-48 19t-20 46t20 46t48 19zM531 363l-16 -91h-458l16 91h458zM263 199q28 0 48 -19t20 -46t-20 -46t-48 -19q-29 0 -48.5 18.5t-19.5 46.5t19.5 46.5t48.5 18.5z" />
    <glyph glyph-name="florin" unicode="&#x192;" horiz-adv-x="447" 
d="M438 671q42 0 81 -14l-16 -85q-27 4 -52 4q-39 0 -63 -16.5t-38 -59.5l-29 -98h99l-17 -90h-109l-88 -291q-47 -154 -188 -154q-46 0 -80 14l15 85q40 -4 54 -4q75 0 99 77l82 273h-75l16 90h86l35 115q47 154 188 154z" />
    <glyph glyph-name="uni030C" unicode="&#x30c;" horiz-adv-x="0" 
d="M60 750l-81 -206h-76l46 206h111z" />
    <glyph glyph-name="dieresistonos" unicode="&#x385;" horiz-adv-x="559" 
d="M441 780l-3 -19l-80 -193h-75l37 212h121zM185 739q28 0 48 -18.5t20 -46.5q0 -26 -20 -45.5t-48 -19.5q-27 0 -47.5 19.5t-20.5 45.5q0 28 20.5 46.5t47.5 18.5zM527 739q29 0 48.5 -18.5t19.5 -46.5q0 -26 -20 -45.5t-48 -19.5q-26 0 -46.5 19.5t-20.5 45.5
q0 28 20 46.5t47 18.5z" />
    <glyph glyph-name="Alphatonos" unicode="&#x386;" horiz-adv-x="662" 
d="M225 720l-81 -206h-76l46 206h111zM491 0l-28 110h-294l-66 -110h-120l408 671h36l173 -671h-109zM440 201l-61 270l-156 -270h217z" />
    <glyph glyph-name="Epsilontonos" unicode="&#x388;" horiz-adv-x="570" 
d="M105 720l-81 -206h-76l46 206h111zM591 660l-17 -95h-328l-30 -169h246l-16 -92h-246l-36 -209h339l-16 -95h-446l116 660h434z" />
    <glyph glyph-name="Etatonos" unicode="&#x389;" horiz-adv-x="711" 
d="M105 720l-81 -206h-76l46 206h111zM701 660l-116 -660h-106l53 302h-332l-53 -302h-106l116 660h106l-45 -263h332l45 263h106z" />
    <glyph glyph-name="Iotatonos" unicode="&#x38a;" horiz-adv-x="272" 
d="M105 720l-81 -206h-76l46 206h111zM263 660l-116 -660h-106l116 660h106z" />
    <glyph glyph-name="Omicrontonos" unicode="&#x38c;" horiz-adv-x="780" 
d="M140 720l-81 -206h-76l46 206h111zM433 671q138 0 228 -90.5t90 -226.5q0 -151 -109.5 -258t-261.5 -107q-139 0 -229 90.5t-90 226.5q0 152 109.5 258.5t262.5 106.5zM425 574q-107 0 -181 -76.5t-74 -186.5q0 -98 60.5 -161.5t155.5 -63.5q107 0 181.5 77t74.5 187
q0 98 -61 161t-156 63z" />
    <glyph glyph-name="Upsilontonos" unicode="&#x38e;" horiz-adv-x="620" 
d="M-108 514l46 206h111l-81 -206h-76zM660 660l-298 -397l-46 -263h-106l47 268l-159 392h108l118 -289l213 289h123z" />
    <glyph glyph-name="Omegatonos" unicode="&#x38f;" horiz-adv-x="790" 
d="M141 720l-81 -206h-76l46 206h111zM761 365q0 -171 -157 -270h103l-17 -95h-270l16 96q110 43 162.5 112.5t52.5 151.5q0 95 -62.5 154.5t-163.5 59.5q-117 0 -184 -77.5t-67 -176.5q0 -140 141 -224l-17 -96h-280l17 95h144q-52 44 -83 103t-31 126q0 55 21.5 113.5
t63 112t112.5 87.5t159 34q146 0 243 -86.5t97 -219.5z" />
    <glyph glyph-name="iotadieresistonos" unicode="&#x390;" horiz-adv-x="298" 
d="M298 780l-3 -19l-80 -193h-75l37 212h121zM42 739q28 0 48 -18.5t20 -46.5q0 -26 -20 -45.5t-48 -19.5q-27 0 -47.5 19.5t-20.5 45.5q0 28 20.5 46.5t47.5 18.5zM384 739q29 0 48.5 -18.5t19.5 -46.5q0 -26 -20 -45.5t-48 -19.5q-26 0 -46.5 19.5t-20.5 45.5
q0 28 20 46.5t47 18.5zM222 481l-56 -314q-4 -26 -4 -36q0 -51 64 -51q6 0 15.5 0.5t10.5 0.5l-16 -87q-22 -5 -48 -5q-54 0 -94 28.5t-40 90.5q0 18 5 51l57 322h106z" />
    <glyph glyph-name="Alpha" unicode="&#x391;" horiz-adv-x="662" 
d="M491 0l-28 110h-294l-66 -110h-120l408 671h36l173 -671h-109zM440 201l-61 270l-156 -270h217z" />
    <glyph glyph-name="Beta" unicode="&#x392;" horiz-adv-x="617" 
d="M477 350q91 -48 91 -153q0 -87 -65.5 -142t-169.5 -55h-292l116 660h211q86 0 136 -46t50 -120q0 -94 -77 -144zM351 568h-106l-31 -179h122q52 0 81 27.5t29 70.5q0 38 -24.5 59.5t-70.5 21.5zM331 93q61 0 95.5 28.5t34.5 78.5q0 44 -28 71t-79 27h-156l-36 -205h169z
" />
    <glyph glyph-name="Gamma" unicode="&#x393;" horiz-adv-x="516" 
d="M565 660l-16 -95h-303l-99 -565h-106l116 660h408z" />
    <glyph glyph-name="Delta" unicode="&#x394;" horiz-adv-x="662" 
d="M427 671l173 -671h-617l407 671h37zM466 95l-89 366l-219 -366h308z" />
    <glyph glyph-name="Epsilon" unicode="&#x395;" horiz-adv-x="570" 
d="M591 660l-17 -95h-328l-30 -169h246l-16 -92h-246l-36 -209h339l-16 -95h-446l116 660h434z" />
    <glyph glyph-name="Zeta" unicode="&#x396;" horiz-adv-x="588" 
d="M631 660l-6 -29l-456 -536h363l-16 -95h-532l5 29l454 536h-316l16 95h488z" />
    <glyph glyph-name="Eta" unicode="&#x397;" horiz-adv-x="711" 
d="M701 660l-116 -660h-106l53 302h-332l-53 -302h-106l116 660h106l-45 -263h332l45 263h106z" />
    <glyph glyph-name="Theta" unicode="&#x398;" horiz-adv-x="780" 
d="M433 671q138 0 228 -90.5t90 -226.5q0 -151 -109.5 -258t-261.5 -107q-139 0 -229 90.5t-90 226.5q0 152 109.5 258.5t262.5 106.5zM425 574q-107 0 -181 -76.5t-74 -187.5q0 -98 60.5 -161t155.5 -63q106 0 180.5 77.5t74.5 187.5q0 97 -60.5 160t-155.5 63zM543 382
l-15 -89h-259l15 89h259z" />
    <glyph glyph-name="Iota" unicode="&#x399;" horiz-adv-x="272" 
d="M263 660l-116 -660h-106l116 660h106z" />
    <glyph glyph-name="Kappa" unicode="&#x39a;" horiz-adv-x="650" 
d="M157 660h106l-116 -660h-106zM675 660l-333 -319l247 -341h-122l-255 351l323 309h140z" />
    <glyph glyph-name="Lambda" unicode="&#x39b;" horiz-adv-x="662" 
d="M600 0h-110l-114 464l-274 -464h-119l407 671h37z" />
    <glyph glyph-name="Mu" unicode="&#x39c;" horiz-adv-x="793" 
d="M750 671h36l-118 -671h-106l71 405l-223 -239h-36l-152 259l-75 -425h-106l118 671h37l212 -369l341 367z" />
    <glyph glyph-name="Nu" unicode="&#x39d;" horiz-adv-x="711" 
d="M595 660h106l-118 -671h-36l-320 465l-80 -454h-106l118 671h37l320 -463z" />
    <glyph glyph-name="Xi" unicode="&#x39e;" horiz-adv-x="558" 
d="M590 660l-16 -95h-476l17 95h475zM532 396l-16 -92h-452l16 92h452zM491 95l-16 -95h-476l16 95h476z" />
    <glyph glyph-name="Omicron" unicode="&#x39f;" horiz-adv-x="780" 
d="M433 671q138 0 228 -90.5t90 -226.5q0 -151 -109.5 -258t-261.5 -107q-139 0 -229 90.5t-90 226.5q0 152 109.5 258.5t262.5 106.5zM425 574q-107 0 -181 -76.5t-74 -186.5q0 -98 60.5 -161.5t155.5 -63.5q107 0 181.5 77t74.5 187q0 98 -61 161t-156 63z" />
    <glyph glyph-name="Pi" unicode="&#x3a0;" horiz-adv-x="686" 
d="M676 660l-116 -660h-106l100 565h-308l-99 -565h-106l116 660h519z" />
    <glyph glyph-name="Rho" unicode="&#x3a1;" horiz-adv-x="588" 
d="M373 660q102 0 159.5 -51.5t57.5 -137.5q0 -96 -71 -156t-186 -60h-141l-45 -255h-106l116 660h216zM348 349q64 0 98.5 32t34.5 85q0 47 -28.5 73.5t-83.5 26.5h-122l-39 -217h140z" />
    <glyph glyph-name="Sigma" unicode="&#x3a3;" horiz-adv-x="556" 
d="M577 660l-17 -95h-298l125 -214l-5 -24l-194 -232h301l-16 -95h-481l4 24l270 327l-162 285l4 24h469z" />
    <glyph glyph-name="Tau" unicode="&#x3a4;" horiz-adv-x="587" 
d="M643 660l-17 -95h-222l-100 -565h-106l100 565h-222l17 95h550z" />
    <glyph glyph-name="Upsilon" unicode="&#x3a5;" horiz-adv-x="620" 
d="M660 660l-298 -397l-46 -263h-106l47 268l-159 392h108l118 -289l213 289h123z" />
    <glyph glyph-name="Phi" unicode="&#x3a6;" horiz-adv-x="821" 
d="M530 609q116 -6 189.5 -74.5t73.5 -178.5q0 -124 -93.5 -211.5t-257.5 -86.5h-9l-16 -89h-106l16 90q-116 5 -191 74t-75 179q0 123 94 210.5t258 86.5h11l14 83h106zM167 318q0 -77 48 -120t128 -47l64 365h-8q-102 0 -167 -53.5t-65 -144.5zM455 151q102 0 167 54
t65 144q0 77 -47.5 120t-126.5 47l-64 -365h6z" />
    <glyph glyph-name="Chi" unicode="&#x3a7;" horiz-adv-x="601" 
d="M641 660l-261 -333l160 -327h-113l-121 250l-198 -250h-130l280 347l-150 313h113l110 -236l180 236h130z" />
    <glyph glyph-name="Psi" unicode="&#x3a8;" horiz-adv-x="825" 
d="M835 660l-47 -265q-43 -246 -339 -246l-26 -149h-106l26 149q-113 0 -182.5 58.5t-69.5 159.5q0 29 5 56l42 237h106l-41 -236q-4 -20 -4 -42q0 -68 43.5 -103t116.5 -35l78 438h106l-77 -438q190 0 218 166l45 250h106z" />
    <glyph glyph-name="Omega" unicode="&#x3a9;" horiz-adv-x="790" 
d="M761 365q0 -171 -157 -270h103l-17 -95h-270l16 96q110 43 162.5 112.5t52.5 151.5q0 95 -62.5 154.5t-163.5 59.5q-117 0 -184 -77.5t-67 -176.5q0 -140 141 -224l-17 -96h-280l17 95h144q-52 44 -83 103t-31 126q0 55 21.5 113.5t63 112t112.5 87.5t159 34
q146 0 243 -86.5t97 -219.5z" />
    <glyph glyph-name="Iotadieresis" unicode="&#x3aa;" horiz-adv-x="272" 
d="M114 877q29 0 48.5 -18.5t19.5 -46.5q0 -26 -20 -45.5t-48 -19.5q-26 0 -46.5 19.5t-20.5 45.5q0 27 20 46t47 19zM362 877q28 0 48 -19t20 -47q0 -26 -20 -45.5t-48 -19.5q-27 0 -47.5 19.5t-20.5 45.5q0 27 20.5 46.5t47.5 19.5zM263 660l-116 -660h-106l116 660h106z
" />
    <glyph glyph-name="Upsilondieresis" unicode="&#x3ab;" horiz-adv-x="620" 
d="M271 747q-26 0 -46.5 19.5t-20.5 45.5q0 27 20 46t47 19q29 0 48.5 -18.5t19.5 -46.5q0 -26 -20 -45.5t-48 -19.5zM519 746q-27 0 -47.5 19.5t-20.5 45.5q0 27 20.5 46.5t47.5 19.5q28 0 48 -19t20 -47q0 -26 -20 -45.5t-48 -19.5zM660 660l-298 -397l-46 -263h-106
l47 268l-159 392h108l118 -289l213 289h123z" />
    <glyph glyph-name="alphatonos" unicode="&#x3ac;" horiz-adv-x="649" 
d="M478 761l-81 -193h-79l37 212h126zM534 121q0 -41 45 -41q17 0 25 1l-15 -87q-20 -5 -46 -5q-85 0 -106 70q-65 -70 -170 -70q-102 0 -163 66.5t-61 161.5q0 105 70.5 190.5t192.5 85.5q64 0 110 -25.5t69 -66.5l19 79h101q-31 -121 -49 -224l-16 -93q-6 -34 -6 -42z
M291 84q73 0 117 54t44 121q0 62 -39.5 100t-98.5 38q-69 0 -116 -50t-47 -118q-1 -61 37.5 -103t102.5 -42z" />
    <glyph glyph-name="epsilontonos" unicode="&#x3ad;" horiz-adv-x="503" 
d="M419 761l-81 -193h-79l37 212h126zM246 81q48 0 79.5 13.5t63.5 41.5l52 -70q-79 -77 -206 -77q-86 0 -142 37t-56 105q0 44 26.5 77.5t72.5 49.5q-42 39 -42 95q0 61 52 100.5t142 39.5q134 0 195 -85l-64 -60q-41 52 -135 52q-86 0 -86 -53q0 -24 18 -39.5t51 -15.5h86
l-13 -83h-93q-104 0 -104 -63q0 -31 28 -48t75 -17z" />
    <glyph glyph-name="etatonos" unicode="&#x3ae;" horiz-adv-x="596" 
d="M468 761l-81 -193h-79l37 212h126zM366 493q79 0 125.5 -45t46.5 -118q0 -22 -6 -55l-80 -455h-106l80 450q5 23 5 42q0 41 -25.5 64t-69.5 23q-47 0 -81 -27t-42 -76l-53 -296h-105l56 318q5 23 5 38q0 45 -46 45q-9 0 -25 -2l15 88q20 5 45 5q79 0 105 -61
q65 62 156 62z" />
    <glyph glyph-name="iotatonos" unicode="&#x3af;" horiz-adv-x="298" 
d="M295 780l-3 -19l-81 -193h-79l37 212h126zM222 481l-56 -314q-4 -26 -4 -36q0 -51 64 -51q6 0 15.5 0.5t10.5 0.5l-16 -87q-22 -5 -48 -5q-54 0 -94 28.5t-40 90.5q0 18 5 51l57 322h106z" />
    <glyph glyph-name="upsilondieresistonos" unicode="&#x3b0;" horiz-adv-x="565" 
d="M443 780l-3 -19l-80 -193h-75l37 212h121zM187 739q28 0 48 -18.5t20 -46.5q0 -26 -20 -45.5t-48 -19.5q-27 0 -47.5 19.5t-20.5 45.5q0 28 20.5 46.5t47.5 18.5zM529 739q29 0 48.5 -18.5t19.5 -46.5q0 -26 -20 -45.5t-48 -19.5q-26 0 -46.5 19.5t-20.5 45.5
q0 28 20 46.5t47 18.5zM505 481q12 -67 12 -141q0 -69 -13.5 -128.5t-42 -111t-79.5 -81.5t-119 -30q-91 0 -145.5 50.5t-54.5 131.5q0 21 5 48l45 262h105l-48 -275q-3 -15 -3 -27q0 -43 28.5 -68.5t72.5 -25.5q52 0 85 41t45 98.5t12 130.5q0 46 -8 126h103z" />
    <glyph glyph-name="alpha" unicode="&#x3b1;" horiz-adv-x="649" 
d="M534 121q0 -41 45 -41q17 0 25 1l-15 -87q-20 -5 -46 -5q-85 0 -106 70q-65 -70 -170 -70q-102 0 -163 66.5t-61 161.5q0 105 70.5 190.5t192.5 85.5q64 0 110 -25.5t69 -66.5l19 79h101q-31 -121 -49 -224l-16 -93q-6 -34 -6 -42zM291 84q73 0 117 54t44 121
q0 62 -39.5 100t-98.5 38q-69 0 -116 -50t-47 -118q-1 -61 37.5 -103t102.5 -42z" />
    <glyph glyph-name="beta" unicode="&#x3b2;" horiz-adv-x="615" 
d="M465 418q105 -66 105 -176q0 -43 -15.5 -85.5t-45.5 -81t-83 -62.5t-119 -24q-43 0 -82.5 10.5t-75 32.5t-56.5 63t-21 95q0 24 5 57l54 304q19 102 79.5 156t150.5 54q79 0 136 -43t57 -129q0 -98 -89 -171zM354 665q-45 0 -76.5 -28t-42.5 -88l-29 -164
q127 47 184.5 90t57.5 102q0 42 -26 65t-68 23zM308 85q54 0 91 26t50.5 58.5t13.5 67.5q0 74 -78 128q-77 -42 -197 -82l-7 -42q-4 -19 -4 -36q0 -59 36 -89.5t95 -30.5z" />
    <glyph glyph-name="gamma" unicode="&#x3b3;" horiz-adv-x="546" 
d="M562 481l-275 -420l-43 -241h-105l43 240l-129 421h107l90 -315l195 315h117z" />
    <glyph glyph-name="delta" unicode="&#x3b4;" horiz-adv-x="610" 
d="M626 750l-16 -90h-284l171 -224q70 -92 70 -179q0 -103 -76.5 -185.5t-196.5 -82.5q-109 0 -179 69t-70 173q0 112 80.5 187t191.5 75h7l-171 227l5 30h468zM295 85q68 0 116 48t48 116q0 63 -41 105.5t-104 42.5q-68 0 -114.5 -48.5t-46.5 -117.5q0 -64 40 -105t102 -41
z" />
    <glyph glyph-name="epsilon" unicode="&#x3b5;" horiz-adv-x="503" 
d="M246 81q48 0 79.5 13.5t63.5 41.5l52 -70q-79 -77 -206 -77q-86 0 -142 37t-56 105q0 44 26.5 77.5t72.5 49.5q-42 39 -42 95q0 61 52 100.5t142 39.5q134 0 195 -85l-64 -60q-41 52 -135 52q-86 0 -86 -53q0 -24 18 -39.5t51 -15.5h86l-13 -83h-93q-104 0 -104 -63
q0 -31 28 -48t75 -17z" />
    <glyph glyph-name="zeta" unicode="&#x3b6;" horiz-adv-x="515" 
d="M579 721l-340 -345q-50 -51 -71 -85.5t-21 -69.5q0 -80 110 -119l60 -21q132 -46 132 -139q0 -52 -39 -122h-104q34 60 34 97q0 52 -78 78l-63 22q-160 56 -160 188q0 103 128 232l220 223h-238l15 90h420z" />
    <glyph glyph-name="eta" unicode="&#x3b7;" horiz-adv-x="596" 
d="M366 493q79 0 125.5 -45t46.5 -118q0 -22 -6 -55l-80 -455h-106l80 450q5 23 5 42q0 41 -25.5 64t-69.5 23q-47 0 -81 -27t-42 -76l-53 -296h-105l56 318q5 23 5 38q0 45 -46 45q-9 0 -25 -2l15 88q20 5 45 5q79 0 105 -61q65 62 156 62z" />
    <glyph glyph-name="theta" unicode="&#x3b8;" horiz-adv-x="629" 
d="M377 761q98 0 160 -64.5t62 -211.5q0 -59 -10 -123.5t-33.5 -132t-58 -120t-88.5 -86.5t-119 -34q-39 0 -75 12t-70 39t-54.5 80t-20.5 125q0 39 10 101h103q-6 -51 -6 -89q0 -83 30 -127.5t85 -44.5q63 0 106 54.5t67 141.5q-155 62 -229 127.5t-74 150.5
q0 35 12.5 69.5t36.5 65t67.5 49t98.5 18.5zM267 566q0 -57 54.5 -100.5t163.5 -86.5q7 53 7 105q0 92 -28.5 136.5t-88.5 44.5q-51 0 -79.5 -28.5t-28.5 -70.5z" />
    <glyph glyph-name="iota" unicode="&#x3b9;" horiz-adv-x="298" 
d="M222 481l-56 -314q-4 -26 -4 -36q0 -51 64 -51q6 0 15.5 0.5t10.5 0.5l-16 -87q-22 -5 -48 -5q-54 0 -94 28.5t-40 90.5q0 18 5 51l57 322h106z" />
    <glyph glyph-name="kappa" unicode="&#x3ba;" horiz-adv-x="531" 
d="M119 481h105l-85 -481h-105zM548 481l-236 -225l168 -256h-119l-170 265l223 216h134z" />
    <glyph glyph-name="lambda" unicode="&#x3bb;" 
d="M505 81h16l-14 -86q-17 -5 -39 -5q-92 0 -109 107l-44 267l-217 -364h-118l307 503l-14 76q-15 87 -107 87h-32l16 91q28 4 49 4q146 0 175 -158l84 -474q5 -27 16 -37.5t31 -10.5z" />
    <glyph glyph-name="mu" unicode="&#x3bc;" horiz-adv-x="601" 
d="M531 80q17 0 25 1l-16 -87q-20 -5 -45 -5q-74 0 -101 57q-52 -57 -134 -57q-75 0 -115 50l-37 -219h-106l117 661h105l-47 -272q-5 -20 -5 -35q0 -42 27 -67t71 -25q46 0 78.5 27t41.5 77l52 295h106l-57 -321q-5 -32 -5 -39q0 -41 45 -41z" />
    <glyph glyph-name="nu" unicode="&#x3bd;" horiz-adv-x="547" 
d="M444 481h119l-323 -492h-37l-150 492h106l88 -313z" />
    <glyph glyph-name="xi" unicode="&#x3be;" horiz-adv-x="527" 
d="M370 761q75 0 127.5 -32t76.5 -88l-81 -50q-39 75 -120 75q-53 0 -89 -33t-36 -84q0 -45 29 -73.5t83 -28.5h94l-16 -91h-117q-81 0 -122 -40.5t-41 -96.5q0 -14 2.5 -26t9 -22.5t12 -18t18 -15.5t19.5 -13t23.5 -11.5t24 -9.5t27 -10t26.5 -9q72 -26 106.5 -56.5
t34.5 -86.5q0 -54 -39 -121h-104q35 63 35 96q0 23 -13.5 39.5t-29 23.5t-50.5 20q-38 13 -60 22t-54.5 27.5t-50.5 38t-31.5 51t-13.5 69.5q0 68 39.5 127.5t116.5 84.5q-66 53 -66 137q0 78 60.5 141.5t169.5 63.5z" />
    <glyph glyph-name="omicron" unicode="&#x3bf;" horiz-adv-x="610" 
d="M318 493q106 0 177.5 -69.5t71.5 -171.5q0 -110 -82 -186.5t-195 -76.5q-105 0 -175.5 68.5t-70.5 170.5q0 111 81.5 188t192.5 77zM314 397q-67 0 -114.5 -49t-47.5 -119q-1 -63 39.5 -103.5t102.5 -40.5q68 0 116 47.5t49 116.5q1 64 -41 106t-104 42z" />
    <glyph glyph-name="pi" unicode="&#x3c0;" horiz-adv-x="593" 
d="M487 -11q-53 0 -85 26.5t-32 76.5q0 24 7 64l42 235h-211l-69 -391h-105l85 481h421l-57 -321q-5 -32 -5 -39q0 -41 45 -41q17 0 25 1l-16 -87q-20 -5 -45 -5z" />
    <glyph glyph-name="rho" unicode="&#x3c1;" horiz-adv-x="617" 
d="M332 493q108 0 175 -66.5t67 -166.5q0 -104 -69 -188t-187 -84t-173 85l-44 -253h-105l76 431q20 114 88.5 178t171.5 64zM466 253q0 62 -37 103t-100 41q-71 0 -113 -52t-43 -119q0 -63 39 -102.5t98 -39.5q67 0 111.5 50t44.5 119z" />
    <glyph glyph-name="uni03C2" unicode="&#x3c2;" horiz-adv-x="529" 
d="M285 -180q34 64 34 95q0 32 -20 48.5t-68 34.5q-35 13 -55 22t-48.5 28t-44 40t-27.5 55t-12 76q0 122 79 197.5t193 75.5q73 0 128.5 -33.5t83.5 -88.5l-79 -53q-52 80 -137 80q-68 0 -114 -45.5t-46 -119.5q0 -36 10.5 -61.5t34 -42.5t42 -25.5t52.5 -20.5t54.5 -21.5
t41.5 -26t30.5 -39.5t9.5 -54q0 -55 -38 -121h-104z" />
    <glyph glyph-name="sigma" unicode="&#x3c3;" horiz-adv-x="630" 
d="M656 481l-15 -89h-152q70 -55 70 -149q0 -105 -81.5 -179.5t-193.5 -74.5q-105 0 -172.5 67t-67.5 168q0 111 82 184t209 73h321zM451 249q0 63 -38.5 101.5t-100.5 38.5q-68 0 -114 -46t-46 -116q-1 -63 37 -102.5t100 -39.5q68 0 114.5 47t47.5 117z" />
    <glyph glyph-name="tau" unicode="&#x3c4;" horiz-adv-x="463" 
d="M272 391l-36 -203q-3 -18 -3 -31q0 -76 113 -76q22 0 60 2l-16 -89q-35 -5 -77 -5q-81 0 -134 35.5t-53 114.5q0 25 5 49l35 203h-128l16 90h411l-15 -90h-178z" />
    <glyph glyph-name="upsilon" unicode="&#x3c5;" horiz-adv-x="565" 
d="M505 481q12 -67 12 -141q0 -69 -13.5 -128.5t-42 -111t-79.5 -81.5t-119 -30q-91 0 -145.5 50.5t-54.5 131.5q0 21 5 48l45 262h105l-48 -275q-3 -15 -3 -27q0 -43 28.5 -68.5t72.5 -25.5q52 0 85 41t45 98.5t12 130.5q0 46 -8 126h103z" />
    <glyph glyph-name="phi" unicode="&#x3c6;" horiz-adv-x="763" 
d="M725 294q0 -56 -19 -108t-57 -97t-105 -72.5t-155 -27.5l-30 -169h-105l30 169q-103 2 -172 62t-69 164q0 99 63 178t188 99l15 -94q-81 -18 -119.5 -66t-38.5 -108q0 -66 43 -102.5t106 -38.5l39 218q17 96 70.5 144t132.5 48q85 0 134 -53t49 -146zM406 82
q57 1 99.5 20t66 50.5t34.5 66.5t11 73q0 104 -80 104q-77 0 -94 -100z" />
    <glyph glyph-name="chi" unicode="&#x3c7;" horiz-adv-x="528" 
d="M377 -47q11 -29 24 -39.5t37 -10.5h17l-15 -87q-20 -4 -38 -4q-80 0 -111 88l-57 168l-175 -248h-123l257 349l-62 181q-16 44 -57 44q-17 0 -27 -1l16 92q21 3 42 3q85 0 111 -82l49 -152l161 227h123l-242 -327z" />
    <glyph glyph-name="psi" unicode="&#x3c8;" horiz-adv-x="801" 
d="M529 660l-101 -575q117 0 169 76t52 199q0 51 -7 121h102q12 -74 12 -137q0 -72 -19 -134t-58 -112.5t-108 -79.5t-160 -29l-30 -169h-105l30 169q-104 0 -171.5 56t-67.5 147q0 24 5 54l41 235h105l-40 -224q-5 -28 -5 -47q0 -59 42.5 -92t107.5 -33l101 575h105z" />
    <glyph glyph-name="omega" unicode="&#x3c9;" horiz-adv-x="841" 
d="M629 489q76 -25 123 -80.5t47 -138.5q0 -65 -25.5 -127t-83 -108t-134.5 -46q-105 0 -154 73q-57 -73 -158 -73q-89 0 -146.5 55.5t-57.5 156.5q0 104 65 186t195 102l12 -94q-83 -19 -123.5 -70t-40.5 -118q0 -60 30 -91t74 -31q43 0 72.5 29t38.5 81l29 166h102
l-26 -146q-5 -37 -5 -44q0 -40 24 -63t64 -23q65 0 102.5 55.5t37.5 121.5q0 97 -103 140z" />
    <glyph glyph-name="iotadieresis" unicode="&#x3ca;" horiz-adv-x="298" 
d="M97 740q28 0 48 -19t20 -46t-20 -46t-48 -19q-27 0 -47.5 19t-20.5 46t20.5 46t47.5 19zM303 740q29 0 48.5 -18.5t19.5 -46.5q0 -27 -20 -46t-48 -19q-27 0 -47 19t-20 46t20 46t47 19zM222 481l-56 -314q-4 -26 -4 -36q0 -51 64 -51q6 0 15.5 0.5t10.5 0.5l-16 -87
q-22 -5 -48 -5q-54 0 -94 28.5t-40 90.5q0 18 5 51l57 322h106z" />
    <glyph glyph-name="upsilondieresis" unicode="&#x3cb;" horiz-adv-x="565" 
d="M236 739q28 0 48 -18.5t20 -46.5q0 -26 -20 -45.5t-48 -19.5q-27 0 -47.5 19.5t-20.5 45.5q0 28 20.5 46.5t47.5 18.5zM471 739q28 0 48 -18.5t20 -46.5q0 -26 -20 -45.5t-48 -19.5q-27 0 -47.5 19.5t-20.5 45.5q0 28 20 46.5t48 18.5zM505 481q12 -67 12 -141
q0 -69 -13.5 -128.5t-42 -111t-79.5 -81.5t-119 -30q-91 0 -145.5 50.5t-54.5 131.5q0 21 5 48l45 262h105l-48 -275q-3 -15 -3 -27q0 -43 28.5 -68.5t72.5 -25.5q52 0 85 41t45 98.5t12 130.5q0 46 -8 126h103z" />
    <glyph glyph-name="omicrontonos" unicode="&#x3cc;" horiz-adv-x="610" 
d="M470 780l-3 -19l-81 -193h-79l37 212h126zM318 493q106 0 177.5 -69.5t71.5 -171.5q0 -110 -82 -186.5t-195 -76.5q-105 0 -175.5 68.5t-70.5 170.5q0 111 81.5 188t192.5 77zM314 397q-67 0 -114.5 -49t-47.5 -119q-1 -63 39.5 -103.5t102.5 -40.5q68 0 116 47.5
t49 116.5q1 64 -41 106t-104 42z" />
    <glyph glyph-name="upsilontonos" unicode="&#x3cd;" horiz-adv-x="565" 
d="M440 780l-3 -19l-81 -193h-79l37 212h126zM505 481q12 -67 12 -141q0 -69 -13.5 -128.5t-42 -111t-79.5 -81.5t-119 -30q-91 0 -145.5 50.5t-54.5 131.5q0 21 5 48l45 262h105l-48 -275q-3 -15 -3 -27q0 -43 28.5 -68.5t72.5 -25.5q52 0 85 41t45 98.5t12 130.5
q0 46 -8 126h103z" />
    <glyph glyph-name="omegatonos" unicode="&#x3ce;" horiz-adv-x="841" 
d="M587 761l-81 -193h-79l37 212h126zM629 489q76 -25 123 -80.5t47 -138.5q0 -65 -25.5 -127t-83 -108t-134.5 -46q-105 0 -154 73q-57 -73 -158 -73q-89 0 -146.5 55.5t-57.5 156.5q0 104 65 186t195 102l12 -94q-83 -19 -123.5 -70t-40.5 -118q0 -60 30 -91t74 -31
q43 0 72.5 29t38.5 81l29 166h102l-26 -146q-5 -37 -5 -44q0 -40 24 -63t64 -23q65 0 102.5 55.5t37.5 121.5q0 97 -103 140z" />
    <glyph glyph-name="uni2009" unicode="&#x2009;" horiz-adv-x="147" 
 />
    <glyph glyph-name="endash" unicode="&#x2013;" horiz-adv-x="500" 
d="M482 362l-16 -89h-421l16 89h421z" />
    <glyph glyph-name="emdash" unicode="&#x2014;" horiz-adv-x="1000" 
d="M973 362l-17 -89h-900l17 89h900z" />
    <glyph glyph-name="uni2015" unicode="&#x2015;" horiz-adv-x="1000" 
d="M973 362l-17 -89h-900l17 89h900z" />
    <glyph glyph-name="quoteleft" unicode="&#x2018;" horiz-adv-x="291" 
d="M276 660l-56 -268h-122l95 268h83z" />
    <glyph glyph-name="quoteright" unicode="&#x2019;" horiz-adv-x="291" 
d="M294 660l-94 -268h-84l56 268h122z" />
    <glyph glyph-name="quotesinglbase" unicode="&#x201a;" horiz-adv-x="291" 
d="M197 106l-95 -267h-84l56 267h123z" />
    <glyph glyph-name="quotedblleft" unicode="&#x201c;" horiz-adv-x="502" 
d="M276 660l-56 -268h-122l95 268h83zM487 660l-56 -268h-122l94 268h84z" />
    <glyph glyph-name="quotedblright" unicode="&#x201d;" horiz-adv-x="502" 
d="M294 660l-94 -268h-84l56 268h122zM505 660l-95 -268h-83l56 268h122z" />
    <glyph glyph-name="quotedblbase" unicode="&#x201e;" horiz-adv-x="501" 
d="M197 106l-95 -267h-84l56 267h123zM406 106l-95 -267h-84l56 267h123z" />
    <glyph glyph-name="dagger" unicode="&#x2020;" horiz-adv-x="469" 
d="M376 750l-24 -139h126l-15 -90h-126l-42 -234h-105l42 234h-127l16 90h126l24 139h105z" />
    <glyph glyph-name="daggerdbl" unicode="&#x2021;" horiz-adv-x="467" 
d="M376 750l-19 -109h126l-16 -90h-126l-23 -133h126l-16 -90h-127l-19 -110h-105l20 110h-126l15 90h126l24 133h-126l15 90h126l20 109h105z" />
    <glyph glyph-name="bullet" unicode="&#x2022;" horiz-adv-x="402" 
d="M207 413q60 0 103 -41t43 -103q0 -61 -43 -102t-103 -41t-104 41t-44 102q0 62 43.5 103t104.5 41z" />
    <glyph glyph-name="ellipsis" unicode="&#x2026;" horiz-adv-x="776" 
d="M358 144q33 0 55.5 -22t22.5 -56q0 -33 -22.5 -55t-55.5 -22t-55.5 22t-22.5 55q0 34 22.5 56t55.5 22zM611 144q33 0 55 -22t22 -56q0 -33 -22 -55t-55 -22t-55.5 22t-22.5 55q0 34 22.5 56t55.5 22zM105 144q33 0 55 -22t22 -56q0 -33 -22 -55t-55 -22t-55.5 22
t-22.5 55q0 34 22.5 56t55.5 22z" />
    <glyph glyph-name="perthousand" unicode="&#x2030;" horiz-adv-x="1206" 
d="M266 670q67 0 112 -45.5t45 -110.5q0 -70 -50 -119t-120 -49q-67 0 -112 46.5t-45 111.5q0 69 49.5 117.5t120.5 48.5zM735 660l-526 -660h-88l524 660h90zM264 596q-38 0 -62.5 -26t-24.5 -65q0 -37 22 -60.5t58 -23.5q38 0 61.5 26t23.5 65q0 36 -21 60t-57 24z
M985 314q68 0 113 -45.5t45 -110.5q0 -70 -50 -119t-120 -49q-67 0 -112 46.5t-45 111.5q0 69 49.5 117.5t119.5 48.5zM600 314q67 0 112.5 -46t45.5 -111q0 -70 -50 -118.5t-121 -48.5q-67 0 -112 46t-45 111q0 69 50 118t120 49zM984 240q-38 0 -62.5 -26t-24.5 -65
q0 -37 22 -60.5t58 -23.5q38 0 61.5 26t23.5 65q0 36 -21 60t-57 24zM598 239q-38 0 -62 -26t-24 -64q0 -37 22 -61t58 -24q38 0 61 26t23 65q0 36 -21 60t-57 24z" />
    <glyph glyph-name="minute" unicode="&#x2032;" horiz-adv-x="267" 
d="M302 660l-127 -278h-82l85 278h124z" />
    <glyph glyph-name="second" unicode="&#x2033;" horiz-adv-x="477" 
d="M302 660l-127 -278h-82l85 278h124zM512 660l-127 -278h-82l85 278h124z" />
    <glyph glyph-name="guilsinglleft" unicode="&#x2039;" horiz-adv-x="322" 
d="M319 422l-166 -155l111 -153l-74 -56l-154 199l6 29l216 199z" />
    <glyph glyph-name="guilsinglright" unicode="&#x203a;" horiz-adv-x="323" 
d="M144 485l153 -198l-5 -30l-217 -199l-60 63l165 155l-111 154z" />
    <glyph glyph-name="fraction" unicode="&#x2044;" horiz-adv-x="261" 
d="M438 660l-494 -660h-89l493 660h90z" />
    <glyph glyph-name="uni2070" unicode="&#x2070;" horiz-adv-x="415" 
d="M298 787q68 0 101.5 -42t33.5 -116q0 -41 -10 -85t-31.5 -87.5t-62.5 -71.5t-94 -28q-68 0 -102 42.5t-34 117.5q0 41 10.5 84.5t31.5 86.5t62 71t95 28zM287 711q-29 0 -50 -20.5t-32 -52t-16 -61.5t-5 -57q0 -87 61 -87q29 0 51 21t33 53.5t16 62.5t5 56q0 85 -63 85z
" />
    <glyph glyph-name="uni2074" unicode="&#x2074;" horiz-adv-x="365" 
d="M397 504l-13 -71h-51l-12 -69h-77l12 69h-210l4 23l175 324h92l-151 -276h102l20 116h77l-20 -116h52z" />
    <glyph glyph-name="uni2075" unicode="&#x2075;" horiz-adv-x="367" 
d="M386 705h-158l-13 -76q15 3 31 3q55 0 92.5 -32.5t37.5 -89.5q0 -61 -43.5 -107t-118.5 -46q-59 0 -98.5 29.5t-54.5 76.5l66 35q27 -65 88 -65q36 0 56.5 20.5t20.5 49.5q0 58 -77 58h-92l38 219h238z" />
    <glyph glyph-name="uni2076" unicode="&#x2076;" horiz-adv-x="373" 
d="M262 646q50 -2 86 -39.5t36 -95.5q0 -66 -47.5 -109.5t-110.5 -43.5q-60 0 -102.5 40t-42.5 102q0 37 16.5 66.5t54.5 74.5l119 139h106zM229 434q30 0 51 21t21 53q0 30 -17.5 48.5t-45.5 18.5q-31 0 -52 -21.5t-21 -52.5q0 -29 18 -48t46 -19z" />
    <glyph glyph-name="uni2077" unicode="&#x2077;" horiz-adv-x="336" 
d="M126 780h287l-4 -23l-251 -393h-97l223 341h-172z" />
    <glyph glyph-name="uni2078" unicode="&#x2078;" horiz-adv-x="385" 
d="M327 572q61 -35 61 -89q0 -47 -39 -85.5t-112 -38.5q-60 0 -108 27.5t-48 85.5q0 40 26 71t76 45q-45 33 -45 82q0 46 36 81.5t101 35.5q55 0 94.5 -26.5t39.5 -78.5q0 -73 -82 -110zM274 722q-26 0 -42.5 -15t-16.5 -37q0 -16 10.5 -27.5t35.5 -27.5q72 23 72 59
q0 21 -17 34.5t-42 13.5zM233 425q36 0 54.5 17t18.5 40q0 20 -13.5 33.5t-42.5 29.5q-46 -12 -66.5 -27.5t-20.5 -38.5q0 -25 18.5 -39.5t51.5 -14.5z" />
    <glyph glyph-name="uni2079" unicode="&#x2079;" horiz-adv-x="373" 
d="M265 786q59 0 102 -40t43 -102q0 -37 -16.5 -66.5t-54.5 -74.5l-119 -139h-105l114 134q-50 2 -86 39.5t-36 95.5q0 66 47.5 109.5t110.5 43.5zM253 570q31 0 52.5 21t21.5 52q0 29 -18.5 48t-46.5 19q-30 0 -51 -21t-21 -53q0 -30 17.5 -48t45.5 -18z" />
    <glyph glyph-name="uni207A" unicode="&#x207a;" horiz-adv-x="427" 
d="M332 748l-25 -139h135l-13 -73h-135l-24 -139h-81l25 139h-135l13 73h135l24 139h81z" />
    <glyph glyph-name="uni207B" unicode="&#x207b;" horiz-adv-x="427" 
d="M453 606l-12 -68h-350l12 68h350z" />
    <glyph glyph-name="uni207C" unicode="&#x207c;" horiz-adv-x="427" 
d="M461 689l-13 -72h-336l13 72h336zM432 529l-13 -73h-336l13 73h336z" />
    <glyph glyph-name="uni207D" unicode="&#x207d;" horiz-adv-x="268" 
d="M335 902l23 -52q-90 -44 -133.5 -144.5t-43.5 -212.5q0 -140 77 -206l-38 -45q-111 72 -111 251q0 83 23 163.5t76 150t127 95.5z" />
    <glyph glyph-name="uni207E" unicode="&#x207e;" horiz-adv-x="267" 
d="M166 903q111 -72 111 -251q0 -83 -23 -163.5t-76 -150t-127 -95.5l-23 52q90 44 133.5 144.5t43.5 212.5q0 140 -78 206z" />
    <glyph glyph-name="uni2080" unicode="&#x2080;" horiz-adv-x="415" 
d="M213 303q68 0 101.5 -42t33.5 -116q0 -41 -10 -85t-31.5 -87.5t-62.5 -71.5t-94 -28q-68 0 -102 42.5t-34 117.5q0 41 10.5 84.5t31.5 86.5t62 71t95 28zM202 227q-29 0 -50 -20.5t-32 -52t-16 -61.5t-5 -57q0 -87 61 -87q29 0 51 21t33 53.5t16 62.5t5 56q0 85 -63 85z
" />
    <glyph glyph-name="uni2081" unicode="&#x2081;" horiz-adv-x="361" 
d="M240 296l-60 -341h88l-13 -75h-274l14 75h102l47 266h-96l13 75h179z" />
    <glyph glyph-name="uni2082" unicode="&#x2082;" horiz-adv-x="376" 
d="M191 -2l-53 -43h148l-14 -75h-301l4 18l175 156q78 68 78 116q0 26 -15.5 41.5t-41.5 15.5q-32 0 -48 -22t-16 -57v-11h-83v15q0 61 39 106t111 45q64 0 101 -36t37 -91q0 -45 -28 -83.5t-93 -94.5z" />
    <glyph glyph-name="uni2083" unicode="&#x2083;" horiz-adv-x="357" 
d="M320 296l-4 -23l-116 -133q35 -13 57 -44t22 -73q0 -58 -42 -104t-118 -46q-60 0 -97 29t-52 77l65 35q29 -65 84 -65q37 0 56.5 20.5t19.5 49.5q0 58 -78 58h-47l4 22l106 122h-138l14 75h264z" />
    <glyph glyph-name="uni2084" unicode="&#x2084;" horiz-adv-x="365" 
d="M312 20l-13 -71h-51l-12 -69h-77l12 69h-210l4 23l175 324h92l-151 -276h102l20 116h77l-20 -116h52z" />
    <glyph glyph-name="uni2085" unicode="&#x2085;" horiz-adv-x="367" 
d="M300 221h-158l-13 -76q15 3 31 3q55 0 92.5 -32.5t37.5 -89.5q0 -61 -43.5 -107t-118.5 -46q-59 0 -98.5 29.5t-54.5 76.5l66 35q27 -65 88 -65q36 0 56.5 20.5t20.5 49.5q0 58 -77 58h-92l38 219h238z" />
    <glyph glyph-name="uni2086" unicode="&#x2086;" horiz-adv-x="373" 
d="M177 162q50 -2 86 -39.5t36 -95.5q0 -66 -47.5 -109.5t-110.5 -43.5q-60 0 -102.5 40t-42.5 102q0 37 16.5 66.5t54.5 74.5l119 139h106zM144 -50q30 0 51 21t21 53q0 30 -17.5 48.5t-45.5 18.5q-31 0 -52 -21.5t-21 -52.5q0 -29 18 -48t46 -19z" />
    <glyph glyph-name="uni2087" unicode="&#x2087;" horiz-adv-x="336" 
d="M41 296h287l-4 -23l-251 -393h-97l223 341h-172z" />
    <glyph glyph-name="uni2088" unicode="&#x2088;" horiz-adv-x="385" 
d="M242 88q61 -35 61 -89q0 -47 -39 -85.5t-112 -38.5q-60 0 -108 27.5t-48 85.5q0 40 26 71t76 45q-45 33 -45 82q0 46 36 81.5t101 35.5q55 0 94.5 -26.5t39.5 -78.5q0 -73 -82 -110zM189 238q-26 0 -42.5 -15t-16.5 -37q0 -16 10.5 -27.5t35.5 -27.5q72 23 72 59
q0 21 -17 34.5t-42 13.5zM148 -59q36 0 54.5 17t18.5 40q0 20 -13.5 33.5t-42.5 29.5q-46 -12 -66.5 -27.5t-20.5 -38.5q0 -25 18.5 -39.5t51.5 -14.5z" />
    <glyph glyph-name="uni2089" unicode="&#x2089;" horiz-adv-x="373" 
d="M179 302q59 0 102 -40t43 -102q0 -37 -16.5 -66.5t-54.5 -74.5l-119 -139h-105l114 134q-50 2 -86 39.5t-36 95.5q0 66 47.5 109.5t110.5 43.5zM167 86q31 0 52.5 21t21.5 52q0 29 -18.5 48t-46.5 19q-30 0 -51 -21t-21 -53q0 -30 17.5 -48t45.5 -18z" />
    <glyph glyph-name="uni208A" unicode="&#x208a;" horiz-adv-x="428" 
d="M247 263l-25 -139h135l-13 -73h-135l-24 -139h-81l25 139h-135l13 73h135l24 139h81z" />
    <glyph glyph-name="uni208B" unicode="&#x208b;" horiz-adv-x="424" 
d="M367 121l-13 -68h-349l12 68h350z" />
    <glyph glyph-name="uni208C" unicode="&#x208c;" horiz-adv-x="428" 
d="M376 204l-13 -72h-336l13 72h336zM347 44l-13 -73h-336l13 73h336z" />
    <glyph glyph-name="uni208D" unicode="&#x208d;" horiz-adv-x="267" 
d="M249 417l23 -52q-90 -44 -133.5 -144.5t-43.5 -212.5q0 -140 77 -206l-38 -45q-111 72 -111 251q0 83 23 163.5t76 150t127 95.5z" />
    <glyph glyph-name="uni208E" unicode="&#x208e;" horiz-adv-x="267" 
d="M80 418q111 -72 111 -251q0 -83 -23 -163.5t-76 -150t-127 -95.5l-23 52q90 44 133.5 144.5t43.5 212.5q0 140 -78 206z" />
    <glyph glyph-name="Euro" unicode="&#x20ac;" horiz-adv-x="678" 
d="M400 86q91 0 150 67l67 -61q-79 -104 -225 -104q-109 0 -182.5 61t-95.5 160h-114l14 83h91q0 37 7 72h-83l14 83h91q36 97 112.5 160t195.5 63q165 0 239 -121l-77 -55q-54 78 -161 78q-132 0 -193 -125h273l-36 -83h-265q-8 -40 -8 -71v-1h239l-36 -83h-189
q19 -56 63.5 -89.5t108.5 -33.5z" />
    <glyph glyph-name="uni2105" unicode="&#x2105;" horiz-adv-x="820" 
d="M273 671q48 0 83.5 -22t52.5 -60l-62 -43q-29 47 -76 47q-39 0 -64 -25.5t-25 -65.5q0 -35 21 -56.5t56 -21.5q47 0 78 42l54 -50q-47 -70 -136 -70q-68 0 -114 44t-46 110q0 71 52.5 121t125.5 50zM716 660l-490 -660h-93l489 660h94zM601 314q68 0 113 -45.5t44 -110.5
q-1 -71 -53 -120t-124 -49q-67 0 -112 44.5t-44 110.5q0 71 52 120.5t124 49.5zM598 236q-36 0 -61.5 -26t-25.5 -65q0 -36 20 -57.5t53 -21.5q36 0 61 26t26 65q0 36 -20 57.5t-53 21.5z" />
    <glyph glyph-name="uni2113" unicode="&#x2113;" horiz-adv-x="459" 
d="M202 156q0 -73 96 -73q28 0 84 7l-15 -89q-48 -12 -93 -12q-80 0 -129 35t-49 112q0 11 2 37l-60 -35l-36 85q78 45 117 71l47 271q36 196 191 196q136 0 136 -138q0 -91 -66 -182.5t-212 -192.5l-9 -55q-4 -17 -4 -37zM270 561l-32 -182q161 126 161 234q0 59 -48 59
q-31 0 -50.5 -25t-30.5 -86z" />
    <glyph glyph-name="uni2116" unicode="&#x2116;" horiz-adv-x="1123" 
d="M517 210l78 450h106l-118 -671h-36v1l-320 464l-80 -454h-106l118 671h37zM950 562q68 0 113.5 -44.5t44.5 -111.5q-1 -71 -53 -120t-124 -49q-68 0 -113 44.5t-44 111.5q1 71 53 120t123 49zM1025 404q0 37 -22 60.5t-56 23.5q-38 0 -63.5 -27t-26.5 -68
q0 -37 21.5 -59.5t55.5 -22.5q38 0 64 26.5t27 66.5zM728 94l12 71h322l-12 -71h-322z" />
    <glyph glyph-name="uni2117" unicode="&#x2117;" horiz-adv-x="789" 
d="M427 671q139 0 235 -94.5t96 -231.5q0 -146 -108.5 -251t-255.5 -105q-139 0 -235 95t-96 232q0 146 108.5 250.5t255.5 104.5zM424 604q-118 0 -203 -84t-85 -204q0 -111 74 -185.5t187 -74.5q124 0 205.5 88t81.5 202q0 109 -74.5 183.5t-185.5 74.5zM451 504
q60 0 93.5 -31t33.5 -81q0 -57 -42.5 -92.5t-109.5 -35.5h-69l-20 -112h-78l62 352h130zM445 436h-57l-19 -104h66q31 0 47.5 15t16.5 40q0 49 -54 49z" />
    <glyph glyph-name="trademark" unicode="&#x2122;" horiz-adv-x="971" 
d="M946 667h29l-80 -456h-89l42 242l-138 -144h-30l-90 153l-43 -251h-90l80 456h29l144 -245l235 245v-1zM86 660h379l-15 -81h-144l-65 -368h-89l64 368h-144z" />
    <glyph glyph-name="uni2126" unicode="&#x2126;" horiz-adv-x="790" 
d="M761 365q0 -171 -157 -270h103l-17 -95h-270l16 96q110 43 162.5 112.5t52.5 151.5q0 95 -62.5 154.5t-163.5 59.5q-117 0 -184 -77.5t-67 -176.5q0 -140 141 -224l-17 -96h-280l17 95h144q-52 44 -83 103t-31 126q0 55 21.5 113.5t63 112t112.5 87.5t159 34
q146 0 243 -86.5t97 -219.5z" />
    <glyph glyph-name="estimated" unicode="&#x212e;" horiz-adv-x="795" 
d="M751 327h-544v-200q74 -104 220 -104q78 0 144.5 32.5t110.5 85.5l25 -22q-49 -60 -122 -94.5t-158 -34.5q-149 0 -248 97.5t-99 238.5q0 144 101.5 244t241.5 100q81 0 156.5 -35t125.5 -102.5t50 -151.5zM427 636q-142 0 -220 -104v-172h421v187q-75 89 -201 89z" />
    <glyph glyph-name="uni2150" unicode="&#x2150;" horiz-adv-x="958" 
d="M332 319l-13 -75h-274l14 75h102l47 266h-96l13 75h179l-60 -341h88zM709 660h90l-494 -660h-89zM684 416h287l-4 -23l-251 -393h-97l223 341h-172z" />
    <glyph glyph-name="uni2151" unicode="&#x2151;" horiz-adv-x="965" 
d="M332 319l-13 -75h-274l14 75h102l47 266h-96l13 75h179l-60 -341h88zM709 660h90l-494 -660h-89zM792 422q59 0 102 -40t43 -102q0 -37 -16.5 -66.5t-54.5 -74.5l-119 -139h-105l114 134q-50 2 -86 39.5t-36 95.5q0 66 47.5 109.5t110.5 43.5zM780 206q31 0 52.5 21
t21.5 52q0 29 -18.5 48t-46.5 19q-30 0 -51 -21t-21 -53q0 -30 17.5 -48t45.5 -18z" />
    <glyph glyph-name="uni2152" unicode="&#x2152;" horiz-adv-x="1397" 
d="M304 660l-60 -341h88l-13 -75h-274l14 75h102l47 266h-96l13 75h179zM799 660l-494 -660h-89l493 660h90zM1216 423q68 0 101.5 -42t33.5 -116q0 -41 -10 -85t-31.5 -87.5t-62.5 -71.5t-94 -28q-68 0 -102 42.5t-34 117.5q0 41 10.5 84.5t31.5 86.5t62 71t95 28zM883 416
l-60 -341h88l-13 -75h-274l14 75h102l47 266h-96l13 75h179zM1205 347q-29 0 -50 -20.5t-32 -52t-16 -61.5t-5 -57q0 -87 61 -87q29 0 51 21t33 53.5t16 62.5t5 56q0 85 -63 85z" />
    <glyph glyph-name="uni2153" unicode="&#x2153;" horiz-adv-x="979" 
d="M332 319l-13 -75h-274l14 75h102l47 266h-96l13 75h179l-60 -341h88zM709 660h90l-494 -660h-89zM963 416l-4 -23l-116 -133q35 -13 57 -44t22 -73q0 -58 -42 -104t-118 -46q-60 0 -97 29t-52 77l65 35q29 -65 84 -65q37 0 56.5 20.5t19.5 49.5q0 58 -78 58h-47l4 22
l106 122h-138l14 75h264z" />
    <glyph glyph-name="uni2154" unicode="&#x2154;" horiz-adv-x="994" 
d="M350 319l-14 -75h-301l4 18l175 156q78 68 78 116q0 26 -15.5 41.5t-41.5 15.5q-32 0 -48 -22t-16 -57v-11h-83v15q0 61 39 106t111 45q64 0 101 -36t37 -91q0 -45 -28 -83.5t-93 -94.5l-53 -43h148zM724 660h90l-494 -660h-89zM979 416l-4 -23l-116 -133q35 -13 57 -44
t22 -73q0 -58 -42 -104t-118 -46q-60 0 -97 29t-52 77l65 35q29 -65 84 -65q37 0 56.5 20.5t19.5 49.5q0 58 -78 58h-47l4 22l106 122h-138l14 75h264z" />
    <glyph glyph-name="uni2155" unicode="&#x2155;" horiz-adv-x="981" 
d="M332 319l-13 -75h-274l14 75h102l47 266h-96l13 75h179l-60 -341h88zM709 660h90l-494 -660h-89zM935 341h-158l-13 -76q15 3 31 3q55 0 92.5 -32.5t37.5 -89.5q0 -61 -43.5 -107t-118.5 -46q-59 0 -98.5 29.5t-54.5 76.5l66 35q27 -65 88 -65q36 0 56.5 20.5t20.5 49.5
q0 58 -77 58h-92l38 219h238z" />
    <glyph glyph-name="uni2156" unicode="&#x2156;" horiz-adv-x="997" 
d="M350 319l-14 -75h-301l4 18l175 156q78 68 78 116q0 26 -15.5 41.5t-41.5 15.5q-32 0 -48 -22t-16 -57v-11h-83v15q0 61 39 106t111 45q64 0 101 -36t37 -91q0 -45 -28 -83.5t-93 -94.5l-53 -43h148zM724 660h90l-494 -660h-89zM951 341h-158l-13 -76q15 3 31 3
q55 0 92.5 -32.5t37.5 -89.5q0 -61 -43.5 -107t-118.5 -46q-59 0 -98.5 29.5t-54.5 76.5l66 35q27 -65 88 -65q36 0 56.5 20.5t20.5 49.5q0 58 -77 58h-92l38 219h238z" />
    <glyph glyph-name="uni2157" unicode="&#x2157;" horiz-adv-x="943" 
d="M343 387q0 -58 -42 -104t-118 -46q-60 0 -97 29t-52 77l65 35q29 -65 84 -65q37 0 56.5 20.5t19.5 49.5q0 58 -78 58h-46v1l-1 -1l4 22l106 122h-138l14 75h264l-4 -23l-116 -134q34 -13 56.5 -44t22.5 -72zM670 660h90l-494 -660h-89zM896 341h-158l-13 -76q15 3 31 3
q55 0 92.5 -32.5t37.5 -89.5q0 -61 -43.5 -107t-118.5 -46q-59 0 -98.5 29.5t-54.5 76.5l66 35q27 -65 88 -65q36 0 56.5 20.5t20.5 49.5q0 58 -77 58h-92l38 219h238z" />
    <glyph glyph-name="uni2158" unicode="&#x2158;" horiz-adv-x="995" 
d="M300 244h-77l12 69h-210l4 23l175 324h92l-150 -276h101l20 116h77l-20 -116h52l-13 -71h-51zM723 660h90l-494 -660h-89zM949 341h-158l-13 -76q15 3 31 3q55 0 92.5 -32.5t37.5 -89.5q0 -61 -43.5 -107t-118.5 -46q-59 0 -98.5 29.5t-54.5 76.5l66 35q27 -65 88 -65
q36 0 56.5 20.5t20.5 49.5q0 58 -77 58h-92l38 219h238z" />
    <glyph glyph-name="uni2159" unicode="&#x2159;" horiz-adv-x="915" 
d="M332 319l-13 -75h-274l14 75h102l47 266h-96l13 75h179l-60 -341h88zM709 660h90l-494 -660h-89zM740 282q50 -2 86 -39.5t36 -95.5q0 -66 -47.5 -109.5t-110.5 -43.5q-60 0 -102.5 40t-42.5 102q0 37 16.5 66.5t54.5 74.5l119 139h106zM707 70q30 0 51 21t21 53
q0 30 -17.5 48.5t-45.5 18.5q-31 0 -52 -21.5t-21 -52.5q0 -29 18 -48t46 -19z" />
    <glyph glyph-name="uni215A" unicode="&#x215a;" horiz-adv-x="887" 
d="M354 390q0 -61 -43.5 -107t-118.5 -46q-59 0 -98.5 29.5t-54.5 76.5l66 35q27 -65 88 -65q36 0 56.5 20.5t20.5 49.5q0 58 -77 58h-92l38 219h238l-13 -75h-158l-13 -76q17 3 31 3q55 0 92.5 -32.5t37.5 -89.5zM680 660h90l-494 -660h-89zM712 282q50 -2 86 -39.5
t36 -95.5q0 -66 -47.5 -109.5t-110.5 -43.5q-60 0 -102.5 40t-42.5 102q0 37 16.5 66.5t54.5 74.5l119 139h106zM679 70q30 0 51 21t21 53q0 30 -17.5 48.5t-45.5 18.5q-31 0 -52 -21.5t-21 -52.5q0 -29 18 -48t46 -19z" />
    <glyph glyph-name="oneeighth" unicode="&#x215b;" horiz-adv-x="962" 
d="M332 319l-13 -75h-274l14 75h102l47 266h-96l13 75h179l-60 -341h88zM709 660h90l-494 -660h-89zM840 208q61 -35 61 -89q0 -47 -39 -85.5t-112 -38.5q-60 0 -108 27.5t-48 85.5q0 40 26 71t76 45q-45 33 -45 82q0 46 36 81.5t101 35.5q55 0 94.5 -26.5t39.5 -78.5
q0 -73 -82 -110zM787 358q-26 0 -42.5 -15t-16.5 -37q0 -16 10.5 -27.5t35.5 -27.5q72 23 72 59q0 21 -17 34.5t-42 13.5zM746 61q36 0 54.5 17t18.5 40q0 20 -13.5 33.5t-42.5 29.5q-46 -12 -66.5 -27.5t-20.5 -38.5q0 -25 18.5 -39.5t51.5 -14.5z" />
    <glyph glyph-name="threeeighths" unicode="&#x215c;" horiz-adv-x="923" 
d="M343 387q0 -58 -42 -104t-118 -46q-60 0 -97 29t-52 77l65 35q29 -65 84 -65q37 0 56.5 20.5t19.5 49.5q0 58 -78 58h-46v1l-1 -1l4 22l106 122h-138l14 75h264l-4 -23l-116 -134q34 -13 56.5 -44t22.5 -72zM670 660h90l-494 -660h-89zM801 208q61 -35 61 -89
q0 -47 -39 -85.5t-112 -38.5q-60 0 -108 27.5t-48 85.5q0 40 26 71t76 45q-45 33 -45 82q0 46 36 81.5t101 35.5q55 0 94.5 -26.5t39.5 -78.5q0 -73 -82 -110zM748 358q-26 0 -42.5 -15t-16.5 -37q0 -16 10.5 -27.5t35.5 -27.5q72 23 72 59q0 21 -17 34.5t-42 13.5zM707 61
q36 0 54.5 17t18.5 40q0 20 -13.5 33.5t-42.5 29.5q-46 -12 -66.5 -27.5t-20.5 -38.5q0 -25 18.5 -39.5t51.5 -14.5z" />
    <glyph glyph-name="fiveeighths" unicode="&#x215d;" horiz-adv-x="933" 
d="M354 390q0 -61 -43.5 -107t-118.5 -46q-59 0 -98.5 29.5t-54.5 76.5l66 35q27 -65 88 -65q36 0 56.5 20.5t20.5 49.5q0 58 -77 58h-92l38 219h238l-13 -75h-158l-13 -76q17 3 31 3q55 0 92.5 -32.5t37.5 -89.5zM680 660h90l-494 -660h-89zM812 208q61 -35 61 -89
q0 -47 -39 -85.5t-112 -38.5q-60 0 -108 27.5t-48 85.5q0 40 26 71t76 45q-45 33 -45 82q0 46 36 81.5t101 35.5q55 0 94.5 -26.5t39.5 -78.5q0 -73 -82 -110zM759 358q-26 0 -42.5 -15t-16.5 -37q0 -16 10.5 -27.5t35.5 -27.5q72 23 72 59q0 21 -17 34.5t-42 13.5zM718 61
q36 0 54.5 17t18.5 40q0 20 -13.5 33.5t-42.5 29.5q-46 -12 -66.5 -27.5t-20.5 -38.5q0 -25 18.5 -39.5t51.5 -14.5z" />
    <glyph glyph-name="seveneighths" unicode="&#x215e;" horiz-adv-x="839" 
d="M137 244h-97l223 341h-172l14 75h287l-4 -23zM586 660h90l-494 -660h-89zM717 208q61 -35 61 -89q0 -47 -39 -85.5t-112 -38.5q-60 0 -108 27.5t-48 85.5q0 40 26 71t76 45q-45 33 -45 82q0 46 36 81.5t101 35.5q55 0 94.5 -26.5t39.5 -78.5q0 -73 -82 -110zM664 358
q-26 0 -42.5 -15t-16.5 -37q0 -16 10.5 -27.5t35.5 -27.5q72 23 72 59q0 21 -17 34.5t-42 13.5zM623 61q36 0 54.5 17t18.5 40q0 20 -13.5 33.5t-42.5 29.5q-46 -12 -66.5 -27.5t-20.5 -38.5q0 -25 18.5 -39.5t51.5 -14.5z" />
    <glyph glyph-name="arrowleft" unicode="&#x2190;" horiz-adv-x="650" 
d="M615 272l-336 1l-70 2l178 -178l-62 -62l-272 272v21l272 272l62 -62l-176 -176l68 1h336v-91z" />
    <glyph glyph-name="arrowup" unicode="&#x2191;" horiz-adv-x="650" 
d="M622 320l-62 -62l-172 172l1 -67v-321h-96v321l1 68l-173 -173l-63 62l272 272h21z" />
    <glyph glyph-name="arrowright" unicode="&#x2192;" horiz-adv-x="650" 
d="M352 600l272 -272v-21l-272 -272l-62 62l177 178l-69 -2l-336 -1v91h336l68 -1l-176 176z" />
    <glyph glyph-name="arrowdown" unicode="&#x2193;" horiz-adv-x="650" 
d="M557 378l63 -63l-271 -271h-22l-271 271l62 63l173 -173l-1 68v320h96v-320l-1 -67z" />
    <glyph glyph-name="arrowboth" unicode="&#x2194;" horiz-adv-x="936" 
d="M638 600l272 -272v-21l-272 -272l-62 62l177 178l-69 -2h-110v-1l-89 1l-85 -1v1h-121l-70 2l178 -178l-62 -62l-272 272v21l272 272l62 -62l-176 -176l68 1h405l68 -1l-176 176z" />
    <glyph glyph-name="arrowupdn" unicode="&#x2195;" horiz-adv-x="650" 
d="M388 94l165 164l63 -62l-264 -264h-22l-264 264l63 62l166 -165l-2 68v338l2 68l-166 -165l-63 62l264 264h22l264 -264l-63 -62l-165 164l2 -67v-338z" />
    <glyph glyph-name="uni2196" unicode="&#x2196;" horiz-adv-x="650" 
d="M320 386l258 -258l-66 -65l-257 257l-42 44v-256h-93v398l15 15h393v-89h-256z" />
    <glyph glyph-name="uni2197" unicode="&#x2197;" horiz-adv-x="650" 
d="M520 521l15 -15v-398h-93v256l-42 -44l-257 -257l-66 65l258 258l48 46h-256v89h393z" />
    <glyph glyph-name="uni2198" unicode="&#x2198;" horiz-adv-x="650" 
d="M458 508h93v-398l-16 -15h-393v89h257l-48 46l-258 258l66 65l256 -257l43 -44v256z" />
    <glyph glyph-name="uni2199" unicode="&#x2199;" horiz-adv-x="650" 
d="M322 230l-48 -46h256v-89h-393l-15 15v398h93v-256l42 44l257 257l66 -65z" />
    <glyph glyph-name="partialdiff" unicode="&#x2202;" horiz-adv-x="596" 
d="M348 671q102 0 164 -66.5t62 -181.5q0 -49 -11 -104.5t-36.5 -115t-62 -106.5t-93 -77.5t-123.5 -30.5q-89 0 -149 49.5t-60 136.5q0 40 14 78.5t42 74t79.5 57t118.5 21.5q79 0 171 -32q3 26 3 47q0 154 -128 154q-74 0 -137 -63l-58 62q80 97 204 97zM255 83
q73 0 121 58t72 145q-85 26 -150 26q-77 0 -114 -36.5t-37 -88.5q0 -48 29.5 -76t78.5 -28z" />
    <glyph glyph-name="uni2206" unicode="&#x2206;" horiz-adv-x="662" 
d="M427 671l173 -671h-617l407 671h37zM466 95l-89 366l-219 -366h308z" />
    <glyph glyph-name="product" unicode="&#x220f;" horiz-adv-x="695" 
d="M686 660l-138 -781h-106l122 686h-318l-121 -686h-106l138 781h529z" />
    <glyph glyph-name="summation" unicode="&#x2211;" horiz-adv-x="556" 
d="M577 660l-16 -95h-307l128 -272l-5 -24l-220 -295h311l-17 -95h-480l3 24l291 391l-160 342l4 24h468z" />
    <glyph glyph-name="minus" unicode="&#x2212;" 
d="M531 363l-16 -91h-459l16 91h459z" />
    <glyph glyph-name="uni2219" unicode="&#x2219;" horiz-adv-x="270" 
d="M149 394q33 0 55 -22t22 -55t-22 -55.5t-55 -22.5t-55.5 22t-22.5 56q0 33 22.5 55t55.5 22z" />
    <glyph glyph-name="radical" unicode="&#x221a;" horiz-adv-x="650" 
d="M634 750h101l-513 -883h-36v324h-160v87h253v-137z" />
    <glyph glyph-name="infinity" unicode="&#x221e;" horiz-adv-x="848" 
d="M660 499q78 0 127 -48.5t49 -120.5q0 -76 -55 -136.5t-151 -60.5q-67 0 -111.5 30.5t-85.5 84.5q-53 -54 -102.5 -84.5t-112.5 -30.5q-80 0 -129 49t-49 120q0 76 55 136.5t151 60.5q67 0 113 -30.5t86 -83.5q110 114 215 114zM231 227q38 0 73.5 23.5t78.5 68.5
q-31 42 -61.5 64t-71.5 22q-45 0 -76 -26.5t-31 -69.5q0 -41 26 -61.5t62 -20.5zM628 227q44 0 74 26.5t30 69.5q0 41 -25.5 61.5t-62.5 20.5q-39 0 -74 -23t-75 -67q32 -43 62 -65.5t71 -22.5z" />
    <glyph glyph-name="integral" unicode="&#x222b;" horiz-adv-x="343" 
d="M338 788q42 0 95 -16l-15 -87q-33 6 -59 6q-65 0 -92 -39.5t-27 -129.5v-387q0 -126 -45.5 -195t-158.5 -69q-51 0 -95 16l16 86q32 -6 59 -6q65 0 91.5 39.5t26.5 128.5v387q0 125 45.5 195.5t158.5 70.5z" />
    <glyph glyph-name="approxequal" unicode="&#x2248;" 
d="M193 532q41 0 94 -34l79 -53q40 -26 59 -26q32 0 42 55h83q-5 -71 -35 -113t-83 -42q-42 0 -93 34l-80 53q-40 26 -59 26q-31 0 -41 -55h-83q4 71 34 113t83 42zM154 311q41 0 94 -34l79 -53q41 -27 59 -27t27 13.5t15 42.5h82q-4 -71 -34 -113t-83 -42q-40 0 -94 33
l-79 54q-43 26 -59 26q-18 0 -27 -13.5t-15 -41.5h-82q4 71 34 113t83 42z" />
    <glyph glyph-name="notequal" unicode="&#x2260;" 
d="M524 378h-137l-87 -121h202l-15 -91h-253l-76 -105h-98l76 105h-88l15 91h139l87 121h-204l16 91h254l75 102h97l-75 -102h88z" />
    <glyph glyph-name="lessequal" unicode="&#x2264;" 
d="M548 543l-15 -95l-288 -99l252 -101l-16 -86l-420 176l5 29zM14 0l15 84h439l-15 -84h-439z" />
    <glyph glyph-name="greaterequal" unicode="&#x2265;" 
d="M119 543l419 -176l-5 -29l-481 -176l15 96l281 99l-244 100zM24 0l14 84h439l-14 -84h-439z" />
    <glyph glyph-name="uni24EA" unicode="&#x24ea;" horiz-adv-x="983" 
d="M507 761q179 0 305 -126.5t126 -304.5t-126 -304.5t-305 -126.5t-305 126.5t-126 304.5t126 304.5t305 126.5zM507 680q-145 0 -246 -101t-101 -249t101 -249t246 -101q146 0 247 101t101 249t-101 249t-247 101zM507 561q87 0 132 -63t45 -165q0 -103 -45 -169t-132 -66
q-86 0 -130.5 66t-44.5 169q0 102 44.5 165t130.5 63zM507 482q-86 0 -86 -149q0 -156 86 -156q88 0 88 156q0 149 -88 149z" />
    <glyph glyph-name="uni24FF" unicode="&#x24ff;" horiz-adv-x="983" 
d="M507 761q179 0 305 -126.5t126 -304.5t-126 -304.5t-305 -126.5t-305 126.5t-126 304.5t126 304.5t305 126.5zM507 561q-86 0 -131 -63t-45 -165q0 -103 44.5 -169t131.5 -66t132.5 66t45.5 169q0 102 -45.5 165t-132.5 63zM507 479q85 0 85 -146q0 -153 -85 -153
q-83 0 -83 153q0 146 83 146z" />
    <glyph glyph-name="filledbox" unicode="&#x25a0;" horiz-adv-x="730" 
d="M656 605v-550h-550v550h550z" />
    <glyph glyph-name="uni25A1" unicode="&#x25a1;" horiz-adv-x="730" 
d="M656 605v-550h-550v550h550zM558 513h-354v-366h354v366z" />
    <glyph glyph-name="uni25AA" unicode="&#x25aa;" horiz-adv-x="541" 
d="M462 436v-380h-381v380h381z" />
    <glyph glyph-name="uni25AB" unicode="&#x25ab;" horiz-adv-x="541" 
d="M462 436v-380h-381v380h381zM370 349h-197v-207h197v207z" />
    <glyph glyph-name="triagup" unicode="&#x25b2;" horiz-adv-x="730" 
d="M350 660l335 -591l-8 -14h-672l-8 14l336 591h17z" />
    <glyph glyph-name="uni25B3" unicode="&#x25b3;" horiz-adv-x="730" 
d="M350 660l335 -591l-8 -14h-672l-8 14l336 591h17zM529 152l-188 330l-188 -330h376z" />
    <glyph glyph-name="uni25B4" unicode="&#x25b4;" horiz-adv-x="528" 
d="M247 475l231 -405l-8 -14h-463l-7 14l231 405h16z" />
    <glyph glyph-name="uni25B5" unicode="&#x25b5;" horiz-adv-x="528" 
d="M247 475l231 -405l-8 -14h-463l-7 14l231 405h16zM346 132l-107 189l-107 -189h214z" />
    <glyph glyph-name="uni25B6" unicode="&#x25b6;" horiz-adv-x="645" 
d="M120 671l518 -333v-17l-518 -332l-14 8v666z" />
    <glyph glyph-name="uni25B7" unicode="&#x25b7;" horiz-adv-x="645" 
d="M120 671l518 -333v-17l-518 -332l-14 8v666zM475 330l-271 175v-350z" />
    <glyph glyph-name="uni25B8" unicode="&#x25b8;" horiz-adv-x="480" 
d="M94 482l355 -227v-17l-355 -227l-14 8v455z" />
    <glyph glyph-name="uni25B9" unicode="&#x25b9;" horiz-adv-x="488" 
d="M103 482l354 -227v-17l-354 -227l-15 8v455zM320 246l-151 97v-193z" />
    <glyph glyph-name="triagrt" unicode="&#x25ba;" horiz-adv-x="968" 
d="M131 671l827 -333v-17l-827 -332l-14 8v666z" />
    <glyph glyph-name="uni25BB" unicode="&#x25bb;" horiz-adv-x="968" 
d="M131 671l827 -333v-17l-827 -332l-14 8v666zM723 330l-509 205v-410z" />
    <glyph glyph-name="triagdn" unicode="&#x25bc;" horiz-adv-x="730" 
d="M430 0h-17l-336 591l8 14h672l8 -14z" />
    <glyph glyph-name="uni25BD" unicode="&#x25bd;" horiz-adv-x="730" 
d="M757 605l8 -14l-335 -591h-17l-336 591l8 14h672zM609 508h-376l188 -330z" />
    <glyph glyph-name="uni25BE" unicode="&#x25be;" horiz-adv-x="528" 
d="M522 436l8 -15l-230 -404h-17l-231 404l8 15h462z" />
    <glyph glyph-name="uni25BF" unicode="&#x25bf;" horiz-adv-x="528" 
d="M522 436l8 -15l-230 -404h-17l-231 404l8 15h462zM399 359h-215l107 -189z" />
    <glyph glyph-name="uni25C0" unicode="&#x25c0;" horiz-adv-x="645" 
d="M556 671l14 -8v-666l-14 -8l-518 332v17z" />
    <glyph glyph-name="uni25C1" unicode="&#x25c1;" horiz-adv-x="645" 
d="M556 671l14 -8v-666l-14 -8l-518 332v17zM473 505l-272 -175l272 -175v350z" />
    <glyph glyph-name="uni25C2" unicode="&#x25c2;" horiz-adv-x="479" 
d="M387 482l15 -8v-455l-15 -8l-354 227v17z" />
    <glyph glyph-name="uni25C3" unicode="&#x25c3;" horiz-adv-x="479" 
d="M387 482l15 -8v-455l-15 -8l-354 227v17zM321 150v193l-151 -97z" />
    <glyph glyph-name="triaglf" unicode="&#x25c4;" horiz-adv-x="967" 
d="M868 671l14 -8v-666l-14 -8l-827 332v17z" />
    <glyph glyph-name="uni25C5" unicode="&#x25c5;" horiz-adv-x="967" 
d="M868 671l14 -8v-666l-14 -8l-827 332v17zM785 125v410l-509 -205z" />
    <glyph glyph-name="lozenge" unicode="&#x25ca;" horiz-adv-x="665" 
d="M360 671l213 -341l-213 -341h-37l-213 342l213 340h37zM220 331l124 -196l120 195l-122 196z" />
    <glyph glyph-name="circle" unicode="&#x25cb;" horiz-adv-x="775" 
d="M404 659q136 0 232.5 -96.5t96.5 -232.5t-96.5 -233t-232.5 -97q-135 0 -232.5 97t-97.5 233t97 232.5t233 96.5zM404 567q-98 0 -165.5 -69t-67.5 -168t67.5 -168t165.5 -69t165 69t67 168t-67 168t-165 69z" />
    <glyph glyph-name="uni25CF" unicode="&#x25cf;" horiz-adv-x="775" 
d="M404 659q136 0 232.5 -96.5t96.5 -232.5t-96.5 -233t-232.5 -97q-135 0 -232.5 97t-97.5 233t97 232.5t233 96.5z" />
    <glyph glyph-name="uni261C" unicode="&#x261c;" horiz-adv-x="1210" 
d="M1182 282v-30l-87 -72l49 -175l-27 -19l-230 144q-92 -48 -190.5 -76.5t-169.5 -28.5q-110 0 -110 69q0 23 15 38q-47 15 -47 58q0 28 25 46q-37 17 -37 53q0 20 14 36l-184 5q-85 4 -123.5 25.5t-38.5 68.5q0 52 44 70t144 18q84 0 174 -9q1 43 27 67t62 24q33 0 67 -20
l244 -146q38 -11 80 -26l234 147l27 -19l-49 -175zM509 530q-29 0 -32 -35q57 -7 151 -24l-90 51q-16 8 -29 8zM519 84q57 0 160.5 29.5t184.5 74.5v156q-121 48 -303 77.5t-359 29.5q-54 0 -73 -6t-19 -22t17.5 -23t63.5 -9l124 -5q86 -2 246 -10v-56l-102 3q-22 0 -22 -20
q0 -21 20 -21h115v-55h-103q-20 0 -20 -21t20 -21h115v-55q-38 -4 -67 -4h-16q-8 0 -14 -5.5t-6 -14.5q0 -22 38 -22zM931 360v-185l123 -75l-31 106l78 61l-78 61l32 107z" />
    <glyph glyph-name="uni261E" unicode="&#x261e;" horiz-adv-x="1213" 
d="M1015 512q101 0 145.5 -18t44.5 -70q0 -47 -38.5 -68.5t-124.5 -25.5l-184 -5q14 -16 14 -36q0 -37 -36 -53q25 -17 25 -46q0 -42 -47 -58q14 -14 14 -38q0 -69 -110 -69q-71 0 -169 28.5t-190 76.5l-229 -144l-28 19l50 175l-88 72v30l87 73l-49 175l28 19l233 -147
q42 15 80 26l244 146q34 20 67 20q36 0 62 -24t27 -67q90 9 172 9zM708 522l-90 -51q94 17 151 24q-3 35 -32 35q-13 0 -29 -8zM1055 391q46 2 63 9t17 23q0 15 -18 21.5t-67 6.5q-183 0 -363.5 -29t-304.5 -78v-156q81 -45 184 -74.5t164 -29.5q35 0 35 23q0 8 -6 13.5
t-14 5.5h-17q-28 0 -66 4v55h114q21 0 21 21q0 9 -6 15t-15 6h-102v55h114q21 0 21 21q0 20 -23 20l-101 -3v56q160 8 245 10zM315 175v185l-124 75l32 -107l-78 -61l78 -61l-31 -106z" />
    <glyph glyph-name="uni2661" unicode="&#x2661;" horiz-adv-x="860" 
d="M645 671q81 0 137 -55t56 -141q0 -50 -24 -94t-84 -110l-260 -282h-18l-260 282q-60 66 -84 110t-24 94q0 86 56 141t137 55q64 0 113 -35.5t71 -92.5q22 57 71 92.5t113 35.5zM649 328q42 46 60.5 77.5t18.5 66.5q0 45 -28 72.5t-70 27.5q-53 0 -88.5 -45t-53.5 -115
h-53q-17 70 -53.5 115t-89.5 45q-43 0 -70 -27.5t-27 -72.5q0 -35 18.5 -67.5t58.5 -76.5l189 -209z" />
    <glyph glyph-name="heart" unicode="&#x2665;" horiz-adv-x="860" 
d="M645 671q81 0 137 -55t56 -141q0 -50 -24 -94t-84 -110l-260 -282h-18l-260 282q-60 66 -84 110t-24 94q0 86 56 141t137 55q64 0 113 -35.5t71 -92.5q22 57 71 92.5t113 35.5z" />
    <glyph glyph-name="uni275B" unicode="&#x275b;" horiz-adv-x="646" 
d="M399 422q88 0 147 -59.5t59 -146.5q0 -92 -67 -159.5t-176 -67.5q-128 0 -217 91.5t-89 221.5q0 59 21 121t62 119t113 93t163 36q122 0 216 -77l-50 -67q-72 60 -164 60q-83 0 -146 -44t-92 -106.5t-29 -129.5q0 -51 18 -96q6 89 74 150t157 61z" />
    <glyph glyph-name="uni275C" unicode="&#x275c;" horiz-adv-x="646" 
d="M315 671q129 0 217.5 -91.5t88.5 -221.5q0 -59 -21 -121t-62 -119t-113 -93t-163 -36q-122 0 -215 77l49 67q72 -59 165 -59q63 0 115 25.5t84.5 66t50 89t17.5 98.5q0 47 -18 96q-7 -89 -75 -150t-157 -61q-88 0 -147 59.5t-59 146.5q0 92 67 159.5t176 67.5z" />
    <glyph glyph-name="uni275D" unicode="&#x275d;" horiz-adv-x="1261" 
d="M417 587q-83 0 -146 -44t-92 -106.5t-29 -129.5q0 -51 18 -96q6 89 74 150t157 61q88 0 147 -59.5t59 -146.5q0 -92 -67 -159.5t-176 -67.5q-128 0 -217 91.5t-89 221.5q0 59 21 121t62 119t113 93t163 36q122 0 216 -77l-50 -67q-72 60 -164 60zM1014 422
q88 0 147.5 -59.5t59.5 -146.5q0 -92 -67 -159.5t-177 -67.5q-128 0 -216.5 91.5t-88.5 221.5q0 47 12.5 96t40.5 98.5t68 88t101.5 62.5t135.5 24q122 0 216 -77l-50 -67q-72 60 -164 60q-83 0 -146 -44t-92 -106.5t-29 -129.5q0 -52 18 -97q6 89 74 150.5t157 61.5z" />
    <glyph glyph-name="uni275E" unicode="&#x275e;" horiz-adv-x="1271" 
d="M315 671q129 0 217.5 -91.5t88.5 -221.5q0 -59 -21 -121t-62 -119t-113 -93t-163 -36q-122 0 -215 77l49 67q72 -59 165 -59q63 0 115 25.5t84.5 66t50 89t17.5 98.5q0 47 -18 96q-7 -89 -75 -150t-157 -61q-88 0 -147 59.5t-59 146.5q0 92 67 159.5t176 67.5zM940 671
q129 0 217.5 -91.5t88.5 -221.5q0 -59 -21 -121t-62 -119t-113 -93t-163 -36q-122 0 -215 77l49 67q72 -59 165 -59q63 0 115 25.5t84.5 66t50 89t17.5 98.5q0 53 -18 96q-6 -88 -74.5 -149.5t-157.5 -61.5q-88 0 -147 59.5t-59 146.5q0 92 67 159.5t176 67.5z" />
    <glyph glyph-name="uni2776" unicode="&#x2776;" horiz-adv-x="983" 
d="M507 761q179 0 305 -126.5t126 -304.5t-126 -304.5t-305 -126.5t-305 126.5t-126 304.5t126 304.5t305 126.5zM557 554h-181v-77h90v-295h-97v-77h277v77h-89v372z" />
    <glyph glyph-name="uni2777" unicode="&#x2777;" horiz-adv-x="983" 
d="M507 761q179 0 305 -126.5t126 -304.5t-126 -304.5t-305 -126.5t-305 126.5t-126 304.5t126 304.5t305 126.5zM504 561q-71 0 -116 -44t-45 -104q0 -17 5 -40h83q-4 22 -4 33q0 31 19.5 52t52.5 21q32 0 50 -18.5t18 -48.5q0 -28 -15.5 -52.5t-49.5 -61.5l-158 -174v-19
h331v77h-174l75 80q41 43 62.5 78.5t21.5 78.5q0 62 -44 102t-112 40z" />
    <glyph glyph-name="uni2778" unicode="&#x2778;" horiz-adv-x="983" 
d="M507 761q179 0 305 -126.5t126 -304.5t-126 -304.5t-305 -126.5t-305 126.5t-126 304.5t126 304.5t305 126.5zM655 554h-290v-82h153l-96 -132v-24h55q93 0 93 -65q0 -32 -22 -51.5t-56 -19.5q-54 0 -98 63l-63 -45q24 -45 66 -72.5t97 -27.5q71 0 120.5 43t49.5 110
q0 55 -32.5 90t-80.5 46l104 143v24z" />
    <glyph glyph-name="uni2779" unicode="&#x2779;" horiz-adv-x="983" 
d="M507 761q179 0 305 -126.5t126 -304.5t-126 -304.5t-305 -126.5t-305 126.5t-126 304.5t126 304.5t305 126.5zM540 554h-97l-132 -351v-26h225v-72h91v72h57v80h-57v119h-91v-119h-115z" />
    <glyph glyph-name="uni277A" unicode="&#x277a;" horiz-adv-x="983" 
d="M507 761q179 0 305 -126.5t126 -304.5t-126 -304.5t-305 -126.5t-305 126.5t-126 304.5t126 304.5t305 126.5zM642 554h-260v-238h105q92 0 92 -65q0 -33 -22.5 -52t-58.5 -19q-56 0 -100 63l-63 -45q23 -46 66 -73.5t101 -27.5q72 0 121.5 43.5t49.5 112.5
q0 66 -45.5 103.5t-106.5 37.5q-29 0 -52 -4v82h173v82z" />
    <glyph glyph-name="uni277B" unicode="&#x277b;" horiz-adv-x="983" 
d="M507 761q179 0 305 -126.5t126 -304.5t-126 -304.5t-305 -126.5t-305 126.5t-126 304.5t126 304.5t305 126.5zM614 554h-108l-112 -155q-24 -34 -34 -50t-19 -41t-9 -51q0 -68 48.5 -113.5t116.5 -45.5q67 0 116 45t49 113q0 53 -31 92t-78 50q-27 8 -50 2zM497 333
q32 0 53.5 -21.5t21.5 -54.5q0 -32 -22 -54.5t-53 -22.5t-52.5 22.5t-21.5 55.5q0 32 21.5 53.5t52.5 21.5z" />
    <glyph glyph-name="uni277C" unicode="&#x277c;" horiz-adv-x="983" 
d="M507 761q179 0 305 -126.5t126 -304.5t-126 -304.5t-305 -126.5t-305 126.5t-126 304.5t126 304.5t305 126.5zM675 555h-315v-83h195l-185 -366h100l205 424v25z" />
    <glyph glyph-name="uni277D" unicode="&#x277d;" horiz-adv-x="983" 
d="M507 761q179 0 305 -126.5t126 -304.5t-126 -304.5t-305 -126.5t-305 126.5t-126 304.5t126 304.5t305 126.5zM508 561q-65 0 -106.5 -31t-41.5 -87q0 -66 71 -105q-92 -36 -92 -113q0 -58 47.5 -92.5t121.5 -34.5t121 34.5t47 92.5q0 77 -91 114q70 37 70 104
q0 56 -41 87t-106 31zM508 490q27 0 44.5 -14.5t17.5 -38.5q0 -39 -63 -63q-61 24 -61 63q0 24 17.5 38.5t44.5 14.5zM507 306q39 -14 59 -30.5t20 -45.5q0 -27 -20.5 -44t-57.5 -17q-38 0 -58.5 17.5t-20.5 44.5q0 28 20 44.5t58 30.5z" />
    <glyph glyph-name="uni277E" unicode="&#x277e;" horiz-adv-x="983" 
d="M508 761q178 0 304 -126t126 -305t-126 -305t-304 -126q-179 0 -305.5 126.5t-126.5 304.5t126.5 304.5t305.5 126.5zM518 562q-68 0 -117 -45t-49 -113q0 -53 31.5 -92t77.5 -50q25 -7 51 -2l-111 -154h108l112 155q23 33 33.5 50t19 41.5t8.5 50.5q0 68 -48.5 113.5
t-115.5 45.5zM518 480q31 0 52.5 -22.5t21.5 -55.5q0 -32 -21.5 -53.5t-52.5 -21.5q-32 0 -53.5 21.5t-21.5 54.5q0 32 22 54.5t53 22.5z" />
    <glyph glyph-name="uni2780" unicode="&#x2780;" horiz-adv-x="983" 
d="M507 761q179 0 305 -126.5t126 -304.5t-126 -304.5t-305 -126.5t-305 126.5t-126 304.5t126 304.5t305 126.5zM507 676q-144 0 -243.5 -99.5t-99.5 -246.5t99.5 -246.5t243.5 -99.5t243.5 99.5t99.5 246.5t-99.5 246.5t-243.5 99.5zM557 554v-372h89v-77h-277v77h97v295
h-90v77h181z" />
    <glyph glyph-name="uni2781" unicode="&#x2781;" horiz-adv-x="983" 
d="M507 761q179 0 305 -126.5t126 -304.5t-126 -304.5t-305 -126.5t-305 126.5t-126 304.5t126 304.5t305 126.5zM507 676q-144 0 -243.5 -99.5t-99.5 -246.5t99.5 -246.5t243.5 -99.5t243.5 99.5t99.5 246.5t-99.5 246.5t-243.5 99.5zM504 561q68 0 112 -40t44 -102
q0 -43 -21.5 -78.5t-62.5 -78.5l-75 -80h174v-77h-331v19l158 174q34 37 49.5 61.5t15.5 52.5q0 30 -18 48.5t-50 18.5q-33 0 -52.5 -21t-19.5 -52q0 -11 4 -33h-83q-5 23 -5 40q0 60 45 104t116 44z" />
    <glyph glyph-name="uni2782" unicode="&#x2782;" horiz-adv-x="983" 
d="M507 761q179 0 305 -126.5t126 -304.5t-126 -304.5t-305 -126.5t-305 126.5t-126 304.5t126 304.5t305 126.5zM507 676q-144 0 -243.5 -99.5t-99.5 -246.5t99.5 -246.5t243.5 -99.5t243.5 99.5t99.5 246.5t-99.5 246.5t-243.5 99.5zM655 554v-24l-104 -143
q48 -11 80.5 -46t32.5 -90q0 -67 -49.5 -110t-120.5 -43q-55 0 -97 27.5t-66 72.5l63 45q44 -63 98 -63q34 0 56 19.5t22 51.5q0 65 -93 65h-55v24l96 132h-153v82h290z" />
    <glyph glyph-name="uni2783" unicode="&#x2783;" horiz-adv-x="983" 
d="M507 761q179 0 305 -126.5t126 -304.5t-126 -304.5t-305 -126.5t-305 126.5t-126 304.5t126 304.5t305 126.5zM507 676q-144 0 -243.5 -99.5t-99.5 -246.5t99.5 -246.5t243.5 -99.5t243.5 99.5t99.5 246.5t-99.5 246.5t-243.5 99.5zM540 554l-119 -297h115v119h91v-119
h57v-80h-57v-72h-91v72h-225v26l132 351h97z" />
    <glyph glyph-name="uni2784" unicode="&#x2784;" horiz-adv-x="983" 
d="M507 761q179 0 305 -126.5t126 -304.5t-126 -304.5t-305 -126.5t-305 126.5t-126 304.5t126 304.5t305 126.5zM507 676q-144 0 -243.5 -99.5t-99.5 -246.5t99.5 -246.5t243.5 -99.5t243.5 99.5t99.5 246.5t-99.5 246.5t-243.5 99.5zM643 554v-82h-173v-82q23 4 51 4
q61 0 107 -37.5t46 -103.5q0 -69 -49.5 -112.5t-121.5 -43.5q-58 0 -101 27.5t-66 73.5l63 45q44 -63 100 -63q35 0 58 19.5t23 51.5q0 65 -92 65h-106v238h261z" />
    <glyph glyph-name="uni2785" unicode="&#x2785;" horiz-adv-x="983" 
d="M507 761q179 0 305 -126.5t126 -304.5t-126 -304.5t-305 -126.5t-305 126.5t-126 304.5t126 304.5t305 126.5zM507 676q-144 0 -243.5 -99.5t-99.5 -246.5t99.5 -246.5t243.5 -99.5t243.5 99.5t99.5 246.5t-99.5 246.5t-243.5 99.5zM614 554l-111 -154q23 6 50 -2
q47 -11 78 -50t31 -92q0 -68 -49 -113t-116 -45q-68 0 -116.5 45.5t-48.5 113.5q0 26 9 51t19 41t34 50l112 155h108zM497 333q-31 0 -52.5 -21.5t-21.5 -53.5q0 -33 21.5 -55.5t52.5 -22.5t53 22.5t22 54.5q0 33 -21.5 54.5t-53.5 21.5z" />
    <glyph glyph-name="uni2786" unicode="&#x2786;" horiz-adv-x="983" 
d="M507 761q179 0 305 -126.5t126 -304.5t-126 -304.5t-305 -126.5t-305 126.5t-126 304.5t126 304.5t305 126.5zM507 676q-144 0 -243.5 -99.5t-99.5 -246.5t99.5 -246.5t243.5 -99.5t243.5 99.5t99.5 246.5t-99.5 246.5t-243.5 99.5zM675 555v-25l-206 -424h-100l185 366
h-194v83h315z" />
    <glyph glyph-name="uni2787" unicode="&#x2787;" horiz-adv-x="983" 
d="M507 761q179 0 305 -126.5t126 -304.5t-126 -304.5t-305 -126.5t-305 126.5t-126 304.5t126 304.5t305 126.5zM507 676q-144 0 -243.5 -99.5t-99.5 -246.5t99.5 -246.5t243.5 -99.5t243.5 99.5t99.5 246.5t-99.5 246.5t-243.5 99.5zM508 561q65 0 106 -31t41 -87
q0 -67 -70 -104q91 -37 91 -114q0 -58 -47 -92.5t-121 -34.5t-121.5 34.5t-47.5 92.5q0 77 92 113q-71 39 -71 105q0 56 41.5 87t106.5 31zM508 490q-27 0 -44.5 -14.5t-17.5 -38.5q0 -39 61 -63q63 24 63 63q0 24 -17.5 38.5t-44.5 14.5zM507 306q-38 -14 -58 -30.5
t-20 -44.5q0 -27 20.5 -44.5t58.5 -17.5q37 0 57.5 17t20.5 44q0 29 -20 45.5t-59 30.5z" />
    <glyph glyph-name="uni2788" unicode="&#x2788;" horiz-adv-x="983" 
d="M508 761q178 0 304 -126t126 -305t-126 -305t-304 -126q-179 0 -305.5 126.5t-126.5 304.5t126.5 304.5t305.5 126.5zM508 676q-144 0 -244 -100t-100 -246t100 -246t244 -100t243 99.5t99 246.5t-99 246.5t-243 99.5zM518 562q67 0 115.5 -45.5t48.5 -113.5
q0 -37 -13.5 -65.5t-47.5 -76.5l-112 -155h-108l111 154q-26 -5 -51 2q-46 11 -77.5 50t-31.5 92q0 68 49 113t117 45zM518 480q-31 0 -53 -22.5t-22 -54.5q0 -33 21.5 -54.5t53.5 -21.5q31 0 52.5 21.5t21.5 53.5q0 33 -21.5 55.5t-52.5 22.5z" />
    <glyph glyph-name="uni27F5" unicode="&#x27f5;" horiz-adv-x="1201" 
d="M1166 272l-887 1l-70 2l178 -178l-62 -62l-272 272v21l272 272l62 -62l-176 -176l68 1h887v-91z" />
    <glyph glyph-name="uni27F6" unicode="&#x27f6;" horiz-adv-x="1201" 
d="M903 600l272 -272v-21l-272 -272l-62 62l177 178l-69 -2l-887 -1v91h887l68 -1l-176 176z" />
    <glyph glyph-name="uniF8FF" unicode="&#xf8ff;" horiz-adv-x="722" 
d="M99 0v660h524v-660h-524zM458 123q36 0 58 22.5t22 53.5q0 27 -17 55.5t-45 45.5l-24 -25q45 -43 45 -76q0 -17 -10 -28t-27 -11q-23 0 -43 27t-54 103q82 47 110.5 77.5t28.5 62.5q0 39 -27.5 60.5t-74.5 21.5q-11 0 -33 -2l26 55l-41 7l-33 -71q-46 -9 -103 -36
q-23 -64 -23 -161q0 -80 20 -158l42 -8q23 116 43 186.5t52 147.5q20 4 41 4q70 0 70 -50q0 -24 -26.5 -48t-113.5 -74l-1 -6q39 -99 67 -137t71 -38zM231 202q-2 35 -2 81q0 88 23 157q24 13 51 20q-51 -130 -65 -258h-7z" />
    <glyph glyph-name="Alpha.ordn" horiz-adv-x="432" 
d="M329 244l-13 59h-168l-33 -59h-97l259 423h28l111 -423h-87zM302 368l-34 146l-84 -146h118z" />
    <glyph glyph-name="Eta.ordn" horiz-adv-x="476" 
d="M488 660l-73 -416h-85l30 180h-181l-31 -180h-85l73 416h85l-28 -159h181l29 159h85z" />
    <glyph glyph-name="Nu.ordn" horiz-adv-x="477" 
d="M403 660h85l-74 -423h-30l-192 253l-44 -246h-85l74 423h29l193 -253z" />
    <glyph glyph-name="Omicron.ordn" horiz-adv-x="506" 
d="M307 667q88 0 145.5 -57t57.5 -143q0 -96 -69.5 -163t-166.5 -67q-88 0 -145.5 57t-57.5 144q0 96 69.5 162.5t166.5 66.5zM301 588q-60 0 -101.5 -42.5t-41.5 -104.5q0 -55 35 -90t88 -35q59 0 100.5 42.5t41.5 104.5q0 55 -34.5 90t-87.5 35z" />
    <glyph glyph-name="Rho.ordn" horiz-adv-x="390" 
d="M272 660q67 0 105 -34t38 -92q0 -64 -47 -103.5t-123 -39.5h-72l-25 -147h-85l73 416h136zM268 585h-59l-21 -119h66q74 0 74 65q0 54 -60 54z" />
    <glyph glyph-name="Sigma.ordn" horiz-adv-x="374" 
d="M412 660l-14 -78h-171l65 -124l-3 -18l-100 -119h171l-14 -77h-308l2 18l158 196l-91 183l4 19h301z" />
    <glyph glyph-name="Upsilon.ordn" horiz-adv-x="407" 
d="M461 660l-185 -253l-28 -163h-85l29 163l-98 253h89l62 -163l118 163h98z" />
    <glyph glyph-name="alpha.ordn" horiz-adv-x="434" 
d="M413 313q3 0 8 0.5t8 0.5l-14 -72q-12 -3 -31 -3q-60 0 -75 47q-40 -48 -107 -48q-63 0 -101 42.5t-38 103.5q0 67 44 123t121 56q67 0 103 -46l6 39h85l-33 -193q-3 -14 -3 -23q0 -27 27 -27zM223 313q40 0 64 27.5t25 66.5q1 36 -20.5 58.5t-55.5 22.5q-38 0 -63 -27.5
t-25 -67.5q-1 -36 20 -58t55 -22z" />
    <glyph glyph-name="eta.ordn" horiz-adv-x="402" 
d="M279 563q48 -1 76 -30t28 -74q0 -19 -5 -42l-49 -286h-85l49 278q3 18 3 27q0 24 -13.5 37t-35.5 13q-25 0 -42.5 -16t-21.5 -43l-32 -183h-85l34 192q4 20 4 26q0 24 -28 24h-15l13 71q12 4 33 4q54 0 72 -40q44 42 100 42z" />
    <glyph glyph-name="nu.ordn" horiz-adv-x="360" 
d="M307 556h95l-209 -319h-27l-97 319h89l45 -168z" />
    <glyph glyph-name="omicron.ordn" horiz-adv-x="407" 
d="M241 566q68 0 113 -44t45 -111q-1 -71 -53 -120.5t-124 -49.5q-68 0 -113 44t-44 110q1 72 52.5 121.5t123.5 49.5zM238 489q-38 0 -63 -27t-26 -66q0 -35 21 -57t55 -22q38 0 63 26.5t26 65.5q0 36 -21 58t-55 22z" />
    <glyph glyph-name="rho.ordn" horiz-adv-x="416" 
d="M251 563q71 0 114.5 -42.5t43.5 -106.5q0 -66 -43 -121.5t-117 -55.5q-66 0 -103 46l-27 -152h-85l49 275q13 74 55.5 115.5t112.5 41.5zM324 407q0 35 -20 57t-53 22q-39 0 -62.5 -28.5t-23.5 -64.5q-1 -35 21 -57t54 -22q35 0 59 27.5t25 65.5z" />
    <glyph glyph-name="uni03C2.ordn" horiz-adv-x="350" 
d="M242 563q49 0 84 -23t51 -61l-64 -41q-27 47 -74 47q-38 0 -64 -25t-26 -63q0 -31 18 -48.5t57 -35.5q27 -14 40 -21t27.5 -19.5t20 -26.5t5.5 -34q0 -34 -26 -82h-85q23 40 23 63q0 10 -3.5 17.5t-12.5 14t-14.5 9.5t-19.5 10q-26 13 -40.5 22t-35 26.5t-30 41.5
t-9.5 56q0 74 52 123.5t126 49.5z" />
    <glyph glyph-name="sigma.ordn" horiz-adv-x="416" 
d="M462 556l-13 -72h-83q30 -31 30 -83q0 -69 -52 -116.5t-124 -47.5q-68 0 -112 43.5t-44 109.5q0 73 53 119.5t136 46.5h209zM311 405q0 36 -20.5 56t-53.5 20q-36 0 -61.5 -24t-25.5 -64q0 -36 20.5 -57.5t53.5 -21.5q37 0 62 25.5t25 65.5z" />
    <glyph glyph-name="upsilon.ordn" horiz-adv-x="387" 
d="M373 556q6 -44 6 -85q0 -101 -40.5 -167.5t-126.5 -66.5q-60 0 -97 33.5t-37 89.5q0 17 3 35l28 161h85l-29 -162q-3 -16 -3 -27q0 -23 15 -37.5t37 -14.5q79 0 79 173q0 36 -4 68h84z" />
    <glyph glyph-name="zero.lf" horiz-adv-x="625" 
d="M377 671q104 0 157.5 -67.5t53.5 -184.5q0 -64 -16 -133.5t-49.5 -138.5t-96.5 -113.5t-146 -44.5q-103 0 -157 68.5t-54 184.5q0 50 9 104.5t32 113.5t56.5 105t88.5 76t122 30zM364 574q-52 0 -91 -35.5t-58.5 -90.5t-28.5 -106.5t-9 -97.5q0 -84 32.5 -121t83.5 -37
q52 0 91 36.5t58.5 91.5t29 107t9.5 97q0 83 -32.5 119.5t-84.5 36.5z" />
    <glyph glyph-name="one.lf" horiz-adv-x="391" 
d="M329 660h37l-116 -660h-106l94 543l-140 -31l-10 94z" />
    <glyph glyph-name="two.lf" horiz-adv-x="572" 
d="M351 198l-130 -106h271l-15 -92h-473l4 25l283 242q71 60 102 107t31 95t-27.5 76.5t-75.5 28.5q-61 0 -91.5 -43t-30.5 -100q0 -17 1 -25h-108q-1 8 -1 29q0 92 61 164t173 72q95 0 151.5 -54.5t56.5 -140.5q0 -70 -42.5 -134t-139.5 -144z" />
    <glyph glyph-name="three.lf" horiz-adv-x="543" 
d="M550 660l-6 -29l-195 -220q60 -19 99 -69t39 -119q0 -92 -66.5 -163t-183.5 -71q-91 0 -149 45t-83 117l84 45q50 -111 149 -111q66 0 103 39t37 93t-37.5 84t-104.5 30h-59l5 29l182 205h-240l17 95h409z" />
    <glyph glyph-name="four.lf" horiz-adv-x="562" 
d="M538 206l-16 -91h-91l-20 -115h-106l20 115h-329l5 30l293 515h114l-260 -454h193l36 203h105l-35 -203h91z" />
    <glyph glyph-name="five.lf" horiz-adv-x="559" 
d="M517 565h-258l-26 -151q33 6 62 6q89 0 149 -52t60 -141q0 -96 -68 -167t-185 -71q-92 0 -152 45t-84 117l83 45q49 -111 153 -111q68 0 106 39t38 94q0 52 -35.5 81.5t-104.5 29.5h-140l58 331h361z" />
    <glyph glyph-name="six.lf" horiz-adv-x="557" 
d="M305 435q84 0 144 -59.5t60 -149.5q0 -100 -73.5 -168t-172.5 -68q-94 0 -159 61.5t-65 156.5q0 43 17.5 84.5t37.5 68.5t60 73l191 226h133l-194 -226q6 1 21 1zM267 86q57 0 96.5 39t39.5 99q0 55 -33.5 89.5t-87.5 34.5q-58 0 -97.5 -39.5t-39.5 -98.5q0 -54 34 -89
t88 -35z" />
    <glyph glyph-name="seven.lf" horiz-adv-x="513" 
d="M110 660h452l-5 -29l-426 -631h-119l388 566h-307z" />
    <glyph glyph-name="eight.lf" horiz-adv-x="582" 
d="M410 334q111 -58 111 -151q0 -73 -60.5 -133t-176.5 -60q-62 0 -116 17.5t-92 59t-38 99.5q0 66 47 115t131 71q-84 57 -84 137q0 72 55.5 127t157.5 55q86 0 147 -41.5t61 -122.5q0 -118 -143 -173zM344 581q-51 0 -80.5 -25.5t-29.5 -64.5q0 -31 20 -53.5t66 -49.5
q63 19 96.5 44t33.5 67q0 38 -29.5 60t-76.5 22zM279 80q69 0 102.5 30.5t33.5 71.5q0 37 -27.5 62t-85.5 54q-80 -20 -118.5 -49t-38.5 -72t35 -70t99 -27z" />
    <glyph glyph-name="nine.lf" horiz-adv-x="557" 
d="M326 671q94 0 159 -62t65 -157q0 -43 -17.5 -84.5t-37 -67.5t-60.5 -74l-191 -226h-133l194 226q-6 -1 -21 -1q-84 0 -143.5 59.5t-59.5 149.5q0 100 73 168.5t172 68.5zM308 313q57 0 96.5 39t39.5 98q0 54 -33.5 89.5t-87.5 35.5q-58 0 -97.5 -39.5t-39.5 -99.5
q0 -54 34 -88.5t88 -34.5z" />
    <glyph glyph-name="zero.slash.lf" horiz-adv-x="625" 
d="M376 671q104 0 158 -67.5t54 -183.5q0 -65 -16 -134.5t-49.5 -138.5t-96.5 -113.5t-145 -44.5q-104 0 -158 68.5t-54 184.5q0 50 9 104.5t32 113.5t56.5 105t88 76t121.5 30zM365 578q-53 0 -93 -35.5t-60 -90t-29.5 -106t-9.5 -97.5l298 254q-27 75 -106 75zM290 82
q42 0 76.5 24t55.5 60t35.5 82t20 86t6.5 76l-298 -254q27 -74 104 -74z" />
    <glyph glyph-name="zero.slash" horiz-adv-x="661" 
d="M349 546q114 0 193 -76t79 -189q0 -121 -89.5 -206.5t-212.5 -85.5q-114 0 -192 76t-78 188q0 122 89 207.5t211 85.5zM346 455q-80 0 -136 -59t-56 -142q0 -34 11 -67l294 227q-46 41 -113 41zM322 80q81 0 137.5 57.5t56.5 141.5q0 39 -13 71l-294 -228q45 -42 113 -42
z" />
    <glyph glyph-name="zero.tf" 
d="M340 670q97 0 148 -66.5t51 -184.5q0 -40 -6 -84t-18.5 -93.5t-35.5 -93.5t-53.5 -80t-75 -57t-98.5 -21q-97 0 -147.5 67t-50.5 187q0 49 7.5 102t28 112t51.5 105t82.5 76.5t116.5 30.5zM328 573q-46 0 -80.5 -37.5t-52 -94.5t-26 -110t-8.5 -97q0 -147 102 -147
q45 0 80 38t53 95t26.5 110.5t8.5 98.5q0 144 -103 144z" />
    <glyph glyph-name="one.tf" 
d="M332 91h165l-16 -91h-457l16 91h186l79 450l-173 -46l-12 96l277 75h36z" />
    <glyph glyph-name="two.tf" 
d="M351 198l-132 -108h275l-16 -90h-472l4 24l283 241q72 61 103 109t31 95q0 48 -28 76.5t-77 28.5q-61 0 -91.5 -43t-30.5 -100q0 -17 1 -25h-107q-1 8 -1 29q0 58 23.5 110t78 89t131.5 37q96 0 152.5 -54.5t56.5 -140.5q0 -70 -43 -133.5t-141 -144.5z" />
    <glyph glyph-name="three.tf" 
d="M551 660l-6 -29l-196 -220q61 -19 100 -69t39 -119q0 -92 -66.5 -163t-183.5 -71q-91 0 -149 45t-83 117l83 45q50 -111 150 -111q67 0 103.5 39t36.5 93t-37.5 84t-104.5 30h-59l5 29l183 206h-241l17 94h409z" />
    <glyph glyph-name="four.tf" 
d="M523 206l-17 -91h-78l-20 -115h-106l21 115h-326l5 29l285 516h114l-254 -454h191l35 197h106l-35 -197h79z" />
    <glyph glyph-name="five.tf" 
d="M520 566h-258l-27 -151q37 5 61 5q91 0 150.5 -52t59.5 -141q0 -96 -67.5 -167t-184.5 -71q-93 0 -152.5 45t-84.5 117l83 45q49 -111 154 -111q68 0 106 39t38 94q0 52 -36 81.5t-104 29.5h-141l58 331h362z" />
    <glyph glyph-name="six.tf" 
d="M306 435q84 0 144.5 -59t60.5 -149q0 -101 -73.5 -169t-172.5 -68q-94 0 -159 61.5t-65 156.5q0 43 17.5 84.5t37.5 68.5t60 73l191 226h131l-192 -226q7 1 20 1zM269 85q58 0 98.5 39.5t40.5 99.5q0 55 -34.5 90t-89.5 35q-58 0 -98.5 -40t-40.5 -99q0 -54 35 -89.5
t89 -35.5z" />
    <glyph glyph-name="seven.tf" 
d="M139 660h451l-5 -29l-425 -631h-119l387 566h-306z" />
    <glyph glyph-name="eight.tf" 
d="M394 332q114 -57 114 -150q0 -32 -13.5 -64.5t-40.5 -62t-74 -47.5t-107 -18q-97 0 -170 45t-73 131q0 67 47.5 116t130.5 70q-84 58 -84 137q0 72 55.5 126t155.5 54q85 0 145 -40.5t60 -120.5q0 -120 -146 -176zM333 585q-49 0 -80 -27.5t-31 -67.5q0 -30 21 -53.5
t66 -50.5q62 19 97 44.5t35 67.5q0 39 -30.5 63t-77.5 24zM267 75q68 0 101.5 33t33.5 74q0 37 -27 63.5t-81 53.5q-81 -20 -119 -49.5t-38 -74.5t34.5 -72.5t95.5 -27.5z" />
    <glyph glyph-name="nine.tf" 
d="M325 670q94 0 158.5 -61.5t64.5 -156.5q0 -43 -17.5 -84.5t-37 -68t-59.5 -73.5l-192 -226h-133l195 226q-7 -1 -21 -1q-84 0 -144 59.5t-60 149.5q0 100 73 168t173 68zM306 312q58 0 97.5 39.5t39.5 98.5q0 54 -34 89t-88 35q-58 0 -97 -39t-39 -99q0 -55 33.5 -89.5
t87.5 -34.5z" />
    <glyph glyph-name="zero.slash.tf" 
d="M340 670q97 0 148 -66.5t51 -184.5q0 -40 -6 -84t-18.5 -93.5t-35.5 -93.5t-53.5 -80t-75 -57t-98.5 -21q-97 0 -147.5 67t-50.5 187q0 49 7.5 102t28 112t51.5 105t82.5 76.5t116.5 30.5zM331 577q-43 0 -76.5 -31t-52.5 -81.5t-29.5 -100t-13.5 -99.5l269 230
q-19 82 -97 82zM262 83q42 0 75 30.5t52 80.5t29.5 99.5t14.5 99.5l-268 -228q19 -82 97 -82z" />
    <glyph glyph-name="zero.tosf" 
d="M297 545q107 0 174.5 -71t67.5 -180q0 -52 -17 -104.5t-48.5 -98t-84.5 -74t-118 -28.5q-107 0 -174.5 71t-67.5 179q0 52 17 105t48.5 98.5t84.5 74t118 28.5zM294 448q-42 0 -74 -21t-49 -53.5t-25 -66t-8 -65.5q0 -70 37 -113t99 -43q42 0 74.5 21.5t49.5 54.5
t25 66.5t8 64.5q0 69 -37.5 112t-99.5 43z" />
    <glyph glyph-name="one.tosf" 
d="M404 535l-78 -446h171l-16 -89h-463l16 89h186l62 353h-172l17 93h277z" />
    <glyph glyph-name="two.tosf" 
d="M305 123l-54 -35h228l-15 -88h-471l5 24l230 150q87 55 127.5 94.5t40.5 89.5q0 40 -27.5 66t-74.5 26q-58 0 -85 -37.5t-27 -82.5q0 -19 1 -30h-102q-5 22 -5 43q0 81 63 142t161 61q90 0 147 -51.5t57 -128.5q0 -70 -50 -124t-149 -119z" />
    <glyph glyph-name="three.tosf" 
d="M529 535l-5 -29l-196 -217q60 -18 99.5 -68t39.5 -119q0 -92 -67 -163.5t-183 -71.5q-91 0 -149 45t-84 117l84 46q49 -112 150 -112q65 0 102.5 39.5t37.5 93.5q0 53 -37.5 83t-102.5 30h-61l5 28l184 205h-243l17 93h409z" />
    <glyph glyph-name="four.tosf" 
d="M500 88l-16 -88h-80l-21 -121h-106l22 121h-325l5 29l291 506h113l-259 -447h190l36 200h105l-35 -200h80z" />
    <glyph glyph-name="five.tosf" 
d="M498 442h-258l-26 -151q38 7 61 7q90 0 150 -52t60 -141q0 -96 -67.5 -167t-184.5 -71q-91 0 -151 45t-86 117l83 46q26 -56 62 -84t91 -28q68 0 106 39t38 94q0 52 -35.5 81.5t-104.5 29.5h-140l57 328h362z" />
    <glyph glyph-name="six.tosf" 
d="M309 435q84 0 144 -59t60 -149q0 -101 -73 -169t-172 -68q-94 0 -159 61.5t-65 156.5q0 43 17.5 84.5t37.5 68.5t60 73l191 226h131l-191 -226q6 1 19 1zM272 85q58 0 98.5 39.5t40.5 99.5q0 55 -35 90t-89 35q-58 0 -98.5 -40t-40.5 -99q0 -54 35 -89.5t89 -35.5z" />
    <glyph glyph-name="seven.tosf" 
d="M117 535h451l-5 -29l-422 -627h-120l386 563h-307z" />
    <glyph glyph-name="eight.tosf" 
d="M394 332q114 -57 114 -150q0 -32 -13.5 -64.5t-40.5 -62t-74 -47.5t-107 -18q-97 0 -170 45t-73 131q0 67 47.5 116t130.5 70q-84 58 -84 137q0 72 55.5 126t155.5 54q85 0 145 -40.5t60 -120.5q0 -120 -146 -176zM333 585q-49 0 -80 -27.5t-31 -67.5q0 -30 21 -53.5
t66 -50.5q62 19 97 44.5t35 67.5q0 39 -30.5 63t-77.5 24zM267 75q68 0 101.5 33t33.5 74q0 37 -27 63.5t-81 53.5q-81 -20 -119 -49.5t-38 -74.5t34.5 -72.5t95.5 -27.5z" />
    <glyph glyph-name="nine.tosf" 
d="M309 546q94 0 158 -61.5t64 -156.5q0 -43 -17.5 -84.5t-36.5 -67.5t-59 -74l-190 -223h-130l189 223q-6 -1 -19 -1q-85 0 -145.5 59.5t-60.5 149.5q0 100 73.5 168t173.5 68zM289 187q58 0 99 40t41 99q0 54 -35.5 90t-89.5 36q-58 0 -98 -39.5t-40 -99.5q0 -55 35 -90.5
t88 -35.5z" />
    <glyph glyph-name="zero.slash.tosf" 
d="M298 545q107 0 175 -71t68 -180q0 -52 -17 -104.5t-49 -98t-85 -74t-118 -28.5q-107 0 -174 71t-67 179q0 52 17 105t48.5 98.5t84 74t117.5 28.5zM297 455q-45 0 -79 -21.5t-51.5 -56t-26 -69t-8.5 -67.5q0 -24 4 -43l267 211q-40 46 -106 46zM274 78q45 0 79.5 22.5
t52 57.5t26 69.5t8.5 67.5q0 26 -4 43l-268 -212q40 -48 106 -48z" />
    <glyph glyph-name="zero.dnom" horiz-adv-x="415" 
d="M234 423q68 0 101.5 -42t33.5 -116q0 -41 -10 -85t-31.5 -87.5t-62.5 -71.5t-94 -28q-68 0 -102 42.5t-34 117.5q0 41 10.5 84.5t31.5 86.5t62 71t95 28zM223 347q-29 0 -50 -20.5t-32 -52t-16 -61.5t-5 -57q0 -87 61 -87q29 0 51 21t33 53.5t16 62.5t5 56q0 85 -63 85z
" />
    <glyph glyph-name="one.dnom" horiz-adv-x="361" 
d="M261 416l-60 -341h88l-13 -75h-274l14 75h102l47 266h-96l13 75h179z" />
    <glyph glyph-name="two.dnom" horiz-adv-x="376" 
d="M212 118l-53 -43h148l-14 -75h-301l4 18l175 156q78 68 78 116q0 26 -15.5 41.5t-41.5 15.5q-32 0 -48 -22t-16 -57v-11h-83v15q0 61 39 106t111 45q64 0 101 -36t37 -91q0 -45 -28 -83.5t-93 -94.5z" />
    <glyph glyph-name="three.dnom" horiz-adv-x="357" 
d="M341 416l-4 -23l-116 -133q35 -13 57 -44t22 -73q0 -58 -42 -104t-118 -46q-60 0 -97 29t-52 77l65 35q29 -65 84 -65q37 0 56.5 20.5t19.5 49.5q0 58 -78 58h-47l4 22l106 122h-138l14 75h264z" />
    <glyph glyph-name="four.dnom" horiz-adv-x="365" 
d="M333 140l-13 -71h-51l-12 -69h-77l12 69h-210l4 23l175 324h92l-151 -276h102l20 116h77l-20 -116h52z" />
    <glyph glyph-name="five.dnom" horiz-adv-x="367" 
d="M321 341h-158l-13 -76q15 3 31 3q55 0 92.5 -32.5t37.5 -89.5q0 -61 -43.5 -107t-118.5 -46q-59 0 -98.5 29.5t-54.5 76.5l66 35q27 -65 88 -65q36 0 56.5 20.5t20.5 49.5q0 58 -77 58h-92l38 219h238z" />
    <glyph glyph-name="six.dnom" horiz-adv-x="373" 
d="M198 282q50 -2 86 -39.5t36 -95.5q0 -66 -47.5 -109.5t-110.5 -43.5q-60 0 -102.5 40t-42.5 102q0 37 16.5 66.5t54.5 74.5l119 139h106zM165 70q30 0 51 21t21 53q0 30 -17.5 48.5t-45.5 18.5q-31 0 -52 -21.5t-21 -52.5q0 -29 18 -48t46 -19z" />
    <glyph glyph-name="seven.dnom" horiz-adv-x="336" 
d="M62 416h287l-4 -23l-251 -393h-97l223 341h-172z" />
    <glyph glyph-name="eight.dnom" horiz-adv-x="385" 
d="M263 208q61 -35 61 -89q0 -47 -39 -85.5t-112 -38.5q-60 0 -108 27.5t-48 85.5q0 40 26 71t76 45q-45 33 -45 82q0 46 36 81.5t101 35.5q55 0 94.5 -26.5t39.5 -78.5q0 -73 -82 -110zM210 358q-26 0 -42.5 -15t-16.5 -37q0 -16 10.5 -27.5t35.5 -27.5q72 23 72 59
q0 21 -17 34.5t-42 13.5zM169 61q36 0 54.5 17t18.5 40q0 20 -13.5 33.5t-42.5 29.5q-46 -12 -66.5 -27.5t-20.5 -38.5q0 -25 18.5 -39.5t51.5 -14.5z" />
    <glyph glyph-name="nine.dnom" horiz-adv-x="373" 
d="M200 422q59 0 102 -40t43 -102q0 -37 -16.5 -66.5t-54.5 -74.5l-119 -139h-105l114 134q-50 2 -86 39.5t-36 95.5q0 66 47.5 109.5t110.5 43.5zM188 206q31 0 52.5 21t21.5 52q0 29 -18.5 48t-46.5 19q-30 0 -51 -21t-21 -53q0 -30 17.5 -48t45.5 -18z" />
    <glyph glyph-name="zero.numr" horiz-adv-x="415" 
d="M277 667q68 0 101.5 -42t33.5 -116q0 -41 -10 -85t-31.5 -87.5t-62.5 -71.5t-94 -28q-68 0 -102 42.5t-34 117.5q0 41 10.5 84.5t31.5 86.5t62 71t95 28zM266 591q-29 0 -50 -20.5t-32 -52t-16 -61.5t-5 -57q0 -87 61 -87q29 0 51 21t33 53.5t16 62.5t5 56q0 85 -63 85z
" />
    <glyph glyph-name="one.numr" horiz-adv-x="361" 
d="M304 660l-60 -341h88l-13 -75h-274l14 75h102l47 266h-96l13 75h179z" />
    <glyph glyph-name="two.numr" horiz-adv-x="376" 
d="M255 362l-53 -43h148l-14 -75h-301l4 18l175 156q78 68 78 116q0 26 -15.5 41.5t-41.5 15.5q-32 0 -48 -22t-16 -57v-11h-83v15q0 61 39 106t111 45q64 0 101 -36t37 -91q0 -45 -28 -83.5t-93 -94.5z" />
    <glyph glyph-name="three.numr" horiz-adv-x="357" 
d="M384 660l-4 -23l-116 -134q34 -13 56.5 -44t22.5 -72q0 -58 -42 -104t-118 -46q-60 0 -97 29t-52 77l65 35q29 -65 84 -65q37 0 56.5 20.5t19.5 49.5q0 58 -78 58h-46v1l-1 -1l4 22l106 122h-138l14 75h264z" />
    <glyph glyph-name="four.numr" horiz-adv-x="365" 
d="M376 384l-13 -71h-51l-12 -69h-77l12 69h-210l4 23l175 324h92l-150 -276h101l20 116h77l-20 -116h52z" />
    <glyph glyph-name="five.numr" horiz-adv-x="367" 
d="M364 585h-158l-13 -76q17 3 31 3q55 0 92.5 -32.5t37.5 -89.5q0 -61 -43.5 -107t-118.5 -46q-59 0 -98.5 29.5t-54.5 76.5l66 35q27 -65 88 -65q36 0 56.5 20.5t20.5 49.5q0 58 -77 58h-92l38 219h238z" />
    <glyph glyph-name="six.numr" horiz-adv-x="373" 
d="M241 526q50 -2 86 -40t36 -95q0 -66 -47.5 -109.5t-110.5 -43.5q-60 0 -102.5 40t-42.5 102q0 37 16.5 66.5t54.5 74.5l119 139h106zM208 314q30 0 51 21t21 53q0 30 -17.5 48.5t-45.5 18.5q-31 0 -52 -21.5t-21 -52.5q0 -29 18 -48t46 -19z" />
    <glyph glyph-name="seven.numr" horiz-adv-x="336" 
d="M105 660h287l-4 -23l-251 -393h-97l223 341h-172z" />
    <glyph glyph-name="eight.numr" horiz-adv-x="385" 
d="M305 452q62 -34 62 -89q0 -47 -39 -85.5t-112 -38.5q-60 0 -108 27.5t-48 85.5q0 40 26 71t76 45q-45 33 -45 82q0 46 36 81.5t101 35.5q55 0 94.5 -26.5t39.5 -78.5q0 -74 -83 -110zM253 602q-26 0 -42.5 -15t-16.5 -37q0 -16 10.5 -27.5t35.5 -27.5q72 23 72 59
q0 21 -17 34.5t-42 13.5zM212 305q36 0 54.5 17t18.5 40q0 20 -13.5 33.5t-43.5 29.5q-46 -12 -66 -27t-20 -39q0 -25 18.5 -39.5t51.5 -14.5z" />
    <glyph glyph-name="nine.numr" horiz-adv-x="373" 
d="M243 666q59 0 102 -40t43 -102q0 -37 -16.5 -66.5t-54.5 -74.5l-119 -139h-105l114 134q-49 2 -85.5 40t-36.5 95q0 66 47.5 109.5t110.5 43.5zM231 450q31 0 52.5 21t21.5 52q0 29 -18.5 48t-46.5 19q-30 0 -51 -21t-21 -53q0 -30 17.5 -48t45.5 -18z" />
    <glyph glyph-name="backslash.case" horiz-adv-x="620" 
d="M196 760l358 -860h-99l-358 860h99z" />
    <glyph glyph-name="periodcentered.case" horiz-adv-x="270" 
d="M155 428q33 0 55 -22t22 -55t-22 -55.5t-55 -22.5t-55.5 22t-22.5 56q0 33 22.5 55t55.5 22z" />
    <glyph glyph-name="bullet.case" horiz-adv-x="401" 
d="M212 447q61 0 104 -41t43 -103q0 -61 -43 -102t-104 -41q-60 0 -103.5 41t-43.5 102q0 62 43.5 103t103.5 41z" />
    <glyph glyph-name="slash.case" horiz-adv-x="616" 
d="M703 761l-646 -861h-113l645 861h114z" />
    <glyph glyph-name="comma.subs" horiz-adv-x="208" 
d="M113 -18l-73 -220h-68l44 220h97z" />
    <glyph glyph-name="period.subs" horiz-adv-x="208" 
d="M50 -7q25 0 42.5 -17.5t17.5 -43.5t-17 -43t-43 -17t-43.5 17t-17.5 43t17.5 43.5t43.5 17.5z" />
    <glyph glyph-name="comma.sups" horiz-adv-x="208" 
d="M199 466l-74 -220h-68l44 220h98z" />
    <glyph glyph-name="period.sups" horiz-adv-x="207" 
d="M135 477q25 0 42.5 -17.5t17.5 -43.5t-17 -43t-43 -17t-43.5 17t-17.5 43t17.5 43.5t43.5 17.5z" />
    <glyph glyph-name="braceleft.case" horiz-adv-x="404" 
d="M380 760h70l-15 -88h-53q-52 0 -70 -29.5t-18 -88.5v-97q0 -61 -18.5 -92t-68.5 -39q54 -13 54 -62q0 -32 -30.5 -113.5t-30.5 -111.5q0 -51 62 -51h53l-16 -88h-70q-55 0 -91 29t-36 84q0 43 30.5 124.5t30.5 105.5q0 39 -50 39h-61l16 91h63q40 0 55 19.5t15 65.5v104
q0 198 179 198z" />
    <glyph glyph-name="braceright.case" horiz-adv-x="404" 
d="M323 374h61l-16 -91h-63q-40 0 -55 -20.5t-15 -65.5v-98q0 -199 -180 -199h-69l15 88h53q52 0 70 30t18 89v93q0 61 18.5 91.5t69.5 39.5q-55 13 -55 63q0 32 30 114.5t30 112.5q0 51 -61 51h-53l15 88h71q55 0 91 -29t36 -84q0 -43 -30.5 -126.5t-30.5 -107.5
q0 -39 50 -39z" />
    <glyph glyph-name="bracketleft.case" horiz-adv-x="353" 
d="M398 760l-16 -88h-114l-120 -682h114l-15 -90h-209l151 860h209z" />
    <glyph glyph-name="bracketright.case" horiz-adv-x="354" 
d="M348 760l-151 -860h-209l15 88h114l121 682h-115l16 90h209z" />
    <glyph glyph-name="parenleft.case" horiz-adv-x="352" 
d="M378 763l31 -68q-61 -29 -107.5 -83t-72.5 -120t-38.5 -134t-12.5 -137q0 -182 101 -265l-53 -60q-145 93 -145 327q0 79 17.5 160.5t52 158t93.5 136t134 85.5z" />
    <glyph glyph-name="parenright.case" horiz-adv-x="353" 
d="M157 763q145 -92 145 -327q0 -79 -17.5 -160.5t-51.5 -158t-93 -136t-134 -85.5l-31 68q61 29 107 83t72 120t39 134t13 137q0 182 -101 265z" />
    <glyph glyph-name="emdash.case" horiz-adv-x="1000" 
d="M978 396l-17 -89h-900l17 89h900z" />
    <glyph glyph-name="endash.case" horiz-adv-x="500" 
d="M488 396l-16 -89h-421l16 89h421z" />
    <glyph glyph-name="uni2015.case" horiz-adv-x="1000" 
d="M978 396l-17 -89h-900l17 89h900z" />
    <glyph glyph-name="hyphen.case" horiz-adv-x="340" 
d="M319 396l-16 -89h-241l15 89h242z" />
    <glyph glyph-name="uni00AD.case" horiz-adv-x="340" 
d="M319 396l-16 -89h-241l15 89h242z" />
    <glyph glyph-name="guillemotleft.case" horiz-adv-x="548" 
d="M551 456l-165 -155l110 -153l-74 -56l-154 199l6 29l216 199zM325 456l-166 -155l111 -153l-74 -56l-154 199l5 29l217 199z" />
    <glyph glyph-name="guillemotright.case" horiz-adv-x="549" 
d="M376 519l153 -198l-5 -30l-217 -199l-60 63l165 156l-111 152zM303 321l-5 -30l-217 -199l-60 63l165 156l-111 152l75 56z" />
    <glyph glyph-name="guilsinglleft.case" horiz-adv-x="322" 
d="M325 456l-166 -155l111 -153l-74 -56l-154 199l5 29l217 199z" />
    <glyph glyph-name="guilsinglright.case" horiz-adv-x="323" 
d="M150 519l153 -198l-5 -30l-217 -199l-60 63l165 156l-111 152z" />
    <glyph glyph-name="cent.tf" 
d="M329 168q72 7 121 68l68 -59q-77 -103 -206 -106l-29 -166h-97l31 180q-73 24 -117.5 85t-44.5 142q0 105 72.5 181.5t177.5 87.5l29 168h97l-31 -174q104 -24 148 -116l-79 -53q-33 54 -86 72zM163 316q0 -91 72 -131l52 296q-55 -14 -89.5 -59.5t-34.5 -105.5z" />
    <glyph glyph-name="currency.tf" 
d="M516 339q0 -82 -54 -147l75 -85l-66 -61l-79 88q-50 -25 -104 -25q-73 0 -132 41l-95 -94l-61 66l97 94q-26 49 -26 100q0 80 53 145l-70 81l65 61l74 -84q49 26 105 26q75 0 134 -43l97 91l61 -66l-99 -92q25 -44 25 -96zM287 203q53 0 90 37.5t37 92.5q0 51 -32.5 83.5
t-83.5 32.5q-53 0 -89.5 -36t-36.5 -91q0 -52 32.5 -85.5t82.5 -33.5z" />
    <glyph glyph-name="dollar.tf" 
d="M361 357q118 -62 118 -155q0 -67 -48.5 -120.5t-136.5 -59.5l-21 -117h-97l22 127q-100 31 -155 135l80 50q41 -65 92 -88l31 178l-6 4q-116 60 -116 154q0 67 49 115.5t131 53.5l20 115h98l-22 -126q71 -25 117 -103l-80 -53q-25 39 -55 56l-28 -162zM230 471
q0 -34 35 -59l22 125q-57 -13 -57 -66zM311 120q62 16 62 72q0 37 -38 64z" />
    <glyph glyph-name="Euro.tf" 
d="M437 574q-131 0 -192 -127h281l-37 -83h-272q-8 -38 -8 -72h246l-37 -83h-198q17 -58 61 -90.5t112 -32.5q50 0 99 17l11 -92q-56 -22 -123 -22q-111 0 -182.5 60t-90.5 160h-99l14 83h78q2 42 8 72h-72l14 83h81q38 98 114.5 161t188.5 63q98 0 173 -46l-39 -85
q-62 34 -131 34z" />
    <glyph glyph-name="florin.tf" 
d="M486 671q46 0 90 -14l-16 -85q-29 4 -60 4q-88 0 -113 -76l-29 -98h126l-18 -90h-135l-88 -291q-47 -154 -199 -154q-48 0 -90 14l16 85q46 -4 63 -4q87 0 110 77l83 273h-101l17 90h111l34 115q23 77 75 115.5t124 38.5z" />
    <glyph glyph-name="sterling.tf" 
d="M289 237q-3 -88 -69 -146h263l-15 -91h-464l5 24q167 95 174 213h-128l16 91h98q-3 8 -11 32t-11.5 36.5t-7 32.5t-3.5 38q0 81 58 142.5t162 61.5q84 0 142.5 -46t69.5 -144l-95 -24q-17 117 -114 117q-58 0 -87.5 -37.5t-29.5 -84.5q0 -19 4.5 -38t15.5 -48t14 -38h161
l-15 -91h-133z" />
    <glyph glyph-name="yen.tf" 
d="M350 337l-3 -21h177l-15 -88l-12 -65h-177l-29 -163h-106l29 163h-177l16 88l11 65h177l3 23l-150 321h112l104 -236l184 236h120z" />
    <glyph glyph-name="section.case" horiz-adv-x="579" 
d="M440 420q107 -86 107 -163q0 -52 -36 -93.5t-103 -57.5q2 -16 2 -26q0 -61 -48.5 -107.5t-130.5 -46.5q-67 0 -112 31.5t-67 79.5l71 52q39 -71 110 -71q33 0 53.5 17.5t20.5 45.5q0 21 -13.5 40t-44.5 45l-79 69q-107 86 -107 163q0 52 36.5 94t103.5 57q-2 16 -2 26
q0 62 48 108t130 46q67 0 112 -31.5t67 -79.5l-71 -52q-39 71 -110 71q-33 0 -53.5 -17.5t-20.5 -45.5q0 -21 13.5 -40t44.5 -45zM378 173q29 9 47.5 29.5t18.5 47.5q0 22 -14.5 43t-50.5 52l-87 76q-39 32 -59 62q-30 -9 -48.5 -30t-18.5 -48q0 -22 14.5 -43t51.5 -52
l87 -76q38 -32 59 -61z" />
    <glyph glyph-name="dieresis.case" horiz-adv-x="452" 
d="M199 877q29 0 48.5 -18.5t19.5 -46.5q0 -26 -20 -45.5t-48 -19.5q-26 0 -46.5 19.5t-20.5 45.5q0 27 20 46t47 19zM447 877q28 0 48 -19t20 -47q0 -26 -20 -45.5t-48 -19.5q-27 0 -47.5 19.5t-20.5 45.5q0 27 20.5 46.5t47.5 19.5z" />
    <glyph glyph-name="dieresis.i" horiz-adv-x="407" 
d="M175 740q28 0 48 -19t20 -46t-20 -46t-48 -19q-27 0 -47.5 19t-20.5 46t20.5 46t47.5 19zM381 740q29 0 48.5 -18.5t19.5 -46.5q0 -27 -20 -46t-48 -19q-27 0 -47 19t-20 46t20 46t47 19z" />
    <glyph glyph-name="otatonos" horiz-adv-x="186" 
d="M251 780l-3 -19l-81 -193h-79l37 212h126z" />
    </font>
</defs>
</svg>
