<svg xmlns="http://www.w3.org/2000/svg" viewBox="0 0 325.83 23.29"><path d="M0 .38v3.24h7.58v19.29h3.62V3.62h7.62V.38zm43.69 0V14a5.91 5.91 0 0 1-1.57 4.41 5.55 5.55 0 0 1-4 1.54A5.65 5.65 0 0 1 34 18.44 5.84 5.84 0 0 1 32.42 14V.38H28.8V13.8a9.3 9.3 0 0 0 2.58 6.94 9.12 9.12 0 0 0 6.71 2.55 9 9 0 0 0 6.64-2.55 9.3 9.3 0 0 0 2.58-6.94V.38zm27.43 13.24a6.58 6.58 0 0 0 3.19-2.45 6.71 6.71 0 0 0 1.15-3.9 6.39 6.39 0 0 0-2.12-5A7.9 7.9 0 0 0 67.81.38h-8.23v22.53h3.62v-8.7h4.13l6.42 8.7h4.13zM67.74 11H63.2V3.59h4.54a4.08 4.08 0 0 1 2.94 1 3.6 3.6 0 0 1 1.06 2.7A3.55 3.55 0 0 1 70.68 10a4.08 4.08 0 0 1-2.94 1zM102.92.38v15.19L89.23 0H88v22.91h3.62V7.68l13.72 15.61h1.23V.38zm19.79 19.29v-7.14h8.43V9.39h-8.43V3.62h11.2V.38h-14.82v22.53h15.23v-3.24zm34.19-6.05a6.58 6.58 0 0 0 3.19-2.45 6.71 6.71 0 0 0 1.15-3.9 6.39 6.39 0 0 0-2.12-5 7.92 7.92 0 0 0-5.53-1.89h-8.23v22.53H149v-8.7h4.13l6.42 8.7h4.13zM153.52 11H149V3.59h4.54a4.08 4.08 0 0 1 2.94 1 3.59 3.59 0 0 1 1 2.7 3.55 3.55 0 0 1-1 2.66 4.08 4.08 0 0 1-2.96 1.05zM189.61 12.77a6 6 0 0 0-3.13-2.15 5.24 5.24 0 0 0 1.92-4.23 5.57 5.57 0 0 0-1.86-4.34 7.05 7.05 0 0 0-4.9-1.67h-7.89v22.53h9.66a7.51 7.51 0 0 0 5.29-1.84 6.08 6.08 0 0 0 2-4.71 5.87 5.87 0 0 0-1.09-3.59zM177.3 3.55h4a3.78 3.78 0 0 1 2.58.8 2.82 2.82 0 0 1 .91 2.21 2.91 2.91 0 0 1-.91 2.23 3.64 3.64 0 0 1-2.58.84h-4zM186 18.8a4.22 4.22 0 0 1-2.92.94h-5.8v-7h5.8a4.17 4.17 0 0 1 2.92.95 3.3 3.3 0 0 1 1 2.56 3.25 3.25 0 0 1-1 2.55zM209.07 0h-1.23l-9.94 22.91h3.86l1.61-3.75h10.14l1.6 3.75H219zm-4.37 16.05l3.75-9.36 3.72 9.36zM223.11.38v3.24h7.58v19.29h3.62V3.62h7.62V.38zm40.78 12.7a12.43 12.43 0 0 0-4.06-2.73l-2.53-1.16a11.86 11.86 0 0 1-2.42-1.44 2.2 2.2 0 0 1-.72-1.75 2.35 2.35 0 0 1 1-2 4.15 4.15 0 0 1 2.43-.7 5.48 5.48 0 0 1 4.73 2.7l2.53-2a8.08 8.08 0 0 0-3-2.92A8.43 8.43 0 0 0 257.58 0a7.67 7.67 0 0 0-5.06 1.69 5.48 5.48 0 0 0-2.05 4.42 5.15 5.15 0 0 0 1.39 3.66 12 12 0 0 0 3.87 2.59l2.49 1.16a11 11 0 0 1 2.55 1.5 2.41 2.41 0 0 1 .77 1.88 2.77 2.77 0 0 1-1.08 2.29 4.39 4.39 0 0 1-2.82.85q-3.4 0-5.9-3.58l-2.56 1.95a9.43 9.43 0 0 0 3.51 3.59 9.65 9.65 0 0 0 5 1.3 8.15 8.15 0 0 0 5.41-1.79 5.9 5.9 0 0 0 2.13-4.73 5.28 5.28 0 0 0-1.34-3.7zM294 3.36a12.13 12.13 0 0 0-16.76 0 11.15 11.15 0 0 0-3.43 8.28 11.12 11.12 0 0 0 3.43 8.28 12.1 12.1 0 0 0 16.76 0 11.08 11.08 0 0 0 3.47-8.28A11.11 11.11 0 0 0 294 3.36zm-2.56 14.24a8.25 8.25 0 0 1-11.59 0 8.3 8.3 0 0 1-2.29-6 8.2 8.2 0 0 1 2.29-5.94 8.26 8.26 0 0 1 11.58 0 8.15 8.15 0 0 1 2.32 5.92 8.24 8.24 0 0 1-2.31 6.02zM322.21.38v15.19L308.51 0h-1.26v22.91h3.62V7.68l13.73 15.61h1.23V.38z"/></svg>