<?xml version="1.0" encoding="UTF-8"?>
<svg width="32px" height="26px" viewBox="0 0 32 26" version="1.1" xmlns="http://www.w3.org/2000/svg" xmlns:xlink="http://www.w3.org/1999/xlink">
    <!-- Generator: Sketch 50.2 (55047) - http://www.bohemiancoding.com/sketch -->
    <title>“ copy</title>
    <desc>Created with Sketch.</desc>
    <defs></defs>
    <g id="FINAL" stroke="none" stroke-width="1" fill="none" fill-rule="evenodd">
        <g id="testimonial-mobile" transform="translate(-38.000000, -462.000000)" fill="#DA291C">
            <path d="M57,487.5 C57,486.458328 56.9755862,484.903982 56.9267578,482.836914 C56.8779294,480.769846 56.8535156,479.248052 56.8535156,478.271484 C56.8535156,476.350902 56.9104812,474.6989 57.0244141,473.31543 C57.1383469,471.931959 57.390623,470.515958 57.78125,469.067383 C58.171877,467.618808 58.708981,466.446945 59.3925781,465.551758 C60.0761753,464.656571 61.0039004,463.924156 62.1757812,463.354492 C63.3476621,462.784828 64.7473877,462.5 66.375,462.5 L69.5,468.75 C67.253895,468.75 65.6507209,469.238276 64.6904297,470.214844 C63.7301384,471.191411 63.25,472.786447 63.25,475 L69.5,475 L69.5,487.5 L57,487.5 Z M38.25,487.5 C38.25,486.458328 38.2255862,484.903982 38.1767578,482.836914 C38.1279294,480.769846 38.1035156,479.248052 38.1035156,478.271484 C38.1035156,476.350902 38.1604812,474.6989 38.2744141,473.31543 C38.3883469,471.931959 38.640623,470.515958 39.03125,469.067383 C39.421877,467.618808 39.958981,466.446945 40.6425781,465.551758 C41.3261753,464.656571 42.2539004,463.924156 43.4257812,463.354492 C44.5976621,462.784828 45.9973877,462.5 47.625,462.5 L50.75,468.75 C48.503895,468.75 46.9007209,469.238276 45.9404297,470.214844 C44.9801384,471.191411 44.5,472.786447 44.5,475 L50.75,475 L50.75,487.5 L38.25,487.5 Z" id="“-copy"></path>
        </g>
    </g>
</svg>