<?xml version="1.0" standalone="no"?>
<!DOCTYPE svg PUBLIC "-//W3C//DTD SVG 1.1//EN" "http://www.w3.org/Graphics/SVG/1.1/DTD/svg11.dtd" >
<svg xmlns="http://www.w3.org/2000/svg" xmlns:xlink="http://www.w3.org/1999/xlink" version="1.1">
<metadata>
Created by FontForge 20170731 at Mon Feb  2 19:23:04 2004
 By Aleksey,,,
Copyright (c) 2004 Linotype Library GmbH, www.linotype.com. All rights reserved. This software may not be reproduced, used, displayed, modified, disclosed or transferred without the express written approval of Linotype Library GmbH. Avenir is a trademark of Heidelberger Druckmaschinen AG, exclusively licensed through Linotype Library GmbH, and may be registered in certain jurisdictions. This typeface is original artwork of Adrian Frutiger. The design may be protected in certain jurisdictions.
</metadata>
<defs>
<font id="AvenirNextLTPro-BoldCnIt" horiz-adv-x="265" >
  <font-face 
    font-family="AvenirNext LT Pro MediumCn"
    font-weight="700"
    font-style="italic"
    font-stretch="normal"
    units-per-em="1000"
    panose-1="2 11 8 6 2 2 2 2 2 4"
    ascent="756"
    descent="-244"
    x-height="520"
    cap-height="708"
    bbox="-162 -250 952 965"
    underline-thickness="50"
    underline-position="-200"
    slope="-12"
    unicode-range="U+000D-FB02"
  />
<missing-glyph horiz-adv-x="512" 
d="M222 117h56v67h-56v-67zM225 234h46q0 52 6 72q6 19 43 52q37 34 50 60t13 60q0 59 -35 95t-89 36q-56 0 -92 -34t-43 -103l50 -8q11 95 82 95q31 0 53.5 -24.5t22.5 -60.5q0 -20 -9.5 -37t-40.5 -46q-31 -31 -46 -59q-13 -25 -13 -81zM462 50h-412v617h412v-617z
M512 718h-512v-718h512v718z" />
    <glyph glyph-name="IJ" unicode="IJ" horiz-adv-x="712" 
d="M302 708l-123 -708h-155l123 708h155zM736 708l-85 -487q-20 -116 -68.5 -176.5t-153.5 -60.5q-74 0 -122 39t-62 100l130 57q12 -51 55 -51q33 0 47.5 25t23.5 81l82 473h153z" />
    <glyph glyph-name="ij" unicode="ij" horiz-adv-x="538" 
d="M255 520l-90 -520h-146l90 520h146zM288 678q0 -41 -26 -68.5t-64 -27.5q-34 0 -53.5 22t-19.5 52q0 39 25.5 68t62.5 29q35 0 55 -21t20 -54zM531 520l-97 -555q-37 -205 -205 -205q-29 0 -59 7l22 133q15 -5 28 -5q53 0 68 83l95 542h148zM560 678q0 -40 -25.5 -68
t-63.5 -28q-34 0 -54 22t-20 52q0 38 26 67.5t63 29.5q35 0 54.5 -21t19.5 -54z" />
    <glyph glyph-name="napostrophe" unicode="&#x22;n" horiz-adv-x="605" 
d="M571 410q0 -38 -10 -91l-55 -319h-146l56 319q4 24 4 37q0 51 -41 51q-29 0 -51 -28.5t-30 -73.5l-53 -305h-146l69 393q9 47 19 127h138q-4 -39 -10 -76h2q21 41 57 66.5t81 25.5q58 0 87 -37.5t29 -88.5zM253 708l-106 -191h-99l94 191h111z" />
    <glyph glyph-name="fi" unicode="fi" horiz-adv-x="553" 
d="M383 774l-20 -120q-14 4 -27 4q-56 0 -71 -89l-8 -49h78l-19 -115h-78l-71 -405h-140l70 405h-65l20 115h64l9 51q38 209 201 209q29 0 57 -6zM541 520l-90 -520h-143l90 520h143zM575 678q0 -41 -26 -68.5t-64 -27.5q-34 0 -53.5 22t-19.5 52q0 39 25.5 68t62.5 29
q35 0 55 -21t20 -54z" />
    <glyph glyph-name="fl" unicode="fl" horiz-adv-x="553" 
d="M383 774l-20 -120q-14 4 -27 4q-56 0 -71 -89l-8 -49h78l-19 -115h-78l-71 -405h-140l70 405h-65l20 115h64l9 51q38 209 201 209q29 0 57 -6zM585 756l-131 -756h-148l130 756h149z" />
    <glyph glyph-name=".notdef" horiz-adv-x="512" 
d="M222 117h56v67h-56v-67zM225 234h46q0 52 6 72q6 19 43 52q37 34 50 60t13 60q0 59 -35 95t-89 36q-56 0 -92 -34t-43 -103l50 -8q11 95 82 95q31 0 53.5 -24.5t22.5 -60.5q0 -20 -9.5 -37t-40.5 -46q-31 -31 -46 -59q-13 -25 -13 -81zM462 50h-412v617h412v-617z
M512 718h-512v-718h512v718z" />
    <glyph glyph-name=".null" horiz-adv-x="200" 
 />
    <glyph glyph-name=".null" horiz-adv-x="200" 
 />
    <glyph glyph-name="nonmarkingreturn" horiz-adv-x="333" 
 />
    <glyph glyph-name="CR" unicode="&#xd;" horiz-adv-x="0" 
 />
    <glyph glyph-name="space" unicode=" " horiz-adv-x="194" 
 />
    <glyph glyph-name="exclam" unicode="!" horiz-adv-x="322" 
d="M321 708l-82 -469h-149l81 469h150zM221 90q0 -42 -26 -70t-65 -28q-35 0 -55 22t-20 53q0 39 26 69t64 30q36 0 56 -21.5t20 -54.5z" />
    <glyph glyph-name="quotedbl" unicode="&#x22;" horiz-adv-x="386" 
d="M405 708l-47 -268h-102l47 268h102zM253 708l-47 -268h-102l47 268h102z" />
    <glyph glyph-name="numbersign" unicode="#" horiz-adv-x="428" 
d="M450 508l-19 -104h-70l-27 -100h57l-18 -104h-68l-55 -200h-87l55 200h-47l-56 -200h-86l54 200h-60l19 104h70l28 100h-61l19 104h70l55 200h88l-55 -200h47l56 200h87l-56 -200h60zM275 404h-49l-26 -100h47z" />
    <glyph glyph-name="dollar" unicode="$" horiz-adv-x="519" 
d="M200 0q-54 3 -100.5 23t-73.5 49l86 110q45 -50 106 -50q33 0 58.5 22.5t25.5 59.5q0 52 -71 92q-53 31 -83.5 70.5t-30.5 103.5q0 91 58 155t150 73l14 78h63l-14 -79q92 -12 137 -64l-86 -106q-36 41 -90 41q-31 0 -57 -22t-26 -63q0 -26 16 -44t53 -40
q118 -69 118 -178q0 -96 -54 -155t-135 -73l-15 -83h-63z" />
    <glyph glyph-name="percent" unicode="%" horiz-adv-x="712" 
d="M687 224q0 -94 -49.5 -164.5t-127.5 -70.5q-58 0 -90 38.5t-32 101.5q0 95 49.5 166t126.5 71q59 0 91 -39t32 -103zM588 217q0 57 -35 57q-29 0 -47 -44.5t-18 -90.5q0 -57 34 -57q30 0 48 44.5t18 90.5zM362 579q0 -94 -49.5 -164.5t-127.5 -70.5q-58 0 -90 38.5
t-32 101.5q0 95 49.5 166t126.5 71q59 0 91 -39t32 -103zM263 572q0 57 -35 57q-29 0 -47 -44.5t-18 -90.5q0 -57 34 -57q30 0 48 44.5t18 90.5zM623 708l-430 -730l-65 28l431 732z" />
    <glyph glyph-name="ampersand" unicode="&#x26;" horiz-adv-x="598" 
d="M609 386l-143 -211l98 -175h-162l-37 69q-67 -84 -164 -84q-85 0 -128 49.5t-43 127.5q0 77 40.5 136t111.5 95q-35 63 -35 119q0 100 57 158t144 58q75 0 115.5 -41t40.5 -107q0 -128 -156 -211l50 -98l70 115h141zM383 566q0 24 -12 38.5t-31 14.5q-29 0 -47 -28.5
t-18 -65.5q0 -39 24 -80q84 45 84 121zM310 164l-72 140q-31 -15 -52 -49t-21 -74q0 -33 15.5 -53t47.5 -20q49 0 82 56z" />
    <glyph glyph-name="quotesingle" unicode="'" horiz-adv-x="234" 
d="M253 708l-47 -268h-102l47 268h102z" />
    <glyph glyph-name="parenleft" unicode="(" horiz-adv-x="274" 
d="M313 710q-90 -126 -142.5 -282t-52.5 -307q0 -145 48 -255l-95 -40q-60 131 -60 298q0 166 56 329.5t158 296.5z" />
    <glyph glyph-name="parenright" unicode=")" horiz-adv-x="274" 
d="M282 453q0 -166 -56 -329.5t-158 -296.5l-88 39q90 127 142.5 283t52.5 307q0 144 -48 255l94 40q61 -132 61 -298z" />
    <glyph glyph-name="asterisk" unicode="*" horiz-adv-x="465" 
d="M498 521l-117 -38l74 -105l-88 -64l-75 108l-72 -104l-88 63l75 103l-119 40l35 99l116 -41v126h109v-127l118 39z" />
    <glyph glyph-name="plus" unicode="+" horiz-adv-x="666" 
d="M611 240h-212v-209h-130v209h-213v126h212v209h130v-209h213v-126z" />
    <glyph glyph-name="comma" unicode="," horiz-adv-x="262" 
d="M206 163l-129 -282h-111l107 282h133z" />
    <glyph glyph-name="hyphen" unicode="-" horiz-adv-x="241" 
d="M232 332l-20 -113h-187l20 113h187z" />
    <glyph glyph-name="period" unicode="." horiz-adv-x="262" 
d="M187 90q0 -42 -26.5 -70.5t-65.5 -28.5q-35 0 -55 22.5t-20 53.5q0 39 26 69.5t64 30.5q36 0 56.5 -21.5t20.5 -55.5z" />
    <glyph glyph-name="slash" unicode="/" horiz-adv-x="283" 
d="M369 739l-329 -777l-81 18l331 778z" />
    <glyph glyph-name="zero" unicode="0" horiz-adv-x="519" 
d="M525 479q0 -58 -8.5 -119.5t-30 -129.5t-53.5 -121t-85 -87.5t-118 -34.5q-51 0 -89 20t-59 54.5t-31 75.5t-10 89t6 99t18.5 108t35.5 107.5t53.5 91.5t77 65t101.5 24q67 0 112 -36t62.5 -88.5t17.5 -117.5zM372 480q0 106 -52 106q-33 0 -59 -43.5t-40 -105.5
t-21 -118t-7 -94q0 -103 51 -103q33 0 59 43t40 104.5t21.5 117.5t7.5 93z" />
    <glyph glyph-name="one" unicode="1" horiz-adv-x="519" 
d="M459 708l-123 -708h-152l94 536l-124 -78l-49 116l222 134h132z" />
    <glyph glyph-name="two" unicode="2" horiz-adv-x="519" 
d="M520 541q0 -67 -32 -119t-112 -131l-161 -157h238l-23 -134h-420l24 138l252 248q81 81 81 140q0 26 -13.5 44t-42.5 18q-31 0 -52 -23.5t-30 -63.5l-144 21q25 96 89 147.5t155 51.5q86 0 138.5 -48t52.5 -132z" />
    <glyph glyph-name="three" unicode="3" horiz-adv-x="519" 
d="M513 554q0 -64 -35 -115.5t-93 -66.5v-3q41 -12 64 -51.5t23 -87.5q0 -110 -70 -176.5t-174 -66.5q-90 0 -144.5 45.5t-70.5 120.5l136 39q18 -72 80 -72q43 0 69 28t26 79q0 36 -23.5 57t-62.5 21h-35l20 118h39q45 0 74 28t29 76q0 25 -16.5 44t-46.5 19q-50 0 -81 -62
l-123 40q31 78 91.5 115.5t135.5 37.5q81 0 134.5 -43t53.5 -124z" />
    <glyph glyph-name="four" unicode="4" horiz-adv-x="519" 
d="M403 145l-25 -145h-138l25 145h-258l23 133l279 430h193l-77 -436h75l-22 -127h-75zM341 556h-2l-173 -284h125z" />
    <glyph glyph-name="five" unicode="5" horiz-adv-x="519" 
d="M519 708l-25 -133h-214l-29 -132q31 11 60 11q79 0 123.5 -53t44.5 -133q0 -130 -74 -205.5t-184 -75.5q-82 0 -136.5 43.5t-67.5 121.5l136 45q16 -76 77 -76q45 0 70.5 36t25.5 90q0 45 -25 69t-66 24q-65 0 -146 -30l84 398h346z" />
    <glyph glyph-name="six" unicode="6" horiz-adv-x="519" 
d="M310 460q20 7 41 7q66 0 105.5 -51.5t39.5 -130.5q0 -75 -27 -141t-88 -111.5t-146 -45.5q-96 0 -150 56.5t-54 151.5q0 122 99 259l178 254h180l-179 -246zM279 362q-41 0 -69.5 -46.5t-28.5 -110.5q0 -39 17 -63t47 -24q46 0 73 47t27 113q0 37 -16.5 60.5t-49.5 23.5z
" />
    <glyph glyph-name="seven" unicode="7" horiz-adv-x="519" 
d="M542 708l-20 -116l-314 -592h-165l312 573h-249l24 135h412z" />
    <glyph glyph-name="eight" unicode="8" horiz-adv-x="519" 
d="M526 554q0 -65 -33 -111.5t-90 -67.5v-2q36 -16 59 -54t23 -88q0 -107 -66.5 -175.5t-181.5 -68.5q-96 0 -154 49t-58 134q0 74 42 130.5t101 72.5v2q-72 37 -72 124q0 93 62 157.5t174 64.5q96 0 145 -45.5t49 -121.5zM379 543q0 31 -15 49t-43 18q-38 0 -60.5 -33.5
t-22.5 -79.5q0 -30 15 -50.5t42 -20.5q37 0 60.5 36.5t23.5 80.5zM332 236q0 36 -16.5 57t-45.5 21q-38 0 -66 -39.5t-28 -89.5q0 -36 16.5 -58t48.5 -22q41 0 66 39.5t25 91.5z" />
    <glyph glyph-name="nine" unicode="9" horiz-adv-x="519" 
d="M218 247q-66 0 -105.5 52t-39.5 130q0 54 15.5 104.5t45.5 93t81 68.5t115 26q99 0 152 -55t53 -149q0 -124 -99 -263l-179 -254h-180l185 253l-1 2q-21 -8 -43 -8zM287 353q41 0 69.5 43.5t28.5 107.5q-1 39 -17.5 63t-46.5 24q-45 0 -71 -45.5t-26 -108.5
q0 -37 16 -60.5t47 -23.5z" />
    <glyph glyph-name="colon" unicode=":" horiz-adv-x="291" 
d="M262 445q0 -40 -25.5 -67.5t-63.5 -27.5q-34 0 -54 21.5t-20 52.5q0 38 25.5 67.5t63.5 29.5q35 0 54.5 -21.5t19.5 -54.5zM201 94q0 -41 -25.5 -69t-63.5 -28q-34 0 -53.5 22t-19.5 53q0 38 25 67.5t63 29.5q35 0 54.5 -21.5t19.5 -53.5z" />
    <glyph glyph-name="semicolon" unicode=";" horiz-adv-x="291" 
d="M262 445q0 -40 -25.5 -67.5t-63.5 -27.5q-34 0 -54 21.5t-20 52.5q0 38 25.5 67.5t63.5 29.5q35 0 54.5 -21.5t19.5 -54.5zM216 163l-129 -282h-111l108 282h132z" />
    <glyph glyph-name="less" unicode="&#x3c;" horiz-adv-x="666" 
d="M587 37l-508 214v103l508 214v-136l-306 -131l306 -127v-137z" />
    <glyph glyph-name="equal" unicode="=" horiz-adv-x="666" 
d="M598 335h-530v123h530v-123zM598 150h-530v123h530v-123z" />
    <glyph glyph-name="greater" unicode="&#x3e;" horiz-adv-x="666" 
d="M587 251l-508 -214v137l306 127l-306 131v136l508 -214v-103z" />
    <glyph glyph-name="question" unicode="?" horiz-adv-x="418" 
d="M464 566q0 -68 -31 -112.5t-96 -95.5q-51 -41 -60 -91l-5 -29h-122l7 42q14 89 93 157l21 18q54 46 54 91q0 26 -14 42t-39 16q-32 0 -52 -24t-29 -55l-115 32q21 73 76 122.5t141 49.5q79 0 125 -45.5t46 -117.5zM275 90q0 -42 -26 -70t-65 -28q-35 0 -55 22t-20 53
q0 39 26 69t64 30q36 0 56 -21.5t20 -54.5z" />
    <glyph glyph-name="at" unicode="@" horiz-adv-x="634" 
d="M643 474q0 -77 -23.5 -147.5t-71 -118.5t-108.5 -48q-31 0 -48.5 16.5t-18.5 49.5h-2q-41 -66 -96 -66q-44 0 -67 33t-23 87q0 62 23.5 126t67 109t93.5 45q32 0 48 -17t17 -43h2l13 34h81l-47 -135q-33 -93 -33 -124q0 -24 20 -24q39 0 67.5 75.5t28.5 142.5
q0 86 -43 133.5t-123 47.5q-75 0 -138.5 -56.5t-97.5 -142t-34 -175.5q0 -98 49 -156.5t139 -58.5q96 0 175 67l33 -68q-91 -78 -220 -78q-131 0 -196.5 80t-65.5 211q0 84 26.5 165.5t72.5 145.5t114 103t145 39q119 0 180 -67t61 -185zM400 428q0 43 -31 43
q-32 0 -61.5 -59t-29.5 -113q0 -49 32 -49q34 0 62 65t28 113z" />
    <glyph glyph-name="A" unicode="A" horiz-adv-x="541" 
d="M498 0h-156l-3 133h-165l-53 -133h-160l307 708h193zM341 251l-6 304h-4l-117 -304h127z" />
    <glyph glyph-name="B" unicode="B" horiz-adv-x="538" 
d="M531 546q0 -68 -33.5 -113t-86.5 -63l1 -2q38 -11 64.5 -46t26.5 -88q0 -115 -72.5 -174.5t-172.5 -59.5h-234l123 708h206q71 0 124.5 -39.5t53.5 -122.5zM390 515q0 31 -19.5 48t-49.5 17h-53l-28 -160h57q37 0 65 24.5t28 70.5zM356 234q0 37 -22 55t-53 18h-61
l-31 -178h62q47 0 76 27.5t29 77.5z" />
    <glyph glyph-name="C" unicode="C" horiz-adv-x="503" 
d="M569 643l-105 -114q-31 49 -86 49q-51 0 -91.5 -49t-60 -117t-19.5 -136q0 -67 24 -106t73 -39q52 0 96 48l71 -114q-80 -83 -194 -83q-110 0 -170.5 74.5t-60.5 199.5q0 121 42 228t121 174.5t176 67.5q126 0 184 -83z" />
    <glyph glyph-name="D" unicode="D" horiz-adv-x="583" 
d="M580 432q0 -63 -11 -122t-37 -116t-65.5 -99.5t-100.5 -68.5t-137 -26h-205l123 708h187q127 0 186.5 -73.5t59.5 -202.5zM423 419q0 71 -25 113t-78 42h-43l-76 -440h45q56 0 97.5 44.5t60.5 108t19 132.5z" />
    <glyph glyph-name="E" unicode="E" horiz-adv-x="440" 
d="M478 708l-23 -135h-185l-26 -147h173l-22 -126h-172l-28 -162h202l-24 -138h-349l123 708h331z" />
    <glyph glyph-name="F" unicode="F" horiz-adv-x="427" 
d="M484 708l-24 -139h-186l-26 -151h173l-23 -133h-172l-50 -285h-152l123 708h337z" />
    <glyph glyph-name="G" unicode="G" horiz-adv-x="553" 
d="M569 642l-103 -113q-30 50 -91 50q-54 0 -96.5 -51t-62 -119.5t-19.5 -136.5q0 -63 27 -104t80 -41q39 0 68 17l25 139h-94l24 134h229l-65 -375q-86 -60 -200 -60q-119 0 -182 76t-63 199q0 119 42 226t121 175t176 68q134 0 184 -84z" />
    <glyph glyph-name="H" unicode="H" horiz-adv-x="605" 
d="M624 708l-123 -708h-153l52 299h-171l-52 -299h-153l123 708h152l-47 -272h171l47 272h154z" />
    <glyph glyph-name="I" unicode="I" horiz-adv-x="283" 
d="M302 708l-123 -708h-155l123 708h155z" />
    <glyph glyph-name="J" unicode="J" horiz-adv-x="439" 
d="M463 708l-85 -489q-20 -116 -68.5 -176.5t-153.5 -60.5q-74 0 -122 39t-62 100l130 57q12 -51 55 -51q33 0 47.5 25t23.5 81l82 475h153z" />
    <glyph glyph-name="K" unicode="K" horiz-adv-x="561" 
d="M628 708l-246 -338l131 -370h-173l-103 332h-3l-58 -332h-152l123 708h152l-51 -297h3l200 297h177z" />
    <glyph glyph-name="L" unicode="L" horiz-adv-x="419" 
d="M394 142l-25 -142h-345l123 708h154l-98 -566h191z" />
    <glyph glyph-name="M" unicode="M" horiz-adv-x="765" 
d="M784 708l-124 -708h-151l91 492h-3l-208 -492h-110l-32 492h-3l-81 -492h-139l124 708h193l34 -463h4l193 463h212z" />
    <glyph glyph-name="N" unicode="N" horiz-adv-x="599" 
d="M618 708l-123 -708h-165l-93 441h-3l-72 -441h-138l123 708h169l89 -447h4l74 447h135z" />
    <glyph glyph-name="O" unicode="O" horiz-adv-x="607" 
d="M604 454q0 -118 -39 -225t-116.5 -177t-175.5 -70q-107 0 -167 73.5t-60 196.5q0 119 38.5 225.5t115.5 177.5t177 71q111 0 169 -73t58 -199zM445 432q0 147 -83 147q-48 0 -85.5 -53t-54.5 -123t-17 -137q0 -136 85 -136q46 0 82.5 49.5t54.5 117.5t18 135z" />
    <glyph glyph-name="P" unicode="P" horiz-adv-x="515" 
d="M540 524q0 -124 -68 -192.5t-180 -68.5h-72l-46 -263h-150l123 708h202q81 0 136 -45.5t55 -138.5zM394 502q0 36 -18.5 56t-50.5 20h-51l-32 -191h53q44 0 71.5 31.5t27.5 83.5z" />
    <glyph glyph-name="Q" unicode="Q" horiz-adv-x="614" 
d="M604 455q0 -91 -35 -185.5t-92 -133.5v-3l115 4l-24 -137h-296q-109 0 -167.5 65t-58.5 187q0 119 38.5 225.5t115.5 177.5t177 71q111 0 169 -73t58 -198zM445 436q0 142 -82 142q-47 0 -85 -53t-56 -123.5t-18 -137.5q0 -58 21 -91t62 -33q47 0 84.5 49.5t55.5 116
t18 130.5z" />
    <glyph glyph-name="R" unicode="R" horiz-adv-x="536" 
d="M549 526q0 -80 -36 -135.5t-98 -76.5l79 -314h-162l-59 285h-52l-49 -285h-148l123 708h208q94 0 144 -46t50 -136zM396 506q0 38 -20.5 55.5t-51.5 17.5h-52l-32 -185h50q46 0 76 29.5t30 82.5z" />
    <glyph glyph-name="S" unicode="S" horiz-adv-x="462" 
d="M506 657l-91 -111q-38 43 -94 43q-32 0 -59.5 -23.5t-27.5 -65.5q0 -28 16.5 -46.5t53.5 -40.5q54 -32 90 -75.5t36 -112.5q0 -116 -72 -179.5t-173 -63.5q-63 0 -117.5 21.5t-85.5 54.5l91 115q47 -52 111 -52q35 0 61.5 23.5t26.5 62.5q0 55 -75 97q-55 31 -87 72.5
t-32 109.5q0 103 68.5 171.5t175.5 68.5q123 0 184 -69z" />
    <glyph glyph-name="T" unicode="T" horiz-adv-x="409" 
d="M492 708l-23 -131h-130l-101 -577h-152l101 577h-130l23 131h412z" />
    <glyph glyph-name="U" unicode="U" horiz-adv-x="576" 
d="M609 708l-78 -446q-11 -64 -29 -111t-48 -87t-78 -61t-113 -21q-104 0 -158.5 55t-54.5 146q0 40 7 79l78 446h155l-76 -434q-7 -40 -7 -64q0 -81 66 -81q48 0 71.5 37.5t35.5 107.5l75 434h154z" />
    <glyph glyph-name="V" unicode="V" horiz-adv-x="540" 
d="M622 708l-298 -708h-195l-48 708h165l14 -525h3l192 525h167z" />
    <glyph glyph-name="W" unicode="W" horiz-adv-x="793" 
d="M868 708l-259 -708h-164l-3 484h-3l-171 -484h-168l-6 708h154l-12 -502h5l167 502h149l-4 -502h3l162 502h150z" />
    <glyph glyph-name="X" unicode="X" horiz-adv-x="534" 
d="M598 708l-219 -336l110 -372h-163l-57 242l-143 -242h-164l238 371l-101 337h158l51 -222l128 222h162z" />
    <glyph glyph-name="Y" unicode="Y" horiz-adv-x="493" 
d="M579 708l-258 -452l-45 -256h-155l45 256l-96 452h162l37 -294h3l140 294h167z" />
    <glyph glyph-name="Z" unicode="Z" horiz-adv-x="452" 
d="M501 708l-21 -122l-297 -447h222l-24 -139h-401l21 125l297 448h-199l24 135h378z" />
    <glyph glyph-name="bracketleft" unicode="[" horiz-adv-x="273" 
d="M314 732l-17 -96h-79l-122 -696h79l-17 -96h-193l155 888h194z" />
    <glyph glyph-name="backslash" unicode="\" horiz-adv-x="283" 
d="M237 -20l-87 -18l-56 777l87 19z" />
    <glyph glyph-name="bracketright" unicode="]" horiz-adv-x="273" 
d="M330 732l-155 -888h-193l16 96h79l123 696h-80l17 96h193z" />
    <glyph glyph-name="asciicircum" unicode="^" horiz-adv-x="690" 
d="M616 343h-148l-124 213l-123 -213h-148l213 365h118z" />
    <glyph glyph-name="underscore" unicode="_" horiz-adv-x="500" 
d="M500 -164h-500v89h500v-89z" />
    <glyph glyph-name="grave" unicode="`" 
d="M277 589h-101l-128 144h126z" />
    <glyph glyph-name="a" unicode="a" horiz-adv-x="448" 
d="M419 381q0 -40 -9 -88l-33 -191q-11 -62 -13 -102h-122q2 36 9 65h-3q-37 -78 -122 -78q-46 0 -80.5 33.5t-34.5 96.5q0 107 68.5 157t176.5 50h25q5 23 5 34q0 54 -51 54q-52 0 -98 -42l-56 93q35 33 82.5 53t94.5 20q161 0 161 -155zM269 229h-27q-44 0 -74 -21
t-30 -63q0 -23 11 -35.5t29 -12.5q34 0 55.5 31.5t30.5 75.5z" />
    <glyph glyph-name="b" unicode="b" horiz-adv-x="518" 
d="M498 351q0 -86 -24.5 -168t-77 -140.5t-119.5 -58.5q-45 0 -71.5 23t-33.5 60h-2l-11 -67h-139l131 756h144l-52 -294h4q15 32 45 53t68 21q68 0 103 -50.5t35 -134.5zM352 325q0 86 -53 86q-45 0 -73.5 -70.5t-28.5 -142.5q0 -88 53 -88q31 0 55.5 37.5t35.5 85.5t11 92
z" />
    <glyph glyph-name="c" unicode="c" horiz-adv-x="352" 
d="M401 496l-75 -114q-19 21 -49 21q-45 0 -74.5 -63t-29.5 -133q0 -89 61 -89q25 0 53 19l38 -115q-46 -38 -120 -38q-87 0 -131 57t-44 149q0 85 29 163.5t87.5 130.5t133.5 52q79 0 121 -40z" />
    <glyph glyph-name="d" unicode="d" horiz-adv-x="515" 
d="M547 756l-132 -756h-139l11 67h-1q-43 -83 -121 -83q-66 0 -100.5 51t-34.5 136t25 167t77 140t120 58q84 0 97 -74h3l52 294h143zM331 321q0 90 -53 90q-32 0 -56.5 -37.5t-35.5 -85.5t-11 -92q0 -86 54 -86q30 0 54.5 36.5t36 84t11.5 90.5z" />
    <glyph glyph-name="e" unicode="e" horiz-adv-x="465" 
d="M448 353q0 -55 -15 -128h-260q-3 -20 -3 -33q0 -36 15.5 -58t44.5 -22q44 0 77 57l100 -65q-29 -54 -78.5 -87t-114.5 -33q-87 0 -135.5 54.5t-48.5 151.5q0 142 72.5 244t177.5 102q86 0 127 -49.5t41 -133.5zM321 355q0 69 -47 69q-31 0 -54 -33.5t-30 -73.5h127
q4 16 4 38z" />
    <glyph glyph-name="f" unicode="f" horiz-adv-x="289" 
d="M383 774l-20 -120q-14 4 -27 4q-56 0 -71 -89l-8 -49h78l-19 -115h-78l-71 -405h-140l70 405h-65l20 115h64l9 51q38 209 201 209q29 0 57 -6z" />
    <glyph glyph-name="g" unicode="g" horiz-adv-x="515" 
d="M502 520l-85 -488q-23 -132 -85 -202t-179 -70q-51 0 -99 19t-79 49l79 109q46 -46 104 -46q92 0 116 124l10 52h-2q-43 -75 -121 -75q-66 0 -101.5 50.5t-35.5 134.5t24.5 164.5t76.5 137.5t120 57q43 0 70 -22t33 -57h4l11 63h139zM325 321q0 90 -53 90
q-31 0 -55.5 -37.5t-35.5 -85.5t-11 -92q0 -86 53 -86q45 0 73.5 70t28.5 141z" />
    <glyph glyph-name="h" unicode="h" horiz-adv-x="526" 
d="M492 410q0 -38 -10 -91l-55 -319h-146l56 319q4 24 4 37q0 51 -41 51q-29 0 -51 -28t-30 -74l-53 -305h-146l132 756h145l-54 -307h2q48 87 133 87q58 0 86 -37t28 -89z" />
    <glyph glyph-name="i" unicode="i" horiz-adv-x="266" 
d="M288 678q0 -41 -26 -68.5t-64 -27.5q-34 0 -53.5 22t-19.5 52q0 39 25.5 68t62.5 29q35 0 55 -21t20 -54zM255 520l-90 -520h-146l90 520h146z" />
    <glyph glyph-name="j" unicode="j" horiz-adv-x="266" 
d="M288 678q0 -40 -25.5 -68t-63.5 -28q-34 0 -54 22t-20 52q0 38 26 67.5t63 29.5q35 0 54.5 -21t19.5 -54zM259 520l-97 -555q-37 -205 -205 -205q-29 0 -59 7l22 133q15 -5 28 -5q53 0 68 83l95 542h148z" />
    <glyph glyph-name="k" unicode="k" horiz-adv-x="486" 
d="M528 520l-191 -246l104 -274h-153l-82 241h-2l-41 -241h-143l130 756h144l-79 -449h2l148 213h163z" />
    <glyph glyph-name="l" unicode="l" horiz-adv-x="267" 
d="M299 756l-132 -756h-147l132 756h147z" />
    <glyph glyph-name="m" unicode="m" horiz-adv-x="785" 
d="M487 432q21 46 59 75t90 29q58 0 86.5 -37.5t28.5 -88.5q0 -27 -10 -91l-56 -319h-145l56 319q3 18 3 37q0 51 -40 51q-26 0 -47.5 -24.5t-30.5 -63.5l-56 -319h-145l56 319q4 24 4 37q0 51 -41 51q-29 0 -51 -28.5t-30 -73.5l-53 -305h-146l69 393q9 47 19 127h137
q-2 -29 -9 -76h2q21 41 57 66.5t81 25.5q52 0 79 -29t33 -75z" />
    <glyph glyph-name="n" unicode="n" horiz-adv-x="525" 
d="M491 410q0 -38 -10 -91l-55 -319h-146l56 319q4 24 4 37q0 51 -41 51q-29 0 -51 -28.5t-30 -73.5l-53 -305h-146l69 393q9 47 19 127h138q-4 -39 -10 -76h2q21 41 57 66.5t81 25.5q58 0 87 -37.5t29 -88.5z" />
    <glyph glyph-name="o" unicode="o" horiz-adv-x="488" 
d="M468 334q0 -143 -69 -246.5t-186 -103.5q-85 0 -134 55t-49 148q0 142 70.5 245.5t186.5 103.5q85 0 133 -55t48 -147zM327 322q0 89 -53 89q-45 0 -73 -71t-28 -143q0 -87 51 -87q46 0 74.5 70t28.5 142z" />
    <glyph glyph-name="p" unicode="p" horiz-adv-x="518" 
d="M498 348q0 -85 -24.5 -166.5t-76 -139.5t-119.5 -58q-42 0 -69 21.5t-33 54.5h-2l-52 -300h-142l131 760h138l-11 -66h2q45 82 119 82q68 0 103.5 -51.5t35.5 -136.5zM353 325q0 86 -54 86q-30 0 -54.5 -36.5t-36 -84t-11.5 -91.5q0 -89 53 -89q32 0 56.5 37.5t35.5 85.5
t11 92z" />
    <glyph glyph-name="q" unicode="q" horiz-adv-x="521" 
d="M508 520l-132 -760h-143l52 300h-2q-37 -76 -115 -76q-67 0 -102.5 50.5t-35.5 134.5q0 85 24.5 167.5t77 141t119.5 58.5q45 0 71 -22.5t32 -59.5h2l12 66h140zM331 322q0 89 -53 89q-31 0 -55.5 -37.5t-35.5 -85.5t-11 -92q0 -86 53 -86q45 0 73.5 70t28.5 142z" />
    <glyph glyph-name="r" unicode="r" horiz-adv-x="330" 
d="M382 533l-33 -148q-16 4 -31 4q-39 0 -68 -38.5t-39 -92.5l-45 -258h-147l69 393q15 84 19 127h137q-1 -21 -11 -90h3q43 106 121 106q17 0 25 -3z" />
    <glyph glyph-name="s" unicode="s" horiz-adv-x="393" 
d="M403 485l-76 -95q-32 34 -79 34q-24 0 -41 -14t-17 -39q0 -20 11.5 -31t46.5 -29q106 -54 106 -142q0 -94 -59.5 -139.5t-137.5 -45.5q-50 0 -96.5 18t-75.5 48l81 94q42 -45 91 -45q25 0 42.5 14.5t17.5 39.5q0 22 -16.5 37.5t-51.5 32.5q-95 46 -95 133q0 89 61 134.5
t139 45.5q95 0 149 -51z" />
    <glyph glyph-name="t" unicode="t" horiz-adv-x="305" 
d="M344 520l-22 -117h-84l-39 -213q-4 -20 -4 -34q0 -44 43 -44q17 0 35 6l-19 -111q-34 -16 -76 -16q-64 0 -97 30.5t-33 86.5q0 13 4 45l44 250h-69l21 117h68l22 127h141l-23 -127h88z" />
    <glyph glyph-name="u" unicode="u" horiz-adv-x="525" 
d="M512 520l-69 -393q-12 -67 -20 -127h-137q4 40 10 76h-3q-20 -42 -56 -67t-81 -25q-58 0 -87 37.5t-29 88.5q0 37 10 90l55 320h146l-56 -319q-4 -26 -4 -37q0 -51 41 -51q29 0 51 28t30 74l53 305h146z" />
    <glyph glyph-name="v" unicode="v" horiz-adv-x="458" 
d="M504 520l-228 -520h-180l-38 520h144l12 -367h3l134 367h153z" />
    <glyph glyph-name="w" unicode="w" horiz-adv-x="678" 
d="M720 520l-210 -520h-151l-6 321h-1l-129 -321h-146l-18 520h145l-5 -340h2l126 340h123l5 -340h2l116 340h147z" />
    <glyph glyph-name="x" unicode="x" horiz-adv-x="450" 
d="M486 520l-163 -255l78 -265h-147l-41 178l-100 -178h-156l179 273l-76 247h145l37 -160l88 160h156z" />
    <glyph glyph-name="y" unicode="y" horiz-adv-x="458" 
d="M504 520l-249 -563q-44 -99 -93 -148t-132 -49q-38 0 -70 10l27 130q10 -7 37 -7q42 0 65 54l19 44l-57 529h151l13 -363h3l139 363h147z" />
    <glyph glyph-name="z" unicode="z" horiz-adv-x="388" 
d="M409 520l-19 -116l-229 -282h182l-21 -122h-341l21 120l225 277h-163l21 123h324z" />
    <glyph glyph-name="braceleft" unicode="{" horiz-adv-x="273" 
d="M322 732l-20 -95h-30q-44 0 -57 -72l-28 -162q-9 -54 -34 -81.5t-51 -32.5v-2q19 -4 33.5 -23t14.5 -54q0 -18 -4 -37l-27 -161q-3 -13 -3 -28q0 -45 35 -45h29l-14 -95h-65q-96 0 -96 104q0 23 5 55l26 149q3 21 3 36q0 46 -40 46l18 108q26 0 42 18t24 64l26 149
q13 73 49.5 116t98.5 43h65z" />
    <glyph glyph-name="bar" unicode="|" horiz-adv-x="241" 
d="M186 -250h-130l-1 1000h131v-1000z" />
    <glyph glyph-name="braceright" unicode="}" horiz-adv-x="273" 
d="M297 342l-18 -108q-26 0 -42 -18t-24 -64l-26 -149q-13 -73 -49.5 -116t-98.5 -43h-64l19 95h30q44 0 57 72l28 162q9 54 34 81.5t51 32.5v2q-19 4 -33.5 23t-14.5 54q0 18 4 37l27 161q3 14 3 28q0 45 -35 45h-29l15 95h64q96 0 96 -104q0 -31 -5 -55l-25 -149
q-4 -19 -4 -36q1 -46 40 -46z" />
    <glyph glyph-name="asciitilde" unicode="~" horiz-adv-x="666" 
d="M593 287v-2q-27 -46 -59 -73t-80 -27q-52 0 -112 38q-61 38 -107 38q-50 0 -84 -70l-66 104q51 99 137 99q58 0 120 -37q69 -40 99 -40q25 0 44.5 18.5t42.5 52.5z" />
    <glyph glyph-name="uni00A0" unicode="&#xa0;" horiz-adv-x="194" 
 />
    <glyph glyph-name="exclamdown" unicode="&#xa1;" horiz-adv-x="322" 
d="M246 297l-81 -469h-150l82 469h149zM281 469q0 -39 -26 -69t-64 -30q-36 0 -56.5 21.5t-20.5 55.5q0 42 26.5 70t65.5 28q34 0 54.5 -22.5t20.5 -53.5z" />
    <glyph glyph-name="cent" unicode="&#xa2;" horiz-adv-x="519" 
d="M366 524q51 -8 82 -37l-72 -110q-18 20 -47 20q-43 0 -71.5 -60.5t-28.5 -127.5q0 -86 58 -86q24 0 51 18l37 -111q-39 -31 -98 -35l-14 -75h-63l14 79q-61 14 -92 66t-31 127q0 119 58 217.5t153 114.5l14 77h63z" />
    <glyph glyph-name="sterling" unicode="&#xa3;" horiz-adv-x="519" 
d="M535 689l-70 -120q-21 19 -58 19q-71 0 -91 -111l-9 -54h116l-21 -119h-114l-28 -163h177l-25 -141h-403l25 141h79l28 163h-77l22 119h75l12 68q6 35 16 66t29 63.5t43.5 55.5t62 37.5t82.5 14.5q78 0 129 -39z" />
    <glyph glyph-name="currency" unicode="&#xa4;" horiz-adv-x="950" 
d="M713 459q42 -65 42 -150q0 -90 -45 -155l93 -93l-84 -84q-32 31 -97 96q-64 -39 -146 -39q-78 0 -147 41q-66 -66 -99 -98l-84 84l96 96q-42 62 -42 152q0 83 39 147l-93 93q29 28 85 84q16 -16 48 -47.5t47 -46.5q68 41 150 41q83 0 150 -39l92 92q14 -14 42.5 -42
t42.5 -42zM476 441q-55 0 -90.5 -38.5t-35.5 -93.5q0 -57 35.5 -95.5t90.5 -38.5q56 0 91.5 38.5t35.5 95.5q0 54 -36 93t-91 39z" />
    <glyph glyph-name="yen" unicode="&#xa5;" horiz-adv-x="519" 
d="M589 708l-171 -283h80l-17 -101h-134l-14 -78h134l-18 -101h-133l-26 -145h-150l25 145h-131l18 101h131l14 78h-131l18 101h83l-73 283h155l46 -270l137 270h157z" />
    <glyph glyph-name="brokenbar" unicode="&#xa6;" horiz-adv-x="241" 
d="M186 313h-131v362h131v-362zM186 -175h-131v362h131v-362z" />
    <glyph glyph-name="section" unicode="&#xa7;" horiz-adv-x="511" 
d="M520 663l-95 -96q-31 37 -84 37q-28 0 -52 -17.5t-24 -47.5q0 -26 16.5 -41t69.5 -39q123 -57 123 -162q0 -51 -29.5 -89.5t-70.5 -53.5q42 -32 42 -94q0 -55 -22 -97t-57.5 -65t-73.5 -34.5t-77 -11.5q-61 0 -115.5 22.5t-82.5 61.5l91 97q43 -58 113 -58q31 0 54.5 17
t23.5 49q0 26 -19 45t-70 41q-66 27 -94 61.5t-28 90.5q0 53 30.5 93.5t71.5 57.5q-37 29 -37 85q0 90 61.5 151t159.5 61q117 0 175 -64zM348 275q0 41 -61 72l-49 25q-22 -4 -38 -22.5t-16 -44.5q0 -19 8.5 -32.5t18.5 -19.5t32 -17l52 -24q21 4 37 21t16 42z" />
    <glyph glyph-name="dieresis" unicode="&#xa8;" 
d="M372 676q0 -34 -21.5 -57.5t-53.5 -23.5q-29 0 -46 18.5t-17 44.5q0 32 22 57t53 25q30 0 46.5 -18t16.5 -46zM186 676q0 -35 -21.5 -58t-53.5 -23q-29 0 -45.5 18.5t-16.5 44.5q0 33 21.5 57.5t53.5 24.5q29 0 45.5 -18t16.5 -46z" />
    <glyph glyph-name="copyright" unicode="&#xa9;" horiz-adv-x="640" 
d="M320 -20q-127 0 -205.5 102t-78.5 273t78.5 273t205.5 102t205.5 -102t78.5 -273t-78.5 -273t-205.5 -102zM320 686q-106 0 -169 -92.5t-63 -238.5t63 -238.5t169 -92.5t169 92.5t63 238.5t-63 238.5t-169 92.5zM387 266l58 -77q-41 -63 -110 -63q-75 0 -119.5 63
t-44.5 168t44 168.5t117 63.5q74 0 112 -59l-55 -79q-17 33 -50 33q-27 0 -44 -36t-17 -91t17 -90.5t44 -35.5q31 0 48 35z" />
    <glyph glyph-name="ordfeminine" unicode="&#xaa;" horiz-adv-x="318" 
d="M344 622q0 -22 -5 -45l-20 -120q-4 -24 -8 -64h-79q3 30 6 41h-2q-24 -52 -77 -52q-29 0 -52.5 23t-23.5 62q0 68 43 99t111 31h15q1 6 1 14q0 31 -31 31q-28 0 -58 -26l-36 61q47 44 112 44q52 0 78 -26.5t26 -72.5zM245 537h-17q-62 0 -62 -53q0 -30 26 -30q37 0 50 67
z" />
    <glyph glyph-name="guillemotleft" unicode="&#xab;" horiz-adv-x="410" 
d="M415 450l-122 -190l55 -189l-82 -33l-68 231l146 224zM254 450l-122 -190l55 -189l-82 -33l-67 231l146 224z" />
    <glyph glyph-name="logicalnot" unicode="&#xac;" horiz-adv-x="666" 
d="M606 145h-130v183h-425v123h555v-306z" />
    <glyph glyph-name="uni00AD" unicode="&#xad;" horiz-adv-x="241" 
d="M232 332l-20 -113h-187l20 113h187z" />
    <glyph glyph-name="registered" unicode="&#xae;" horiz-adv-x="480" 
d="M269 518h16q9 0 15 9t6 23q0 10 -6 16.5t-15 6.5h-16v-55zM386 371h-75l-33 93h-9v-93h-71v266h90q37 0 62 -20t25 -66q0 -59 -33 -74zM280 274q-76 0 -123 61t-47 164t47 164t123 61t123 -61t47 -164t-47 -164t-123 -61zM280 698q-64 0 -101.5 -55.5t-37.5 -143.5
t37.5 -143.5t101.5 -55.5t101.5 55.5t37.5 143.5t-37.5 143.5t-101.5 55.5z" />
    <glyph glyph-name="macron" unicode="&#xaf;" 
d="M363 702l-14 -79h-294l13 79h295z" />
    <glyph glyph-name="degree" unicode="&#xb0;" horiz-adv-x="314" 
d="M346 599q0 -78 -43 -144t-110 -66q-51 0 -80 37.5t-29 93.5q0 80 42.5 144t111.5 64q51 0 79.5 -36.5t28.5 -92.5zM284 593q0 34 -14 55t-39 21q-37 0 -60.5 -45.5t-23.5 -98.5q0 -35 13.5 -56t38.5 -21q35 0 60 46t25 99z" />
    <glyph glyph-name="plusminus" unicode="&#xb1;" horiz-adv-x="666" 
d="M616 331h-212v-132h-130v132h-213v127h213v132h130v-132h212v-127zM616 31h-555v127h555v-127z" />
    <glyph glyph-name="twosuperior" unicode="&#xb2;" horiz-adv-x="323" 
d="M363 605q0 -43 -20.5 -75.5t-68.5 -78.5l-96 -90h143l-15 -92h-270l16 94l160 152q47 46 47 79q0 14 -8 24.5t-24 10.5q-37 0 -47 -52l-99 13q16 63 57.5 96t101.5 33q55 0 89 -30t34 -84z" />
    <glyph glyph-name="threesuperior" unicode="&#xb3;" horiz-adv-x="323" 
d="M355 614q0 -40 -21.5 -72t-56.5 -41l-1 -2q25 -8 39 -32t14 -54q0 -71 -45.5 -113t-111.5 -42q-59 0 -94 30t-45 79l94 25q12 -43 47 -43q24 0 38.5 17t14.5 45q0 20 -14 32.5t-36 12.5h-23l13 80h26q27 0 43.5 16.5t16.5 44.5q0 14 -9.5 24.5t-26.5 10.5q-29 0 -48 -37
l-85 26q40 101 148 101q52 0 87.5 -27.5t35.5 -80.5z" />
    <glyph glyph-name="acute" unicode="&#xb4;" 
d="M360 734l-138 -144h-101l112 144h127z" />
    <glyph glyph-name="mu" unicode="&#xb5;" horiz-adv-x="666" 
d="M89 498h162v-248q0 -29 4.5 -53.5t23 -47.5t49.5 -23q47 0 69 31t22 80v261h162v-498h-155v57h-1q-37 -64 -111 -64q-41 0 -63 20v-239h-162v724z" />
    <glyph glyph-name="paragraph" unicode="&#xb6;" horiz-adv-x="618" 
d="M555 -129h-116v737h-85v-737h-116v464q-98 2 -156 52t-58 131q0 190 244 190h287v-837z" />
    <glyph glyph-name="periodcentered" unicode="&#xb7;" horiz-adv-x="262" 
d="M220 277q0 -42 -26.5 -70t-65.5 -28q-35 0 -55 22t-20 54q0 39 26 69t64 30q36 0 56.5 -21.5t20.5 -55.5z" />
    <glyph glyph-name="cedilla" unicode="&#xb8;" 
d="M186 -135q0 -51 -44 -76t-99 -25q-61 0 -109 23l34 60q29 -15 71 -15q50 0 50 30q0 26 -35 26q-22 0 -41 -6l-25 26l79 92h80l-55 -62q12 2 22 2q29 0 50.5 -18.5t21.5 -56.5z" />
    <glyph glyph-name="onesuperior" unicode="&#xb9;" horiz-adv-x="323" 
d="M327 708l-77 -442h-108l58 324l-74 -45l-34 79l143 84h92z" />
    <glyph glyph-name="ordmasculine" unicode="&#xba;" horiz-adv-x="318" 
d="M349 593q0 -85 -41.5 -146t-113.5 -61q-53 0 -82 36t-29 92q0 85 43.5 146t112.5 61q54 0 82 -35.5t28 -92.5zM260 590q0 49 -30 49q-26 0 -41.5 -41t-15.5 -82q0 -49 30 -49q26 0 41.5 40.5t15.5 82.5z" />
    <glyph glyph-name="guillemotright" unicode="&#xbb;" horiz-adv-x="410" 
d="M382 262l-146 -224l-71 43l122 189l-55 190l82 33zM222 262l-147 -224l-70 43l122 189l-55 190l82 33z" />
    <glyph glyph-name="onequarter" unicode="&#xbc;" horiz-adv-x="748" 
d="M642 92l-16 -92h-90l16 92h-166l15 84l176 270h127l-48 -274h47l-14 -80h-47zM600 347h-1l-107 -175h76zM327 708l-77 -442h-108l58 324l-74 -45l-34 79l143 84h92zM626 713l-402 -732l-59 22l403 734z" />
    <glyph glyph-name="onehalf" unicode="&#xbd;" horiz-adv-x="748" 
d="M739 335q0 -43 -20.5 -75t-68.5 -78l-96 -91h143l-15 -91h-270l16 94l160 152q47 46 47 79q0 14 -8 24t-24 10q-37 0 -47 -52l-99 14q16 63 57.5 96t101.5 33q55 0 89 -30t34 -85zM327 708l-77 -442h-108l58 324l-74 -45l-34 79l143 84h92zM626 713l-402 -732l-59 22
l403 734z" />
    <glyph glyph-name="threequarters" unicode="&#xbe;" horiz-adv-x="748" 
d="M642 92l-16 -92h-90l16 92h-166l15 84l176 270h127l-48 -274h47l-14 -80h-47zM600 347h-1l-107 -175h76zM355 614q0 -40 -21.5 -72t-56.5 -41l-1 -2q25 -8 39 -32t14 -54q0 -71 -45.5 -113t-111.5 -42q-59 0 -94 30t-45 79l94 25q12 -43 47 -43q24 0 38.5 17t14.5 45
q0 20 -14 32.5t-36 12.5h-23l13 80h26q27 0 43.5 16.5t16.5 44.5q0 14 -9.5 24.5t-26.5 10.5q-29 0 -48 -37l-85 26q40 101 148 101q52 0 87.5 -27.5t35.5 -80.5zM626 713l-402 -732l-59 22l403 734z" />
    <glyph glyph-name="questiondown" unicode="&#xbf;" horiz-adv-x="418" 
d="M352 -20q-20 -73 -75.5 -123t-140.5 -50q-79 0 -125.5 46t-46.5 117q0 68 31 112.5t96 95.5q51 41 60 91l5 30h123l-7 -43q-14 -87 -94 -156l-21 -18q-53 -46 -53 -92q0 -26 13.5 -41.5t38.5 -15.5q33 0 52.5 23.5t28.5 54.5zM319 469q0 -39 -25.5 -69t-63.5 -30
q-36 0 -56.5 21.5t-20.5 55.5q0 42 26.5 70t64.5 28q35 0 55 -22.5t20 -53.5z" />
    <glyph glyph-name="Agrave" unicode="&#xc0;" horiz-adv-x="541" 
d="M498 0h-156l-3 133h-165l-53 -133h-160l307 708h193zM341 251l-6 304h-4l-117 -304h127zM448 764h-101l-128 144h126z" />
    <glyph glyph-name="Aacute" unicode="&#xc1;" horiz-adv-x="541" 
d="M498 0h-156l-3 133h-165l-53 -133h-160l307 708h193zM341 251l-6 304h-4l-117 -304h127zM536 909l-138 -144h-101l112 144h127z" />
    <glyph glyph-name="Acircumflex" unicode="&#xc2;" horiz-adv-x="541" 
d="M498 0h-156l-3 133h-165l-53 -133h-160l307 708h193zM341 251l-6 304h-4l-117 -304h127zM544 764h-104l-52 83l-78 -83h-110l140 144h116z" />
    <glyph glyph-name="Atilde" unicode="&#xc3;" horiz-adv-x="541" 
d="M498 0h-156l-3 133h-165l-53 -133h-160l307 708h193zM341 251l-6 304h-4l-117 -304h127zM536 892q-11 -56 -40.5 -90t-68.5 -34q-36 0 -69 23q-30 22 -52 22q-30 0 -40 -40h-60q11 54 40 88t69 34q35 0 69 -24q34 -22 54 -22q29 0 39 43h59z" />
    <glyph glyph-name="Adieresis" unicode="&#xc4;" horiz-adv-x="541" 
d="M498 0h-156l-3 133h-165l-53 -133h-160l307 708h193zM341 251l-6 304h-4l-117 -304h127zM539 851q0 -34 -21.5 -57.5t-53.5 -23.5q-29 0 -46 18.5t-17 44.5q0 32 21.5 56.5t53.5 24.5q30 0 46.5 -17.5t16.5 -45.5zM353 851q0 -35 -21.5 -58t-53.5 -23q-29 0 -45.5 18.5
t-16.5 44.5q0 32 21.5 56.5t53.5 24.5q29 0 45.5 -17.5t16.5 -45.5z" />
    <glyph glyph-name="Aring" unicode="&#xc5;" horiz-adv-x="541" 
d="M498 0h-156l-3 133h-165l-53 -133h-160l307 708h193zM341 251l-6 304h-4l-117 -304h127zM481 871q0 -50 -33 -87t-80 -37q-41 0 -64 24.5t-23 63.5q0 52 31.5 90t76.5 38q44 0 68 -26t24 -66zM436 867q0 23 -12.5 38.5t-35.5 15.5q-29 0 -46 -24.5t-17 -57.5
q0 -22 12 -36.5t35 -14.5q27 0 45.5 24t18.5 55z" />
    <glyph glyph-name="AE" unicode="&#xc6;" horiz-adv-x="711" 
d="M749 708l-24 -135h-178l-26 -147h165l-21 -126h-165l-28 -162h195l-24 -138h-339l23 132h-143l-67 -132h-161l369 708h424zM405 572h-6l-158 -315h108z" />
    <glyph glyph-name="Ccedilla" unicode="&#xc7;" horiz-adv-x="503" 
d="M366 -135q0 -51 -44 -76t-99 -25q-61 0 -109 23l34 60q28 -15 71 -15q50 0 50 30q0 26 -35 26q-22 0 -41 -6l-25 26l66 78q-91 14 -139.5 86t-48.5 184q0 121 42 228t121 174.5t176 67.5q126 0 184 -83l-105 -114q-31 49 -86 49q-51 0 -91.5 -49t-60 -117t-19.5 -136
q0 -67 24 -106t73 -39q52 0 96 48l71 -114q-67 -69 -158 -81l-41 -46q12 2 22 2q29 0 50.5 -18.5t21.5 -56.5z" />
    <glyph glyph-name="Egrave" unicode="&#xc8;" horiz-adv-x="440" 
d="M478 708l-23 -135h-185l-26 -147h173l-22 -126h-172l-28 -162h202l-24 -138h-349l123 708h331zM379 764h-101l-128 144h126z" />
    <glyph glyph-name="Eacute" unicode="&#xc9;" horiz-adv-x="440" 
d="M478 708l-23 -135h-185l-26 -147h173l-22 -126h-172l-28 -162h202l-24 -138h-349l123 708h331zM497 909l-138 -144h-101l112 144h127z" />
    <glyph glyph-name="Ecircumflex" unicode="&#xca;" horiz-adv-x="440" 
d="M478 708l-23 -135h-185l-26 -147h173l-22 -126h-172l-28 -162h202l-24 -138h-349l123 708h331zM488 764h-104l-52 83l-78 -83h-110l140 144h116z" />
    <glyph glyph-name="Edieresis" unicode="&#xcb;" horiz-adv-x="440" 
d="M478 708l-23 -135h-185l-26 -147h173l-22 -126h-172l-28 -162h202l-24 -138h-349l123 708h331zM491 851q0 -34 -21.5 -57.5t-53.5 -23.5q-29 0 -46 18.5t-17 44.5q0 32 21.5 56.5t53.5 24.5q30 0 46.5 -17.5t16.5 -45.5zM305 851q0 -35 -21.5 -58t-53.5 -23
q-29 0 -45.5 18.5t-16.5 44.5q0 32 21.5 56.5t53.5 24.5q29 0 45.5 -17.5t16.5 -45.5z" />
    <glyph glyph-name="Igrave" unicode="&#xcc;" horiz-adv-x="283" 
d="M302 708l-123 -708h-155l123 708h155zM295 764h-101l-128 144h126z" />
    <glyph glyph-name="Iacute" unicode="&#xcd;" horiz-adv-x="283" 
d="M302 708l-123 -708h-155l123 708h155zM402 909l-138 -144h-101l112 144h127z" />
    <glyph glyph-name="Icircumflex" unicode="&#xce;" horiz-adv-x="283" 
d="M302 708l-123 -708h-155l123 708h155zM405 764h-104l-52 83l-78 -83h-110l140 144h116z" />
    <glyph glyph-name="Idieresis" unicode="&#xcf;" horiz-adv-x="283" 
d="M302 708l-123 -708h-155l123 708h155zM406 851q0 -34 -21.5 -57.5t-53.5 -23.5q-29 0 -46 18.5t-17 44.5q0 32 21.5 56.5t53.5 24.5q30 0 46.5 -17.5t16.5 -45.5zM220 851q0 -35 -21.5 -58t-53.5 -23q-29 0 -45.5 18.5t-16.5 44.5q0 32 21.5 56.5t53.5 24.5
q29 0 45.5 -17.5t16.5 -45.5z" />
    <glyph glyph-name="Eth" unicode="&#xd0;" horiz-adv-x="582" 
d="M580 432q0 -63 -11 -122t-37 -116t-65.5 -99.5t-100.5 -68.5t-137 -26h-205l54 312h-49l18 98h48l52 298h187q127 0 186.5 -73.5t59.5 -202.5zM423 419q0 71 -25 113t-78 42h-43l-28 -164h90l-18 -98h-89l-31 -178h45q56 0 97.5 44.5t60.5 108t19 132.5z" />
    <glyph glyph-name="Ntilde" unicode="&#xd1;" horiz-adv-x="599" 
d="M618 708l-123 -708h-165l-93 441h-3l-72 -441h-138l123 708h169l89 -447h4l74 447h135zM566 892q-11 -56 -40.5 -90t-68.5 -34q-36 0 -69 23q-30 22 -52 22q-30 0 -40 -40h-60q11 54 40 88t69 34q35 0 69 -24q34 -22 54 -22q29 0 39 43h59z" />
    <glyph glyph-name="Ograve" unicode="&#xd2;" horiz-adv-x="607" 
d="M604 454q0 -118 -39 -225t-116.5 -177t-175.5 -70q-107 0 -167 73.5t-60 196.5q0 119 38.5 225.5t115.5 177.5t177 71q111 0 169 -73t58 -199zM445 432q0 147 -83 147q-48 0 -85.5 -53t-54.5 -123t-17 -137q0 -136 85 -136q46 0 82.5 49.5t54.5 117.5t18 135zM448 764
h-101l-128 144h126z" />
    <glyph glyph-name="Oacute" unicode="&#xd3;" horiz-adv-x="607" 
d="M604 454q0 -118 -39 -225t-116.5 -177t-175.5 -70q-107 0 -167 73.5t-60 196.5q0 119 38.5 225.5t115.5 177.5t177 71q111 0 169 -73t58 -199zM445 432q0 147 -83 147q-48 0 -85.5 -53t-54.5 -123t-17 -137q0 -136 85 -136q46 0 82.5 49.5t54.5 117.5t18 135zM568 909
l-138 -144h-101l112 144h127z" />
    <glyph glyph-name="Ocircumflex" unicode="&#xd4;" horiz-adv-x="607" 
d="M604 454q0 -118 -39 -225t-116.5 -177t-175.5 -70q-107 0 -167 73.5t-60 196.5q0 119 38.5 225.5t115.5 177.5t177 71q111 0 169 -73t58 -199zM445 432q0 147 -83 147q-48 0 -85.5 -53t-54.5 -123t-17 -137q0 -136 85 -136q46 0 82.5 49.5t54.5 117.5t18 135zM562 764
h-104l-52 83l-78 -83h-110l140 144h116z" />
    <glyph glyph-name="Otilde" unicode="&#xd5;" horiz-adv-x="607" 
d="M604 454q0 -118 -39 -225t-116.5 -177t-175.5 -70q-107 0 -167 73.5t-60 196.5q0 119 38.5 225.5t115.5 177.5t177 71q111 0 169 -73t58 -199zM445 432q0 147 -83 147q-48 0 -85.5 -53t-54.5 -123t-17 -137q0 -136 85 -136q46 0 82.5 49.5t54.5 117.5t18 135zM571 892
q-11 -56 -40.5 -90t-68.5 -34q-36 0 -69 23q-30 22 -52 22q-30 0 -40 -40h-60q11 54 40 88t69 34q34 0 69 -24q34 -22 54 -22q29 0 39 43h59z" />
    <glyph glyph-name="Odieresis" unicode="&#xd6;" horiz-adv-x="607" 
d="M604 454q0 -118 -39 -225t-116.5 -177t-175.5 -70q-107 0 -167 73.5t-60 196.5q0 119 38.5 225.5t115.5 177.5t177 71q111 0 169 -73t58 -199zM445 432q0 147 -83 147q-48 0 -85.5 -53t-54.5 -123t-17 -137q0 -136 85 -136q46 0 82.5 49.5t54.5 117.5t18 135zM570 851
q0 -34 -21.5 -57.5t-53.5 -23.5q-29 0 -46 18.5t-17 44.5q0 32 21.5 56.5t53.5 24.5q30 0 46.5 -17.5t16.5 -45.5zM384 851q0 -35 -21.5 -58t-53.5 -23q-29 0 -45.5 18.5t-16.5 44.5q0 32 21.5 56.5t53.5 24.5q29 0 45.5 -17.5t16.5 -45.5z" />
    <glyph glyph-name="multiply" unicode="&#xd7;" horiz-adv-x="666" 
d="M604 130l-94 -93l-177 173l-176 -173l-93 89l177 175l-178 174l94 91l177 -173l174 172l91 -87l-174 -173z" />
    <glyph glyph-name="Oslash" unicode="&#xd8;" horiz-adv-x="607" 
d="M604 454q0 -118 -39 -225t-116.5 -177t-175.5 -70q-81 0 -138 44l-47 -72l-66 34l64 94q-40 69 -40 170q0 119 38.5 225.5t115.5 177.5t177 71q83 0 140 -46l53 81l65 -33l-70 -103q39 -67 39 -171zM200 264q0 -22 1 -33l220 323q-21 30 -58 30q-49 0 -88 -54t-57 -126
t-18 -140zM449 434q0 13 -2 37l-219 -318q22 -27 60 -27q48 0 86 50.5t56.5 120t18.5 137.5z" />
    <glyph glyph-name="Ugrave" unicode="&#xd9;" horiz-adv-x="576" 
d="M609 708l-78 -446q-11 -64 -29 -111t-48 -87t-78 -61t-113 -21q-104 0 -158.5 55t-54.5 146q0 40 7 79l78 446h155l-76 -434q-7 -40 -7 -64q0 -81 66 -81q48 0 71.5 37.5t35.5 107.5l75 434h154zM447 764h-101l-128 144h126z" />
    <glyph glyph-name="Uacute" unicode="&#xda;" horiz-adv-x="576" 
d="M609 708l-78 -446q-11 -64 -29 -111t-48 -87t-78 -61t-113 -21q-104 0 -158.5 55t-54.5 146q0 40 7 79l78 446h155l-76 -434q-7 -40 -7 -64q0 -81 66 -81q48 0 71.5 37.5t35.5 107.5l75 434h154zM551 909l-138 -144h-101l112 144h127z" />
    <glyph glyph-name="Ucircumflex" unicode="&#xdb;" horiz-adv-x="576" 
d="M609 708l-78 -446q-11 -64 -29 -111t-48 -87t-78 -61t-113 -21q-104 0 -158.5 55t-54.5 146q0 40 7 79l78 446h155l-76 -434q-7 -40 -7 -64q0 -81 66 -81q48 0 71.5 37.5t35.5 107.5l75 434h154zM558 764h-104l-52 83l-78 -83h-110l140 144h116z" />
    <glyph glyph-name="Udieresis" unicode="&#xdc;" horiz-adv-x="576" 
d="M609 708l-78 -446q-11 -64 -29 -111t-48 -87t-78 -61t-113 -21q-104 0 -158.5 55t-54.5 146q0 40 7 79l78 446h155l-76 -434q-7 -40 -7 -64q0 -81 66 -81q48 0 71.5 37.5t35.5 107.5l75 434h154zM553 851q0 -34 -21.5 -57.5t-53.5 -23.5q-29 0 -46 18.5t-17 44.5
q0 32 21.5 56.5t53.5 24.5q30 0 46.5 -17.5t16.5 -45.5zM367 851q0 -35 -21.5 -58t-53.5 -23q-29 0 -45.5 18.5t-16.5 44.5q0 32 21.5 56.5t53.5 24.5q29 0 45.5 -17.5t16.5 -45.5z" />
    <glyph glyph-name="Yacute" unicode="&#xdd;" horiz-adv-x="493" 
d="M579 708l-258 -452l-45 -256h-155l45 256l-96 452h162l37 -294h3l140 294h167zM500 909l-138 -144h-101l112 144h127z" />
    <glyph glyph-name="Thorn" unicode="&#xde;" horiz-adv-x="515" 
d="M523 413q0 -124 -68 -192.5t-180 -68.5h-72l-29 -152h-150l123 708h151l-18 -111h52q81 0 136 -45.5t55 -138.5zM377 391q0 36 -18.5 56t-50.5 20h-51l-32 -191h53q44 0 71.5 31.5t27.5 83.5z" />
    <glyph glyph-name="germandbls" unicode="&#xdf;" horiz-adv-x="512" 
d="M522 597q0 -66 -33 -116.5t-95 -67.5q43 -14 69.5 -55.5t26.5 -103.5q0 -68 -23 -125.5t-77.5 -98t-133.5 -40.5q-30 0 -59 9l22 124q16 -6 32 -6q49 0 75 40t26 96q0 43 -20 68t-54 25h-17l22 121h16q34 0 60.5 30t26.5 77q0 66 -53 66q-37 0 -55.5 -34.5t-29.5 -94.5
l-89 -511h-143l86 498q48 270 241 270q93 0 136 -48t43 -123z" />
    <glyph glyph-name="agrave" unicode="&#xe0;" horiz-adv-x="448" 
d="M356 589h-101l-128 144h126zM419 381q0 -40 -9 -88l-33 -191q-11 -62 -13 -102h-122q2 36 9 65h-3q-37 -78 -122 -78q-46 0 -80.5 33.5t-34.5 96.5q0 107 68.5 157t176.5 50h25q5 23 5 34q0 54 -51 54q-52 0 -98 -42l-56 93q35 33 82.5 53t94.5 20q161 0 161 -155z
M269 229h-27q-44 0 -74 -21t-30 -63q0 -23 11 -35.5t29 -12.5q34 0 55.5 31.5t30.5 75.5z" />
    <glyph glyph-name="aacute" unicode="&#xe1;" horiz-adv-x="448" 
d="M445 734l-138 -144h-101l112 144h127zM419 381q0 -40 -9 -88l-33 -191q-11 -62 -13 -102h-122q2 36 9 65h-3q-37 -78 -122 -78q-46 0 -80.5 33.5t-34.5 96.5q0 107 68.5 157t176.5 50h25q5 23 5 34q0 54 -51 54q-52 0 -98 -42l-56 93q35 33 82.5 53t94.5 20
q161 0 161 -155zM269 229h-27q-44 0 -74 -21t-30 -63q0 -23 11 -35.5t29 -12.5q34 0 55.5 31.5t30.5 75.5z" />
    <glyph glyph-name="acircumflex" unicode="&#xe2;" horiz-adv-x="448" 
d="M449 589h-104l-52 83l-78 -83h-110l140 144h116zM419 381q0 -40 -9 -88l-33 -191q-11 -62 -13 -102h-122q2 36 9 65h-3q-37 -78 -122 -78q-46 0 -80.5 33.5t-34.5 96.5q0 107 68.5 157t176.5 50h25q5 23 5 34q0 54 -51 54q-52 0 -98 -42l-56 93q35 33 82.5 53t94.5 20
q161 0 161 -155zM269 229h-27q-44 0 -74 -21t-30 -63q0 -23 11 -35.5t29 -12.5q34 0 55.5 31.5t30.5 75.5z" />
    <glyph glyph-name="atilde" unicode="&#xe3;" horiz-adv-x="448" 
d="M447 717q-11 -56 -40.5 -90t-68.5 -34q-36 0 -69 23q-30 22 -52 22q-30 0 -40 -40h-60q10 54 40 88q29 34 69 34q34 0 69 -24q34 -22 54 -22q29 0 39 43h59zM419 381q0 -40 -9 -88l-33 -191q-11 -62 -13 -102h-122q2 36 9 65h-3q-37 -78 -122 -78q-46 0 -80.5 33.5
t-34.5 96.5q0 107 68.5 157t176.5 50h25q5 23 5 34q0 54 -51 54q-52 0 -98 -42l-56 93q35 33 82.5 53t94.5 20q161 0 161 -155zM269 229h-27q-44 0 -74 -21t-30 -63q0 -23 11 -35.5t29 -12.5q34 0 55.5 31.5t30.5 75.5z" />
    <glyph glyph-name="adieresis" unicode="&#xe4;" horiz-adv-x="448" 
d="M419 381q0 -40 -9 -88l-33 -191q-11 -62 -13 -102h-122q2 36 9 65h-3q-37 -78 -122 -78q-46 0 -80.5 33.5t-34.5 96.5q0 107 68.5 157t176.5 50h25q5 23 5 34q0 54 -51 54q-52 0 -98 -42l-56 93q35 33 82.5 53t94.5 20q161 0 161 -155zM269 229h-27q-44 0 -74 -21
t-30 -63q0 -23 11 -35.5t29 -12.5q34 0 55.5 31.5t30.5 75.5zM449 676q0 -34 -21.5 -57.5t-53.5 -23.5q-29 0 -46 18.5t-17 44.5q0 32 22 57t53 25q30 0 46.5 -18t16.5 -46zM263 676q0 -35 -21.5 -58t-53.5 -23q-29 0 -45.5 18.5t-16.5 44.5q0 33 21.5 57.5t53.5 24.5
q29 0 45.5 -18t16.5 -46z" />
    <glyph glyph-name="aring" unicode="&#xe5;" horiz-adv-x="448" 
d="M390 696q0 -50 -33 -87t-80 -37q-41 0 -64 24.5t-23 63.5q0 53 31.5 90.5t76.5 37.5q44 0 68 -26t24 -66zM345 692q0 23 -12.5 38.5t-35.5 15.5q-29 0 -46 -24.5t-17 -57.5q0 -22 12 -36.5t35 -14.5q27 0 45.5 24t18.5 55zM419 381q0 -40 -9 -88l-33 -191
q-11 -62 -13 -102h-122q2 36 9 65h-3q-37 -78 -122 -78q-46 0 -80.5 33.5t-34.5 96.5q0 107 68.5 157t176.5 50h25q5 23 5 34q0 54 -51 54q-52 0 -98 -42l-56 93q35 33 82.5 53t94.5 20q161 0 161 -155zM269 229h-27q-44 0 -74 -21t-30 -63q0 -23 11 -35.5t29 -12.5
q34 0 55.5 31.5t30.5 75.5z" />
    <glyph glyph-name="ae" unicode="&#xe6;" horiz-adv-x="695" 
d="M678 353q0 -51 -16 -126h-260q-3 -23 -3 -35q0 -36 15.5 -58t44.5 -22q44 0 77 57l100 -65q-29 -54 -78.5 -87t-114.5 -33q-50 0 -87 28.5t-48 72.5q-48 -101 -168 -101q-54 0 -91.5 34t-37.5 97q0 106 67.5 154t176.5 48h25q6 24 6 43q0 54 -51 54q-52 0 -98 -42l-56 93
q34 33 82 52t95 19q105 0 119 -83q20 37 56.5 60t76.5 23q86 0 127 -49.5t41 -133.5zM550 355q0 69 -47 69q-31 0 -54 -33.5t-30 -73.5h127q4 16 4 38zM268 222h-27q-44 0 -73.5 -19t-29.5 -58q0 -23 11 -35.5t29 -12.5q34 0 56 30.5t29 69.5z" />
    <glyph glyph-name="ccedilla" unicode="&#xe7;" horiz-adv-x="352" 
d="M282 -135q0 -51 -44 -76t-99 -25q-61 0 -109 23l34 60q28 -15 71 -15q50 0 50 30q0 26 -35 26q-22 0 -41 -6l-25 26l70 82q-62 16 -93 69.5t-31 130.5q0 85 29 163.5t87.5 130.5t133.5 52q79 0 121 -40l-75 -114q-19 21 -49 21q-45 0 -74.5 -63t-29.5 -133q0 -89 61 -89
q25 0 53 19l38 -115q-37 -31 -95 -37l-42 -47q12 2 22 2q29 0 50.5 -18.5t21.5 -56.5z" />
    <glyph glyph-name="egrave" unicode="&#xe8;" horiz-adv-x="465" 
d="M366 589h-101l-128 144h126zM448 353q0 -55 -15 -128h-260q-3 -20 -3 -33q0 -36 15.5 -58t44.5 -22q44 0 77 57l100 -65q-29 -54 -78.5 -87t-114.5 -33q-87 0 -135.5 54.5t-48.5 151.5q0 142 72.5 244t177.5 102q86 0 127 -49.5t41 -133.5zM321 355q0 69 -47 69
q-31 0 -54 -33.5t-30 -73.5h127q4 16 4 38z" />
    <glyph glyph-name="eacute" unicode="&#xe9;" horiz-adv-x="465" 
d="M472 734l-138 -144h-101l112 144h127zM448 353q0 -55 -15 -128h-260q-3 -20 -3 -33q0 -36 15.5 -58t44.5 -22q44 0 77 57l100 -65q-29 -54 -78.5 -87t-114.5 -33q-87 0 -135.5 54.5t-48.5 151.5q0 142 72.5 244t177.5 102q86 0 127 -49.5t41 -133.5zM321 355q0 69 -47 69
q-31 0 -54 -33.5t-30 -73.5h127q4 16 4 38z" />
    <glyph glyph-name="ecircumflex" unicode="&#xea;" horiz-adv-x="465" 
d="M470 589h-104l-52 83l-78 -83h-110l140 144h116zM448 353q0 -55 -15 -128h-260q-3 -20 -3 -33q0 -36 15.5 -58t44.5 -22q44 0 77 57l100 -65q-29 -54 -78.5 -87t-114.5 -33q-87 0 -135.5 54.5t-48.5 151.5q0 142 72.5 244t177.5 102q86 0 127 -49.5t41 -133.5zM321 355
q0 69 -47 69q-31 0 -54 -33.5t-30 -73.5h127q4 16 4 38z" />
    <glyph glyph-name="edieresis" unicode="&#xeb;" horiz-adv-x="465" 
d="M448 353q0 -55 -15 -128h-260q-3 -20 -3 -33q0 -36 15.5 -58t44.5 -22q44 0 77 57l100 -65q-29 -54 -78.5 -87t-114.5 -33q-87 0 -135.5 54.5t-48.5 151.5q0 142 72.5 244t177.5 102q86 0 127 -49.5t41 -133.5zM321 355q0 69 -47 69q-31 0 -54 -33.5t-30 -73.5h127
q4 16 4 38zM470 676q0 -34 -21.5 -57.5t-53.5 -23.5q-29 0 -46 18.5t-17 44.5q0 32 22 57t53 25q30 0 46.5 -18t16.5 -46zM284 676q0 -35 -21.5 -58t-53.5 -23q-29 0 -45.5 18.5t-16.5 44.5q0 33 21.5 57.5t53.5 24.5q29 0 45.5 -18t16.5 -46z" />
    <glyph glyph-name="igrave" unicode="&#xec;" horiz-adv-x="266" 
d="M255 589h-101l-128 144h126zM255 520l-90 -520h-146l90 520h146z" />
    <glyph glyph-name="iacute" unicode="&#xed;" horiz-adv-x="266" 
d="M357 734l-138 -144h-101l112 144h127zM255 520l-90 -520h-146l90 520h146z" />
    <glyph glyph-name="icircumflex" unicode="&#xee;" horiz-adv-x="266" 
d="M359 589h-104l-52 83l-78 -83h-110l140 144h116zM255 520l-90 -520h-146l90 520h146z" />
    <glyph glyph-name="idieresis" unicode="&#xef;" horiz-adv-x="266" 
d="M357 676q0 -34 -21.5 -57.5t-53.5 -23.5q-29 0 -46 18.5t-17 44.5q0 32 22 57t53 25q30 0 46.5 -18t16.5 -46zM171 676q0 -35 -21.5 -58t-53.5 -23q-29 0 -45.5 18.5t-16.5 44.5q0 33 21.5 57.5t53.5 24.5q29 0 45.5 -18t16.5 -46zM255 520l-90 -520h-146l90 520h146z
" />
    <glyph glyph-name="eth" unicode="&#xf0;" horiz-adv-x="486" 
d="M509 711l-117 -50q34 -53 56 -134.5t22 -167.5q0 -69 -15.5 -134t-45.5 -120t-81.5 -88t-116.5 -33q-87 0 -134 56t-47 148q-1 84 27 158.5t83 122.5t127 48q35 0 58 -17l2 1q-21 68 -59 117l-111 -49l-45 52l115 52q-22 31 -70 66l130 51q49 -45 69 -73l103 47zM327 322
q0 89 -53 89q-45 0 -73 -71t-28 -143q0 -87 51 -87q46 0 74.5 70t28.5 142z" />
    <glyph glyph-name="ntilde" unicode="&#xf1;" horiz-adv-x="525" 
d="M489 717q-11 -56 -40.5 -90t-68.5 -34q-36 0 -69 23q-30 22 -52 22q-30 0 -40 -40h-60q10 54 40 88q29 34 69 34q34 0 69 -24q34 -22 54 -22q29 0 39 43h59zM491 410q0 -38 -10 -91l-55 -319h-146l56 319q4 24 4 37q0 51 -41 51q-29 0 -51 -28.5t-30 -73.5l-53 -305h-146
l69 393q9 47 19 127h138q-4 -39 -10 -76h2q21 41 57 66.5t81 25.5q58 0 87 -37.5t29 -88.5z" />
    <glyph glyph-name="ograve" unicode="&#xf2;" horiz-adv-x="488" 
d="M365 589h-101l-128 144h126zM468 334q0 -143 -69 -246.5t-186 -103.5q-85 0 -134 55t-49 148q0 142 70.5 245.5t186.5 103.5q85 0 133 -55t48 -147zM327 322q0 89 -53 89q-45 0 -73 -71t-28 -143q0 -87 51 -87q46 0 74.5 70t28.5 142z" />
    <glyph glyph-name="oacute" unicode="&#xf3;" horiz-adv-x="488" 
d="M474 734l-138 -144h-101l112 144h127zM468 334q0 -143 -69 -246.5t-186 -103.5q-85 0 -134 55t-49 148q0 142 70.5 245.5t186.5 103.5q85 0 133 -55t48 -147zM327 322q0 89 -53 89q-45 0 -73 -71t-28 -143q0 -87 51 -87q46 0 74.5 70t28.5 142z" />
    <glyph glyph-name="ocircumflex" unicode="&#xf4;" horiz-adv-x="488" 
d="M477 589h-104l-52 83l-78 -83h-110l140 144h116zM468 334q0 -143 -69 -246.5t-186 -103.5q-85 0 -134 55t-49 148q0 142 70.5 245.5t186.5 103.5q85 0 133 -55t48 -147zM327 322q0 89 -53 89q-45 0 -73 -71t-28 -143q0 -87 51 -87q46 0 74.5 70t28.5 142z" />
    <glyph glyph-name="otilde" unicode="&#xf5;" horiz-adv-x="488" 
d="M480 717q-11 -56 -40.5 -90t-68.5 -34q-36 0 -69 23q-30 22 -52 22q-30 0 -40 -40h-60q10 54 40 88q29 34 69 34q35 0 69 -24q34 -22 54 -22q29 0 39 43h59zM468 334q0 -143 -69 -246.5t-186 -103.5q-85 0 -134 55t-49 148q0 142 70.5 245.5t186.5 103.5q85 0 133 -55
t48 -147zM327 322q0 89 -53 89q-45 0 -73 -71t-28 -143q0 -87 51 -87q46 0 74.5 70t28.5 142z" />
    <glyph glyph-name="odieresis" unicode="&#xf6;" horiz-adv-x="488" 
d="M468 334q0 -143 -69 -246.5t-186 -103.5q-85 0 -134 55t-49 148q0 142 70.5 245.5t186.5 103.5q85 0 133 -55t48 -147zM327 322q0 89 -53 89q-45 0 -73 -71t-28 -143q0 -87 51 -87q46 0 74.5 70t28.5 142zM481 676q0 -34 -21.5 -57.5t-53.5 -23.5q-29 0 -46 18.5
t-17 44.5q0 32 22 57t53 25q30 0 46.5 -18t16.5 -46zM295 676q0 -35 -21.5 -58t-53.5 -23q-29 0 -45.5 18.5t-16.5 44.5q0 33 21.5 57.5t53.5 24.5q29 0 45.5 -18t16.5 -46z" />
    <glyph glyph-name="divide" unicode="&#xf7;" horiz-adv-x="666" 
d="M246 489q0 34 26 59t61 25t60.5 -25t25.5 -59q0 -35 -25.5 -60t-60.5 -25t-61 25t-26 60zM246 117q0 34 26 59t61 25t60.5 -25t25.5 -59q0 -35 -25.5 -60t-60.5 -25t-61 25.5t-26 59.5zM586 240h-507v127h507v-127z" />
    <glyph glyph-name="oslash" unicode="&#xf8;" horiz-adv-x="488" 
d="M468 334q0 -143 -69 -246.5t-186 -103.5q-62 0 -106 30l-42 -65l-56 33l53 78q-32 52 -32 127q0 142 70.5 245.5t186.5 103.5q56 0 100 -27l44 67l55 -32l-54 -80q36 -53 36 -130zM333 326v7l-149 -215q14 -17 38 -17q34 0 60.5 38.5t38.5 89t12 97.5zM276 420
q-33 0 -59 -38.5t-38 -88.5t-13 -97l143 211q-13 13 -33 13z" />
    <glyph glyph-name="ugrave" unicode="&#xf9;" horiz-adv-x="525" 
d="M372 589h-101l-128 144h126zM512 520l-69 -393q-12 -67 -20 -127h-137q4 40 10 76h-3q-20 -42 -56 -67t-81 -25q-58 0 -87 37.5t-29 88.5q0 37 10 90l55 320h146l-56 -319q-4 -26 -4 -37q0 -51 41 -51q29 0 51 28t30 74l53 305h146z" />
    <glyph glyph-name="uacute" unicode="&#xfa;" horiz-adv-x="525" 
d="M487 734l-138 -144h-101l112 144h127zM512 520l-69 -393q-12 -67 -20 -127h-137q4 40 10 76h-3q-20 -42 -56 -67t-81 -25q-58 0 -87 37.5t-29 88.5q0 37 10 90l55 320h146l-56 -319q-4 -26 -4 -37q0 -51 41 -51q29 0 51 28t30 74l53 305h146z" />
    <glyph glyph-name="ucircumflex" unicode="&#xfb;" horiz-adv-x="525" 
d="M492 589h-104l-52 83l-78 -83h-110l140 144h116zM512 520l-69 -393q-12 -67 -20 -127h-137q4 40 10 76h-3q-20 -42 -56 -67t-81 -25q-58 0 -87 37.5t-29 88.5q0 37 10 90l55 320h146l-56 -319q-4 -26 -4 -37q0 -51 41 -51q29 0 51 28t30 74l53 305h146z" />
    <glyph glyph-name="udieresis" unicode="&#xfc;" horiz-adv-x="525" 
d="M495 676q0 -34 -21.5 -57.5t-53.5 -23.5q-29 0 -46 18.5t-17 44.5q0 32 22 57t53 25q30 0 46.5 -18t16.5 -46zM309 676q0 -35 -21.5 -58t-53.5 -23q-29 0 -45.5 18.5t-16.5 44.5q0 33 21.5 57.5t53.5 24.5q29 0 45.5 -18t16.5 -46zM512 520l-69 -393q-12 -67 -20 -127
h-137q4 40 10 76h-3q-20 -42 -56 -67t-81 -25q-58 0 -87 37.5t-29 88.5q0 37 10 90l55 320h146l-56 -319q-4 -26 -4 -37q0 -51 41 -51q29 0 51 28t30 74l53 305h146z" />
    <glyph glyph-name="yacute" unicode="&#xfd;" horiz-adv-x="458" 
d="M459 734l-138 -144h-101l112 144h127zM504 520l-249 -563q-44 -99 -93 -148t-132 -49q-38 0 -70 10l27 130q10 -7 37 -7q42 0 65 54l19 44l-57 529h151l13 -363h3l139 363h147z" />
    <glyph glyph-name="thorn" unicode="&#xfe;" horiz-adv-x="518" 
d="M498 351q0 -86 -24.5 -168t-77 -140.5t-119.5 -58.5q-45 0 -71 22.5t-30 56.5h-2l-51 -303h-143l171 996h144l-52 -294h4q15 32 45 53t68 21q68 0 103 -50.5t35 -134.5zM352 325q0 86 -53 86q-45 0 -73.5 -70.5t-28.5 -142.5q0 -88 53 -88q31 0 55.5 37.5t35.5 85.5
t11 92z" />
    <glyph glyph-name="ydieresis" unicode="&#xff;" horiz-adv-x="458" 
d="M464 676q0 -34 -21.5 -57.5t-53.5 -23.5q-29 0 -46 18.5t-17 44.5q0 32 22 57t53 25q30 0 46.5 -18t16.5 -46zM278 676q0 -35 -21.5 -58t-53.5 -23q-29 0 -45.5 18.5t-16.5 44.5q0 33 21.5 57.5t53.5 24.5q29 0 45.5 -18t16.5 -46zM504 520l-249 -563q-44 -99 -93 -148
t-132 -49q-38 0 -70 10l27 130q10 -7 37 -7q42 0 65 54l19 44l-57 529h151l13 -363h3l139 363h147z" />
    <glyph glyph-name="Amacron" unicode="&#x100;" horiz-adv-x="541" 
d="M498 0h-156l-3 133h-165l-53 -133h-160l307 708h193zM341 251l-6 304h-4l-117 -304h127zM533 877l-14 -79h-294l13 79h295z" />
    <glyph glyph-name="amacron" unicode="&#x101;" horiz-adv-x="448" 
d="M442 702l-14 -79h-294l13 79h295zM419 381q0 -40 -9 -88l-33 -191q-11 -62 -13 -102h-122q2 36 9 65h-3q-37 -78 -122 -78q-46 0 -80.5 33.5t-34.5 96.5q0 107 68.5 157t176.5 50h25q5 23 5 34q0 54 -51 54q-52 0 -98 -42l-56 93q35 33 82.5 53t94.5 20q161 0 161 -155z
M269 229h-27q-44 0 -74 -21t-30 -63q0 -23 11 -35.5t29 -12.5q34 0 55.5 31.5t30.5 75.5z" />
    <glyph glyph-name="Abreve" unicode="&#x102;" horiz-adv-x="541" 
d="M498 0h-156l-3 133h-165l-53 -133h-160l307 708h193zM341 251l-6 304h-4l-117 -304h127zM529 905q-33 -139 -167 -139q-58 0 -95 33t-37 106h79q0 -28 17.5 -41.5t42.5 -13.5q67 0 80 55h80z" />
    <glyph glyph-name="abreve" unicode="&#x103;" horiz-adv-x="448" 
d="M440 730q-33 -139 -167 -139q-58 0 -95 33t-37 106h79q0 -28 17.5 -41.5t42.5 -13.5q67 0 80 55h80zM419 381q0 -40 -9 -88l-33 -191q-11 -62 -13 -102h-122q2 36 9 65h-3q-37 -78 -122 -78q-46 0 -80.5 33.5t-34.5 96.5q0 107 68.5 157t176.5 50h25q5 23 5 34
q0 54 -51 54q-52 0 -98 -42l-56 93q35 33 82.5 53t94.5 20q161 0 161 -155zM269 229h-27q-44 0 -74 -21t-30 -63q0 -23 11 -35.5t29 -12.5q34 0 55.5 31.5t30.5 75.5z" />
    <glyph glyph-name="Aogonek" unicode="&#x104;" horiz-adv-x="541" 
d="M375 -232q-38 0 -64 20t-26 64q0 76 120 148h-63l-3 133h-165l-53 -133h-160l307 708h193l37 -708h-1q-61 -46 -85.5 -71.5t-24.5 -47.5q0 -28 26 -28q28 0 52 19l19 -64q-51 -40 -109 -40zM341 251l-6 304h-4l-117 -304h127z" />
    <glyph glyph-name="aogonek" unicode="&#x105;" horiz-adv-x="448" 
d="M241 -232q-38 0 -64 20t-26 64q0 76 120 148h-29q2 36 9 65h-3q-37 -78 -122 -78q-46 0 -80.5 33.5t-34.5 96.5q0 107 68.5 157t176.5 50h25q5 23 5 34q0 54 -51 54q-52 0 -98 -42l-56 93q35 33 82.5 53t94.5 20q161 0 161 -155q0 -40 -9 -88l-33 -191q-11 -62 -13 -102
q-62 -46 -86.5 -71.5t-24.5 -47.5q0 -28 26 -28q28 0 52 19l19 -64q-51 -40 -109 -40zM269 229h-27q-44 0 -74 -21t-30 -63q0 -23 11 -35.5t29 -12.5q34 0 55.5 31.5t30.5 75.5z" />
    <glyph glyph-name="Cacute" unicode="&#x106;" horiz-adv-x="503" 
d="M569 643l-105 -114q-31 49 -86 49q-51 0 -91.5 -49t-60 -117t-19.5 -136q0 -67 24 -106t73 -39q52 0 96 48l71 -114q-80 -83 -194 -83q-110 0 -170.5 74.5t-60.5 199.5q0 121 42 228t121 174.5t176 67.5q126 0 184 -83zM554 909l-138 -144h-101l112 144h127z" />
    <glyph glyph-name="cacute" unicode="&#x107;" horiz-adv-x="352" 
d="M455 734l-138 -144h-101l112 144h127zM401 496l-75 -114q-19 21 -49 21q-45 0 -74.5 -63t-29.5 -133q0 -89 61 -89q25 0 53 19l38 -115q-46 -38 -120 -38q-87 0 -131 57t-44 149q0 85 29 163.5t87.5 130.5t133.5 52q79 0 121 -40z" />
    <glyph glyph-name="Ccircumflex" unicode="&#x108;" horiz-adv-x="503" 
d="M569 643l-105 -114q-31 49 -86 49q-51 0 -91.5 -49t-60 -117t-19.5 -136q0 -67 24 -106t73 -39q52 0 96 48l71 -114q-80 -83 -194 -83q-110 0 -170.5 74.5t-60.5 199.5q0 121 42 228t121 174.5t176 67.5q126 0 184 -83zM575 764h-104l-52 83l-78 -83h-110l140 144h116z
" />
    <glyph glyph-name="ccircumflex" unicode="&#x109;" horiz-adv-x="352" 
d="M464 589h-104l-52 83l-78 -83h-110l140 144h116zM401 496l-75 -114q-19 21 -49 21q-45 0 -74.5 -63t-29.5 -133q0 -89 61 -89q25 0 53 19l38 -115q-46 -38 -120 -38q-87 0 -131 57t-44 149q0 85 29 163.5t87.5 130.5t133.5 52q79 0 121 -40z" />
    <glyph glyph-name="Cdotaccent" unicode="&#x10a;" horiz-adv-x="503" 
d="M569 643l-105 -114q-31 49 -86 49q-51 0 -91.5 -49t-60 -117t-19.5 -136q0 -67 24 -106t73 -39q52 0 96 48l71 -114q-80 -83 -194 -83q-110 0 -170.5 74.5t-60.5 199.5q0 121 42 228t121 174.5t176 67.5q126 0 184 -83zM491 853q0 -41 -25.5 -68.5t-63.5 -27.5
q-34 0 -54 22t-20 52q0 39 25.5 68t62.5 29q36 0 55.5 -21t19.5 -54z" />
    <glyph glyph-name="cdotaccent" unicode="&#x10b;" horiz-adv-x="352" 
d="M390 678q0 -40 -25.5 -68t-63.5 -28q-34 0 -54 22t-20 52q0 39 25.5 68t62.5 29q36 0 55.5 -21t19.5 -54zM401 496l-75 -114q-19 21 -49 21q-45 0 -74.5 -63t-29.5 -133q0 -89 61 -89q25 0 53 19l38 -115q-46 -38 -120 -38q-87 0 -131 57t-44 149q0 85 29 163.5
t87.5 130.5t133.5 52q79 0 121 -40z" />
    <glyph glyph-name="Ccaron" unicode="&#x10c;" horiz-adv-x="503" 
d="M569 643l-105 -114q-31 49 -86 49q-51 0 -91.5 -49t-60 -117t-19.5 -136q0 -67 24 -106t73 -39q52 0 96 48l71 -114q-80 -83 -194 -83q-110 0 -170.5 74.5t-60.5 199.5q0 121 42 228t121 174.5t176 67.5q126 0 184 -83zM597 908l-139 -144h-116l-89 144h104l51 -83l79 83
h110z" />
    <glyph glyph-name="ccaron" unicode="&#x10d;" horiz-adv-x="352" 
d="M488 733l-139 -144h-116l-89 144h104l51 -83l79 83h110zM401 496l-75 -114q-19 21 -49 21q-45 0 -74.5 -63t-29.5 -133q0 -89 61 -89q25 0 53 19l38 -115q-46 -38 -120 -38q-87 0 -131 57t-44 149q0 85 29 163.5t87.5 130.5t133.5 52q79 0 121 -40z" />
    <glyph glyph-name="Dcaron" unicode="&#x10e;" horiz-adv-x="583" 
d="M580 432q0 -63 -11 -122t-37 -116t-65.5 -99.5t-100.5 -68.5t-137 -26h-205l123 708h187q127 0 186.5 -73.5t59.5 -202.5zM423 419q0 71 -25 113t-78 42h-43l-76 -440h45q56 0 97.5 44.5t60.5 108t19 132.5zM546 908l-139 -144h-116l-89 144h104l51 -83l79 83h110z" />
    <glyph glyph-name="dcaron" unicode="&#x10f;" horiz-adv-x="627" 
d="M547 756l-132 -756h-139l11 67h-1q-43 -83 -121 -83q-66 0 -100.5 51t-34.5 136t25 167t77 140t120 58q84 0 97 -74h3l52 294h143zM331 321q0 90 -53 90q-32 0 -56.5 -37.5t-35.5 -85.5t-11 -92q0 -86 54 -86q30 0 54.5 36.5t36 84t11.5 90.5zM753 708l-106 -191h-99
l94 191h111z" />
    <glyph glyph-name="Dcroat" unicode="&#x110;" horiz-adv-x="582" 
d="M580 432q0 -63 -11 -122t-37 -116t-65.5 -99.5t-100.5 -68.5t-137 -26h-205l54 312h-49l18 98h48l52 298h187q127 0 186.5 -73.5t59.5 -202.5zM423 419q0 71 -25 113t-78 42h-43l-28 -164h90l-18 -98h-89l-31 -178h45q56 0 97.5 44.5t60.5 108t19 132.5z" />
    <glyph glyph-name="dcroat" unicode="&#x111;" horiz-adv-x="515" 
d="M575 667l-14 -76h-43l-103 -591h-139l11 67h-1q-43 -83 -121 -83q-66 0 -100.5 51t-34.5 136t25 167t77 140t120 58q84 0 97 -74h3l23 129h-108l13 76h108l16 89h143l-16 -89h44zM331 321q0 90 -53 90q-32 0 -56.5 -37.5t-35.5 -85.5t-11 -92q0 -86 54 -86
q30 0 54.5 36.5t36 84t11.5 90.5z" />
    <glyph glyph-name="Emacron" unicode="&#x112;" horiz-adv-x="440" 
d="M478 708l-23 -135h-185l-26 -147h173l-22 -126h-172l-28 -162h202l-24 -138h-349l123 708h331zM479 877l-14 -79h-294l13 79h295z" />
    <glyph glyph-name="emacron" unicode="&#x113;" horiz-adv-x="465" 
d="M467 702l-14 -79h-294l13 79h295zM448 353q0 -55 -15 -128h-260q-3 -20 -3 -33q0 -36 15.5 -58t44.5 -22q44 0 77 57l100 -65q-29 -54 -78.5 -87t-114.5 -33q-87 0 -135.5 54.5t-48.5 151.5q0 142 72.5 244t177.5 102q86 0 127 -49.5t41 -133.5zM321 355q0 69 -47 69
q-31 0 -54 -33.5t-30 -73.5h127q4 16 4 38z" />
    <glyph glyph-name="Ebreve" unicode="&#x114;" horiz-adv-x="440" 
d="M478 708l-23 -135h-185l-26 -147h173l-22 -126h-172l-28 -162h202l-24 -138h-349l123 708h331zM482 905q-33 -139 -167 -139q-58 0 -95 33t-37 106h79q0 -28 17.5 -41.5t42.5 -13.5q67 0 80 55h80z" />
    <glyph glyph-name="ebreve" unicode="&#x115;" horiz-adv-x="465" 
d="M470 730q-33 -139 -167 -139q-58 0 -95 33t-37 106h79q0 -28 17.5 -41.5t42.5 -13.5q67 0 80 55h80zM448 353q0 -55 -15 -128h-260q-3 -20 -3 -33q0 -36 15.5 -58t44.5 -22q44 0 77 57l100 -65q-29 -54 -78.5 -87t-114.5 -33q-87 0 -135.5 54.5t-48.5 151.5
q0 142 72.5 244t177.5 102q86 0 127 -49.5t41 -133.5zM321 355q0 69 -47 69q-31 0 -54 -33.5t-30 -73.5h127q4 16 4 38z" />
    <glyph glyph-name="Edotaccent" unicode="&#x116;" horiz-adv-x="440" 
d="M478 708l-23 -135h-185l-26 -147h173l-22 -126h-172l-28 -162h202l-24 -138h-349l123 708h331zM408 853q0 -41 -25.5 -68.5t-63.5 -27.5q-34 0 -54 22t-20 52q0 39 25.5 68t62.5 29q36 0 55.5 -21t19.5 -54z" />
    <glyph glyph-name="edotaccent" unicode="&#x117;" horiz-adv-x="465" 
d="M395 678q0 -40 -25.5 -68t-63.5 -28q-34 0 -54 22t-20 52q0 39 25.5 68t62.5 29q36 0 55.5 -21t19.5 -54zM448 353q0 -55 -15 -128h-260q-3 -20 -3 -33q0 -36 15.5 -58t44.5 -22q44 0 77 57l100 -65q-29 -54 -78.5 -87t-114.5 -33q-87 0 -135.5 54.5t-48.5 151.5
q0 142 72.5 244t177.5 102q86 0 127 -49.5t41 -133.5zM321 355q0 69 -47 69q-31 0 -54 -33.5t-30 -73.5h127q4 16 4 38z" />
    <glyph glyph-name="Eogonek" unicode="&#x118;" horiz-adv-x="440" 
d="M160 -232q-38 0 -64 20t-26 64q0 76 120 148h-166l123 708h331l-23 -135h-185l-26 -147h173l-22 -126h-172l-28 -162h202l-24 -138h-91q-61 -46 -85.5 -71.5t-24.5 -47.5q0 -28 26 -28q28 0 52 19l19 -64q-51 -40 -109 -40z" />
    <glyph glyph-name="eogonek" unicode="&#x119;" horiz-adv-x="465" 
d="M159 -232q-38 0 -64 20t-26 64q0 70 101 136q-67 13 -103.5 65.5t-36.5 136.5q0 142 72.5 244t177.5 102q86 0 127 -49.5t41 -133.5q0 -55 -15 -128h-260q-3 -20 -3 -33q0 -36 15.5 -58t44.5 -22q44 0 77 57l100 -65q-49 -90 -139 -113q-54 -41 -75.5 -65t-21.5 -45
q0 -28 26 -28q28 0 52 19l19 -64q-51 -40 -109 -40zM321 355q0 69 -47 69q-31 0 -54 -33.5t-30 -73.5h127q4 16 4 38z" />
    <glyph glyph-name="Ecaron" unicode="&#x11a;" horiz-adv-x="440" 
d="M478 708l-23 -135h-185l-26 -147h173l-22 -126h-172l-28 -162h202l-24 -138h-349l123 708h331zM519 908l-139 -144h-116l-89 144h104l51 -83l79 83h110z" />
    <glyph glyph-name="ecaron" unicode="&#x11b;" horiz-adv-x="465" 
d="M491 733l-139 -144h-116l-89 144h104l51 -83l79 83h110zM448 353q0 -55 -15 -128h-260q-3 -20 -3 -33q0 -36 15.5 -58t44.5 -22q44 0 77 57l100 -65q-29 -54 -78.5 -87t-114.5 -33q-87 0 -135.5 54.5t-48.5 151.5q0 142 72.5 244t177.5 102q86 0 127 -49.5t41 -133.5z
M321 355q0 69 -47 69q-31 0 -54 -33.5t-30 -73.5h127q4 16 4 38z" />
    <glyph glyph-name="Gcircumflex" unicode="&#x11c;" horiz-adv-x="553" 
d="M569 642l-103 -113q-30 50 -91 50q-54 0 -96.5 -51t-62 -119.5t-19.5 -136.5q0 -63 27 -104t80 -41q39 0 68 17l25 139h-94l24 134h229l-65 -375q-86 -60 -200 -60q-119 0 -182 76t-63 199q0 119 42 226t121 175t176 68q134 0 184 -84zM569 764h-104l-52 83l-78 -83h-110
l140 144h116z" />
    <glyph glyph-name="gcircumflex" unicode="&#x11d;" horiz-adv-x="515" 
d="M499 589h-104l-52 83l-78 -83h-110l140 144h116zM502 520l-85 -488q-23 -132 -85 -202t-179 -70q-51 0 -99 19t-79 49l79 109q46 -46 104 -46q92 0 116 124l10 52h-2q-43 -75 -121 -75q-66 0 -101.5 50.5t-35.5 134.5t24.5 164.5t76.5 137.5t120 57q43 0 70 -22t33 -57h4
l11 63h139zM325 321q0 90 -53 90q-31 0 -55.5 -37.5t-35.5 -85.5t-11 -92q0 -86 53 -86q45 0 73.5 70t28.5 141z" />
    <glyph glyph-name="Gbreve" unicode="&#x11e;" horiz-adv-x="553" 
d="M569 642l-103 -113q-30 50 -91 50q-54 0 -96.5 -51t-62 -119.5t-19.5 -136.5q0 -63 27 -104t80 -41q39 0 68 17l25 139h-94l24 134h229l-65 -375q-86 -60 -200 -60q-119 0 -182 76t-63 199q0 119 42 226t121 175t176 68q134 0 184 -84zM569 905q-33 -139 -167 -139
q-58 0 -95 33t-37 106h79q0 -28 17.5 -41.5t42.5 -13.5q67 0 80 55h80z" />
    <glyph glyph-name="gbreve" unicode="&#x11f;" horiz-adv-x="515" 
d="M485 730q-33 -139 -167 -139q-58 0 -95 33t-37 106h79q0 -28 17.5 -41.5t42.5 -13.5q67 0 80 55h80zM502 520l-85 -488q-23 -132 -85 -202t-179 -70q-51 0 -99 19t-79 49l79 109q46 -46 104 -46q92 0 116 124l10 52h-2q-43 -75 -121 -75q-66 0 -101.5 50.5t-35.5 134.5
t24.5 164.5t76.5 137.5t120 57q43 0 70 -22t33 -57h4l11 63h139zM325 321q0 90 -53 90q-31 0 -55.5 -37.5t-35.5 -85.5t-11 -92q0 -86 53 -86q45 0 73.5 70t28.5 141z" />
    <glyph glyph-name="Gdotaccent" unicode="&#x120;" horiz-adv-x="553" 
d="M569 642l-103 -113q-30 50 -91 50q-54 0 -96.5 -51t-62 -119.5t-19.5 -136.5q0 -63 27 -104t80 -41q39 0 68 17l25 139h-94l24 134h229l-65 -375q-86 -60 -200 -60q-119 0 -182 76t-63 199q0 119 42 226t121 175t176 68q134 0 184 -84zM492 853q0 -41 -25.5 -68.5
t-63.5 -27.5q-34 0 -54 22t-20 52q0 39 25.5 68t62.5 29q36 0 55.5 -21t19.5 -54z" />
    <glyph glyph-name="gdotaccent" unicode="&#x121;" horiz-adv-x="515" 
d="M404 678q0 -40 -25.5 -68t-63.5 -28q-34 0 -54 22t-20 52q0 39 25.5 68t62.5 29q36 0 55.5 -21t19.5 -54zM502 520l-85 -488q-23 -132 -85 -202t-179 -70q-51 0 -99 19t-79 49l79 109q46 -46 104 -46q92 0 116 124l10 52h-2q-43 -75 -121 -75q-66 0 -101.5 50.5
t-35.5 134.5t24.5 164.5t76.5 137.5t120 57q43 0 70 -22t33 -57h4l11 63h139zM325 321q0 90 -53 90q-31 0 -55.5 -37.5t-35.5 -85.5t-11 -92q0 -86 53 -86q45 0 73.5 70t28.5 141z" />
    <glyph glyph-name="Gcommaaccent" unicode="&#x122;" horiz-adv-x="553" 
d="M569 642l-103 -113q-30 50 -91 50q-54 0 -96.5 -51t-62 -119.5t-19.5 -136.5q0 -63 27 -104t80 -41q39 0 68 17l25 139h-94l24 134h229l-65 -375q-86 -60 -200 -60q-119 0 -182 76t-63 199q0 119 42 226t121 175t176 68q134 0 184 -84zM313 -51l-106 -191h-99l94 191h111
z" />
    <glyph glyph-name="gcommaaccent" unicode="&#x123;" horiz-adv-x="515" 
d="M502 520l-85 -488q-23 -132 -85 -202t-179 -70q-51 0 -99 19t-79 49l79 109q46 -46 104 -46q92 0 116 124l10 52h-2q-43 -75 -121 -75q-66 0 -101.5 50.5t-35.5 134.5t24.5 164.5t76.5 137.5t120 57q43 0 70 -22t33 -57h4l11 63h139zM325 321q0 90 -53 90
q-31 0 -55.5 -37.5t-35.5 -85.5t-11 -92q0 -86 53 -86q45 0 73.5 70t28.5 141zM251 589l106 191h99l-94 -191h-111z" />
    <glyph glyph-name="Hcircumflex" unicode="&#x124;" horiz-adv-x="605" 
d="M624 708l-123 -708h-153l52 299h-171l-52 -299h-153l123 708h152l-47 -272h171l47 272h154zM567 764h-104l-52 83l-78 -83h-110l140 144h116z" />
    <glyph glyph-name="hcircumflex" unicode="&#x125;" horiz-adv-x="526" 
d="M538 821h-104l-52 83l-78 -83h-110l140 144h116zM492 410q0 -38 -10 -91l-55 -319h-146l56 319q4 24 4 37q0 51 -41 51q-29 0 -51 -28t-30 -74l-53 -305h-146l132 756h145l-54 -307h2q48 87 133 87q58 0 86 -37t28 -89z" />
    <glyph glyph-name="Hbar" unicode="&#x126;" horiz-adv-x="605" 
d="M624 708l-123 -708h-153l52 299h-171l-52 -299h-153l123 708h152l-21 -119h171l21 119h154zM252 436h171l13 78h-171z" />
    <glyph glyph-name="hbar" unicode="&#x127;" horiz-adv-x="526" 
d="M377 665l-13 -74h-96l-25 -142h2q49 89 133 89q58 0 86 -38t28 -90q0 -38 -10 -91l-55 -319h-146l56 319q4 24 4 37q0 51 -41 51q-29 0 -51 -28t-30 -74l-53 -305h-146l104 591h-54l12 74h54l16 91h145l-16 -91h96z" />
    <glyph glyph-name="Itilde" unicode="&#x128;" horiz-adv-x="283" 
d="M302 708l-123 -708h-155l123 708h155zM402 892q-11 -56 -40.5 -90t-68.5 -34q-36 0 -69 23q-30 22 -52 22q-30 0 -40 -40h-60q11 54 40 88t69 34q35 0 69 -24q34 -22 54 -22q29 0 39 43h59z" />
    <glyph glyph-name="itilde" unicode="&#x129;" horiz-adv-x="266" 
d="M359 717q-11 -56 -40.5 -90t-68.5 -34q-36 0 -69 23q-30 22 -52 22q-30 0 -40 -40h-60q10 54 40 88q29 34 69 34q34 0 69 -24q34 -22 54 -22q29 0 39 43h59zM255 520l-90 -520h-146l90 520h146z" />
    <glyph glyph-name="Imacron" unicode="&#x12a;" horiz-adv-x="283" 
d="M302 708l-123 -708h-155l123 708h155zM396 877l-14 -79h-294l13 79h295z" />
    <glyph glyph-name="imacron" unicode="&#x12b;" horiz-adv-x="266" 
d="M352 702l-14 -79h-294l13 79h295zM255 520l-90 -520h-146l90 520h146z" />
    <glyph glyph-name="Iogonek" unicode="&#x12e;" horiz-adv-x="283" 
d="M59 -232q-38 0 -64 20t-26 64q0 76 120 148h-65l123 708h155l-123 -708h2q-61 -46 -85.5 -71.5t-24.5 -47.5q0 -28 26 -28q28 0 52 19l19 -64q-51 -40 -109 -40z" />
    <glyph glyph-name="iogonek" unicode="&#x12f;" horiz-adv-x="266" 
d="M255 520l-90 -520h2q-61 -46 -85.5 -71.5t-24.5 -47.5q0 -28 26 -28q28 0 52 19l19 -64q-51 -40 -109 -40q-38 0 -64 20t-26 64q0 76 120 148h-56l90 520h146zM288 678q0 -41 -26 -68.5t-64 -27.5q-34 0 -53.5 22t-19.5 52q0 39 25.5 68t62.5 29q35 0 55 -21t20 -54z" />
    <glyph glyph-name="Idotaccent" unicode="&#x130;" horiz-adv-x="283" 
d="M302 708l-123 -708h-155l123 708h155zM320 853q0 -41 -25.5 -68.5t-63.5 -27.5q-34 0 -54 22t-20 52q0 39 25.5 68t62.5 29q36 0 55.5 -21t19.5 -54z" />
    <glyph glyph-name="dotlessi" unicode="&#x131;" horiz-adv-x="266" 
d="M255 520l-90 -520h-146l90 520h146z" />
    <glyph glyph-name="Jcircumflex" unicode="&#x134;" horiz-adv-x="439" 
d="M463 708l-85 -489q-20 -116 -68.5 -176.5t-153.5 -60.5q-74 0 -122 39t-62 100l130 57q12 -51 55 -51q33 0 47.5 25t23.5 81l82 475h153zM564 764h-104l-52 83l-78 -83h-110l140 144h116z" />
    <glyph glyph-name="jcircumflex" unicode="&#x135;" horiz-adv-x="266" 
d="M259 520l-97 -555q-37 -205 -205 -205q-29 0 -59 7l22 133q15 -5 28 -5q53 0 68 83l95 542h148zM362 589h-104l-52 83l-78 -83h-110l140 144h116z" />
    <glyph glyph-name="Kcommaaccent" unicode="&#x136;" horiz-adv-x="561" 
d="M628 708l-246 -338l131 -370h-173l-103 332h-3l-58 -332h-152l123 708h152l-51 -297h3l200 297h177zM305 -45l-106 -191h-99l94 191h111z" />
    <glyph glyph-name="kcommaaccent" unicode="&#x137;" horiz-adv-x="486" 
d="M528 520l-191 -246l104 -274h-153l-82 241h-2l-41 -241h-143l130 756h144l-79 -449h2l148 213h163zM268 -45l-106 -191h-99l94 191h111z" />
    <glyph glyph-name="Lacute" unicode="&#x139;" horiz-adv-x="419" 
d="M394 142l-25 -142h-345l123 708h154l-98 -566h191zM417 909l-138 -144h-101l112 144h127z" />
    <glyph glyph-name="lacute" unicode="&#x13a;" horiz-adv-x="267" 
d="M398 952l-138 -144h-101l112 144h127zM299 756l-132 -756h-147l132 756h147z" />
    <glyph glyph-name="Lcommaaccent" unicode="&#x13b;" horiz-adv-x="419" 
d="M394 142l-25 -142h-345l123 708h154l-98 -566h191zM244 -45l-106 -191h-99l94 191h111z" />
    <glyph glyph-name="lcommaaccent" unicode="&#x13c;" horiz-adv-x="267" 
d="M299 756l-132 -756h-147l132 756h147zM148 -45l-106 -191h-99l94 191h111z" />
    <glyph glyph-name="Lcaron" unicode="&#x13d;" horiz-adv-x="419" 
d="M394 142l-25 -142h-345l123 708h154l-98 -566h191zM519 708l-106 -191h-99l94 191h111z" />
    <glyph glyph-name="lcaron" unicode="&#x13e;" horiz-adv-x="374" 
d="M299 756l-132 -756h-147l132 756h147zM498 708l-106 -191h-99l94 191h111z" />
    <glyph glyph-name="Ldot" unicode="&#x13f;" horiz-adv-x="424" 
d="M394 142l-25 -142h-345l123 708h154l-98 -566h191zM468 458q0 -40 -25.5 -68t-63.5 -28q-34 0 -54 22t-20 52q0 39 25.5 68t62.5 29q36 0 55.5 -21t19.5 -54z" />
    <glyph glyph-name="ldot" unicode="&#x140;" horiz-adv-x="408" 
d="M299 756l-132 -756h-147l132 756h147zM448 488q0 -40 -25.5 -68t-63.5 -28q-34 0 -54 22t-20 52q0 39 25.5 68t62.5 29q36 0 55.5 -21t19.5 -54z" />
    <glyph glyph-name="Lslash" unicode="&#x141;" horiz-adv-x="416" 
d="M418 583l-25 -140l-161 -135l-29 -166h191l-25 -142h-345l33 189l-50 -43l24 141l50 43l66 378h154l-45 -260z" />
    <glyph glyph-name="lslash" unicode="&#x142;" horiz-adv-x="269" 
d="M309 579l-24 -141l-49 -44l-69 -394h-147l46 265l-46 -39l25 141l45 39l62 350h147l-39 -221z" />
    <glyph glyph-name="Nacute" unicode="&#x143;" horiz-adv-x="599" 
d="M618 708l-123 -708h-165l-93 441h-3l-72 -441h-138l123 708h169l89 -447h4l74 447h135zM557 909l-138 -144h-101l112 144h127z" />
    <glyph glyph-name="nacute" unicode="&#x144;" horiz-adv-x="525" 
d="M469 734l-138 -144h-101l112 144h127zM491 410q0 -38 -10 -91l-55 -319h-146l56 319q4 24 4 37q0 51 -41 51q-29 0 -51 -28.5t-30 -73.5l-53 -305h-146l69 393q9 47 19 127h138q-4 -39 -10 -76h2q21 41 57 66.5t81 25.5q58 0 87 -37.5t29 -88.5z" />
    <glyph glyph-name="Ncommaaccent" unicode="&#x145;" horiz-adv-x="599" 
d="M618 708l-123 -708h-165l-93 441h-3l-72 -441h-138l123 708h169l89 -447h4l74 447h135zM311 -45l-106 -191h-99l94 191h111z" />
    <glyph glyph-name="ncommaaccent" unicode="&#x146;" horiz-adv-x="525" 
d="M491 410q0 -38 -10 -91l-55 -319h-146l56 319q4 24 4 37q0 51 -41 51q-29 0 -51 -28.5t-30 -73.5l-53 -305h-146l69 393q9 47 19 127h138q-4 -39 -10 -76h2q21 41 57 66.5t81 25.5q58 0 87 -37.5t29 -88.5zM268 -45l-106 -191h-99l94 191h111z" />
    <glyph glyph-name="Ncaron" unicode="&#x147;" horiz-adv-x="599" 
d="M618 708l-123 -708h-165l-93 441h-3l-72 -441h-138l123 708h169l89 -447h4l74 447h135zM577 908l-139 -144h-116l-89 144h104l51 -83l79 83h110z" />
    <glyph glyph-name="ncaron" unicode="&#x148;" horiz-adv-x="525" 
d="M506 733l-139 -144h-116l-89 144h104l51 -83l79 83h110zM491 410q0 -38 -10 -91l-55 -319h-146l56 319q4 24 4 37q0 51 -41 51q-29 0 -51 -28.5t-30 -73.5l-53 -305h-146l69 393q9 47 19 127h138q-4 -39 -10 -76h2q21 41 57 66.5t81 25.5q58 0 87 -37.5t29 -88.5z" />
    <glyph glyph-name="Omacron" unicode="&#x14c;" horiz-adv-x="607" 
d="M604 454q0 -118 -39 -225t-116.5 -177t-175.5 -70q-107 0 -167 73.5t-60 196.5q0 119 38.5 225.5t115.5 177.5t177 71q111 0 169 -73t58 -199zM445 432q0 147 -83 147q-48 0 -85.5 -53t-54.5 -123t-17 -137q0 -136 85 -136q46 0 82.5 49.5t54.5 117.5t18 135zM565 877
l-14 -79h-294l13 79h295z" />
    <glyph glyph-name="omacron" unicode="&#x14d;" horiz-adv-x="488" 
d="M475 702l-14 -79h-294l13 79h295zM468 334q0 -143 -69 -246.5t-186 -103.5q-85 0 -134 55t-49 148q0 142 70.5 245.5t186.5 103.5q85 0 133 -55t48 -147zM327 322q0 89 -53 89q-45 0 -73 -71t-28 -143q0 -87 51 -87q46 0 74.5 70t28.5 142z" />
    <glyph glyph-name="Obreve" unicode="&#x14e;" horiz-adv-x="607" 
d="M604 454q0 -118 -39 -225t-116.5 -177t-175.5 -70q-107 0 -167 73.5t-60 196.5q0 119 38.5 225.5t115.5 177.5t177 71q111 0 169 -73t58 -199zM445 432q0 147 -83 147q-48 0 -85.5 -53t-54.5 -123t-17 -137q0 -136 85 -136q46 0 82.5 49.5t54.5 117.5t18 135zM562 905
q-33 -139 -167 -139q-58 0 -95 33t-37 106h79q0 -28 17.5 -41.5t42.5 -13.5q67 0 80 55h80z" />
    <glyph glyph-name="obreve" unicode="&#x14f;" horiz-adv-x="488" 
d="M472 730q-33 -139 -167 -139q-58 0 -95 33t-37 106h79q0 -28 17.5 -41.5t42.5 -13.5q67 0 80 55h80zM468 334q0 -143 -69 -246.5t-186 -103.5q-85 0 -134 55t-49 148q0 142 70.5 245.5t186.5 103.5q85 0 133 -55t48 -147zM327 322q0 89 -53 89q-45 0 -73 -71t-28 -143
q0 -87 51 -87q46 0 74.5 70t28.5 142z" />
    <glyph glyph-name="Ohungarumlaut" unicode="&#x150;" horiz-adv-x="607" 
d="M604 454q0 -118 -39 -225t-116.5 -177t-175.5 -70q-107 0 -167 73.5t-60 196.5q0 119 38.5 225.5t115.5 177.5t177 71q111 0 169 -73t58 -199zM445 432q0 147 -83 147q-48 0 -85.5 -53t-54.5 -123t-17 -137q0 -136 85 -136q46 0 82.5 49.5t54.5 117.5t18 135zM654 908
l-137 -144h-101l113 144h125zM487 908l-138 -144h-100l112 144h126z" />
    <glyph glyph-name="ohungarumlaut" unicode="&#x151;" horiz-adv-x="488" 
d="M573 733l-137 -144h-101l113 144h125zM406 733l-138 -144h-100l112 144h126zM468 334q0 -143 -69 -246.5t-186 -103.5q-85 0 -134 55t-49 148q0 142 70.5 245.5t186.5 103.5q85 0 133 -55t48 -147zM327 322q0 89 -53 89q-45 0 -73 -71t-28 -143q0 -87 51 -87
q46 0 74.5 70t28.5 142z" />
    <glyph glyph-name="OE" unicode="&#x152;" horiz-adv-x="720" 
d="M758 708l-24 -135h-183l-26 -147h170l-22 -126h-170l-27 -162h197l-24 -138h-364q-120 0 -179.5 66.5t-59.5 186.5q0 89 23.5 170t67 145t114 102t157.5 38h350zM407 574h-24q-74 0 -127 -92t-53 -207q0 -70 27.5 -105.5t76.5 -35.5h24z" />
    <glyph glyph-name="oe" unicode="&#x153;" horiz-adv-x="745" 
d="M728 353q0 -55 -15 -128h-260q-3 -19 -3 -33q0 -37 15 -58.5t44 -21.5q46 0 77 57l100 -65q-29 -54 -78.5 -87t-113.5 -33q-48 0 -84 21t-51 62q-53 -83 -148 -83q-85 0 -133 55t-48 148q0 142 70 245.5t186 103.5q106 0 130 -84q56 85 144 85q86 0 127 -50t41 -134z
M600 355q0 69 -47 69q-31 0 -53.5 -33t-30.5 -74h127q4 20 4 38zM327 322q0 89 -53 89q-45 0 -73 -71t-28 -143q0 -87 51 -87q46 0 74.5 70t28.5 142z" />
    <glyph glyph-name="Racute" unicode="&#x154;" horiz-adv-x="536" 
d="M549 526q0 -80 -36 -135.5t-98 -76.5l79 -314h-162l-59 285h-52l-49 -285h-148l123 708h208q94 0 144 -46t50 -136zM396 506q0 38 -20.5 55.5t-51.5 17.5h-52l-32 -185h50q46 0 76 29.5t30 82.5zM508 909l-138 -144h-101l112 144h127z" />
    <glyph glyph-name="racute" unicode="&#x155;" horiz-adv-x="330" 
d="M397 734l-138 -144h-101l112 144h127zM382 533l-33 -148q-16 4 -31 4q-39 0 -68 -38.5t-39 -92.5l-45 -258h-147l69 393q15 84 19 127h137q-1 -21 -11 -90h3q43 106 121 106q17 0 25 -3z" />
    <glyph glyph-name="Rcommaaccent" unicode="&#x156;" horiz-adv-x="536" 
d="M549 526q0 -80 -36 -135.5t-98 -76.5l79 -314h-162l-59 285h-52l-49 -285h-148l123 708h208q94 0 144 -46t50 -136zM396 506q0 38 -20.5 55.5t-51.5 17.5h-52l-32 -185h50q46 0 76 29.5t30 82.5zM294 -45l-106 -191h-99l94 191h111z" />
    <glyph glyph-name="rcommaaccent" unicode="&#x157;" horiz-adv-x="330" 
d="M382 533l-33 -148q-16 4 -31 4q-39 0 -68 -38.5t-39 -92.5l-45 -258h-147l69 393q15 84 19 127h137q-1 -21 -11 -90h3q43 106 121 106q17 0 25 -3zM147 -45l-106 -191h-99l94 191h111z" />
    <glyph glyph-name="Rcaron" unicode="&#x158;" horiz-adv-x="536" 
d="M549 526q0 -80 -36 -135.5t-98 -76.5l79 -314h-162l-59 285h-52l-49 -285h-148l123 708h208q94 0 144 -46t50 -136zM396 506q0 38 -20.5 55.5t-51.5 17.5h-52l-32 -185h50q46 0 76 29.5t30 82.5zM543 908l-139 -144h-116l-89 144h104l51 -83l79 83h110z" />
    <glyph glyph-name="rcaron" unicode="&#x159;" horiz-adv-x="330" 
d="M446 733l-139 -144h-116l-89 144h104l51 -83l79 83h110zM382 533l-33 -148q-16 4 -31 4q-39 0 -68 -38.5t-39 -92.5l-45 -258h-147l69 393q15 84 19 127h137q-1 -21 -11 -90h3q43 106 121 106q17 0 25 -3z" />
    <glyph glyph-name="Sacute" unicode="&#x15a;" horiz-adv-x="462" 
d="M506 657l-91 -111q-38 43 -94 43q-32 0 -59.5 -23.5t-27.5 -65.5q0 -28 16.5 -46.5t53.5 -40.5q54 -32 90 -75.5t36 -112.5q0 -116 -72 -179.5t-173 -63.5q-63 0 -117.5 21.5t-85.5 54.5l91 115q47 -52 111 -52q35 0 61.5 23.5t26.5 62.5q0 55 -75 97q-55 31 -87 72.5
t-32 109.5q0 103 68.5 171.5t175.5 68.5q123 0 184 -69zM489 909l-138 -144h-101l112 144h127z" />
    <glyph glyph-name="sacute" unicode="&#x15b;" horiz-adv-x="393" 
d="M420 734l-138 -144h-101l112 144h127zM403 485l-76 -95q-32 34 -79 34q-24 0 -41 -14t-17 -39q0 -20 11.5 -31t46.5 -29q106 -54 106 -142q0 -94 -59.5 -139.5t-137.5 -45.5q-50 0 -96.5 18t-75.5 48l81 94q42 -45 91 -45q25 0 42.5 14.5t17.5 39.5q0 22 -16.5 37.5
t-51.5 32.5q-95 46 -95 133q0 89 61 134.5t139 45.5q95 0 149 -51z" />
    <glyph glyph-name="Scircumflex" unicode="&#x15c;" horiz-adv-x="462" 
d="M506 657l-91 -111q-38 43 -94 43q-32 0 -59.5 -23.5t-27.5 -65.5q0 -28 16.5 -46.5t53.5 -40.5q54 -32 90 -75.5t36 -112.5q0 -116 -72 -179.5t-173 -63.5q-63 0 -117.5 21.5t-85.5 54.5l91 115q47 -52 111 -52q35 0 61.5 23.5t26.5 62.5q0 55 -75 97q-55 31 -87 72.5
t-32 109.5q0 103 68.5 171.5t175.5 68.5q123 0 184 -69zM506 764h-104l-52 83l-78 -83h-110l140 144h116z" />
    <glyph glyph-name="scircumflex" unicode="&#x15d;" horiz-adv-x="393" 
d="M440 589h-104l-52 83l-78 -83h-110l140 144h116zM403 485l-76 -95q-32 34 -79 34q-24 0 -41 -14t-17 -39q0 -20 11.5 -31t46.5 -29q106 -54 106 -142q0 -94 -59.5 -139.5t-137.5 -45.5q-50 0 -96.5 18t-75.5 48l81 94q42 -45 91 -45q25 0 42.5 14.5t17.5 39.5
q0 22 -16.5 37.5t-51.5 32.5q-95 46 -95 133q0 89 61 134.5t139 45.5q95 0 149 -51z" />
    <glyph glyph-name="Scedilla" unicode="&#x15e;" horiz-adv-x="462" 
d="M279 -135q0 -51 -44 -76t-99 -25q-61 0 -109 23l34 60q29 -15 71 -15q50 0 50 30q0 26 -35 26q-21 0 -41 -6l-25 26l65 76q-107 12 -164 74l91 115q47 -52 111 -52q35 0 61.5 23.5t26.5 62.5q0 55 -75 97q-55 31 -87 72.5t-32 109.5q0 103 68.5 171.5t175.5 68.5
q123 0 184 -69l-91 -111q-38 43 -94 43q-32 0 -59.5 -23.5t-27.5 -65.5q0 -28 16.5 -46.5t53.5 -40.5q54 -32 90 -75.5t36 -112.5q0 -103 -58 -165t-145 -74l-42 -48q12 2 22 2q29 0 50.5 -18.5t21.5 -56.5z" />
    <glyph glyph-name="scedilla" unicode="&#x15f;" horiz-adv-x="393" 
d="M260 -135q0 -51 -44 -76t-99 -25q-61 0 -109 23l34 60q29 -15 71 -15q50 0 50 30q0 26 -35 26q-21 0 -41 -6l-25 26l66 78q-92 10 -143 64l81 94q42 -45 91 -45q25 0 42.5 14.5t17.5 39.5q0 22 -16.5 37.5t-51.5 32.5q-95 46 -95 133q0 89 61 134.5t139 45.5
q95 0 149 -51l-76 -95q-32 34 -79 34q-24 0 -41 -14t-17 -39q0 -20 11.5 -31t46.5 -29q106 -54 106 -142q0 -76 -40.5 -120.5t-101.5 -58.5l-46 -52q12 2 22 2q29 0 50.5 -18.5t21.5 -56.5z" />
    <glyph glyph-name="Scaron" unicode="&#x160;" horiz-adv-x="462" 
d="M506 657l-91 -111q-38 43 -94 43q-32 0 -59.5 -23.5t-27.5 -65.5q0 -28 16.5 -46.5t53.5 -40.5q54 -32 90 -75.5t36 -112.5q0 -116 -72 -179.5t-173 -63.5q-63 0 -117.5 21.5t-85.5 54.5l91 115q47 -52 111 -52q35 0 61.5 23.5t26.5 62.5q0 55 -75 97q-55 31 -87 72.5
t-32 109.5q0 103 68.5 171.5t175.5 68.5q123 0 184 -69zM526 908l-139 -144h-116l-89 144h104l51 -83l79 83h110z" />
    <glyph glyph-name="scaron" unicode="&#x161;" horiz-adv-x="393" 
d="M457 733l-139 -144h-116l-89 144h104l51 -83l79 83h110zM403 485l-76 -95q-32 34 -79 34q-24 0 -41 -14t-17 -39q0 -20 11.5 -31t46.5 -29q106 -54 106 -142q0 -94 -59.5 -139.5t-137.5 -45.5q-50 0 -96.5 18t-75.5 48l81 94q42 -45 91 -45q25 0 42.5 14.5t17.5 39.5
q0 22 -16.5 37.5t-51.5 32.5q-95 46 -95 133q0 89 61 134.5t139 45.5q95 0 149 -51z" />
    <glyph glyph-name="Tcommaaccent" unicode="&#x162;" horiz-adv-x="409" 
d="M492 708l-23 -131h-130l-101 -577h-152l101 577h-130l23 131h412zM216 -45l-106 -191h-99l94 191h111z" />
    <glyph glyph-name="tcommaaccent" unicode="&#x163;" horiz-adv-x="305" 
d="M344 520l-22 -117h-84l-39 -213q-4 -20 -4 -34q0 -44 43 -44q17 0 35 6l-19 -111q-34 -16 -76 -16q-64 0 -97 30.5t-33 86.5q0 13 4 45l44 250h-69l21 117h68l22 127h141l-23 -127h88zM187 -45l-106 -191h-99l94 191h111z" />
    <glyph glyph-name="Tcaron" unicode="&#x164;" horiz-adv-x="409" 
d="M492 708l-23 -131h-130l-101 -577h-152l101 577h-130l23 131h412zM487 908l-139 -144h-116l-89 144h104l51 -83l79 83h110z" />
    <glyph glyph-name="tcaron" unicode="&#x165;" horiz-adv-x="355" 
d="M344 520l-22 -117h-84l-39 -213q-4 -20 -4 -34q0 -44 43 -44q17 0 35 6l-19 -111q-34 -16 -76 -16q-64 0 -97 30.5t-33 86.5q0 13 4 45l44 250h-69l21 117h68l22 127h141l-23 -127h88zM506 741l-106 -191h-99l94 191h111z" />
    <glyph glyph-name="Tbar" unicode="&#x166;" horiz-adv-x="409" 
d="M390 470l-14 -76h-69l-69 -394h-152l69 394h-69l13 76h69l19 107h-130l23 131h412l-23 -131h-130l-19 -107h70z" />
    <glyph glyph-name="tbar" unicode="&#x167;" horiz-adv-x="305" 
d="M288 329l-15 -73h-62l-12 -66q-4 -20 -4 -34q0 -44 43 -44q17 0 35 6l-19 -111q-34 -16 -76 -16q-64 0 -97 30.5t-33 86.5q0 13 4 45l18 103h-57l14 73h56l13 74h-69l21 117h68l22 127h141l-23 -127h88l-22 -117h-84l-14 -74h64z" />
    <glyph glyph-name="Utilde" unicode="&#x168;" horiz-adv-x="576" 
d="M609 708l-78 -446q-11 -64 -29 -111t-48 -87t-78 -61t-113 -21q-104 0 -158.5 55t-54.5 146q0 40 7 79l78 446h155l-76 -434q-7 -40 -7 -64q0 -81 66 -81q48 0 71.5 37.5t35.5 107.5l75 434h154zM557 892q-11 -56 -40.5 -90t-68.5 -34q-36 0 -69 23q-30 22 -52 22
q-30 0 -40 -40h-60q11 54 40 88t69 34q35 0 69 -24q34 -22 54 -22q29 0 39 43h59z" />
    <glyph glyph-name="utilde" unicode="&#x169;" horiz-adv-x="525" 
d="M495 717q-11 -56 -40.5 -90t-68.5 -34q-36 0 -69 23q-30 22 -52 22q-30 0 -40 -40h-60q10 54 40 88q29 34 69 34q34 0 69 -24q34 -22 54 -22q29 0 39 43h59zM512 520l-69 -393q-12 -67 -20 -127h-137q4 40 10 76h-3q-20 -42 -56 -67t-81 -25q-58 0 -87 37.5t-29 88.5
q0 37 10 90l55 320h146l-56 -319q-4 -26 -4 -37q0 -51 41 -51q29 0 51 28t30 74l53 305h146z" />
    <glyph glyph-name="Umacron" unicode="&#x16a;" horiz-adv-x="576" 
d="M609 708l-78 -446q-11 -64 -29 -111t-48 -87t-78 -61t-113 -21q-104 0 -158.5 55t-54.5 146q0 40 7 79l78 446h155l-76 -434q-7 -40 -7 -64q0 -81 66 -81q48 0 71.5 37.5t35.5 107.5l75 434h154zM547 877l-14 -79h-294l13 79h295z" />
    <glyph glyph-name="umacron" unicode="&#x16b;" horiz-adv-x="525" 
d="M487 702l-14 -79h-294l13 79h295zM512 520l-69 -393q-12 -67 -20 -127h-137q4 40 10 76h-3q-20 -42 -56 -67t-81 -25q-58 0 -87 37.5t-29 88.5q0 37 10 90l55 320h146l-56 -319q-4 -26 -4 -37q0 -51 41 -51q29 0 51 28t30 74l53 305h146z" />
    <glyph glyph-name="Ubreve" unicode="&#x16c;" horiz-adv-x="576" 
d="M609 708l-78 -446q-11 -64 -29 -111t-48 -87t-78 -61t-113 -21q-104 0 -158.5 55t-54.5 146q0 40 7 79l78 446h155l-76 -434q-7 -40 -7 -64q0 -81 66 -81q48 0 71.5 37.5t35.5 107.5l75 434h154zM548 905q-33 -139 -167 -139q-58 0 -95 33t-37 106h79q0 -28 17.5 -41.5
t42.5 -13.5q67 0 80 55h80z" />
    <glyph glyph-name="ubreve" unicode="&#x16d;" horiz-adv-x="525" 
d="M486 730q-33 -139 -167 -139q-58 0 -95 33t-37 106h79q0 -28 17.5 -41.5t42.5 -13.5q67 0 80 55h80zM512 520l-69 -393q-12 -67 -20 -127h-137q4 40 10 76h-3q-20 -42 -56 -67t-81 -25q-58 0 -87 37.5t-29 88.5q0 37 10 90l55 320h146l-56 -319q-4 -26 -4 -37
q0 -51 41 -51q29 0 51 28t30 74l53 305h146z" />
    <glyph glyph-name="Uring" unicode="&#x16e;" horiz-adv-x="576" 
d="M609 708l-78 -446q-11 -64 -29 -111t-48 -87t-78 -61t-113 -21q-104 0 -158.5 55t-54.5 146q0 40 7 79l78 446h155l-76 -434q-7 -40 -7 -64q0 -81 66 -81q48 0 71.5 37.5t35.5 107.5l75 434h154zM491 871q0 -50 -33 -87t-80 -37q-41 0 -64 24.5t-23 63.5q0 52 31.5 90
t76.5 38q44 0 68 -26t24 -66zM446 867q0 23 -12.5 38.5t-35.5 15.5q-29 0 -46 -24.5t-17 -57.5q0 -22 12 -36.5t35 -14.5q27 0 45.5 24t18.5 55z" />
    <glyph glyph-name="uring" unicode="&#x16f;" horiz-adv-x="525" 
d="M429 696q0 -50 -33 -87t-80 -37q-41 0 -64 24.5t-23 63.5q0 53 31.5 90.5t76.5 37.5q44 0 68 -26t24 -66zM384 692q0 23 -12.5 38.5t-35.5 15.5q-29 0 -46 -24.5t-17 -57.5q0 -22 12 -36.5t35 -14.5q27 0 45.5 24t18.5 55zM512 520l-69 -393q-12 -67 -20 -127h-137
q4 40 10 76h-3q-20 -42 -56 -67t-81 -25q-58 0 -87 37.5t-29 88.5q0 37 10 90l55 320h146l-56 -319q-4 -26 -4 -37q0 -51 41 -51q29 0 51 28t30 74l53 305h146z" />
    <glyph glyph-name="Uhungarumlaut" unicode="&#x170;" horiz-adv-x="576" 
d="M609 708l-78 -446q-11 -64 -29 -111t-48 -87t-78 -61t-113 -21q-104 0 -158.5 55t-54.5 146q0 40 7 79l78 446h155l-76 -434q-7 -40 -7 -64q0 -81 66 -81q48 0 71.5 37.5t35.5 107.5l75 434h154zM651 908l-137 -144h-101l113 144h125zM484 908l-138 -144h-100l112 144
h126z" />
    <glyph glyph-name="uhungarumlaut" unicode="&#x171;" horiz-adv-x="525" 
d="M590 733l-137 -144h-101l113 144h125zM423 733l-138 -144h-100l112 144h126zM512 520l-69 -393q-12 -67 -20 -127h-137q4 40 10 76h-3q-20 -42 -56 -67t-81 -25q-58 0 -87 37.5t-29 88.5q0 37 10 90l55 320h146l-56 -319q-4 -26 -4 -37q0 -51 41 -51q29 0 51 28t30 74
l53 305h146z" />
    <glyph glyph-name="Uogonek" unicode="&#x172;" horiz-adv-x="576" 
d="M213 -232q-38 0 -64 20t-26 64q0 68 96 133q-83 12 -126 65t-43 133q0 40 7 79l78 446h155l-76 -434q-7 -40 -7 -64q0 -81 66 -81q48 0 71.5 37.5t35.5 107.5l75 434h154l-78 -446q-21 -118 -70 -189.5t-145 -86.5q-50 -39 -70.5 -62t-20.5 -43q0 -28 26 -28q28 0 52 19
l19 -64q-51 -40 -109 -40z" />
    <glyph glyph-name="uogonek" unicode="&#x173;" horiz-adv-x="525" 
d="M300 -232q-38 0 -64 20t-26 64q0 76 120 148h-44q4 40 10 76h-3q-20 -42 -56 -67t-81 -25q-58 0 -87 37.5t-29 88.5q0 37 10 90l55 320h146l-56 -319q-4 -26 -4 -37q0 -51 41 -51q29 0 51 28t30 74l53 305h146l-69 -393q-12 -67 -20 -127h-1q-61 -46 -85.5 -71.5
t-24.5 -47.5q0 -28 26 -28q28 0 52 19l19 -64q-51 -40 -109 -40z" />
    <glyph glyph-name="Wcircumflex" unicode="&#x174;" horiz-adv-x="793" 
d="M868 708l-259 -708h-164l-3 484h-3l-171 -484h-168l-6 708h154l-12 -502h5l167 502h149l-4 -502h3l162 502h150zM660 764h-104l-52 83l-78 -83h-110l140 144h116z" />
    <glyph glyph-name="wcircumflex" unicode="&#x175;" horiz-adv-x="678" 
d="M575 589h-104l-52 83l-78 -83h-110l140 144h116zM720 520l-210 -520h-151l-6 321h-1l-129 -321h-146l-18 520h145l-5 -340h2l126 340h123l5 -340h2l116 340h147z" />
    <glyph glyph-name="Ycircumflex" unicode="&#x176;" horiz-adv-x="493" 
d="M579 708l-258 -452l-45 -256h-155l45 256l-96 452h162l37 -294h3l140 294h167zM501 764h-104l-52 83l-78 -83h-110l140 144h116z" />
    <glyph glyph-name="ycircumflex" unicode="&#x177;" horiz-adv-x="458" 
d="M465 589h-104l-52 83l-78 -83h-110l140 144h116zM504 520l-249 -563q-44 -99 -93 -148t-132 -49q-38 0 -70 10l27 130q10 -7 37 -7q42 0 65 54l19 44l-57 529h151l13 -363h3l139 363h147z" />
    <glyph glyph-name="Ydieresis" unicode="&#x178;" horiz-adv-x="493" 
d="M579 708l-258 -452l-45 -256h-155l45 256l-96 452h162l37 -294h3l140 294h167zM505 851q0 -34 -21.5 -57.5t-53.5 -23.5q-29 0 -46 18.5t-17 44.5q0 32 21.5 56.5t53.5 24.5q30 0 46.5 -17.5t16.5 -45.5zM319 851q0 -35 -21.5 -58t-53.5 -23q-29 0 -45.5 18.5t-16.5 44.5
q0 32 21.5 56.5t53.5 24.5q29 0 45.5 -17.5t16.5 -45.5z" />
    <glyph glyph-name="Zacute" unicode="&#x179;" horiz-adv-x="452" 
d="M501 708l-21 -122l-297 -447h222l-24 -139h-401l21 125l297 448h-199l24 135h378zM486 909l-138 -144h-101l112 144h127z" />
    <glyph glyph-name="zacute" unicode="&#x17a;" horiz-adv-x="388" 
d="M418 734l-138 -144h-101l112 144h127zM409 520l-19 -116l-229 -282h182l-21 -122h-341l21 120l225 277h-163l21 123h324z" />
    <glyph glyph-name="Zdotaccent" unicode="&#x17b;" horiz-adv-x="452" 
d="M501 708l-21 -122l-297 -447h222l-24 -139h-401l21 125l297 448h-199l24 135h378zM412 853q0 -41 -25.5 -68.5t-63.5 -27.5q-34 0 -54 22t-20 52q0 39 25.5 68t62.5 29q36 0 55.5 -21t19.5 -54z" />
    <glyph glyph-name="zdotaccent" unicode="&#x17c;" horiz-adv-x="388" 
d="M346 678q0 -40 -25.5 -68t-63.5 -28q-34 0 -54 22t-20 52q0 39 25.5 68t62.5 29q36 0 55.5 -21t19.5 -54zM409 520l-19 -116l-229 -282h182l-21 -122h-341l21 120l225 277h-163l21 123h324z" />
    <glyph glyph-name="Zcaron" unicode="&#x17d;" horiz-adv-x="452" 
d="M501 708l-21 -122l-297 -447h222l-24 -139h-401l21 125l297 448h-199l24 135h378zM515 908l-139 -144h-116l-89 144h104l51 -83l79 83h110z" />
    <glyph glyph-name="zcaron" unicode="&#x17e;" horiz-adv-x="388" 
d="M454 733l-139 -144h-116l-89 144h104l51 -83l79 83h110zM409 520l-19 -116l-229 -282h182l-21 -122h-341l21 120l225 277h-163l21 123h324z" />
    <glyph glyph-name="florin" unicode="&#x192;" horiz-adv-x="519" 
d="M578 699l-57 -121q-22 14 -45 14q-51 0 -77 -75l-27 -79h101l-19 -109h-120l-103 -300q-59 -169 -199 -169q-48 0 -77 11l40 127q11 -7 29 -7q26 0 42 20.5t31 64.5l86 253h-91l20 109h103l23 71q35 105 86.5 161t146.5 56q66 0 107 -27z" />
    <glyph glyph-name="Scommaaccent" unicode="&#x218;" horiz-adv-x="462" 
d="M506 657l-91 -111q-38 43 -94 43q-32 0 -59.5 -23.5t-27.5 -65.5q0 -28 16.5 -46.5t53.5 -40.5q54 -32 90 -75.5t36 -112.5q0 -116 -72 -179.5t-173 -63.5q-63 0 -117.5 21.5t-85.5 54.5l91 115q47 -52 111 -52q35 0 61.5 23.5t26.5 62.5q0 55 -75 97q-55 31 -87 72.5
t-32 109.5q0 103 68.5 171.5t175.5 68.5q123 0 184 -69zM226 -51l-106 -191h-99l94 191h111z" />
    <glyph glyph-name="scommaaccent" unicode="&#x219;" horiz-adv-x="393" 
d="M403 485l-76 -95q-32 34 -79 34q-24 0 -41 -14t-17 -39q0 -20 11.5 -31t46.5 -29q106 -54 106 -142q0 -94 -59.5 -139.5t-137.5 -45.5q-50 0 -96.5 18t-75.5 48l81 94q42 -45 91 -45q25 0 42.5 14.5t17.5 39.5q0 22 -16.5 37.5t-51.5 32.5q-95 46 -95 133q0 89 61 134.5
t139 45.5q95 0 149 -51zM221 -45l-106 -191h-99l94 191h111z" />
    <glyph glyph-name="uni021A" unicode="&#x21a;" horiz-adv-x="409" 
d="M492 708l-23 -131h-130l-101 -577h-152l101 577h-130l23 131h412zM216 -45l-106 -191h-99l94 191h111z" />
    <glyph glyph-name="uni021B" unicode="&#x21b;" horiz-adv-x="305" 
d="M344 520l-22 -117h-84l-39 -213q-4 -20 -4 -34q0 -44 43 -44q17 0 35 6l-19 -111q-34 -16 -76 -16q-64 0 -97 30.5t-33 86.5q0 13 4 45l44 250h-69l21 117h68l22 127h141l-23 -127h88zM187 -45l-106 -191h-99l94 191h111z" />
    <glyph glyph-name="circumflex" unicode="&#x2c6;" 
d="M367 589h-104l-52 83l-78 -83h-110l140 144h116z" />
    <glyph glyph-name="caron" unicode="&#x2c7;" 
d="M393 733l-139 -144h-116l-89 144h104l51 -83l79 83h110z" />
    <glyph glyph-name="uni02C9" unicode="&#x2c9;" 
d="M363 877l-14 -79h-294l13 79h295z" />
    <glyph glyph-name="breve" unicode="&#x2d8;" 
d="M371 730q-33 -139 -167 -139q-58 0 -95 33t-37 106h79q0 -28 17.5 -41.5t42.5 -13.5q67 0 80 55h80z" />
    <glyph glyph-name="dotaccent" unicode="&#x2d9;" 
d="M286 678q0 -40 -25.5 -68t-63.5 -28q-34 0 -54 22t-20 52q0 39 25.5 68t62.5 29q36 0 55.5 -21t19.5 -54z" />
    <glyph glyph-name="ring" unicode="&#x2da;" 
d="M313 696q0 -50 -33 -87t-80 -37q-41 0 -64 24.5t-23 63.5q0 53 31.5 90.5t76.5 37.5q44 0 68 -26t24 -66zM268 692q0 23 -12.5 38.5t-35.5 15.5q-29 0 -46 -24.5t-17 -57.5q0 -22 12 -36.5t35 -14.5q27 0 45.5 24t18.5 55z" />
    <glyph glyph-name="ogonek" unicode="&#x2db;" 
d="M49 -232q-38 0 -64 20t-26 64q0 76 120 148h92q-61 -46 -85.5 -71.5t-24.5 -47.5q0 -28 26 -28q28 0 52 19l19 -64q-51 -40 -109 -40z" />
    <glyph glyph-name="tilde" unicode="&#x2dc;" 
d="M373 717q-11 -56 -40.5 -90t-68.5 -34q-36 0 -69 23q-30 22 -52 22q-30 0 -40 -40h-60q10 54 40 88q29 34 69 34q34 0 69 -24q34 -22 54 -22q29 0 39 43h59z" />
    <glyph glyph-name="hungarumlaut" unicode="&#x2dd;" 
d="M444 733l-137 -144h-101l113 144h125zM277 733l-138 -144h-100l112 144h126z" />
    <glyph glyph-name="uni0394" unicode="&#x394;" horiz-adv-x="710" 
d="M701 0h-692l268 708h140zM482 145l-138 358l-130 -358h268z" />
    <glyph glyph-name="uni03A9" unicode="&#x3a9;" horiz-adv-x="771" 
d="M720 0h-291v219q63 15 98 67q33 49 33 119q0 78 -51.5 126.5t-121.5 48.5q-72 0 -123.5 -48.5t-51.5 -127.5q0 -68 36 -117.5t94 -67.5v-219h-291v144h167v11q-78 24 -122 92q-45 68 -45 158q0 139 97 227.5t237 88.5q141 0 238 -87.5t97 -226.5q0 -93 -43.5 -160.5
t-123.5 -91.5v-11h167v-144z" />
    <glyph glyph-name="uni03BC" unicode="&#x3bc;" horiz-adv-x="666" 
d="M89 498h162v-248q0 -29 4.5 -53.5t23 -47.5t49.5 -23q47 0 69 31t22 80v261h162v-498h-155v57h-1q-37 -64 -111 -64q-41 0 -63 20v-239h-162v724z" />
    <glyph glyph-name="pi" unicode="&#x3c0;" horiz-adv-x="666" 
d="M627 18q-50 -25 -119 -25q-124 0 -124 138v230h-115v-361h-166v361h-69v137h591v-137h-78v-201q0 -43 35 -43q18 0 45 12v-111z" />
    <glyph glyph-name="endash" unicode="&#x2013;" horiz-adv-x="354" 
d="M349 323l-18 -96h-312l18 96h312z" />
    <glyph glyph-name="emdash" unicode="&#x2014;" horiz-adv-x="454" 
d="M451 323l-17 -96h-412l17 96h412z" />
    <glyph glyph-name="quoteleft" unicode="&#x2018;" horiz-adv-x="221" 
d="M276 708l-94 -255h-112l107 255h99z" />
    <glyph glyph-name="quoteright" unicode="&#x2019;" horiz-adv-x="221" 
d="M276 708l-107 -255h-99l94 255h112z" />
    <glyph glyph-name="quotesinglbase" unicode="&#x201a;" horiz-adv-x="221" 
d="M176 140l-106 -255h-99l94 255h111z" />
    <glyph glyph-name="quotedblleft" unicode="&#x201c;" horiz-adv-x="385" 
d="M276 708l-94 -255h-112l107 255h99zM440 708l-94 -255h-111l106 255h99z" />
    <glyph glyph-name="quotedblright" unicode="&#x201d;" horiz-adv-x="384" 
d="M276 708l-107 -255h-99l94 255h112zM439 708l-106 -255h-99l94 255h111z" />
    <glyph glyph-name="quotedblbase" unicode="&#x201e;" horiz-adv-x="384" 
d="M337 140l-106 -255h-100l94 255h112zM173 140l-106 -255h-99l94 255h111z" />
    <glyph glyph-name="dagger" unicode="&#x2020;" horiz-adv-x="432" 
d="M466 508l-22 -126h-136l-90 -513h-128l90 513h-136l22 126h136l35 200h129l-35 -200h135z" />
    <glyph glyph-name="daggerdbl" unicode="&#x2021;" horiz-adv-x="432" 
d="M470 528l-22 -122h-135l-42 -235h136l-22 -122h-135l-31 -180h-129l31 180h-136l22 122h136l41 235h-136l22 122h135l32 180h129l-32 -180h136z" />
    <glyph glyph-name="bullet" unicode="&#x2022;" horiz-adv-x="500" 
d="M427 354q0 -74 -51.5 -125.5t-125.5 -51.5t-125.5 51.5t-51.5 125.5t51.5 125.5t125.5 51.5t125.5 -51.5t51.5 -125.5z" />
    <glyph glyph-name="ellipsis" unicode="&#x2026;" horiz-adv-x="900" 
d="M811 90q0 -42 -26 -70.5t-65 -28.5q-35 0 -55 22.5t-20 53.5q0 40 25.5 70t64.5 30q36 0 56 -21.5t20 -55.5zM211 90q0 -42 -26 -70.5t-65 -28.5q-35 0 -55 22.5t-20 53.5q0 40 25.5 70t64.5 30q36 0 56 -21.5t20 -55.5zM511 90q0 -42 -26 -70.5t-65 -28.5
q-35 0 -55 22.5t-20 53.5q0 40 25.5 70t64.5 30q36 0 56 -21.5t20 -55.5z" />
    <glyph glyph-name="perthousand" unicode="&#x2030;" horiz-adv-x="963" 
d="M357 585q0 -90 -47.5 -157.5t-122.5 -67.5q-56 0 -86 36.5t-30 97.5q0 91 47 159t121 68q57 0 87.5 -37.5t30.5 -98.5zM262 578q0 55 -33 55q-28 0 -45.5 -43t-17.5 -87q0 -54 33 -54q28 0 45.5 42.5t17.5 86.5zM641 212q0 -90 -47.5 -157.5t-122.5 -67.5q-56 0 -86 36.5
t-30 97.5q0 91 47 159t121 68q57 0 87.5 -37.5t30.5 -98.5zM546 205q0 55 -33 55q-28 0 -45.5 -43t-17.5 -87q0 -54 33 -54q28 0 45.5 42.5t17.5 86.5zM952 212q0 -90 -47.5 -157.5t-122.5 -67.5q-56 0 -86 36.5t-30 97.5q0 91 47 159t121 68q57 0 87.5 -37.5t30.5 -98.5z
M857 205q0 55 -33 55q-28 0 -45.5 -43t-17.5 -87q0 -54 33 -54q28 0 45.5 42.5t17.5 86.5zM603 708l-430 -730l-65 28l431 732z" />
    <glyph glyph-name="guilsinglleft" unicode="&#x2039;" horiz-adv-x="249" 
d="M254 449l-122 -190l55 -189l-82 -33l-67 231l146 224z" />
    <glyph glyph-name="guilsinglright" unicode="&#x203a;" horiz-adv-x="249" 
d="M221 262l-146 -224l-70 43l122 189l-55 190l82 33z" />
    <glyph glyph-name="fraction" unicode="&#x2044;" horiz-adv-x="100" 
d="M301 713l-403 -732l-60 20l403 734z" />
    <glyph glyph-name="Euro" unicode="&#x20ac;" horiz-adv-x="519" 
d="M572 705l-49 -120q-27 15 -81 15q-95 0 -142 -113h194l-40 -97h-190q-11 -39 -12 -70h178l-38 -95h-142q2 -52 32.5 -81.5t77.5 -29.5q53 0 93 22l-5 -128q-50 -27 -120 -27q-104 0 -164.5 67.5t-64.5 176.5h-79l39 95h46q2 39 13 70h-67l41 97h49q96 240 314 240
q75 0 117 -22z" />
    <glyph glyph-name="afii61289" unicode="&#x2113;" horiz-adv-x="500" 
d="M510 588q0 -82 -62 -158t-201 -166q-26 -103 -26 -127q0 -42 41 -42q35 0 97 39h2l37 -87q-88 -61 -182 -61q-69 0 -107 34t-38 90q0 18 8 56l-59 -41h-2l-39 85l126 82l49 231q19 91 78 144.5t141 53.5q60 0 98.5 -38.5t38.5 -94.5zM385 581q0 17 -8 29t-21 12
q-32 0 -45 -62l-36 -166q48 40 79 90.5t31 96.5z" />
    <glyph glyph-name="trademark" unicode="&#x2122;" horiz-adv-x="760" 
d="M396 296v412h135l61 -268l57 268h136v-412h-93v261h-2l-63 -261h-78l-61 261h-2v-261h-90zM180 296v315h-79v97h258v-97h-78v-315h-101z" />
    <glyph glyph-name="Omega" unicode="&#x2126;" horiz-adv-x="771" 
d="M720 0h-291v219q63 15 98 67q33 49 33 119q0 78 -51.5 126.5t-121.5 48.5q-72 0 -123.5 -48.5t-51.5 -127.5q0 -68 36 -117.5t94 -67.5v-219h-291v144h167v11q-78 24 -122 92q-45 68 -45 158q0 139 97 227.5t237 88.5q141 0 238 -87.5t97 -226.5q0 -93 -43.5 -160.5
t-123.5 -91.5v-11h167v-144z" />
    <glyph glyph-name="estimated" unicode="&#x212e;" horiz-adv-x="604" 
d="M561 259h-404v-181q59 -59 145 -59q122 0 193 120l35 -21q-46 -72 -98 -103.5t-130 -31.5q-115 0 -186.5 79t-71.5 197q0 119 71 197.5t187 78.5q115 0 186.5 -77t72.5 -199zM157 295h291v145q-63 60 -147 60t-144 -60v-145z" />
    <glyph glyph-name="partialdiff" unicode="&#x2202;" horiz-adv-x="666" 
d="M427 428q-1 61 -34 107.5t-95 46.5q-80 0 -137 -66l-77 112q93 93 215 93q64 0 115.5 -22t83.5 -57t53 -83t29.5 -97.5t8.5 -102.5t-6 -100t-24.5 -98.5t-47.5 -88.5t-79 -61t-116 -24q-109 0 -178 67.5t-69 174.5q0 101 64.5 164.5t175.5 63.5q65 0 118 -29zM420 292
q-47 36 -92 36t-69 -29t-24 -77q0 -45 23.5 -73.5t60.5 -28.5q51 0 76 47t25 112v13z" />
    <glyph glyph-name="Delta" unicode="&#x2206;" horiz-adv-x="710" 
d="M701 0h-692l268 708h140zM482 145l-138 358l-130 -358h268z" />
    <glyph glyph-name="product" unicode="&#x220f;" horiz-adv-x="753" 
d="M695 -214h-152v867h-333v-867h-151v1000h636v-1000z" />
    <glyph glyph-name="summation" unicode="&#x2211;" horiz-adv-x="666" 
d="M644 -214h-618v111l292 395l-280 383v111h594v-133h-402l256 -360l-273 -374h431v-133z" />
    <glyph glyph-name="minus" unicode="&#x2212;" horiz-adv-x="666" 
d="M598 242h-530v123h530v-123z" />
    <glyph glyph-name="uni2215" unicode="&#x2215;" horiz-adv-x="100" 
d="M301 713l-403 -732l-60 20l403 734z" />
    <glyph glyph-name="uni2219" unicode="&#x2219;" horiz-adv-x="262" 
d="M220 277q0 -42 -26.5 -70t-65.5 -28q-35 0 -55 22t-20 54q0 39 26 69t64 30q36 0 56.5 -21.5t20.5 -55.5z" />
    <glyph glyph-name="radical" unicode="&#x221a;" horiz-adv-x="569" 
d="M579 786l-214 -1000h-126l-145 300l-51 -24l-54 114l175 79l112 -239l158 770h145z" />
    <glyph glyph-name="infinity" unicode="&#x221e;" horiz-adv-x="837" 
d="M792 266q0 -82 -49.5 -136.5t-133.5 -54.5q-97 0 -190 103q-47 -50 -88.5 -76t-99.5 -26q-84 0 -135 53.5t-51 135.5q0 80 49.5 133.5t132.5 53.5q59 0 103.5 -28.5t88.5 -80.5q43 51 87.5 80.5t103.5 29.5q83 0 132.5 -53.5t49.5 -133.5zM674 263q0 31 -18 51t-49 20
q-47 0 -114 -72q62 -68 117 -68q29 0 46.5 19.5t17.5 49.5zM344 262q-71 71 -117 71q-28 0 -46 -20.5t-18 -49.5q0 -31 18 -49.5t49 -18.5q51 0 114 67z" />
    <glyph glyph-name="integral" unicode="&#x222b;" horiz-adv-x="633" 
d="M519 696q0 -28 -18.5 -47.5t-47.5 -19.5q-23 0 -36 13t-21 28.5t-16 18.5q-11 -10 -11 -53q0 -14 1 -41.5t1 -41.5v-440q0 -76 -2 -113q-2 -44 -9.5 -78.5t-24.5 -67t-50.5 -50.5t-81.5 -18q-46 0 -85 23t-39 69q0 10 5 18q5 20 22.5 33t39.5 13t35 -13t20 -27.5
t15 -17.5q12 6 12 47q1 15 -0.5 42.5t-1.5 37.5v34v462q0 32 0.5 53t4 53t10 53.5t19 46t30.5 39t45 24t61 9.5q43 0 83 -22.5t40 -66.5z" />
    <glyph glyph-name="approxequal" unicode="&#x2248;" horiz-adv-x="666" 
d="M580 468q-8 -91 -50.5 -141.5t-110.5 -50.5q-42 0 -130 32t-116 32q-20 0 -33 -16t-18 -39h-96q7 78 46.5 130.5t115.5 52.5q41 0 123.5 -29.5t121.5 -29.5q42 0 50 59h97zM579 247q-6 -49 -20.5 -87t-50.5 -67.5t-88 -29.5q-43 0 -132 32.5t-116 32.5q-20 0 -33.5 -17
t-18.5 -45h-96q7 79 46 135t112 56q42 0 126 -30.5t125 -30.5q37 0 49 51h97z" />
    <glyph glyph-name="notequal" unicode="&#x2260;" horiz-adv-x="666" 
d="M569 110h-273l-74 -146l-115 56l47 90h-102v127h167l43 84h-210v127h275l75 145l115 -55l-47 -90h99v-127h-164l-43 -84h207v-127z" />
    <glyph glyph-name="lessequal" unicode="&#x2264;" horiz-adv-x="666" 
d="M587 18h-508v123h508v-123zM587 154l-508 214v103l508 214v-136l-306 -131l306 -127v-137z" />
    <glyph glyph-name="greaterequal" unicode="&#x2265;" horiz-adv-x="666" 
d="M79 18v123h508v-123h-508zM79 154v137l306 127l-306 131v136l508 -214v-103z" />
    <glyph glyph-name="lozenge" unicode="&#x25ca;" horiz-adv-x="606" 
d="M546 356l-184 -391h-120l-181 391l182 391h119zM405 356l-103 241l-101 -241l101 -241z" />
    <glyph glyph-name="uniF8FF" unicode="&#xf8ff;" horiz-adv-x="512" 
d="M222 117h56v67h-56v-67zM225 234h46q0 52 6 72q6 19 43 52q37 34 50 60t13 60q0 59 -35 95t-89 36q-56 0 -92 -34t-43 -103l50 -8q11 95 82 95q31 0 53.5 -24.5t22.5 -60.5q0 -20 -9.5 -37t-40.5 -46q-31 -31 -46 -59q-13 -25 -13 -81zM462 50h-412v617h412v-617z
M512 718h-512v-718h512v718z" />
    <glyph glyph-name="ydieresis.sc" horiz-adv-x="421" 
d="M505 583l-221 -382l-36 -201h-152l35 201l-77 382h155l24 -237h2l108 237h162zM456 714q0 -34 -21.5 -57.5t-53.5 -23.5q-29 0 -46 18.5t-17 44.5q0 32 22 57t53 25q30 0 46.5 -18t16.5 -46zM270 714q0 -35 -21.5 -58t-53.5 -23q-29 0 -45.5 18.5t-16.5 44.5
q0 33 21.5 57.5t53.5 24.5q29 0 45.5 -18t16.5 -46z" />
    <glyph glyph-name="n.sc" horiz-adv-x="526" 
d="M532 583l-101 -583h-158l-63 324h-2l-52 -324h-134l101 583h160l60 -329h2l54 329h133z" />
    <glyph glyph-name="umacron.sc" horiz-adv-x="519" 
d="M532 583l-63 -362q-19 -112 -72 -174t-164 -62q-90 0 -138.5 46.5t-48.5 123.5q0 25 7 67l62 361h153l-62 -350q-6 -38 -6 -53q0 -55 44 -55q37 0 53 27t25 81l60 350h150zM499 740l-14 -79h-294l13 79h295z" />
    <glyph glyph-name="ohungarumlaut.sc" horiz-adv-x="529" 
d="M517 373q0 -99 -32 -186t-97.5 -144.5t-152.5 -57.5q-91 0 -142 61t-51 164q0 99 31.5 186.5t97 144.5t150.5 57q96 0 146 -60t50 -165zM365 351q0 107 -62 107q-48 0 -78.5 -76.5t-30.5 -154.5q0 -100 62 -100q47 0 78 73t31 151zM593 771l-137 -144h-101l113 144h125z
M426 771l-138 -144h-100l112 144h126z" />
    <glyph glyph-name="iogonek.sc" horiz-adv-x="270" 
d="M52 -232q-38 0 -64 20t-26 64q0 76 120 148h-60l101 583h153l-102 -583q-61 -46 -85.5 -71.5t-24.5 -47.5q0 -28 26 -28q28 0 52 19l19 -64q-51 -40 -109 -40z" />
    <glyph glyph-name="p.sc" horiz-adv-x="455" 
d="M471 424q0 -108 -59 -165.5t-157 -57.5h-50l-36 -201h-147l101 583h182q68 0 117 -39t49 -120zM336 404q0 27 -13.5 41.5t-36.5 14.5h-39l-23 -140h36q35 0 55.5 23t20.5 61z" />
    <glyph glyph-name="macron.sc" 
d="M363 740l-14 -79h-294l13 79h295z" />
    <glyph glyph-name="ugrave.sc" horiz-adv-x="519" 
d="M532 583l-63 -362q-19 -112 -72 -174t-164 -62q-90 0 -138.5 46.5t-48.5 123.5q0 25 7 67l62 361h153l-62 -350q-6 -38 -6 -53q0 -55 44 -55q37 0 53 27t25 81l60 350h150zM383 628h-101l-128 144h126z" />
    <glyph glyph-name="oe.sc" horiz-adv-x="617" 
d="M636 583l-22 -129h-142l-18 -97h130l-19 -118h-131l-19 -106h155l-24 -133h-305q-104 0 -155 58t-51 158q0 97 32.5 178.5t104.5 135t172 53.5h292zM336 456h-15q-56 0 -95 -69t-39 -153q0 -50 20.5 -77t56.5 -27h17z" />
    <glyph glyph-name="udieresis.sc" horiz-adv-x="519" 
d="M532 583l-63 -362q-19 -112 -72 -174t-164 -62q-90 0 -138.5 46.5t-48.5 123.5q0 25 7 67l62 361h153l-62 -350q-6 -38 -6 -53q0 -55 44 -55q37 0 53 27t25 81l60 350h150zM507 714q0 -34 -21.5 -57.5t-53.5 -23.5q-29 0 -46 18.5t-17 44.5q0 32 22 57t53 25
q30 0 46.5 -18t16.5 -46zM321 714q0 -35 -21.5 -58t-53.5 -23q-29 0 -45.5 18.5t-16.5 44.5q0 33 21.5 57.5t53.5 24.5q29 0 45.5 -18t16.5 -46z" />
    <glyph glyph-name="grave.sc" 
d="M277 628h-101l-128 144h126z" />
    <glyph glyph-name="hungarumlaut.cap" 
d="M444 908l-137 -144h-101l113 144h125zM277 908l-138 -144h-100l112 144h126z" />
    <glyph glyph-name="otilde.sc" horiz-adv-x="529" 
d="M517 373q0 -99 -32 -186t-97.5 -144.5t-152.5 -57.5q-91 0 -142 61t-51 164q0 99 31.5 186.5t97 144.5t150.5 57q96 0 146 -60t50 -165zM365 351q0 107 -62 107q-48 0 -78.5 -76.5t-30.5 -154.5q0 -100 62 -100q47 0 78 73t31 151zM511 755q-11 -56 -40.5 -90t-68.5 -34
q-36 0 -69 23q-30 22 -52 22q-30 0 -40 -40h-60q11 54 40 88t69 34q34 0 69 -24q34 -22 54 -22q29 0 39 43h59z" />
    <glyph glyph-name="imacron.sc" horiz-adv-x="270" 
d="M276 583l-102 -583h-152l101 583h153zM372 740l-14 -79h-294l13 79h295z" />
    <glyph glyph-name="ocircumflex.sc" horiz-adv-x="529" 
d="M517 373q0 -99 -32 -186t-97.5 -144.5t-152.5 -57.5q-91 0 -142 61t-51 164q0 99 31.5 186.5t97 144.5t150.5 57q96 0 146 -60t50 -165zM365 351q0 107 -62 107q-48 0 -78.5 -76.5t-30.5 -154.5q0 -100 62 -100q47 0 78 73t31 151zM502 627h-104l-52 83l-78 -83h-110
l140 144h116z" />
    <glyph glyph-name="perthousand.sc" horiz-adv-x="899" 
d="M294 478q0 -80 -41 -138t-108 -58q-52 0 -80 33.5t-28 87.5q0 80 41 137.5t108 57.5q52 0 80 -33t28 -87zM204 472q0 43 -27 43q-22 0 -36 -35.5t-14 -69.5q0 -43 28 -43q23 0 36 34.5t13 70.5zM599 181q0 -80 -41 -138t-108 -58q-52 0 -80 33.5t-28 87.5q0 80 41 137.5
t108 57.5q52 0 80 -33t28 -87zM509 175q0 43 -27 43q-22 0 -36 -35.5t-14 -69.5q0 -43 28 -43q23 0 36 34.5t13 70.5zM882 181q0 -80 -41 -138t-108 -58q-52 0 -80 33.5t-28 87.5q0 80 41 137.5t108 57.5q52 0 80 -33t28 -87zM792 175q0 43 -27 43q-22 0 -36 -35.5
t-14 -69.5q0 -43 28 -43q23 0 36 34.5t13 70.5zM171 -24l-74 33l366 602l73 -35z" />
    <glyph glyph-name="napostrophe.sc" horiz-adv-x="660" 
d="M225 583l-106 -191h-99l94 191h111zM666 583l-101 -583h-158l-63 324h-2l-52 -324h-134l101 583h160l60 -329h2l54 329h133z" />
    <glyph glyph-name="ij.sc" horiz-adv-x="672" 
d="M276 583l-102 -583h-152l101 583h153zM685 583l-67 -392q-16 -98 -60 -152t-140 -54q-68 0 -109.5 35t-57.5 93l127 56q7 -43 41 -43q24 0 34.5 18.5t17.5 59.5l65 379h149z" />
    <glyph glyph-name="percent.sc" horiz-adv-x="617" 
d="M294 478q0 -80 -41 -138t-108 -58q-52 0 -80 33.5t-28 87.5q0 80 41 137.5t108 57.5q52 0 80 -33t28 -87zM204 472q0 43 -27 43q-22 0 -36 -35.5t-14 -69.5q0 -43 28 -43q23 0 36 34.5t13 70.5zM599 181q0 -80 -41 -138t-108 -58q-52 0 -80 33.5t-28 87.5q0 80 41 137.5
t108 57.5q52 0 80 -33t28 -87zM509 175q0 43 -27 43q-22 0 -36 -35.5t-14 -69.5q0 -43 28 -43q23 0 36 34.5t13 70.5zM171 -24l-74 33l366 602l73 -35z" />
    <glyph glyph-name="obreve.sc" horiz-adv-x="529" 
d="M517 373q0 -99 -32 -186t-97.5 -144.5t-152.5 -57.5q-91 0 -142 61t-51 164q0 99 31.5 186.5t97 144.5t150.5 57q96 0 146 -60t50 -165zM365 351q0 107 -62 107q-48 0 -78.5 -76.5t-30.5 -154.5q0 -100 62 -100q47 0 78 73t31 151zM500 768q-33 -139 -167 -139
q-58 0 -95 33t-37 106h79q0 -28 19 -42q16 -13 41 -13q67 0 80 55h80z" />
    <glyph glyph-name="two.onum" horiz-adv-x="508" 
d="M14 0l22 134q165 110 197 135q99 79 100 140q0 28 -15 44.5t-45 16.5q-55 0 -89 -67l-118 42q33 72 90.5 112t137.5 40q85 0 135 -43t50 -122q0 -34 -8 -63.5t-27.5 -57t-37 -48t-52 -46.5t-56 -41t-64.5 -43v-3h201l-22 -130h-399z" />
    <glyph glyph-name="nine.sc" horiz-adv-x="480" 
d="M467 422q0 -103 -84 -222l-145 -200h-173l155 207l-1 1q-9 -3 -26 -3q-63 0 -96 40t-33 109q0 43 12.5 84t38 78t70 59.5t101.5 22.5q85 0 133 -47.5t48 -128.5zM326 413q0 28 -12.5 45.5t-35.5 17.5q-32 0 -53 -35t-21 -80q0 -26 12 -43t36 -17q31 0 52.5 31t21.5 81z
" />
    <glyph glyph-name="oacute.sc" horiz-adv-x="529" 
d="M517 373q0 -99 -32 -186t-97.5 -144.5t-152.5 -57.5q-91 0 -142 61t-51 164q0 99 31.5 186.5t97 144.5t150.5 57q96 0 146 -60t50 -165zM365 351q0 107 -62 107q-48 0 -78.5 -76.5t-30.5 -154.5q0 -100 62 -100q47 0 78 73t31 151zM512 772l-138 -144h-101l112 144h127z
" />
    <glyph glyph-name="idotaccent.sc" horiz-adv-x="270" 
d="M276 583l-102 -583h-152l101 583h153zM300 726q0 -40 -25.5 -68t-63.5 -28q-34 0 -54 22t-20 52q0 39 25.5 68t62.5 29q36 0 55.5 -21t19.5 -54z" />
    <glyph glyph-name="ucircumflex.sc" horiz-adv-x="519" 
d="M532 583l-63 -362q-19 -112 -72 -174t-164 -62q-90 0 -138.5 46.5t-48.5 123.5q0 25 7 67l62 361h153l-62 -350q-6 -38 -6 -53q0 -55 44 -55q37 0 53 27t25 81l60 350h150zM498 627h-104l-52 83l-78 -83h-110l140 144h116z" />
    <glyph glyph-name="macron.cap" 
d="M363 877l-14 -79h-294l13 79h295z" />
    <glyph glyph-name="oslash.sc" horiz-adv-x="529" 
d="M540 599l-57 -84q34 -59 34 -142q0 -99 -32 -186t-97.5 -144.5t-152.5 -57.5q-65 0 -112 33l-48 -73l-57 37l59 86q-35 56 -35 142q0 99 31.5 186.5t97 144.5t150.5 57q69 0 116 -33l46 69zM180 219v-17l174 254q-16 23 -48 23q-38 0 -68 -45t-44 -103t-14 -112zM376 360
v15l-172 -249q17 -20 48 -20q54 0 89 82.5t35 171.5z" />
    <glyph glyph-name="yacute.sc" horiz-adv-x="421" 
d="M505 583l-221 -382l-36 -201h-152l35 201l-77 382h155l24 -237h2l108 237h162zM462 772l-138 -144h-101l112 144h127z" />
    <glyph glyph-name="uhungarumlaut.sc" horiz-adv-x="519" 
d="M532 583l-63 -362q-19 -112 -72 -174t-164 -62q-90 0 -138.5 46.5t-48.5 123.5q0 25 7 67l62 361h153l-62 -350q-6 -38 -6 -53q0 -55 44 -55q37 0 53 27t25 81l60 350h150zM604 771l-137 -144h-101l113 144h125zM437 771l-138 -144h-100l112 144h126z" />
    <glyph glyph-name="omacron.sc" horiz-adv-x="529" 
d="M517 373q0 -99 -32 -186t-97.5 -144.5t-152.5 -57.5q-91 0 -142 61t-51 164q0 99 31.5 186.5t97 144.5t150.5 57q96 0 146 -60t50 -165zM365 351q0 107 -62 107q-48 0 -78.5 -76.5t-30.5 -154.5q0 -100 62 -100q47 0 78 73t31 151zM503 740l-14 -79h-294l13 79h295z" />
    <glyph glyph-name="z.sc" horiz-adv-x="411" 
d="M438 583l-20 -114l-230 -336h175l-24 -133h-347l21 117l235 338h-161l23 128h328z" />
    <glyph glyph-name="questiondown.sc" horiz-adv-x="408" 
d="M6 119q0 57 28 92t86 74q39 27 45 63l4 20h130l-5 -31q-12 -73 -86 -126l-16 -12q-42 -28 -42 -62q0 -18 11 -29t29 -11q44 0 62 56l119 -29q-19 -59 -69 -99t-132 -40q-74 0 -119 36t-45 98zM167 499q0 40 25.5 66.5t62.5 26.5q35 0 54 -21t19 -51q0 -37 -25 -65
t-61 -28q-35 0 -55 20.5t-20 51.5z" />
    <glyph glyph-name="idieresis.sc" horiz-adv-x="270" 
d="M276 583l-102 -583h-152l101 583h153zM380 714q0 -34 -21.5 -57.5t-53.5 -23.5q-29 0 -46 18.5t-17 44.5q0 32 22 57t53 25q30 0 46.5 -18t16.5 -46zM194 714q0 -35 -21.5 -58t-53.5 -23q-29 0 -45.5 18.5t-16.5 44.5q0 33 21.5 57.5t53.5 24.5q29 0 45.5 -18t16.5 -46z
" />
    <glyph glyph-name="one.sc" horiz-adv-x="480" 
d="M413 583l-101 -583h-149l73 416l-95 -53l-48 113l193 107h127z" />
    <glyph glyph-name="question.sc" horiz-adv-x="408" 
d="M432 464q0 -57 -28 -92t-86 -74q-39 -27 -45 -63l-4 -20h-130l5 31q12 73 86 126l16 12q42 28 42 62q0 18 -11 29t-29 11q-44 0 -62 -56l-119 29q19 59 69 99t132 40q74 0 119 -36t45 -98zM271 84q0 -40 -25.5 -66.5t-62.5 -26.5q-35 0 -54 21t-19 51q0 37 25 65t61 28
q35 0 55 -20.5t20 -51.5z" />
    <glyph glyph-name="iacute.sc" horiz-adv-x="270" 
d="M276 583l-102 -583h-152l101 583h153zM380 772l-138 -144h-101l112 144h127z" />
    <glyph glyph-name="three.sc" horiz-adv-x="480" 
d="M450 455q0 -53 -28.5 -95t-73.5 -54v-2q32 -11 50 -43t18 -71q0 -95 -61.5 -150t-147.5 -55q-80 0 -127 40.5t-59 104.5l129 36q14 -56 60 -56q29 0 48 21.5t19 55.5q0 25 -18.5 40.5t-47.5 15.5h-31l18 111h36q34 0 54.5 19.5t20.5 54.5q0 18 -11.5 32t-32.5 14
q-39 0 -63 -49l-116 37q27 70 80.5 103t119.5 33q69 0 116.5 -36t47.5 -107z" />
    <glyph glyph-name="ordfeminine.sc" horiz-adv-x="320" 
d="M320 391h-88v51h-73l-21 -51h-93l145 327h119zM234 511v130h-2l-51 -130h53z" />
    <glyph glyph-name="l.sc" horiz-adv-x="379" 
d="M352 136l-24 -136h-306l101 583h153l-79 -447h155z" />
    <glyph glyph-name="scommaaccent.sc" horiz-adv-x="403" 
d="M217 -45l-106 -191h-99l94 191h111zM433 541l-86 -107q-31 34 -74 34q-24 0 -43 -15.5t-19 -45.5q0 -18 12 -30.5t42 -29.5q104 -64 104 -159q0 -99 -62 -151t-149 -52q-112 0 -175 61l85 110q40 -38 88 -38q25 0 43 15t18 42q0 20 -12.5 35.5t-43.5 34.5
q-46 27 -72 61.5t-26 91.5q0 86 57.5 143t151.5 57q109 0 161 -57z" />
    <glyph glyph-name="uring.sc" horiz-adv-x="519" 
d="M532 583l-63 -362q-19 -112 -72 -174t-164 -62q-90 0 -138.5 46.5t-48.5 123.5q0 25 7 67l62 361h153l-62 -350q-6 -38 -6 -53q0 -55 44 -55q37 0 53 27t25 81l60 350h150zM448 734q0 -50 -33 -87t-80 -37q-41 0 -64 24.5t-23 63.5q0 53 31.5 90.5t76.5 37.5q44 0 68 -26
t24 -66zM403 730q0 23 -12.5 38.5t-35.5 15.5q-29 0 -46 -24.5t-17 -57.5q0 -22 12 -36.5t35 -14.5q27 0 45.5 24t18.5 55z" />
    <glyph glyph-name="i.sc" horiz-adv-x="270" 
d="M276 583l-102 -583h-152l101 583h153z" />
    <glyph glyph-name="hcircumflex.sc" horiz-adv-x="530" 
d="M536 583l-102 -583h-147l42 236h-118l-41 -236h-148l101 583h148l-37 -212h117l37 212h148zM504 627h-104l-52 83l-78 -83h-110l140 144h116z" />
    <glyph glyph-name="ograve.sc" horiz-adv-x="529" 
d="M517 373q0 -99 -32 -186t-97.5 -144.5t-152.5 -57.5q-91 0 -142 61t-51 164q0 99 31.5 186.5t97 144.5t150.5 57q96 0 146 -60t50 -165zM365 351q0 107 -62 107q-48 0 -78.5 -76.5t-30.5 -154.5q0 -100 62 -100q47 0 78 73t31 151zM396 628h-101l-128 144h126z" />
    <glyph glyph-name="ycircumflex.sc" horiz-adv-x="421" 
d="M505 583l-221 -382l-36 -201h-152l35 201l-77 382h155l24 -237h2l108 237h162zM454 627h-104l-52 83l-78 -83h-110l140 144h116z" />
    <glyph glyph-name="o.sc" horiz-adv-x="529" 
d="M517 373q0 -99 -32 -186t-97.5 -144.5t-152.5 -57.5q-91 0 -142 61t-51 164q0 99 31.5 186.5t97 144.5t150.5 57q96 0 146 -60t50 -165zM365 351q0 107 -62 107q-48 0 -78.5 -76.5t-30.5 -154.5q0 -100 62 -100q47 0 78 73t31 151z" />
    <glyph glyph-name="scircumflex.sc" horiz-adv-x="403" 
d="M433 541l-86 -107q-31 34 -74 34q-24 0 -43 -15.5t-19 -45.5q0 -18 12 -30.5t42 -29.5q104 -64 104 -159q0 -99 -62 -151t-149 -52q-112 0 -175 61l85 110q40 -38 88 -38q25 0 43 15t18 42q0 20 -12.5 35.5t-43.5 34.5q-46 27 -72 61.5t-26 91.5q0 86 57.5 143t151.5 57
q109 0 161 -57zM459 627h-104l-52 83l-78 -83h-110l140 144h116z" />
    <glyph glyph-name="j.sc" horiz-adv-x="391" 
d="M404 583l-67 -392q-16 -98 -60 -152t-140 -54q-68 0 -109.5 35t-57.5 93l127 56q7 -43 41 -43q24 0 34.5 18.5t17.5 59.5l65 379h149z" />
    <glyph glyph-name="igrave.sc" horiz-adv-x="270" 
d="M276 583l-102 -583h-152l101 583h153zM272 628h-101l-128 144h126z" />
    <glyph glyph-name="aring.sc" horiz-adv-x="471" 
d="M431 0h-144l-2 97h-135l-39 -97h-153l251 583h195zM287 211l-4 243h-3l-93 -243h100zM424 734q0 -50 -33 -87t-80 -37q-41 0 -64 24.5t-23 63.5q0 53 31.5 90.5t76.5 37.5q44 0 68 -26t24 -66zM379 730q0 23 -12.5 38.5t-35.5 15.5q-29 0 -46 -24.5t-17 -57.5
q0 -22 12 -36.5t35 -14.5q27 0 45.5 24t18.5 55z" />
    <glyph glyph-name="ring.sc" 
d="M313 734q0 -50 -33 -87t-80 -37q-41 0 -64 24.5t-23 63.5q0 53 31.5 90.5t76.5 37.5q44 0 68 -26t24 -66zM268 730q0 23 -12.5 38.5t-35.5 15.5q-29 0 -46 -24.5t-17 -57.5q0 -22 12 -36.5t35 -14.5q27 0 45.5 24t18.5 55z" />
    <glyph glyph-name="hungarumlaut.sc" 
d="M444 771l-137 -144h-101l113 144h125zM277 771l-138 -144h-100l112 144h126z" />
    <glyph glyph-name="sterling.sc" horiz-adv-x="480" 
d="M467 566l-63 -113q-17 14 -47 14q-51 0 -66 -76l-6 -35h92l-20 -115h-90l-19 -110h140l-23 -131h-341l23 131h63l19 110h-62l21 115h59l9 47q6 37 18.5 68t34.5 61.5t59.5 48t86.5 17.5q74 0 112 -32z" />
    <glyph glyph-name="nacute.sc" horiz-adv-x="526" 
d="M532 583l-101 -583h-158l-63 324h-2l-52 -324h-134l101 583h160l60 -329h2l54 329h133zM511 772l-138 -144h-101l112 144h127z" />
    <glyph glyph-name="ubreve.sc" horiz-adv-x="519" 
d="M532 583l-63 -362q-19 -112 -72 -174t-164 -62q-90 0 -138.5 46.5t-48.5 123.5q0 25 7 67l62 361h153l-62 -350q-6 -38 -6 -53q0 -55 44 -55q37 0 53 27t25 81l60 350h150zM494 768q-33 -139 -167 -139q-58 0 -95 33t-37 106h79q0 -28 19 -42q16 -13 41 -13q67 0 80 55
h80z" />
    <glyph glyph-name="seven.sc" horiz-adv-x="480" 
d="M476 583l-19 -111l-251 -472h-159l249 454h-209l21 129h368z" />
    <glyph glyph-name="odieresis.sc" horiz-adv-x="529" 
d="M517 373q0 -99 -32 -186t-97.5 -144.5t-152.5 -57.5q-91 0 -142 61t-51 164q0 99 31.5 186.5t97 144.5t150.5 57q96 0 146 -60t50 -165zM365 351q0 107 -62 107q-48 0 -78.5 -76.5t-30.5 -154.5q0 -100 62 -100q47 0 78 73t31 151zM511 714q0 -34 -21.5 -57.5
t-53.5 -23.5q-29 0 -46 18.5t-17 44.5q0 32 22 57t53 25q30 0 46.5 -18t16.5 -46zM325 714q0 -35 -21.5 -58t-53.5 -23q-29 0 -45.5 18.5t-16.5 44.5q0 33 21.5 57.5t53.5 24.5q29 0 45.5 -18t16.5 -46z" />
    <glyph glyph-name="zcaron.sc" horiz-adv-x="411" 
d="M438 583l-20 -114l-230 -336h175l-24 -133h-347l21 117l235 338h-161l23 128h328zM478 771l-139 -144h-116l-89 144h104l51 -83l79 83h110z" />
    <glyph glyph-name="nine.onum" horiz-adv-x="532" 
d="M269 134l-1 2q-22 -16 -62 -16q-73 0 -114.5 51.5t-41.5 131.5q0 54 16 105.5t46.5 94t81.5 68.5t115 26q95 0 149 -56.5t54 -150.5q0 -134 -87 -274.5t-256 -275.5l-122 74q63 47 126 108t96 112zM199 310q0 -38 16.5 -61.5t49.5 -23.5q43 0 71 45.5t28 109.5
q-1 39 -18 63.5t-48 24.5q-46 0 -72.5 -47t-26.5 -111z" />
    <glyph glyph-name="germandbls.sc" horiz-adv-x="806" 
d="M433 541l-86 -107q-31 34 -74 34q-24 0 -43 -15.5t-19 -45.5q0 -18 12 -30.5t42 -29.5q104 -64 104 -159q0 -99 -62 -151t-149 -52q-112 0 -175 61l85 110q40 -38 88 -38q25 0 43 15t18 42q0 20 -12.5 35.5t-43.5 34.5q-46 27 -72 61.5t-26 91.5q0 86 57.5 143t151.5 57
q109 0 161 -57zM836 541l-86 -107q-31 34 -74 34q-24 0 -43 -15.5t-19 -45.5q0 -18 12 -30.5t42 -29.5q104 -64 104 -159q0 -99 -62 -151t-149 -52q-112 0 -175 61l85 110q40 -38 88 -38q25 0 43 15t18 42q0 20 -12.5 35.5t-43.5 34.5q-46 27 -72 61.5t-26 91.5
q0 86 57.5 143t151.5 57q109 0 161 -57z" />
    <glyph glyph-name="aacute.sc" horiz-adv-x="471" 
d="M431 0h-144l-2 97h-135l-39 -97h-153l251 583h195zM287 211l-4 243h-3l-93 -243h100zM493 772l-138 -144h-101l112 144h127z" />
    <glyph glyph-name="q.sc" horiz-adv-x="529" 
d="M517 374q0 -73 -28 -150.5t-69 -106.5v-3l89 3l-22 -117h-252q-93 0 -143 55t-50 155q0 98 31.5 185t96.5 145t151 58q96 0 146 -60.5t50 -163.5zM365 357q0 101 -62 101q-48 0 -78.5 -76.5t-30.5 -154.5q0 -100 58 -100q48 0 80.5 76t32.5 154z" />
    <glyph glyph-name="exclamdown.sc" horiz-adv-x="287" 
d="M30 0l66 368h146l-64 -368h-148zM113 498q0 40 24.5 66t60.5 26q34 0 52.5 -20.5t18.5 -50.5q0 -36 -24 -64t-60 -28q-35 0 -53.5 20t-18.5 51z" />
    <glyph glyph-name="jcircumflex.sc" horiz-adv-x="391" 
d="M404 583l-67 -392q-16 -98 -60 -152t-140 -54q-68 0 -109.5 35t-57.5 93l127 56q7 -43 41 -43q24 0 34.5 18.5t17.5 59.5l65 379h149zM500 627h-104l-52 83l-78 -83h-110l140 144h116z" />
    <glyph glyph-name="lacute.sc" horiz-adv-x="379" 
d="M352 136l-24 -136h-306l101 583h153l-79 -447h155zM389 772l-138 -144h-101l112 144h127z" />
    <glyph glyph-name="zacute.sc" horiz-adv-x="411" 
d="M438 583l-20 -114l-230 -336h175l-24 -133h-347l21 117l235 338h-161l23 128h328zM453 772l-138 -144h-101l112 144h127z" />
    <glyph glyph-name="six.onum" horiz-adv-x="532" 
d="M279 454l2 -2q22 16 61 16q74 0 115.5 -51.5t41.5 -131.5q0 -76 -27 -142t-88 -111.5t-145 -45.5q-96 0 -150 56.5t-54 149.5q0 123 81.5 263.5t252.5 281.5l122 -73q-60 -45 -119.5 -103t-92.5 -107zM350 278q0 38 -16.5 61.5t-50.5 23.5q-41 0 -70.5 -48t-29.5 -112
q1 -40 18 -64.5t48 -24.5q46 0 73.5 48.5t27.5 115.5z" />
    <glyph glyph-name="k.sc" horiz-adv-x="487" 
d="M550 583l-196 -282l98 -301h-162l-71 266h-4l-46 -266h-147l101 583h148l-42 -240h3l151 240h167z" />
    <glyph glyph-name="tcommaaccent.sc" horiz-adv-x="370" 
d="M193 -45l-106 -191h-99l94 191h111zM426 583l-22 -128h-106l-80 -455h-149l80 455h-105l22 128h360z" />
    <glyph glyph-name="r.sc" horiz-adv-x="487" 
d="M480 428q0 -64 -29.5 -110t-79.5 -64l66 -254h-152l-47 225h-34l-40 -225h-142l101 583h184q81 0 127 -40t46 -115zM337 409q0 28 -15 40t-37 12h-40l-23 -133h37q33 0 55.5 20.5t22.5 60.5z" />
    <glyph glyph-name="lslash.sc" horiz-adv-x="379" 
d="M363 527l-25 -140l-113 -87l-28 -164h155l-24 -136h-306l32 182l-54 -43l25 142l54 43l45 259h152l-26 -143z" />
    <glyph glyph-name="scaron.sc" horiz-adv-x="403" 
d="M433 541l-86 -107q-31 34 -74 34q-24 0 -43 -15.5t-19 -45.5q0 -18 12 -30.5t42 -29.5q104 -64 104 -159q0 -99 -62 -151t-149 -52q-112 0 -175 61l85 110q40 -38 88 -38q25 0 43 15t18 42q0 20 -12.5 35.5t-43.5 34.5q-46 27 -72 61.5t-26 91.5q0 86 57.5 143t151.5 57
q109 0 161 -57zM479 771l-139 -144h-116l-89 144h104l51 -83l79 83h110z" />
    <glyph glyph-name="icircumflex.sc" horiz-adv-x="270" 
d="M276 583l-102 -583h-152l101 583h153zM376 627h-104l-52 83l-78 -83h-110l140 144h116z" />
    <glyph glyph-name="itilde.sc" horiz-adv-x="270" 
d="M276 583l-102 -583h-152l101 583h153zM381 755q-11 -56 -40.5 -90t-68.5 -34q-36 0 -69 23q-30 22 -52 22q-30 0 -40 -40h-60q11 54 40 88t69 34q34 0 69 -24q34 -22 54 -22q29 0 39 43h59z" />
    <glyph glyph-name="s.sc" horiz-adv-x="403" 
d="M433 541l-86 -107q-31 34 -74 34q-24 0 -43 -15.5t-19 -45.5q0 -18 12 -30.5t42 -29.5q104 -64 104 -159q0 -99 -62 -151t-149 -52q-112 0 -175 61l85 110q40 -38 88 -38q25 0 43 15t18 42q0 20 -12.5 35.5t-43.5 34.5q-46 27 -72 61.5t-26 91.5q0 86 57.5 143t151.5 57
q109 0 161 -57z" />
    <glyph glyph-name="hbar.sc" horiz-adv-x="530" 
d="M536 583l-102 -583h-147l39 220h-118l-38 -220h-148l101 583h148l-16 -93h117l16 93h148zM231 351h117l10 59h-117z" />
    <glyph glyph-name="y.sc" horiz-adv-x="421" 
d="M505 583l-221 -382l-36 -201h-152l35 201l-77 382h155l24 -237h2l108 237h162z" />
    <glyph glyph-name="kcommaaccent.sc" horiz-adv-x="487" 
d="M287 -45l-106 -191h-99l94 191h111zM550 583l-196 -282l98 -301h-162l-71 266h-4l-46 -266h-147l101 583h148l-42 -240h3l151 240h167z" />
    <glyph glyph-name="zdotaccent.sc" horiz-adv-x="411" 
d="M438 583l-20 -114l-230 -336h175l-24 -133h-347l21 117l235 338h-161l23 128h328zM369 726q0 -40 -25.5 -68t-63.5 -28q-34 0 -54 22t-20 52q0 39 25.5 68t62.5 29q36 0 55.5 -21t19.5 -54z" />
    <glyph glyph-name="exclam.sc" horiz-adv-x="287" 
d="M283 583l-66 -368h-146l64 368h148zM200 85q0 -40 -24.5 -66t-60.5 -26q-34 0 -52.5 20.5t-18.5 50.5q0 36 24 64t60 28q35 0 53.5 -20t18.5 -51z" />
    <glyph glyph-name="a.sc" horiz-adv-x="471" 
d="M431 0h-144l-2 97h-135l-39 -97h-153l251 583h195zM287 211l-4 243h-3l-93 -243h100z" />
    <glyph glyph-name="h.sc" horiz-adv-x="530" 
d="M536 583l-102 -583h-147l42 236h-118l-41 -236h-148l101 583h148l-37 -212h117l37 212h148z" />
    <glyph glyph-name="m.sc" horiz-adv-x="683" 
d="M689 583l-102 -583h-146l68 371h-3l-150 -371h-120l-14 371h-3l-63 -371h-134l102 583h189l18 -379h4l146 379h208z" />
    <glyph glyph-name="tilde.sc" 
d="M373 755q-11 -56 -40.5 -90t-68.5 -34q-36 0 -69 23q-30 22 -52 22q-30 0 -40 -40h-60q11 54 40 88t69 34q34 0 69 -24q34 -22 54 -22q29 0 39 43h59z" />
    <glyph glyph-name="grave.cap" 
d="M277 764h-101l-128 144h126z" />
    <glyph glyph-name="seven.onum" horiz-adv-x="470" 
d="M490 581l-21 -120q-210 -364 -343 -623l-150 32q168 311 326 574h-244l24 137h408z" />
    <glyph glyph-name="tbar.sc" horiz-adv-x="370" 
d="M63 360h68l18 95h-105l22 128h360l-22 -128h-106l-18 -95h78l-16 -88h-77l-47 -272h-149l48 272h-70z" />
    <glyph glyph-name="acute.cap" 
d="M360 909l-138 -144h-101l112 144h127z" />
    <glyph glyph-name="wcircumflex.sc" horiz-adv-x="718" 
d="M783 583l-227 -583h-164l-6 360h-1l-140 -360h-159l-19 583h157l-7 -381h1l138 381h134l6 -381h2l126 381h159zM597 627h-104l-52 83l-78 -83h-110l140 144h116z" />
    <glyph glyph-name="ebreve.sc" horiz-adv-x="393" 
d="M412 583l-22 -129h-142l-18 -97h130l-19 -118h-131l-19 -106h155l-23 -133h-301l101 583h289zM438 768q-33 -139 -167 -139q-58 0 -95 33t-37 106h79q0 -28 19 -42q16 -13 41 -13q67 0 80 55h80z" />
    <glyph glyph-name="ncommaaccent.sc" horiz-adv-x="526" 
d="M294 -45l-106 -191h-99l94 191h111zM532 583l-101 -583h-158l-63 324h-2l-52 -324h-134l101 583h160l60 -329h2l54 329h133z" />
    <glyph glyph-name="three.onum" horiz-adv-x="499" 
d="M469 438q-129 -95 -206 -145l1 -3q10 2 18 2q70 0 111 -52t41 -129q0 -116 -79.5 -193.5t-228.5 -77.5q-66 0 -117 10l26 135q41 -9 85 -9q38 0 72 10.5t61 40.5t27 74q0 43 -28 65.5t-80 22.5q-43 0 -93 -13l-7 114q122 80 225 157l1 4h-205l24 130h379z" />
    <glyph glyph-name="one.onum" horiz-adv-x="423" 
d="M368 581l-101 -581h-147l74 415l-95 -55l-48 112l191 109h126z" />
    <glyph glyph-name="ntilde.sc" horiz-adv-x="526" 
d="M532 583l-101 -583h-158l-63 324h-2l-52 -324h-134l101 583h160l60 -329h2l54 329h133zM510 755q-11 -56 -40.5 -90t-68.5 -34q-36 0 -69 23q-30 22 -52 22q-30 0 -40 -40h-60q11 54 40 88t69 34q35 0 69 -24q34 -22 54 -22q29 0 39 43h59z" />
    <glyph glyph-name="w.sc" horiz-adv-x="718" 
d="M783 583l-227 -583h-164l-6 360h-1l-140 -360h-159l-19 583h157l-7 -381h1l138 381h134l6 -381h2l126 381h159z" />
    <glyph glyph-name="acute.sc" 
d="M360 772l-138 -144h-101l112 144h127z" />
    <glyph glyph-name="four.sc" horiz-adv-x="480" 
d="M375 113l-20 -113h-136l20 113h-222l21 121l230 349h184l-61 -349h61l-20 -121h-57zM292 431h-3l-121 -197h89z" />
    <glyph glyph-name="Euro.sc" horiz-adv-x="480" 
d="M493 580l-45 -112q-24 12 -64 12q-72 0 -107 -78h153l-34 -84h-153q-6 -23 -8 -50h145l-34 -84h-110q2 -36 25 -57t59 -21q41 0 75 16l-6 -117q-45 -20 -99 -20q-88 0 -140 55t-55 144h-70l36 84h37q0 15 8 50h-55l35 84h40q76 197 263 197q72 0 104 -19z" />
    <glyph glyph-name="dotaccent.cap" 
d="M286 853q0 -41 -25.5 -68.5t-63.5 -27.5q-34 0 -54 22t-20 52q0 39 25.5 68t62.5 29q36 0 55.5 -21t19.5 -54z" />
    <glyph glyph-name="aogonek.sc" horiz-adv-x="471" 
d="M257 -232q-38 0 -64 20t-26 64q0 76 120 148l-2 97h-135l-39 -97h-153l251 583h195l27 -583h-52q-61 -46 -85.5 -71.5t-24.5 -47.5q0 -28 26 -28q28 0 52 19l19 -64q-51 -40 -109 -40zM287 211l-4 243h-3l-93 -243h100z" />
    <glyph glyph-name="five.onum" horiz-adv-x="478" 
d="M250 448l-36 -140q18 3 34 3q80 0 125.5 -51t45.5 -130q0 -75 -25.5 -132.5t-70 -91t-98.5 -50t-116 -16.5q-53 0 -110 9l25 135q42 -8 79 -8q82 0 121.5 38.5t39.5 97.5q0 47 -32.5 71t-83.5 24q-37 0 -99 -14l96 388h345l-26 -133h-214z" />
    <glyph glyph-name="florin.sc" horiz-adv-x="480" 
d="M499 576l-52 -110q-16 10 -36 10q-41 0 -63 -62l-16 -47h84l-19 -106h-100l-77 -228q-24 -72 -64.5 -109.5t-116.5 -37.5q-44 0 -72 8l38 124q7 -6 24 -6q22 0 34.5 15t23.5 47l61 187h-72l19 106h84l15 45q31 92 77 139t131 47q61 0 97 -22z" />
    <glyph glyph-name="atilde.sc" horiz-adv-x="471" 
d="M431 0h-144l-2 97h-135l-39 -97h-153l251 583h195zM287 211l-4 243h-3l-93 -243h100zM485 755q-11 -56 -40.5 -90t-68.5 -34q-36 0 -69 23q-30 22 -52 22q-30 0 -40 -40h-60q11 54 40 88t69 34q34 0 69 -24q34 -22 54 -22q29 0 39 43h59z" />
    <glyph glyph-name="dollar.sc" horiz-adv-x="480" 
d="M165 2q-85 9 -134 56l81 105q38 -36 84 -36q23 0 40.5 15t17.5 39q0 19 -12.5 33.5t-41.5 33.5q-44 25 -68.5 58t-24.5 87q0 70 42 121.5t113 64.5l13 68h75l-12 -66q82 -8 121 -52l-82 -102q-30 33 -70 33q-22 0 -40.5 -15.5t-18.5 -42.5q0 -18 11.5 -30t39.5 -28
q99 -59 99 -151q0 -80 -44.5 -128.5t-112.5 -60.5l-14 -71h-75z" />
    <glyph glyph-name="ccedilla.sc" horiz-adv-x="434" 
d="M318 -135q0 -51 -44 -76t-99 -25q-61 0 -109 23l34 60q28 -15 71 -15q50 0 50 30q0 26 -35 26q-22 0 -41 -6l-25 26l71 83q-72 16 -110.5 74.5t-38.5 147.5q0 156 80.5 270.5t203.5 114.5q109 0 162 -68l-95 -108q-25 36 -67 36q-57 0 -93.5 -71t-36.5 -153
q0 -107 77 -107q40 0 72 34l60 -111q-52 -57 -139 -64l-42 -48q12 2 22 2q29 0 50.5 -18.5t21.5 -56.5z" />
    <glyph glyph-name="gbreve.sc" horiz-adv-x="505" 
d="M493 531l-96 -112q-26 35 -71 35q-43 0 -74.5 -37t-45 -86t-13.5 -99q0 -47 19.5 -77.5t60.5 -30.5q26 0 46 10l17 97h-77l21 123h214l-55 -320q-72 -49 -180 -49q-104 0 -160.5 63t-56.5 167q0 155 80.5 269t205.5 114q117 0 165 -67zM503 768q-33 -139 -167 -139
q-58 0 -95 33t-37 106h79q0 -28 19 -42q16 -13 41 -13q67 0 80 55h80z" />
    <glyph glyph-name="lcaron.sc" horiz-adv-x="424" 
d="M488 583l-106 -191h-99l94 191h111zM352 136l-24 -136h-306l101 583h153l-79 -447h155z" />
    <glyph glyph-name="racute.sc" horiz-adv-x="487" 
d="M480 428q0 -64 -29.5 -110t-79.5 -64l66 -254h-152l-47 225h-34l-40 -225h-142l101 583h184q81 0 127 -40t46 -115zM337 409q0 28 -15 40t-37 12h-40l-23 -133h37q33 0 55.5 20.5t22.5 60.5zM465 772l-138 -144h-101l112 144h127z" />
    <glyph glyph-name="dcroat.sc" horiz-adv-x="514" 
d="M502 354q0 -49 -8 -95t-29 -94.5t-53 -84t-85 -58t-120 -22.5h-185l43 247h-46l18 102h46l40 234h165q214 0 214 -229zM357 344q0 110 -76 110h-35l-18 -105h75l-17 -102h-75l-20 -115h35q61 0 96 67.5t35 144.5z" />
    <glyph glyph-name="four.onum" horiz-adv-x="529" 
d="M288 136l35 203h139l-35 -203h72l-24 -130h-68l-29 -166h-142l29 166h-280l25 140l291 453h163l-302 -463h126z" />
    <glyph glyph-name="tilde.cap" 
d="M373 892q-11 -56 -40.5 -90t-68.5 -34q-36 0 -69 23q-30 22 -52 22q-30 0 -40 -40h-60q11 54 40 88t69 34q34 0 69 -24q34 -22 54 -22q29 0 39 43h59z" />
    <glyph glyph-name="utilde.sc" horiz-adv-x="519" 
d="M532 583l-63 -362q-19 -112 -72 -174t-164 -62q-90 0 -138.5 46.5t-48.5 123.5q0 25 7 67l62 361h153l-62 -350q-6 -38 -6 -53q0 -55 44 -55q37 0 53 27t25 81l60 350h150zM509 755q-11 -56 -40.5 -90t-68.5 -34q-36 0 -69 23q-30 22 -52 22q-30 0 -40 -40h-60
q11 54 40 88t69 34q34 0 69 -24q34 -22 54 -22q29 0 39 43h59z" />
    <glyph glyph-name="acircumflex.sc" horiz-adv-x="471" 
d="M431 0h-144l-2 97h-135l-39 -97h-153l251 583h195zM287 211l-4 243h-3l-93 -243h100zM489 627h-104l-52 83l-78 -83h-110l140 144h116z" />
    <glyph glyph-name="fi.sc" horiz-adv-x="648" 
d="M654 583l-101 -583h-152l101 583h152zM415 583l-24 -132h-142l-18 -103h130l-20 -126h-130l-39 -222h-150l101 583h292z" />
    <glyph glyph-name="ldot.sc" horiz-adv-x="424" 
d="M352 136l-24 -136h-306l101 583h153l-79 -447h155zM437 346q0 -40 -25.5 -68t-63.5 -28q-34 0 -54 22t-20 52q0 39 25.5 68t62.5 29q36 0 55.5 -21t19.5 -54z" />
    <glyph glyph-name="zero.sc" horiz-adv-x="480" 
d="M461 394q0 -49 -7 -100.5t-25 -108t-45.5 -100t-73 -72t-102.5 -28.5q-87 0 -126.5 58.5t-39.5 146.5q0 49 6.5 99.5t24 107.5t44.5 100.5t72.5 72t102.5 28.5q87 0 128 -58.5t41 -145.5zM315 393q0 74 -34 74q-28 0 -51 -57t-32.5 -118.5t-9.5 -101.5q0 -72 33 -72
q29 0 52 57.5t32.5 118t9.5 99.5z" />
    <glyph glyph-name="b.sc" horiz-adv-x="481" 
d="M477 448q0 -55 -27.5 -91.5t-70.5 -50.5v-3q33 -10 54 -38.5t21 -71.5q0 -96 -61.5 -144.5t-144.5 -48.5h-226l101 583h202q61 0 106.5 -32.5t45.5 -102.5zM336 416q0 21 -14 34t-36 13h-45l-20 -114h48q27 0 47 17.5t20 49.5zM310 195q0 27 -15.5 39.5t-37.5 12.5h-52
l-23 -126h54q33 0 53.5 19.5t20.5 54.5z" />
    <glyph glyph-name="caron.cap" 
d="M393 908l-139 -144h-116l-89 144h104l51 -83l79 83h110z" />
    <glyph glyph-name="two.sc" horiz-adv-x="480" 
d="M456 441q0 -59 -27.5 -102.5t-89.5 -99.5l-122 -108h190l-23 -131h-372l24 128l215 199q58 55 58 98q0 17 -10 31t-31 14q-46 0 -58 -66l-139 17q22 86 78.5 131.5t138.5 45.5q75 0 121.5 -41.5t46.5 -115.5z" />
    <glyph glyph-name="dotaccent.sc" 
d="M286 726q0 -40 -25.5 -68t-63.5 -28q-34 0 -54 22t-20 52q0 39 25.5 68t62.5 29q36 0 55.5 -21t19.5 -54z" />
    <glyph glyph-name="yen.sc" horiz-adv-x="480" 
d="M509 583l-137 -224h60l-16 -95h-108l-10 -57h107l-17 -95h-107l-19 -112h-143l19 112h-104l16 95h105l10 57h-105l17 95h64l-61 224h139l40 -210l109 210h141z" />
    <glyph glyph-name="scedilla.sc" horiz-adv-x="403" 
d="M248 -135q0 -51 -44 -76t-99 -25q-61 0 -109 23l34 60q28 -15 71 -15q50 0 50 30q0 26 -35 26q-22 0 -41 -6l-25 26l68 80q-88 11 -135 58l85 110q40 -38 88 -38q25 0 43 15t18 42q0 20 -12.5 35.5t-43.5 34.5q-46 27 -72 61.5t-26 91.5q0 86 57.5 143t151.5 57
q109 0 161 -57l-86 -107q-31 34 -74 34q-24 0 -43 -15.5t-19 -45.5q0 -18 12 -30.5t42 -29.5q104 -64 104 -159q0 -86 -48.5 -137.5t-122.5 -62.5l-44 -50q12 2 22 2q29 0 50.5 -18.5t21.5 -56.5z" />
    <glyph glyph-name="cent.sc" horiz-adv-x="480" 
d="M364 524q51 -8 82 -37l-72 -110q-18 20 -47 20q-43 0 -71.5 -60.5t-28.5 -127.5q0 -86 58 -86q24 0 51 18l37 -111q-39 -31 -98 -35l-14 -75h-63l14 79q-61 14 -92 66t-31 127q0 119 58 217.5t153 114.5l14 77h63z" />
    <glyph glyph-name="uogonek.sc" horiz-adv-x="519" 
d="M190 -232q-38 0 -64 20t-26 64q0 69 99 135q-75 9 -114 54t-39 114q0 25 7 67l62 361h153l-62 -350q-6 -38 -6 -53q0 -55 44 -55q37 0 53 27t25 81l60 350h150l-63 -362q-17 -93 -55 -151.5t-112 -76.5q-55 -41 -77.5 -66t-22.5 -46q0 -28 26 -28q28 0 52 19l19 -64
q-51 -40 -109 -40z" />
    <glyph glyph-name="emacron.sc" horiz-adv-x="393" 
d="M412 583l-22 -129h-142l-18 -97h130l-19 -118h-131l-19 -106h155l-23 -133h-301l101 583h289zM436 740l-14 -79h-294l13 79h295z" />
    <glyph glyph-name="rcaron.sc" horiz-adv-x="487" 
d="M480 428q0 -64 -29.5 -110t-79.5 -64l66 -254h-152l-47 225h-34l-40 -225h-142l101 583h184q81 0 127 -40t46 -115zM337 409q0 28 -15 40t-37 12h-40l-23 -133h37q33 0 55.5 20.5t22.5 60.5zM495 771l-139 -144h-116l-89 144h104l51 -83l79 83h110z" />
    <glyph glyph-name="eth.sc" horiz-adv-x="514" 
d="M502 354q0 -49 -8 -95t-29 -94.5t-53 -84t-85 -58t-120 -22.5h-185l43 247h-46l18 102h46l40 234h165q214 0 214 -229zM357 344q0 110 -76 110h-35l-18 -105h75l-17 -102h-75l-20 -115h35q61 0 96 67.5t35 144.5z" />
    <glyph glyph-name="ampersand.sc" horiz-adv-x="534" 
d="M534 314l-124 -174l87 -140h-159l-26 47q-44 -62 -135 -62q-66 0 -107 38.5t-41 109.5q0 127 126 193q-28 49 -28 96q0 83 49.5 129.5t125.5 46.5q66 0 101 -34t35 -91q0 -111 -128 -175l42 -69l52 85h130zM328 459q0 18 -9 29.5t-24 11.5q-21 0 -34 -20t-13 -46
q0 -35 17 -62q63 32 63 87zM261 136l-58 105q-22 -11 -36.5 -34.5t-14.5 -53.5q0 -23 12.5 -39t35.5 -16q35 0 61 38z" />
    <glyph glyph-name="eight.onum" horiz-adv-x="519" 
d="M526 554q0 -65 -33 -111.5t-90 -67.5v-2q36 -16 59 -54t23 -88q0 -107 -66.5 -175.5t-181.5 -68.5q-96 0 -154 49t-58 134q0 74 42 130.5t101 72.5v2q-72 37 -72 124q0 93 62 157.5t174 64.5q96 0 145 -45.5t49 -121.5zM379 543q0 31 -15 49t-43 18q-38 0 -60.5 -33.5
t-22.5 -79.5q0 -30 15 -50.5t42 -20.5q37 0 60.5 36.5t23.5 80.5zM332 236q0 36 -16.5 57t-45.5 21q-38 0 -66 -39.5t-28 -89.5q0 -36 16.5 -58t48.5 -22q41 0 66 39.5t25 91.5z" />
    <glyph glyph-name="ncaron.sc" horiz-adv-x="526" 
d="M532 583l-101 -583h-158l-63 324h-2l-52 -324h-134l101 583h160l60 -329h2l54 329h133zM525 771l-139 -144h-116l-89 144h104l51 -83l79 83h110z" />
    <glyph glyph-name="x.sc" horiz-adv-x="469" 
d="M536 583l-180 -286l86 -297h-162l-45 200l-110 -200h-173l198 309l-82 274h158l42 -179l96 179h172z" />
    <glyph glyph-name="breve.sc" 
d="M371 768q-33 -139 -167 -139q-58 0 -95 33t-37 106h79q0 -28 19 -42q16 -13 41 -13q67 0 80 55h80z" />
    <glyph glyph-name="fl.sc" horiz-adv-x="757" 
d="M730 136l-24 -136h-305l101 583h152l-78 -447h154zM415 583l-24 -132h-142l-18 -103h130l-20 -126h-130l-39 -222h-150l101 583h292z" />
    <glyph glyph-name="dcaron.sc" horiz-adv-x="514" 
d="M502 354q0 -49 -8 -95t-29 -94.5t-53 -84t-85 -58t-120 -22.5h-185l101 583h165q214 0 214 -229zM354 344q0 110 -77 110h-28l-55 -322h29q61 0 96 67.5t35 144.5zM499 771l-139 -144h-116l-89 144h104l51 -83l79 83h110z" />
    <glyph glyph-name="agrave.sc" horiz-adv-x="471" 
d="M431 0h-144l-2 97h-135l-39 -97h-153l251 583h195zM287 211l-4 243h-3l-93 -243h100zM373 628h-101l-128 144h126z" />
    <glyph glyph-name="rcommaaccent.sc" horiz-adv-x="487" 
d="M280 -45l-106 -191h-99l94 191h111zM480 428q0 -64 -29.5 -110t-79.5 -64l66 -254h-152l-47 225h-34l-40 -225h-142l101 583h184q81 0 127 -40t46 -115zM337 409q0 28 -15 40t-37 12h-40l-23 -133h37q33 0 55.5 20.5t22.5 60.5z" />
    <glyph glyph-name="u.sc" horiz-adv-x="519" 
d="M532 583l-63 -362q-19 -112 -72 -174t-164 -62q-90 0 -138.5 46.5t-48.5 123.5q0 25 7 67l62 361h153l-62 -350q-6 -38 -6 -53q0 -55 44 -55q37 0 53 27t25 81l60 350h150z" />
    <glyph glyph-name="uacute.sc" horiz-adv-x="519" 
d="M532 583l-63 -362q-19 -112 -72 -174t-164 -62q-90 0 -138.5 46.5t-48.5 123.5q0 25 7 67l62 361h153l-62 -350q-6 -38 -6 -53q0 -55 44 -55q37 0 53 27t25 81l60 350h150zM512 772l-138 -144h-101l112 144h127z" />
    <glyph glyph-name="zero.onum" horiz-adv-x="553" 
d="M324 596q95 0 145.5 -60t50.5 -164q0 -98 -32 -185t-97.5 -144.5t-150.5 -57.5q-91 0 -142 61t-51 164q0 98 31.5 185t96.5 144t149 57zM308 463q-50 0 -82.5 -79t-32.5 -159q0 -104 65 -104q35 0 62.5 40.5t40.5 94.5t13 104q0 103 -66 103z" />
    <glyph glyph-name="eacute.sc" horiz-adv-x="393" 
d="M412 583l-22 -129h-142l-18 -97h130l-19 -118h-131l-19 -106h155l-23 -133h-301l101 583h289zM457 772l-138 -144h-101l112 144h127z" />
    <glyph glyph-name="dotlessj" horiz-adv-x="266" 
d="M259 520l-97 -555q-37 -205 -205 -205q-29 0 -59 7l22 133q15 -5 28 -5q53 0 68 83l95 542h148z" />
    <glyph glyph-name="eight.sc" horiz-adv-x="480" 
d="M466 456q0 -53 -28 -93.5t-74 -56.5v-2q28 -13 47.5 -44t19.5 -73q0 -88 -58 -145t-156 -57q-84 0 -135 42t-51 113q0 62 34.5 107t82.5 59v3q-28 13 -44 40t-16 61q0 78 54.5 133t152.5 55q83 0 127 -38.5t44 -103.5zM325 443q0 51 -42 51q-27 0 -44 -26.5t-17 -60.5
q0 -51 43 -51q26 0 43 27t17 60zM287 194q0 58 -46 58q-29 0 -48 -30t-19 -68q0 -24 11.5 -41t33.5 -17q33 0 50.5 29.5t17.5 68.5z" />
    <glyph glyph-name="dieresis.sc" 
d="M372 714q0 -34 -21.5 -57.5t-53.5 -23.5q-29 0 -46 18.5t-17 44.5q0 32 22 57t53 25q30 0 46.5 -18t16.5 -46zM186 714q0 -35 -21.5 -58t-53.5 -23q-29 0 -45.5 18.5t-16.5 44.5q0 33 21.5 57.5t53.5 24.5q29 0 45.5 -18t16.5 -46z" />
    <glyph glyph-name="edieresis.sc" horiz-adv-x="393" 
d="M412 583l-22 -129h-142l-18 -97h130l-19 -118h-131l-19 -106h155l-23 -133h-301l101 583h289zM441 714q0 -34 -21.5 -57.5t-53.5 -23.5q-29 0 -46 18.5t-17 44.5q0 32 22 57t53 25q30 0 46.5 -18t16.5 -46zM255 714q0 -35 -21.5 -58t-53.5 -23q-29 0 -45.5 18.5
t-16.5 44.5q0 33 21.5 57.5t53.5 24.5q29 0 45.5 -18t16.5 -46z" />
    <glyph glyph-name="caron.alt" 
d="M325 708l-106 -191h-99l94 191h111z" />
    <glyph glyph-name="amacron.sc" horiz-adv-x="471" 
d="M431 0h-144l-2 97h-135l-39 -97h-153l251 583h195zM287 211l-4 243h-3l-93 -243h100zM478 740l-14 -79h-294l13 79h295z" />
    <glyph glyph-name="ccircumflex.sc" horiz-adv-x="434" 
d="M488 530l-95 -108q-25 36 -67 36q-57 0 -93.5 -71t-36.5 -153q0 -107 77 -107q40 0 72 34l60 -111q-60 -65 -162 -65q-96 0 -148.5 62t-52.5 166q0 156 80.5 270.5t203.5 114.5q109 0 162 -68zM507 627h-104l-52 83l-78 -83h-110l140 144h116z" />
    <glyph glyph-name="g.sc" horiz-adv-x="505" 
d="M493 531l-96 -112q-26 35 -71 35q-43 0 -74.5 -37t-45 -86t-13.5 -99q0 -47 19.5 -77.5t60.5 -30.5q26 0 46 10l17 97h-77l21 123h214l-55 -320q-72 -49 -180 -49q-104 0 -160.5 63t-56.5 167q0 155 80.5 269t205.5 114q117 0 165 -67z" />
    <glyph glyph-name="ecaron.sc" horiz-adv-x="393" 
d="M412 583l-22 -129h-142l-18 -97h130l-19 -118h-131l-19 -106h155l-23 -133h-301l101 583h289zM466 771l-139 -144h-116l-89 144h104l51 -83l79 83h110z" />
    <glyph glyph-name="eogonek.sc" horiz-adv-x="393" 
d="M180 -232q-38 0 -64 20t-26 64q0 76 120 148h-188l101 583h289l-22 -129h-142l-18 -97h130l-19 -118h-131l-19 -106h155l-23 -133h-21q-61 -46 -85.5 -71.5t-24.5 -47.5q0 -28 26 -28q28 0 52 19l19 -64q-51 -40 -109 -40z" />
    <glyph glyph-name="lcommaaccent.sc" horiz-adv-x="379" 
d="M236 -45l-106 -191h-99l94 191h111zM352 136l-24 -136h-306l101 583h153l-79 -447h155z" />
    <glyph glyph-name="ae.sc" horiz-adv-x="625" 
d="M644 583l-22 -129h-142l-18 -97h130l-19 -118h-131l-19 -106h155l-23 -133h-289l17 97h-110l-47 -97h-158l301 583h375zM345 450h-5l-113 -231h78z" />
    <glyph glyph-name="ccaron.sc" horiz-adv-x="434" 
d="M488 530l-95 -108q-25 36 -67 36q-57 0 -93.5 -71t-36.5 -153q0 -107 77 -107q40 0 72 34l60 -111q-60 -65 -162 -65q-96 0 -148.5 62t-52.5 166q0 156 80.5 270.5t203.5 114.5q109 0 162 -68zM532 771l-139 -144h-116l-89 144h104l51 -83l79 83h110z" />
    <glyph glyph-name="v.sc" horiz-adv-x="467" 
d="M536 583l-247 -583h-191l-34 583h160l1 -403h3l145 403h163z" />
    <glyph glyph-name="thorn.sc" horiz-adv-x="455" 
d="M456 342q0 -109 -59.5 -166t-158.5 -57h-49l-20 -119h-147l101 583h144l-14 -81h37q68 0 117 -39.5t49 -120.5zM320 325q0 56 -50 56h-38l-24 -141h36q35 0 55.5 23t20.5 62z" />
    <glyph glyph-name="ring.cap" 
d="M313 871q0 -50 -33 -87t-80 -37q-41 0 -64 24.5t-23 63.5q0 52 31.5 90t76.5 38q44 0 68 -26t24 -66zM268 867q0 23 -12.5 38.5t-35.5 15.5q-29 0 -46 -24.5t-17 -57.5q0 -22 12 -36.5t35 -14.5q27 0 45.5 24t18.5 55z" />
    <glyph glyph-name="e.sc" horiz-adv-x="393" 
d="M412 583l-22 -129h-142l-18 -97h130l-19 -118h-131l-19 -106h155l-23 -133h-301l101 583h289z" />
    <glyph glyph-name="abreve.sc" horiz-adv-x="471" 
d="M431 0h-144l-2 97h-135l-39 -97h-153l251 583h195zM287 211l-4 243h-3l-93 -243h100zM474 768q-33 -139 -167 -139q-58 0 -95 33t-37 106h79q0 -28 19 -42q16 -13 41 -13q67 0 80 55h80z" />
    <glyph glyph-name="adieresis.sc" horiz-adv-x="471" 
d="M431 0h-144l-2 97h-135l-39 -97h-153l251 583h195zM287 211l-4 243h-3l-93 -243h100zM485 714q0 -34 -21.5 -57.5t-53.5 -23.5q-29 0 -46 18.5t-17 44.5q0 32 22 57t53 25q30 0 46.5 -18t16.5 -46zM299 714q0 -35 -21.5 -58t-53.5 -23q-29 0 -45.5 18.5t-16.5 44.5
q0 33 21.5 57.5t53.5 24.5q29 0 45.5 -18t16.5 -46z" />
    <glyph glyph-name="five.sc" horiz-adv-x="480" 
d="M451 583l-23 -125h-175l-21 -89q26 7 46 7q67 0 105.5 -45.5t38.5 -112.5q0 -108 -62.5 -170.5t-154.5 -62.5q-73 0 -122.5 38.5t-59.5 109.5l128 40q5 -28 20 -45t39 -17q32 0 51.5 26t19.5 63q0 35 -19.5 52.5t-53.5 17.5q-59 0 -129 -26l72 339h300z" />
    <glyph glyph-name="ecircumflex.sc" horiz-adv-x="393" 
d="M412 583l-22 -129h-142l-18 -97h130l-19 -118h-131l-19 -106h155l-23 -133h-301l101 583h289zM442 627h-104l-52 83l-78 -83h-110l140 144h116z" />
    <glyph glyph-name="circumflex.cap" 
d="M367 764h-104l-52 83l-78 -83h-110l140 144h116z" />
    <glyph glyph-name="commaaccent" 
d="M153 -45l-106 -191h-99l94 191h111z" />
    <glyph glyph-name="cacute.sc" horiz-adv-x="434" 
d="M488 530l-95 -108q-25 36 -67 36q-57 0 -93.5 -71t-36.5 -153q0 -107 77 -107q40 0 72 34l60 -111q-60 -65 -162 -65q-96 0 -148.5 62t-52.5 166q0 156 80.5 270.5t203.5 114.5q109 0 162 -68zM521 772l-138 -144h-101l112 144h127z" />
    <glyph glyph-name="breve.cap" 
d="M371 905q-33 -139 -167 -139q-58 0 -95 33t-37 106h79q0 -28 17.5 -41.5t42.5 -13.5q67 0 80 55h80z" />
    <glyph glyph-name="edotaccent.sc" horiz-adv-x="393" 
d="M412 583l-22 -129h-142l-18 -97h130l-19 -118h-131l-19 -106h155l-23 -133h-301l101 583h289zM362 726q0 -40 -25.5 -68t-63.5 -28q-34 0 -54 22t-20 52q0 39 25.5 68t62.5 29q36 0 55.5 -21t19.5 -54z" />
    <glyph glyph-name="six.sc" horiz-adv-x="480" 
d="M34 161q0 103 84 222l145 200h173l-155 -203l1 -1q17 5 33 5q54 0 88 -42t34 -109q0 -59 -21 -113t-73.5 -94.5t-127.5 -40.5q-85 0 -133 47.5t-48 128.5zM175 174q0 -67 48 -67q33 0 53.5 36.5t20.5 82.5q0 26 -12 43t-36 17q-31 0 -52.5 -31t-21.5 -81z" />
    <glyph glyph-name="egrave.sc" horiz-adv-x="393" 
d="M412 583l-22 -129h-142l-18 -97h130l-19 -118h-131l-19 -106h155l-23 -133h-301l101 583h289zM339 628h-101l-128 144h126z" />
    <glyph glyph-name="c.sc" horiz-adv-x="434" 
d="M488 530l-95 -108q-25 36 -67 36q-57 0 -93.5 -71t-36.5 -153q0 -107 77 -107q40 0 72 34l60 -111q-60 -65 -162 -65q-96 0 -148.5 62t-52.5 166q0 156 80.5 270.5t203.5 114.5q109 0 162 -68z" />
    <glyph glyph-name="circumflex.sc" 
d="M367 627h-104l-52 83l-78 -83h-110l140 144h116z" />
    <glyph glyph-name="t.sc" horiz-adv-x="370" 
d="M426 583l-22 -128h-106l-80 -455h-149l80 455h-105l22 128h360z" />
    <glyph glyph-name="dieresis.cap" 
d="M372 851q0 -34 -21.5 -57.5t-53.5 -23.5q-29 0 -46 18.5t-17 44.5q0 32 21.5 56.5t53.5 24.5q30 0 46.5 -17.5t16.5 -45.5zM186 851q0 -35 -21.5 -58t-53.5 -23q-29 0 -45.5 18.5t-16.5 44.5q0 32 21.5 56.5t53.5 24.5q29 0 45.5 -17.5t16.5 -45.5z" />
    <glyph glyph-name="sacute.sc" horiz-adv-x="403" 
d="M433 541l-86 -107q-31 34 -74 34q-24 0 -43 -15.5t-19 -45.5q0 -18 12 -30.5t42 -29.5q104 -64 104 -159q0 -99 -62 -151t-149 -52q-112 0 -175 61l85 110q40 -38 88 -38q25 0 43 15t18 42q0 20 -12.5 35.5t-43.5 34.5q-46 27 -72 61.5t-26 91.5q0 86 57.5 143t151.5 57
q109 0 161 -57zM458 772l-138 -144h-101l112 144h127z" />
    <glyph glyph-name="caron.sc" 
d="M393 771l-139 -144h-116l-89 144h104l51 -83l79 83h110z" />
    <glyph glyph-name="d.sc" horiz-adv-x="514" 
d="M502 354q0 -49 -8 -95t-29 -94.5t-53 -84t-85 -58t-120 -22.5h-185l101 583h165q214 0 214 -229zM354 344q0 110 -77 110h-28l-55 -322h29q61 0 96 67.5t35 144.5z" />
    <glyph glyph-name="cdotaccent.sc" horiz-adv-x="434" 
d="M488 530l-95 -108q-25 36 -67 36q-57 0 -93.5 -71t-36.5 -153q0 -107 77 -107q40 0 72 34l60 -111q-60 -65 -162 -65q-96 0 -148.5 62t-52.5 166q0 156 80.5 270.5t203.5 114.5q109 0 162 -68zM431 726q0 -40 -25.5 -68t-63.5 -28q-34 0 -54 22t-20 52q0 39 25.5 68
t62.5 29q36 0 55.5 -21t19.5 -54z" />
    <glyph glyph-name="f.sc" horiz-adv-x="378" 
d="M415 583l-24 -132h-142l-18 -103h130l-20 -126h-130l-39 -222h-150l101 583h292z" />
    <glyph glyph-name="commaaccent.alt" 
d="M126 589l106 191h99l-94 -191h-111z" />
    <glyph glyph-name="tcaron.sc" horiz-adv-x="370" 
d="M426 583l-22 -128h-106l-80 -455h-149l80 455h-105l22 128h360zM449 771l-139 -144h-116l-89 144h104l51 -83l79 83h110z" />
    <glyph glyph-name="gdotaccent.sc" horiz-adv-x="505" 
d="M493 531l-96 -112q-26 35 -71 35q-43 0 -74.5 -37t-45 -86t-13.5 -99q0 -47 19.5 -77.5t60.5 -30.5q26 0 46 10l17 97h-77l21 123h214l-55 -320q-72 -49 -180 -49q-104 0 -160.5 63t-56.5 167q0 155 80.5 269t205.5 114q117 0 165 -67zM427 726q0 -40 -25.5 -68
t-63.5 -28q-34 0 -54 22t-20 52q0 39 25.5 68t62.5 29q36 0 55.5 -21t19.5 -54z" />
    <glyph glyph-name="gcommaaccent.sc" horiz-adv-x="505" 
d="M312 -45l-106 -191h-99l94 191h111zM493 531l-96 -112q-26 35 -71 35q-43 0 -74.5 -37t-45 -86t-13.5 -99q0 -47 19.5 -77.5t60.5 -30.5q26 0 46 10l17 97h-77l21 123h214l-55 -320q-72 -49 -180 -49q-104 0 -160.5 63t-56.5 167q0 155 80.5 269t205.5 114q117 0 165 -67
z" />
    <glyph glyph-name="gcircumflex.sc" horiz-adv-x="505" 
d="M493 531l-96 -112q-26 35 -71 35q-43 0 -74.5 -37t-45 -86t-13.5 -99q0 -47 19.5 -77.5t60.5 -30.5q26 0 46 10l17 97h-77l21 123h214l-55 -320q-72 -49 -180 -49q-104 0 -160.5 63t-56.5 167q0 155 80.5 269t205.5 114q117 0 165 -67zM506 627h-104l-52 83l-78 -83h-110
l140 144h116z" />
    </font>
</defs>
</svg>
